<svg width="224" height="302" viewBox="0 0 224 302" fill="none" xmlns="http://www.w3.org/2000/svg">
<path d="M71.9725 7.75599L160.006 6.23096L161.609 187.405L76.1718 193.2L71.9725 7.75599Z" fill="#00ADEE"/>
<mask id="mask0_7691_28635" style="mask-type:alpha" maskUnits="userSpaceOnUse" x="71" y="6" width="91" height="188">
<path d="M71.9725 7.75599L160.006 6.23096L161.609 187.405L76.1718 193.2L71.9725 7.75599Z" fill="#00ADEE"/>
</mask>
<g mask="url(#mask0_7691_28635)">
<circle cx="76.2994" cy="162.5" r="47.5" fill="white"/>
<circle cx="118.299" cy="134.5" r="36.5" fill="white"/>
<circle cx="98.2994" cy="202.5" r="47.5" fill="white"/>
<circle cx="143.299" cy="202.5" r="47.5" fill="white"/>
<circle cx="156.299" cy="154.5" r="36.5" fill="white"/>
</g>
<g clip-path="url(#clip0_7691_28635)">
<path d="M122.135 76.7919C122.425 85.088 118.693 91.9518 117.777 91.9838C116.557 92.0264 112.66 85.429 112.371 77.1329C112.081 68.8369 114.032 62.0352 116.728 61.9411C119.425 61.8469 121.845 68.4959 122.135 76.7919Z" fill="white"/>
<path d="M115.334 70.3107C114.897 70.4365 114.346 70.4558 113.909 70.5816C112.932 71.0579 112.259 70.7497 111.894 69.7675C111.026 67.0342 110.162 64.4112 109.294 61.6778C108.299 55.3008 108.079 49.0073 110.067 42.7472C110.166 42.4121 110.269 42.1874 110.367 41.8523C110.477 41.8485 110.588 41.8446 110.584 41.7342L110.694 41.7304C111.032 41.9397 111.363 41.9281 111.694 41.9166C115.111 41.7973 118.528 41.6779 121.834 41.5625C123.261 44.4974 123.81 47.5736 124.252 50.764C124.702 54.1753 124.605 57.7162 124.284 61.1544C123.605 63.8312 122.93 66.6185 122.251 69.2953C121.955 70.3006 121.305 70.6549 120.302 70.3583C119.743 70.1567 119.195 70.2864 118.644 70.3056L118.534 70.3095C118.53 70.1991 118.526 70.0887 118.523 69.9783C118.792 68.2001 118.73 66.4335 118.337 64.6784C118.15 62.474 117.53 60.5058 116.563 58.1076C115.55 60.6855 115.186 62.9092 115.156 65.2317C114.884 66.8995 115.276 68.6545 115.334 70.3107ZM116.017 45.6348C113.817 45.8222 112.764 47.296 112.055 49.0896C111.451 50.7688 112.052 52.185 113.307 53.3572C114.786 54.6321 116.467 55.3472 118.53 54.3908C120.582 53.1031 121.607 50.8564 121.1 48.9948C120.256 46.9239 118.218 45.4474 116.017 45.6348Z" fill="#FBAE1D"/>
<path d="M110.808 41.837L110.698 41.8408C110.694 41.7304 110.58 41.6238 110.576 41.5134C110.982 40.5043 111.275 39.3886 111.681 38.3795C112.607 36.4679 113.762 34.7693 115.141 33.1735C115.779 32.4879 116.113 32.5868 116.684 33.1196C118.285 34.7219 119.563 36.5566 120.73 38.3951C121.096 39.3773 121.461 40.3595 121.941 41.4482C118.193 41.5791 114.446 41.7099 110.808 41.837Z" fill="#2E2E2E"/>
<path d="M105.402 76.6275C103.062 72.84 104.548 64.8287 109.298 61.7886C110.166 64.522 111.03 67.145 111.898 69.8783C108.74 71.0941 106.731 73.5963 105.402 76.6275Z" fill="#2E2E2E"/>
<path d="M122.475 69.3985C123.154 66.7217 123.83 63.9344 124.509 61.2575C129.018 63.9743 132.31 72.9243 129.43 75.7885C127.783 72.8612 125.498 70.6195 122.475 69.3985Z" fill="#2E2E2E"/>
<path d="M115.378 65.2243C115.407 62.9017 115.767 60.5677 116.784 58.1001C117.747 60.388 118.371 62.4666 118.559 64.671C118.62 66.4376 118.682 68.2042 118.744 69.9708C118.748 70.0812 118.751 70.1916 118.755 70.302C118.759 70.4124 118.763 70.5229 118.767 70.6333C118.506 72.6322 118.469 74.7339 117.432 76.6495C116.61 75.241 116.229 73.8172 115.959 72.3895C115.822 71.6205 115.799 70.958 115.335 70.3109C115.718 68.6394 115.325 66.8843 115.378 65.2243Z" fill="#2E2E2E"/>
<path d="M110.808 41.8373C114.556 41.7065 118.193 41.5794 121.937 41.3378C122.051 41.4447 122.051 41.4447 122.055 41.5555C118.638 41.6748 115.221 41.7941 111.914 41.9096C111.477 42.0358 111.037 42.0512 110.808 41.8373Z" fill="#F38957"/>
<path d="M110.577 41.5135C110.581 41.6243 110.695 41.7312 110.699 41.8419C110.588 41.8458 110.478 41.8496 110.482 41.9604C110.474 41.7389 110.47 41.6281 110.577 41.5135Z" fill="#F38957"/>
<path d="M118.767 70.6343C118.763 70.5235 118.759 70.4128 118.755 70.302L118.865 70.2982C118.759 70.4128 118.763 70.5235 118.767 70.6343Z" fill="#F38957"/>
<path d="M116.018 45.635C118.218 45.4476 120.366 46.9203 120.991 48.9989C121.607 50.8566 120.472 53.1072 118.42 54.3949C117.219 54.7685 116.425 54.1329 115.733 53.2727C116.284 53.2535 116.835 53.2342 117.382 53.1046C118.803 52.7233 119.737 51.0325 119.467 49.6048C119.078 47.9602 117.725 47.123 115.741 47.1923C116.938 46.7083 115.923 46.0805 116.018 45.635Z" fill="#3DA8D6"/>
<path d="M115.733 53.2726C116.425 54.1328 117.22 54.7684 118.42 54.3948C116.467 55.3474 114.787 54.6322 113.198 53.3611C111.943 52.1889 111.231 50.7767 111.945 49.0935C112.655 47.3 113.703 45.7157 115.908 45.6387C115.817 46.1947 116.828 46.7121 115.741 47.1922C114.103 47.6916 113.252 48.6057 113.2 50.2657C113.25 51.7011 113.946 52.6717 115.733 53.2726Z" fill="#1A7CA9"/>
<path d="M118.74 69.8604C118.678 68.0938 118.616 66.3272 118.555 64.5605C119.057 66.3118 119.119 68.0784 118.74 69.8604Z" fill="#FCAE03"/>
<path d="M115.378 65.2242C115.325 66.8843 115.828 68.6355 115.335 70.3109C115.277 68.6547 114.884 66.8997 115.378 65.2242Z" fill="#FCAE03"/>
<path d="M115.732 53.2725C113.942 52.5612 113.25 51.701 113.306 50.1514C113.358 48.4914 114.099 47.5811 115.847 47.0779C117.831 47.0086 119.185 47.8457 119.573 49.4903C119.848 51.0284 119.02 52.605 117.488 52.9901C116.945 53.2302 116.283 53.2533 115.732 53.2725Z" fill="#FBFDFE"/>
<rect x="115.56" y="81.0117" width="3.05325" height="32.5149" transform="rotate(-2 115.56 81.0117)" fill="white"/>
</g>
<path d="M194.436 165.606C194.436 165.304 194.398 165.002 194.398 164.7C194.285 162.549 193.982 160.398 193.642 158.284C193.528 157.643 193.415 157.001 193.301 156.36C192.885 154.208 192.431 152.057 192.053 149.868C191.561 147.113 191.334 144.282 191.22 141.414C191.183 140.772 191.145 140.093 191.107 139.451C190.918 135.413 190.653 131.337 189.594 127.487C189.215 126.129 188.724 124.77 188.118 123.449C187.059 121.222 185.584 119.298 184.071 117.373C183.995 117.259 183.881 117.146 183.806 117.033C182.217 114.995 180.741 112.919 179.493 110.655C179.455 110.617 179.455 110.579 179.417 110.504C179.077 109.9 178.774 109.258 178.509 108.654C178.434 108.503 178.358 108.353 178.282 108.164C177.904 108.315 177.412 108.239 177.072 107.786C175.332 105.522 174.159 102.842 173.705 100.087C173.667 100.049 173.667 99.9739 173.667 99.9362C173.44 99.1436 173.365 98.351 173.365 97.5585C173.289 96.8791 173.289 96.1998 173.289 95.5204C173.289 95.0298 173.402 94.4259 173.629 94.0108C169.846 93.5956 166.782 95.9733 164.664 99.1059C163.264 101.182 162.28 103.597 161.826 105.748C161.486 107.258 161.297 108.843 161.221 110.391C160.994 115.637 162.167 121.109 164.285 125.789C164.512 126.28 164.739 126.77 165.004 127.223C165.08 127.374 165.193 127.525 165.269 127.676C165.382 127.563 165.761 127.072 166.025 126.733C168.901 130.62 173.327 133.451 178.245 133.526C179.493 133.526 179.493 135.489 178.245 135.489C173.138 135.413 168.484 132.733 165.269 128.884C164.058 141.225 164.02 153.68 165.042 166.021C162.545 168.626 160.616 171.796 159.405 175.193C158.913 175.532 158.459 175.91 158.005 176.249C156.53 177.419 155.168 178.665 153.844 180.023C152.028 181.911 150.402 183.949 149.002 186.138C148.775 186.515 148.51 186.892 148.283 187.232C148.132 187.194 147.943 187.119 147.791 187.081C147.526 186.968 147.299 187.006 147.11 187.119C146.694 187.157 146.278 187.194 145.862 187.194C146.051 187.534 146.278 187.911 146.467 188.251C149.531 193.233 153.958 197.271 159.216 199.838C160.351 200.404 159.367 202.064 158.232 201.536C152.369 198.705 147.489 194.063 144.273 188.44C144.122 188.138 143.933 187.874 143.781 187.572C143.743 187.496 143.706 187.459 143.706 187.383C142.798 187.459 141.928 187.534 141.02 187.572C136.177 187.911 131.335 188.289 126.455 188.591C125.812 188.629 125.169 188.666 124.526 188.742C123.353 188.817 122.18 188.893 121.045 188.968C120.402 189.006 119.759 189.044 119.116 189.081C112.798 189.497 106.481 189.874 100.163 190.251C99.2929 190.289 98.4606 190.365 97.5905 190.402C96.6448 190.44 95.7368 190.516 94.7911 190.553C93.467 190.629 92.1808 190.704 90.8567 190.78C90.7811 193.384 90.2514 195.913 89.2679 198.328C88.8139 199.46 86.9224 198.97 87.3763 197.8C88.2843 195.573 88.8139 193.233 88.8895 190.855C87.4142 190.931 85.9388 191.006 84.4634 191.082C84.1986 191.082 83.9338 191.119 83.669 191.119C81.3992 194.214 78.2971 196.592 74.7032 198.026C73.5305 198.517 73.0387 196.63 74.1736 196.139C76.8217 195.082 79.1672 193.384 81.0587 191.233C81.0209 191.233 80.9452 191.233 80.9074 191.233C80.9074 191.119 80.9074 190.968 80.9074 190.855C80.9074 190.591 80.8695 190.327 80.8317 190.063C78.4862 190.44 76.1029 190.365 73.7196 189.874C72.4712 189.61 73.0008 187.723 74.2492 187.987C76.2921 188.402 78.4106 188.478 80.4534 188.176C81.6261 187.723 82.761 187.27 83.9338 186.817C84.5012 186.59 85.0309 186.364 85.5983 186.1C86.5819 185.647 87.5655 185.194 88.5112 184.666C89.9866 183.835 91.3485 182.892 92.5591 181.684C94.7154 179.608 96.3043 176.853 96.5313 173.834C96.7204 171.003 95.6612 168.022 93.4292 166.248C93.24 166.097 93.0131 166.021 92.8239 166.021C92.6348 166.021 92.4078 166.059 92.2564 166.172C91.8403 166.135 91.4242 166.135 91.0459 166.135C90.9702 166.135 90.9324 166.135 90.8567 166.135C88.9274 166.248 86.998 166.852 85.1822 167.38C82.9124 168.022 80.6426 168.701 78.4484 169.531C78.3349 169.569 78.2214 169.607 78.0701 169.682C77.5405 169.909 77.0108 170.097 76.4812 170.362C75.3463 170.852 74.2114 171.381 73.1143 171.985L68.9152 174.74C67.9694 175.495 67.0615 176.325 66.1914 177.231C66.0779 177.344 65.9644 177.457 65.8509 177.608C63.0515 180.741 61.0086 184.59 60.5547 188.779C60.0629 193.195 61.6518 197.535 64.2242 201.083C66.8345 204.706 70.2014 207.65 73.6439 210.443C78.0701 214.066 82.4962 217.689 86.9224 221.313C95.7747 228.559 104.627 235.805 113.479 243.052C117.754 246.562 122.634 250.524 127.93 252.978C132.432 252.676 136.858 251.619 141.02 249.807C142.155 249.317 143.138 250.977 142.003 251.506C138.182 253.166 134.172 254.261 130.087 254.751C132.281 266.565 135.988 278.038 141.057 288.945C142.192 291.398 143.441 293.814 145.219 295.852C146.883 297.777 149.04 299.173 151.385 300.154C156.379 302.192 162.091 302.23 167.387 301.74C173.402 301.173 179.266 299.739 184.941 297.814C190.048 296.078 195.647 294.305 199.808 290.795C203.78 287.436 205.596 282.378 205.709 277.283C205.861 271.433 203.818 265.847 201.699 260.488C197.16 248.939 193.415 237.126 190.804 225.011C190.54 223.728 190.275 222.483 190.01 221.199C186.454 224.445 182.217 226.974 177.602 228.559C176.391 228.974 175.899 227.087 177.072 226.672C181.876 225.049 186.227 222.294 189.783 218.746C190.691 215.765 191.069 212.594 191.22 209.462C191.447 204.48 191.523 199.574 192.053 194.592C192.582 189.61 193.301 184.666 193.869 179.684C194.02 178.287 194.171 176.929 194.285 175.532C194.474 173.306 194.587 171.079 194.587 168.852C194.512 167.758 194.512 166.663 194.436 165.606ZM83.7825 169.796C85.7875 168.286 88.0951 167.191 90.5163 166.474C90.5919 166.437 90.6297 166.437 90.7054 166.437C91.2729 166.361 91.689 166.852 91.7647 167.418C91.8025 167.833 91.8403 168.21 91.8781 168.626C91.9916 169.833 92.143 171.079 92.2564 172.286C92.3699 173.456 92.6347 174.777 91.5755 175.57C90.6297 176.287 89.1165 176.551 87.9438 176.74C86.5819 176.966 85.1444 177.117 83.7825 176.929C82.6854 176.74 81.5505 176.098 81.21 174.966C81.1343 174.74 81.0965 174.513 81.0965 174.287C80.6804 172.362 82.2693 170.928 83.7825 169.796ZM99.709 212.443C98.8389 214.859 97.5905 217.01 95.9638 218.973C95.1694 219.916 93.7697 218.557 94.6019 217.614C96.0016 215.916 97.0987 214.028 97.8553 211.953C98.2336 210.745 100.125 211.273 99.709 212.443Z" fill="#AA5D43"/>
<path d="M72.3576 121.26C72.9629 120.883 73.5682 120.581 74.2113 120.316C74.8544 120.052 75.5354 119.826 76.2163 119.675C76.1407 118.014 76.065 116.354 76.0272 114.731C75.9893 114.089 75.9893 113.447 75.9515 112.806C75.8002 109.145 75.6489 105.484 75.4975 101.823C75.4597 101.182 75.4597 100.54 75.4219 99.8605C75.1192 92.1613 74.7788 84.4243 74.4761 76.7251C74.06 66.7613 73.6439 56.7976 73.2277 46.7961C73.1899 46.1545 73.1899 45.5129 73.1521 44.8713C73.1142 43.5126 73.0386 42.1916 73.0007 40.833C72.9629 40.1914 72.9629 39.5497 72.9251 38.9081C72.8116 35.6624 72.6603 32.4166 72.5468 29.1709C72.509 27.9254 72.4711 26.6044 72.4711 25.2835C72.3955 22.6039 72.3198 19.8865 72.4711 17.2068C72.4711 17.0181 72.509 16.8294 72.509 16.6784C72.509 16.6407 72.509 16.603 72.509 16.5275C72.509 16.3765 72.5468 16.2633 72.5468 16.1123C72.5468 16.0746 72.5468 16.0368 72.5846 15.9614C72.6224 15.8104 72.6224 15.6972 72.6603 15.5462C72.6603 15.5085 72.6603 15.4707 72.6981 15.433C72.7359 15.282 72.7738 15.1688 72.7738 15.0178C72.7738 14.9801 72.7738 14.9423 72.8116 14.9046C72.8494 14.7536 72.8873 14.6027 72.9251 14.4894C72.9251 14.4517 72.9251 14.4517 72.9629 14.414C73.0007 14.263 73.0764 14.112 73.1142 13.9611C73.1142 13.9611 73.1142 13.9233 73.1521 13.9233C73.2277 13.7724 73.2656 13.6214 73.3412 13.4704C73.3412 13.4704 73.3412 13.4704 73.3412 13.4327C73.4169 13.2817 73.4925 13.1308 73.5682 12.9798C86.3927 12.3004 99.255 11.8475 112.079 11.6211C112.723 11.6211 113.366 11.5834 114.047 11.5834C115.787 11.5456 117.527 11.5456 119.267 11.5079C119.91 11.5079 120.553 11.5079 121.234 11.5079C126.644 11.4701 132.054 11.4701 137.464 11.5456C143.63 11.6211 149.758 11.7343 155.887 11.8853C155.887 11.923 155.925 11.923 155.925 11.9608C156 12.074 156.038 12.1872 156.076 12.3004C156.076 12.3004 156.076 12.3382 156.114 12.3382C156.227 12.6024 156.341 12.9043 156.417 13.1685V13.2062C156.454 13.3572 156.492 13.5082 156.53 13.6214C156.568 13.7724 156.606 13.9233 156.643 14.0743V14.112C156.681 14.263 156.719 14.414 156.719 14.5649V14.6027C156.757 14.9046 156.795 15.2065 156.833 15.5085V15.5462C156.87 15.8481 156.87 16.1501 156.908 16.452V16.4897C156.908 16.6407 156.908 16.7917 156.946 16.9426C156.946 17.0936 156.946 17.2446 156.946 17.3955V17.4333C156.946 17.5842 156.946 17.7352 156.946 17.8862V17.9239C156.946 18.0749 156.946 18.1881 156.946 18.3391C156.946 18.3391 156.946 18.3391 156.946 18.3768C156.946 18.5278 156.946 18.7165 156.946 18.8675C156.946 19.0184 156.946 19.1694 156.946 19.3203C156.984 27.3215 157.06 35.285 157.097 43.2861C157.135 47.4754 157.135 51.7025 157.173 55.8918C157.173 56.5334 157.173 57.175 157.173 57.8543C157.173 60.232 157.211 62.6098 157.211 64.9875C157.211 65.6291 157.211 66.2707 157.211 66.95C157.249 74.9889 157.324 82.9901 157.362 91.0291C157.362 91.5952 157.362 92.1613 157.362 92.7274C157.362 93.369 157.362 94.0106 157.362 94.69C157.362 96.9545 157.4 99.1812 157.4 101.446C157.4 102.087 157.4 102.729 157.4 103.408C157.438 111.825 157.514 120.203 157.551 128.62C157.551 129.261 157.551 129.903 157.551 130.582C157.551 132.318 157.589 134.017 157.589 135.753C157.589 136.394 157.589 137.036 157.589 137.715C157.589 138.13 157.589 138.583 157.589 138.998C157.627 146.962 157.703 154.925 157.741 162.889C157.741 163.644 157.741 164.398 157.778 165.153C157.778 166.172 157.816 167.229 157.816 168.248C157.816 168.588 157.816 168.927 157.816 169.267C157.816 169.644 157.816 170.06 157.816 170.437C157.816 170.777 157.816 171.116 157.816 171.456C157.816 171.833 157.816 172.211 157.816 172.588C157.816 172.701 157.816 172.777 157.816 172.89C157.665 173.381 157.476 173.834 157.249 174.324C156.152 176.664 154.298 177.91 151.915 178.74C149.607 179.57 147.299 180.363 145.143 181.533C144.122 182.099 143.1 182.741 142.154 183.458C141.284 184.099 140.49 184.854 140.339 185.986C140.263 186.59 140.414 187.194 140.793 187.685C141.701 187.609 142.571 187.572 143.479 187.496C143.516 187.572 143.516 187.609 143.554 187.685C143.706 187.987 143.857 188.289 144.046 188.553C147.262 194.214 152.142 198.819 158.005 201.649C159.14 202.178 160.124 200.517 158.989 199.951C153.693 197.384 149.267 193.346 146.24 188.364C146.013 188.025 145.824 187.647 145.635 187.307C146.051 187.27 146.467 187.232 146.883 187.232C147.072 187.119 147.299 187.119 147.564 187.194C147.716 187.27 147.905 187.307 148.056 187.345C148.283 186.968 148.51 186.59 148.775 186.251C150.212 184.062 151.839 182.024 153.617 180.137C154.903 178.778 156.303 177.532 157.778 176.362C158.232 175.985 158.724 175.645 159.178 175.306C160.389 171.909 162.318 168.739 164.815 166.134C163.756 153.793 163.831 141.338 165.042 128.997C168.295 132.847 172.91 135.526 178.018 135.602C179.266 135.602 179.266 133.677 178.018 133.639C173.1 133.564 168.674 130.733 165.798 126.846C165.534 127.185 165.155 127.676 165.042 127.789C164.966 127.638 164.853 127.487 164.777 127.336C164.512 126.883 164.285 126.393 164.058 125.902C161.94 121.222 160.767 115.75 160.994 110.504C161.07 108.918 161.259 107.371 161.599 105.861C162.091 103.71 163.037 101.295 164.437 99.2189L164.361 95.6335H164.474L162.432 11.5456C162.432 11.5456 162.545 0.562861 150.25 0.147705L119.645 0.562861H118.889L109.81 0.713826V0.751568L79.0536 1.43091C66.7587 2.33671 67.4019 13.3195 67.4019 13.3195L69.1421 92.501L69.7852 123.185L72.3576 121.26Z" fill="black"/>
<path d="M177.526 228.521C182.141 226.936 186.378 224.445 189.934 221.162C189.897 220.935 189.821 220.671 189.783 220.444C189.707 220.143 189.556 219.916 189.329 219.841C189.443 219.463 189.594 219.086 189.707 218.746C186.151 222.294 181.801 225.049 176.996 226.672C175.824 227.049 176.353 228.936 177.526 228.521Z" fill="black"/>
<path d="M140.868 249.883C136.707 251.694 132.281 252.751 127.779 253.053C128.498 253.392 129.254 253.694 130.011 253.959C129.897 254.147 129.86 254.374 129.897 254.638C129.897 254.676 129.935 254.751 129.935 254.789C134.021 254.298 138.031 253.204 141.852 251.543C143.025 251.09 142.003 249.392 140.868 249.883Z" fill="black"/>
<path d="M97.8175 211.915C97.0609 213.991 95.9639 215.915 94.5641 217.576C93.7697 218.52 95.1316 219.916 95.926 218.935C97.5527 216.972 98.839 214.821 99.6712 212.405C100.125 211.273 98.2337 210.745 97.8175 211.915Z" fill="black"/>
<path d="M173.289 97.5583C173.289 98.3509 173.365 99.1435 173.592 99.936C173.592 99.9738 173.63 100.049 173.63 100.087C174.121 102.88 175.256 105.56 176.996 107.786C177.337 108.239 177.829 108.315 178.207 108.164C178.585 108.013 178.85 107.598 178.774 107.031C178.094 102.729 177.11 98.5019 175.862 94.3126C175.824 94.1616 175.748 94.0484 175.635 93.9352C175.445 93.671 175.143 93.4823 174.727 93.4445C174.159 93.4068 173.819 93.6332 173.592 94.0106C173.327 94.4258 173.251 95.0297 173.251 95.5203C173.213 96.1996 173.251 96.879 173.289 97.5583Z" fill="#FFB4A8"/>
<path d="M81.1723 174.928C81.5128 176.06 82.6477 176.702 83.7448 176.891C85.1067 177.117 86.5442 176.928 87.9061 176.702C89.041 176.513 90.5542 176.249 91.5378 175.532C92.6349 174.702 92.3323 173.418 92.2188 172.248C92.1053 171.041 91.954 169.795 91.8405 168.588C91.8026 168.172 91.7648 167.795 91.727 167.38C91.6891 166.851 91.2352 166.361 90.6677 166.399C90.5921 166.399 90.5542 166.399 90.4786 166.436C88.0574 167.153 85.7876 168.286 83.7448 169.758C82.2316 170.89 80.6805 172.324 81.0588 174.249C81.0967 174.475 81.0967 174.702 81.1723 174.928Z" fill="#FFB4A8"/>
<path d="M72.0931 131.676C72.9253 131.299 73.8333 130.959 74.6277 130.469C74.7412 130.393 74.8547 130.318 74.9682 130.242C75.7248 129.638 75.9139 128.884 75.8383 127.94C75.7626 126.43 75.9139 124.996 76.3679 123.6C76.6327 122.845 76.9353 122.128 77.3893 121.411C77.8054 120.694 77.0867 119.712 76.2922 119.977C76.2544 119.977 76.2544 119.977 76.2166 120.014C75.6113 120.203 74.9303 120.467 74.2116 120.807C72.4335 121.6 70.542 122.807 69.2936 124.279C69.2558 124.279 69.1801 124.317 69.1423 124.355C69.1423 124.392 69.1423 124.43 69.1045 124.468C67.4778 127.034 67.5534 130.167 69.2558 132.62C70.2016 132.846 71.2986 132.054 72.0931 131.676Z" fill="#FFB4A8"/>
<path d="M99.0281 186.402C98.9903 186.364 98.9902 186.326 98.9524 186.326C98.4985 185.76 97.9688 185.383 97.4014 185.081C95.2829 184.024 92.5591 184.552 90.138 184.741C89.5327 184.779 88.9652 184.816 88.3978 184.741C87.452 185.269 86.4684 185.76 85.4848 186.175C84.9174 186.402 84.3878 186.666 83.8203 186.892C82.6854 187.345 81.5127 187.798 80.3399 188.251C78.2971 188.553 76.1786 188.477 74.1357 188.062C72.9252 187.798 72.3956 189.685 73.6061 189.949C75.9894 190.44 78.3727 190.515 80.7182 190.138C80.7561 190.402 80.7939 190.666 80.7939 190.931C80.9452 190.968 81.0587 190.968 81.21 191.006C81.1344 191.119 81.0209 191.195 80.9452 191.308C79.0537 193.421 76.7082 195.12 74.0601 196.214C72.9252 196.667 73.417 198.554 74.5897 198.101C78.1836 196.63 81.2478 194.29 83.5555 191.195C83.5555 191.195 83.5555 191.157 83.5933 191.157H84.3878C85.8631 191.082 87.3385 191.006 88.8139 190.931C88.7382 193.308 88.2086 195.648 87.3007 197.875C86.8089 199.045 88.7004 199.536 89.1922 198.403C90.1758 195.988 90.7054 193.422 90.7811 190.855C92.1051 190.78 93.3914 190.704 94.7154 190.629C95.6612 190.591 96.5691 190.515 97.5149 190.478C98.385 190.44 99.2172 190.364 100.087 190.327C100.428 189.006 99.936 187.534 99.0281 186.402Z" fill="black"/>
<path d="M76.2921 170.437C76.8217 170.211 77.3513 169.984 77.881 169.758C77.9945 169.72 78.108 169.682 78.2593 169.607C78.0701 166.474 77.9945 163.342 77.881 160.209L77.3892 148.245C77.3135 145.981 77.2 143.678 77.1244 141.414C76.5191 141.904 75.9138 142.357 75.2707 142.81L75.1572 143.112C75.1194 143.225 75.0815 143.339 75.0437 143.452C73.5683 144.433 71.9794 145.263 70.2771 145.83C69.1043 146.245 69.5961 148.132 70.8067 147.717C71.9416 147.301 73.0387 146.849 74.0979 146.282C74.0601 146.396 74.0223 146.509 73.9845 146.622C73.5683 147.868 72.963 149.226 72.8117 150.547C72.7739 150.736 72.7739 150.925 72.7739 151.076C71.2607 151.981 69.634 152.661 67.8938 153.151C66.6832 153.491 67.2128 155.378 68.4234 155.038C69.7475 154.661 71.0337 154.17 72.2821 153.529C72.2443 153.68 72.1686 153.793 72.0929 153.944C72.0173 154.095 71.9416 154.246 71.866 154.359C72.0173 154.548 72.0929 154.737 72.1308 154.963C72.6982 160.209 72.963 165.455 72.963 170.739C72.1686 171.154 71.3742 171.569 70.5797 172.022C69.634 172.551 68.6882 173.079 67.7425 173.683C68.0829 174.06 68.4234 174.4 68.8017 174.739L73.0009 171.984C74.0601 171.494 75.1572 170.928 76.2921 170.437Z" fill="black"/>
<path d="M103.333 138.412L97.6615 138.512L97.5649 132.952L92.3971 133.043L92.4938 138.602L86.7891 138.702L86.8746 143.621L92.5793 143.521L92.6759 149.081L97.8437 148.99L97.7471 143.431L103.418 143.331L103.333 138.412Z" fill="#0076A3"/>
<path d="M128.387 142.422L124.897 142.483L124.828 138.474L118.553 138.584L118.622 142.593L113.857 142.677L123.181 128.728L116.302 128.849L106.021 143.758L106.097 148.104L118.513 147.887L118.591 152.401L125.068 152.288L124.989 147.773L128.479 147.712L128.387 142.422Z" fill="#0076A3"/>
<path d="M137.678 128.003C132.577 128.092 128.538 131.297 128.623 136.216C128.702 140.731 132.41 143.599 136.84 143.521C139.055 143.482 140.789 142.845 142.079 141.71C141.772 145.288 139.59 147.214 136.267 147.272C134.757 147.298 133.276 147.055 131.918 146.135L129.585 150.962C131.315 152.044 133.876 152.605 136.494 152.56C143.943 152.429 148.929 147.657 148.786 139.436C148.653 131.787 144.289 127.887 137.678 128.003ZM138.334 138.709C136.421 138.742 135.093 137.62 135.061 135.8C135.029 133.947 136.318 132.779 138.197 132.746C140.21 132.71 141.506 133.901 141.537 135.653C141.568 137.439 140.247 138.675 138.334 138.709Z" fill="#0076A3"/>
<path d="M100.428 157.584C101.165 157.571 101.805 157.683 102.348 157.92C102.899 158.157 103.325 158.5 103.626 158.948C103.927 159.396 104.083 159.931 104.094 160.551C104.104 161.164 103.967 161.704 103.682 162.17C103.397 162.629 102.983 162.986 102.44 163.242C101.906 163.49 101.27 163.621 100.533 163.634L98.8574 163.663L98.8974 165.966L96.9721 166L96.8269 157.647L100.428 157.584ZM100.399 162.061C100.977 162.05 101.415 161.919 101.712 161.667C102.008 161.408 102.153 161.047 102.145 160.586C102.136 160.116 101.98 159.761 101.674 159.52C101.369 159.27 100.927 159.151 100.348 159.161L98.7796 159.188L98.83 162.088L100.399 162.061Z" fill="#0076A3"/>
<path d="M109.589 165.922C108.726 165.937 107.942 165.764 107.238 165.402C106.542 165.04 105.991 164.537 105.583 163.891C105.184 163.238 104.977 162.502 104.962 161.682C104.948 160.863 105.129 160.123 105.506 159.464C105.891 158.797 106.425 158.27 107.108 157.884C107.798 157.498 108.576 157.298 109.439 157.283C110.303 157.267 111.082 157.441 111.778 157.803C112.474 158.164 113.026 158.672 113.433 159.325C113.841 159.971 114.052 160.703 114.066 161.523C114.08 162.342 113.895 163.085 113.51 163.753C113.126 164.412 112.592 164.934 111.909 165.32C111.226 165.706 110.453 165.907 109.589 165.922ZM109.561 164.275C110.052 164.267 110.494 164.148 110.886 163.918C111.278 163.68 111.582 163.357 111.796 162.947C112.019 162.537 112.126 162.074 112.117 161.557C112.108 161.04 111.985 160.58 111.748 160.179C111.519 159.777 111.205 159.468 110.805 159.252C110.405 159.028 109.959 158.921 109.468 158.929C108.977 158.938 108.535 159.061 108.143 159.299C107.75 159.528 107.443 159.848 107.22 160.258C107.005 160.667 106.902 161.131 106.911 161.648C106.92 162.165 107.039 162.625 107.268 163.026C107.505 163.428 107.824 163.741 108.224 163.965C108.624 164.18 109.069 164.284 109.561 164.275Z" fill="#0076A3"/>
<path d="M115.322 157.323L117.247 157.289L117.392 165.642L115.467 165.676L115.322 157.323Z" fill="#0076A3"/>
<path d="M126.732 157.123L126.878 165.476L125.297 165.504L121.061 160.505L121.149 165.576L119.248 165.61L119.102 157.256L120.695 157.229L124.919 162.228L124.831 157.156L126.732 157.123Z" fill="#0076A3"/>
<path d="M130.333 158.635L127.67 158.682L127.643 157.107L134.893 156.98L134.92 158.555L132.258 158.602L132.376 165.38L130.45 165.413L130.333 158.635Z" fill="#0076A3"/>
<path d="M138.633 165.413C137.975 165.425 137.336 165.348 136.715 165.184C136.102 165.012 135.606 164.786 135.229 164.506L135.857 163.039C136.219 163.295 136.646 163.498 137.14 163.649C137.634 163.799 138.127 163.87 138.618 163.862C139.165 163.852 139.567 163.765 139.826 163.602C140.085 163.43 140.212 163.209 140.207 162.938C140.203 162.74 140.121 162.578 139.961 162.453C139.808 162.321 139.608 162.217 139.361 162.142C139.122 162.066 138.795 161.984 138.382 161.896C137.745 161.756 137.224 161.614 136.817 161.47C136.41 161.326 136.057 161.089 135.758 160.76C135.467 160.431 135.317 159.988 135.307 159.431C135.299 158.946 135.422 158.506 135.677 158.112C135.931 157.71 136.318 157.388 136.837 157.149C137.364 156.909 138.007 156.782 138.768 156.769C139.299 156.759 139.819 156.814 140.328 156.932C140.838 157.051 141.284 157.226 141.669 157.458L141.1 158.936C140.324 158.512 139.552 158.307 138.783 158.32C138.244 158.329 137.846 158.424 137.587 158.604C137.337 158.783 137.214 159.016 137.219 159.302C137.224 159.589 137.374 159.801 137.67 159.939C137.973 160.069 138.431 160.196 139.044 160.321C139.68 160.461 140.202 160.603 140.609 160.747C141.015 160.891 141.364 161.124 141.655 161.445C141.954 161.766 142.108 162.205 142.118 162.762C142.126 163.239 141.999 163.679 141.737 164.081C141.482 164.476 141.091 164.793 140.564 165.033C140.037 165.273 139.394 165.4 138.633 165.413Z" fill="#0076A3"/>
<path d="M72.9631 170.814C72.9631 165.53 72.6604 160.284 72.1308 155.038C72.093 154.812 72.0173 154.585 71.866 154.435C71.9417 154.284 72.0173 154.133 72.093 154.019C72.1686 153.868 72.2065 153.755 72.2821 153.604C71.0337 154.208 69.7475 154.699 68.4235 155.114C67.2129 155.454 66.6833 153.566 67.8938 153.227C69.5962 152.736 71.2229 152.019 72.7739 151.151C72.7739 150.962 72.8118 150.811 72.8118 150.623C72.9631 149.302 73.5684 147.981 73.9845 146.698C74.0223 146.584 74.0602 146.471 74.098 146.358C73.0387 146.924 71.9417 147.415 70.8068 147.792C69.634 148.207 69.1044 146.32 70.2771 145.905C71.9795 145.301 73.5684 144.509 75.0438 143.527C75.0816 143.414 75.1194 143.301 75.1572 143.188L75.2707 142.886C75.9138 142.433 76.5191 141.98 77.1244 141.489C77.7297 140.999 78.335 140.47 78.9403 139.904C81.3236 137.64 83.5934 134.884 84.9174 131.827C86.1658 128.884 86.3928 125.487 84.3878 122.845C82.6476 120.543 79.8104 119.222 76.9353 119.599C76.7083 119.637 76.4813 119.675 76.2543 119.712C75.5734 119.863 74.8924 120.09 74.2493 120.354C73.6062 120.618 73.0009 120.958 72.3956 121.298L69.7853 123.26L69.1422 92.5763C67.8938 90.1609 66.1915 87.9341 64.073 86.0471C61.9923 84.1977 59.2685 82.4994 56.3934 82.839C53.7075 83.141 51.816 85.33 51.2863 87.8964C50.6811 90.9157 51.8916 93.8218 53.2535 96.4637C54.7289 99.3698 56.3934 102.2 58.0201 105.031C61.6897 111.409 65.3592 117.825 67.4777 124.921C67.1372 125.185 66.7968 125.487 66.4941 125.751C65.7375 126.393 65.0187 127.072 64.3 127.789C62.9002 129.185 61.614 130.733 60.6682 132.469C56.9609 139.074 57.2635 147.15 58.1714 154.435C58.6632 158.397 60.4413 161.87 62.2571 165.417C63.7703 168.399 65.5105 171.305 67.7803 173.796C68.7261 173.23 69.6718 172.664 70.6176 172.135C71.3364 171.682 72.1686 171.229 72.9631 170.814ZM69.1044 124.43C69.1422 124.392 69.1422 124.355 69.1422 124.317C69.1801 124.279 69.2557 124.279 69.2935 124.241C70.5419 122.769 72.4335 121.599 74.2115 120.769C74.9303 120.467 75.5734 120.203 76.2165 119.977C76.2543 119.977 76.2543 119.977 76.2921 119.939C77.1244 119.675 77.8054 120.656 77.3892 121.373C76.9731 122.09 76.6326 122.807 76.3678 123.562C75.9138 124.958 75.7625 126.393 75.8382 127.902C75.9138 128.846 75.7247 129.601 74.9681 130.205C74.8546 130.28 74.7411 130.355 74.6276 130.431C73.871 130.922 72.9253 131.261 72.093 131.639C71.2986 132.016 70.2015 132.809 69.2557 132.544C67.5534 130.167 67.5155 126.996 69.1044 124.43Z" fill="#AA5D43"/>
<path d="M31.9576 59.1985C33.6585 61.1119 36.6471 58.5025 34.9462 56.589L15.7456 35.0268C14.0448 33.1134 11.0568 35.7314 12.7577 37.6449L31.9576 59.1985Z" fill="#FCAE03"/>
<path d="M33.6065 105.213L2.01608 108.729C-0.513654 109.014 0.410777 112.884 2.9248 112.605L34.5122 109.081C37.042 108.796 36.1175 104.926 33.6065 105.213Z" fill="#2E2E2E"/>
<path d="M45.3948 138.233L16.089 159.416C14.0078 160.886 16.4918 164.033 18.5637 162.53L47.8695 141.347C49.9414 139.844 47.469 136.738 45.3948 138.233Z" fill="white"/>
<path d="M191.28 57.4523C189.366 59.1532 191.976 62.1418 193.889 60.4409L215.452 41.2404C217.365 39.5395 214.747 36.5515 212.834 38.2524L191.28 57.4523Z" fill="#0076A3"/>
<path d="M221.709 95.6797L198.46 96.1604C196.598 96.2017 197.143 99.2869 198.993 99.2492L222.24 98.7623C224.102 98.7211 223.557 95.6357 221.709 95.6797Z" fill="#2E2E2E"/>
<path d="M217.616 149.01L187.687 128.717C185.594 127.264 183.486 130.674 185.607 132.107L215.536 152.401C217.656 153.834 219.73 150.448 217.616 149.01Z" fill="#00ADEE"/>
<defs>
<clipPath id="clip0_7691_28635">
<rect width="32.9751" height="88.956" fill="white" transform="translate(102.606 24.9888) rotate(-2)"/>
</clipPath>
</defs>
</svg>
