<svg width="130" height="96" viewBox="0 0 130 96" fill="none" xmlns="http://www.w3.org/2000/svg">
<circle cx="29.9342" cy="29.9342" r="29.9342" fill="white"/>
<circle cx="87.2368" cy="53.0263" r="42.7632" fill="#009DE0"/>
<path d="M32.4579 31.1784C34.6659 31.5384 36.3579 32.3664 37.5339 33.6624C38.7099 34.9344 39.2979 36.5184 39.2979 38.4144C39.2979 39.8784 38.9139 41.2344 38.1459 42.4824C37.3779 43.7064 36.2019 44.6904 34.6179 45.4344C33.0579 46.1784 31.1379 46.5504 28.8579 46.5504C27.0819 46.5504 25.3299 46.3224 23.6019 45.8664C21.8979 45.3864 20.4459 44.7144 19.2459 43.8504L21.5139 39.3864C22.4739 40.1064 23.5779 40.6704 24.8259 41.0784C26.0979 41.4624 27.3939 41.6544 28.7139 41.6544C30.1779 41.6544 31.3299 41.3784 32.1699 40.8264C33.0099 40.2504 33.4299 39.4464 33.4299 38.4144C33.4299 36.3504 31.8579 35.3184 28.7139 35.3184H26.0499V31.4664L31.2339 25.5984H20.5059V20.9184H38.1459V24.6984L32.4579 31.1784Z" fill="#009DE0"/>
<rect opacity="0.01" x="64.1447" y="29.9342" width="46.1842" height="46.1842" fill="white"/>
<path fill-rule="evenodd" clip-rule="evenodd" d="M105.826 49.8897C105.891 49.776 105.936 49.6525 105.961 49.5241L107.404 41.8267C107.528 41.1392 107.275 40.4379 106.742 39.987C106.208 39.5361 105.475 39.404 104.817 39.6406C104.16 39.8772 103.679 40.4465 103.555 41.134L102.843 44.9826C99.5747 39.0137 93.1801 35.4402 86.3835 35.7845C79.587 36.1289 73.5862 40.3304 70.9377 46.5991C70.5413 47.5822 71.0145 48.7007 71.9961 49.1007C72.4705 49.2972 73.0037 49.2958 73.4771 49.0971C73.9506 48.8983 74.3249 48.5186 74.517 48.0423C76.6382 42.8304 81.7453 39.4588 87.3716 39.556C92.32 39.5329 96.9018 42.1616 99.3794 46.4451L96.2043 45.9256C95.5168 45.8156 94.8228 46.0807 94.3838 46.6211C93.9448 47.1615 93.8274 47.895 94.0759 48.5454C94.3244 49.1958 94.901 49.6643 95.5885 49.7743L103.767 51.1405H104.075C104.298 51.1432 104.52 51.1041 104.729 51.0251C104.8 50.9983 104.865 50.9592 104.922 50.9096C105.06 50.8583 105.189 50.787 105.306 50.6979L105.46 50.5055C105.56 50.4121 105.65 50.3089 105.73 50.1976C105.777 50.1002 105.809 49.9965 105.826 49.8897Z" fill="white"/>
<path fill-rule="evenodd" clip-rule="evenodd" d="M102.401 57.0096C101.924 56.8142 101.388 56.8183 100.915 57.0208C100.441 57.2234 100.068 57.6075 99.8797 58.0872C97.7444 63.2424 92.6815 66.5745 87.1021 66.4966C82.1537 66.5197 77.5718 63.891 75.0942 59.6074L78.2694 60.127H78.5773C79.64 60.212 80.5705 59.4194 80.6556 58.3566C80.7406 57.2938 79.9479 56.3634 78.8852 56.2783L70.7067 54.9505C70.4968 54.9118 70.2816 54.9118 70.0717 54.9505H69.9177C69.6999 55.0085 69.4923 55.0993 69.3019 55.2199C69.1722 55.3202 69.0558 55.4366 68.9555 55.5663L68.7824 55.7588C68.7229 55.8748 68.6776 55.9975 68.6477 56.1244C68.5802 56.2227 68.5343 56.3342 68.513 56.4515L67.0697 64.1489C66.9448 64.6658 67.0393 65.2114 67.331 65.6562C67.6226 66.1009 68.0853 66.4051 68.6092 66.4966H68.9555C69.8966 66.5119 70.7106 65.8444 70.8799 64.9186L71.5919 61.0699C74.857 67.0403 81.2492 70.6172 88.0456 70.277C94.8419 69.9367 100.845 65.7393 103.497 59.4727C103.864 58.49 103.376 57.3944 102.401 57.0096Z" fill="white"/>
</svg>
