<svg width="130" height="96" viewBox="0 0 130 96" fill="none" xmlns="http://www.w3.org/2000/svg">
<circle cx="29.9342" cy="29.9342" r="29.9342" fill="white"/>
<circle cx="87.2368" cy="53.0263" r="42.7632" fill="#009DE0"/>
<path d="M34.437 20.9184V46.1184H28.605V25.5984H23.565V20.9184H34.437Z" fill="#009DE0"/>
<path d="M85.0985 39.5559V62.3882L76.7084 55.3971C75.8925 54.7159 74.6782 54.8275 73.9989 55.6434C73.3177 56.4613 73.4293 57.6736 74.2452 58.3548L85.7913 67.9765C85.8817 68.0516 85.9876 68.0881 86.0876 68.144C86.1684 68.1901 86.2377 68.2459 86.3262 68.2806C86.5475 68.3672 86.7804 68.4191 87.0152 68.4191C87.0171 68.4191 87.0209 68.4211 87.0229 68.4211C87.0248 68.4211 87.0286 68.4191 87.0306 68.4191C87.2653 68.4191 87.4982 68.3672 87.7195 68.2806C87.808 68.2459 87.8773 68.1901 87.9581 68.144C88.0582 68.0881 88.164 68.0516 88.2544 67.9765L99.8005 58.3548C100.257 57.9719 100.493 57.4254 100.493 56.875C100.493 56.4401 100.347 56.0033 100.047 55.6434C99.3675 54.8275 98.1533 54.7159 97.3373 55.3971L88.9472 62.3882V39.5559C88.9472 38.4937 88.0851 37.6316 87.0229 37.6316C85.9606 37.6316 85.0985 38.4937 85.0985 39.5559Z" fill="white"/>
</svg>
