<svg width="130" height="96" viewBox="0 0 130 96" fill="none" xmlns="http://www.w3.org/2000/svg">
<circle cx="29.9342" cy="29.9342" r="29.9342" fill="white"/>
<circle cx="87.2368" cy="53.0263" r="42.7632" fill="#009DE0"/>
<path d="M39.549 41.3664V46.1184H20.505V42.3384L30.225 33.1584C31.257 32.1744 31.953 31.3344 32.313 30.6384C32.673 29.9184 32.853 29.2104 32.853 28.5144C32.853 27.5064 32.505 26.7384 31.809 26.2104C31.137 25.6584 30.141 25.3824 28.821 25.3824C27.717 25.3824 26.721 25.5984 25.833 26.0304C24.945 26.4384 24.201 27.0624 23.601 27.9024L19.353 25.1664C20.337 23.7024 21.693 22.5624 23.421 21.7464C25.149 20.9064 27.129 20.4864 29.361 20.4864C31.233 20.4864 32.865 20.7984 34.257 21.4224C35.673 22.0224 36.765 22.8864 37.533 24.0144C38.325 25.1184 38.721 26.4264 38.721 27.9384C38.721 29.3064 38.433 30.5904 37.857 31.7904C37.281 32.9904 36.165 34.3584 34.509 35.8944L28.713 41.3664H39.549Z" fill="#009DE0"/>
<rect opacity="0.01" width="46.1842" height="46.1842" transform="matrix(-1 0 0 1 110.329 29.9342)" fill="white"/>
<path fill-rule="evenodd" clip-rule="evenodd" d="M84.7544 47.8113L92.4518 55.5087C92.8161 55.87 93.021 56.3618 93.021 56.8749C93.021 57.388 92.8161 57.8799 92.4518 58.2412C92.0905 58.6055 91.5986 58.8104 91.0855 58.8104C90.5724 58.8104 90.0806 58.6055 89.7192 58.2412L82.0219 50.5439C81.2673 49.7893 81.2673 48.5659 82.0219 47.8113C82.7765 47.0567 83.9999 47.0567 84.7544 47.8113Z" fill="white"/>
<path fill-rule="evenodd" clip-rule="evenodd" d="M86.698 63.4177L89.1612 65.8616C92.0239 68.8114 96.6448 69.1427 99.899 66.6313C101.579 65.2469 102.594 63.2158 102.693 61.041C102.792 58.8663 101.966 56.7513 100.419 55.22L97.686 52.4682C97.3217 52.1068 97.1168 51.615 97.1168 51.1019C97.1168 50.5888 97.3217 50.0969 97.686 49.7356C98.0473 49.3713 98.5392 49.1664 99.0523 49.1664C99.5654 49.1664 100.057 49.3713 100.419 49.7356L102.862 52.1988C107.12 56.322 107.671 62.9592 104.152 67.7282C102.109 70.3789 99.025 72.0239 95.6855 72.2448C92.346 72.4658 89.0726 71.2412 86.698 68.8828L83.9655 66.1502C83.2109 65.3957 83.2109 64.1722 83.9655 63.4177C84.72 62.6631 85.9434 62.6631 86.698 63.4177Z" fill="white"/>
<path fill-rule="evenodd" clip-rule="evenodd" d="M72.4964 36.1306C77.2993 32.5736 83.996 33.1337 88.1413 37.4392L90.2196 39.556C90.7 39.9052 91.0098 40.4417 91.0721 41.0323C91.1345 41.6229 90.9436 42.2123 90.5467 42.6542C90.1854 43.0185 89.6935 43.2234 89.1804 43.2234C88.6673 43.2234 88.1755 43.0185 87.8141 42.6542L85.3125 40.1333C82.4642 37.1691 77.8365 36.8367 74.5939 39.3635C72.9011 40.7483 71.8773 42.7877 71.7782 44.9725C71.6791 47.1572 72.5139 49.281 74.0743 50.8134L76.8069 53.5652C77.1712 53.9265 77.3761 54.4184 77.3761 54.9315C77.3761 55.4446 77.1712 55.9364 76.8069 56.2977C76.4456 56.662 75.9537 56.867 75.4406 56.867C74.9275 56.867 74.4357 56.662 74.0743 56.2977L71.3418 53.5652C68.99 51.1911 67.7698 47.9221 67.9906 44.5877C68.2114 41.2533 69.8521 38.1739 72.4964 36.1306Z" fill="white"/>
</svg>
