<?xml version="1.0" encoding="UTF-8"?>
<svg width="40px" height="33px" viewBox="0 0 40 33" version="1.1" xmlns="http://www.w3.org/2000/svg" xmlns:xlink="http://www.w3.org/1999/xlink">
    <!-- Generator: Sketch 50.2 (55047) - http://www.bohemiancoding.com/sketch -->
    <title>Shape</title>
    <desc>Created with Sketch.</desc>
    <defs></defs>
    <g id="Page-1" stroke="none" stroke-width="1" fill="none" fill-rule="evenodd">
        <g id="Homepage-v1" transform="translate(-16.000000, -2516.000000)" fill="#888888" fill-rule="nonzero">
            <g id="Footer" transform="translate(0.000000, 2126.000000)">
                <g id="Social-Media-logos" transform="translate(16.000000, 384.000000)">
                    <g id="Twitter_Logo_Blue" transform="translate(0.000000, 6.000000)">
                        <path d="M12.5792,32.5023505 C27.6736,32.5023505 35.9296,19.9967505 35.9296,9.15195045 C35.9296,8.79675045 35.9296,8.44315045 35.9056,8.09115045 C37.5117302,6.92940782 38.8981688,5.49095748 40,3.84315045 C38.5022065,4.50683329 36.9133268,4.94207629 35.2864,5.13435045 C36.9995904,4.10872174 38.2817976,2.49558563 38.8944,0.59515045 C37.283452,1.55107895 35.5210338,2.22476968 33.6832,2.58715045 C31.1393324,-0.117818704 27.097151,-0.779869415 23.8232788,0.972238335 C20.5494067,2.72434608 18.85804,6.45487162 19.6976,10.0719505 C13.0990332,9.74114971 6.95116125,6.62446768 2.784,1.49755045 C0.60579641,5.24738201 1.71838061,10.0445256 5.3248,12.4527505 C4.01878592,12.4140425 2.74124699,12.0617315 1.6,11.4255505 C1.6,11.4591505 1.6,11.4943505 1.6,11.5295505 C1.60106901,15.4360992 4.35480238,18.8008067 8.184,19.5743505 C6.97579135,19.9038545 5.70812894,19.9520213 4.4784,19.7151505 C5.55351669,23.058227 8.6345193,25.3484046 12.1456,25.4143505 C9.23957606,27.6982416 5.64969522,28.9380748 1.9536,28.9343505 C1.30064571,28.9330969 0.648326504,28.8935624 0,28.8159505 C3.75301752,31.2243929 8.11986144,32.5018975 12.5792,32.4959505" id="Shape"></path>
                    </g>
                </g>
            </g>
        </g>
    </g>
</svg>