<?xml version="1.0" encoding="UTF-8"?>
<svg width="47px" height="60px" viewBox="0 0 47 60" version="1.1" xmlns="http://www.w3.org/2000/svg" xmlns:xlink="http://www.w3.org/1999/xlink">
    <!-- Generator: Sketch 53.2 (72643) - https://sketchapp.com -->
    <title>Fill 1</title>
    <desc>Created with Sketch.</desc>
    <g id="Page-1" stroke="none" stroke-width="1" fill="none" fill-rule="evenodd">
        <g id="Long-Form-Homepage-Copy" transform="translate(-334.000000, -3161.000000)" fill="#00D869">
            <path d="M359.1875,3204.03149 L359.1875,3210.24138 C359.1875,3211.21253 358.431875,3212 357.5,3212 C356.568125,3212 355.8125,3211.21253 355.8125,3210.24138 L355.8125,3204.03149 C354.165313,3203.33489 353,3201.65638 353,3199.68966 C353,3197.0996 355.014687,3195 357.5,3195 C359.985313,3195 362,3197.0996 362,3199.68966 C362,3201.65638 360.835625,3203.33489 359.1875,3204.03149 L359.1875,3204.03149 Z M345,3179.3635 C345,3172.54636 350.608135,3167 357.5,3167 C364.391865,3167 370,3172.54636 370,3179.3635 L370,3188 L345,3188 L345,3179.3635 Z M377.951854,3187.73267 L375.320833,3187.73267 L375.320833,3179.01881 C375.320833,3169.08317 367.325938,3161 357.5,3161 C347.674062,3161 339.679167,3169.08317 339.679167,3179.01881 L339.679167,3187.73267 L337.048146,3187.73267 C335.364958,3187.73267 334,3189.11188 334,3190.81386 L334,3217.91782 C334,3219.6198 335.364958,3221 337.048146,3221 L377.951854,3221 C379.636021,3221 381,3219.6198 381,3217.91782 L381,3190.81386 C381,3189.11188 379.636021,3187.73267 377.951854,3187.73267 L377.951854,3187.73267 Z" id="Fill-1"></path>
        </g>
    </g>
</svg>