<?xml version="1.0" encoding="UTF-8"?>
<svg viewBox="0 0 16 16" version="1.1" xmlns="http://www.w3.org/2000/svg" xmlns:xlink="http://www.w3.org/1999/xlink">
    <!-- Generator: Sketch 55.2 (78181) - https://sketchapp.com -->
    <title>Group 5</title>
    <desc>Created with Sketch.</desc>
    <g id="Page-1" stroke="none" stroke-width="1" fill="none" fill-rule="evenodd">
        <g id="SNN-Verify" transform="translate(-1513.000000, -605.000000)" fill="#00D866">
            <g id="Group" transform="translate(1496.000000, 456.000000)">
                <g id="Group-5" transform="translate(17.000000, 149.000000)">
                    <path d="M8,14.6666667 C4.324,14.6666667 1.33333333,11.676 1.33333333,8 C1.33333333,4.324 4.324,1.33333333 8,1.33333333 C11.676,1.33333333 14.6666667,4.324 14.6666667,8 C14.6666667,11.676 11.676,14.6666667 8,14.6666667 M8,0 C3.58866667,0 0,3.58866667 0,8 C0,12.4113333 3.58866667,16 8,16 C12.4113333,16 16,12.4113333 16,8 C16,3.58866667 12.4113333,0 8,0" id="Fill-1"></path>
                    <path d="M10.4941333,5.23273333 L6.96213333,9.35273333 L5.47146667,7.86206667 C5.2108,7.6014 4.7888,7.6014 4.5288,7.86206667 C4.26813333,8.12206667 4.26813333,8.54406667 4.5288,8.80473333 L6.5288,10.8047333 C6.65346667,10.9300667 6.82346667,11.0000667 7.00013333,11.0000667 C7.00813333,11.0000667 7.0168,10.9994 7.02546667,10.9994 C7.2108,10.9927333 7.38546667,10.9080667 7.50613333,10.7674 L11.5061333,6.10073333 C11.7461333,5.82073333 11.7134667,5.40006667 11.4334667,5.16073333 C11.1548,4.9214 10.7328,4.9534 10.4941333,5.23273333" id="Fill-3"></path>
                </g>
            </g>
        </g>
    </g>
</svg>
