<svg xmlns="http://www.w3.org/2000/svg" viewBox="0 0 23.38 24"><defs><style>.cls-1{fill:#fff;}</style></defs><title>Asset 5</title><g id="Layer_2" data-name="Layer 2"><g id="Layer_1-2" data-name="Layer 1"><path class="cls-1" d="M2.08,4h19.3a2,2,0,0,0,1.89-2.65,2,2,0,0,0-2-1.35H2A2,2,0,0,0,.1,2.65,2,2,0,0,0,2.08,4Z"/><path class="cls-1" d="M21.29,20H2A2,2,0,0,0,.1,22.65a2,2,0,0,0,2,1.35h19.3a2,2,0,0,0,1.89-2.65A2,2,0,0,0,21.29,20Z"/><path class="cls-1" d="M21.29,10H2A2,2,0,0,0,.1,12.65a2,2,0,0,0,2,1.35h19.3a2,2,0,0,0,1.89-2.65A2,2,0,0,0,21.29,10Z"/></g></g></svg>