<svg width="150" height="119" viewBox="0 0 150 119" fill="none" xmlns="http://www.w3.org/2000/svg">
    <g clip-path="url(#clip0_75:112)">
        <path d="M57.7814 118.069L64.5279 104.484C64.5279 104.484 78.4497 102.004 78.6642 85.6158C78.8787 69.2276 78.6642 22.4335 78.6642 19.199C78.6642 15.9646 77.5767 13.3056 74.7559 11.8675C70.7398 9.81896 67.2594 13.1608 67.2594 13.1608C67.2594 13.1608 66.8837 8.6377 63.4438 7.07125C59.7767 5.40791 56.3356 7.12261 54.8366 9.87266C54.8366 9.87266 54.5792 6.90433 50.9538 5.89582C46.9377 4.77759 44.4485 7.33855 43.2705 9.49447C42.0926 11.6504 34.2204 25.1287 34.807 48.4177C34.807 48.4177 28.7272 40.973 23.7233 36.1534C20.0284 32.5956 16.2534 33.1617 14.1433 34.7924C11.9127 36.5152 11.4547 40.1618 13.1103 43.9553C14.8668 47.9742 29.991 84.9155 29.991 84.9155L21.0486 104.269C21.0486 104.269 36.5774 119.148 57.7814 118.069Z"
              fill="#D97E57"/>
        <path d="M34.8314 48.5893C36.5011 50.9802 37.9871 53.4959 39.2765 56.1145C39.5513 56.6748 40.3825 56.1834 40.1089 55.6255C38.8195 53.0065 37.3335 50.4904 35.6639 48.099C35.3102 47.5913 34.4743 48.0757 34.8314 48.5893Z"
              fill="#2E2E2E"/>
        <path d="M54.4656 10.461C55.3676 16.3988 53.8731 22.0448 52.6511 27.8099C51.3619 33.8924 50.9619 39.891 52.0053 46.0517C52.1097 46.6657 53.0384 46.4019 52.9329 45.7938C51.7665 38.907 52.6094 32.3797 54.1143 25.6353C55.2609 20.4994 56.193 15.472 55.3896 10.203C55.2968 9.58786 54.3682 9.85282 54.4621 10.461H54.4656Z"
              fill="#2E2E2E"/>
        <path d="M66.9278 13.4292C66.98 16.7279 66.9092 20.0266 66.5232 23.3042C66.1591 26.4021 65.278 29.3494 64.769 32.4088C63.852 37.9276 63.8751 43.6705 64.3412 49.2313C64.3934 49.8488 65.3568 49.8546 65.3047 49.2313C64.8166 43.4137 64.7122 37.2296 65.9157 31.489C67.191 25.4193 67.9898 19.6636 67.8866 13.4281C67.8773 12.8048 66.9127 12.8024 66.9232 13.4281L66.9278 13.4292Z"
              fill="#2E2E2E"/>
        <path d="M45.4096 46.822C54.3647 46.0972 64.1163 47.0275 70.3433 54.3217C70.7491 54.7967 71.4274 54.1081 71.0251 53.6365C64.6484 46.166 54.6012 45.1073 45.4096 45.8521C44.7963 45.9011 44.7905 46.8722 45.4096 46.822Z"
              fill="#2E2E2E"/>
        <path d="M56.2208 103.645C58.763 104.8 61.5417 105.33 64.3273 105.189C64.9452 105.159 64.9487 104.188 64.3273 104.219C61.7122 104.363 59.1006 103.879 56.7078 102.807C56.1455 102.555 55.655 103.391 56.2208 103.645Z"
              fill="#2E2E2E"/>
        <path d="M57.4811 91.0844C59.6654 76.6034 54.258 60.8525 39.8214 55.4026C39.2417 55.1831 38.9878 56.1204 39.5652 56.3364C53.4627 61.5832 58.6498 76.9221 56.5524 90.8264C56.4597 91.4369 57.3884 91.7007 57.4799 91.0844H57.4811Z"
              fill="#2E2E2E"/>
        <path d="M99.7383 118.069L92.9907 104.484C92.9907 104.484 79.07 102.004 78.8543 85.6158C78.6387 69.2276 78.8543 22.4335 78.8543 19.199C78.8543 15.9646 79.943 13.3056 82.7638 11.8675C86.7799 9.81896 90.2604 13.1608 90.2604 13.1608C90.2604 13.1608 90.6348 8.63303 94.0747 7.07125C97.743 5.40791 101.184 7.12261 102.683 9.87266C102.683 9.87266 102.941 6.90433 106.565 5.89582C110.581 4.77759 113.071 7.33855 114.249 9.49447C115.427 11.6504 123.298 25.1287 122.713 48.4177C122.713 48.4177 128.793 40.973 133.796 36.1534C137.491 32.5956 141.266 33.1617 143.378 34.7924C145.607 36.5152 146.066 40.1618 144.409 43.9553C142.653 47.9742 127.532 84.9155 127.532 84.9155L136.475 104.269C136.475 104.269 120.942 119.148 99.7383 118.069Z"
              fill="#D97E57"/>
        <path d="M121.851 48.099C120.182 50.4904 118.696 53.0065 117.406 55.6255C117.131 56.1834 117.963 56.676 118.238 56.1146C119.527 53.4959 121.014 50.9802 122.684 48.5893C123.04 48.0769 122.205 47.5913 121.851 48.099V48.099Z"
              fill="#2E2E2E"/>
        <path d="M102.124 10.203C101.324 15.4708 102.257 20.4993 103.4 25.6352C104.907 32.3808 105.746 38.9092 104.58 45.7937C104.477 46.4042 105.405 46.6668 105.507 46.0517C106.551 39.8909 106.151 33.8924 104.862 27.8098C103.649 22.0436 102.152 16.3999 103.054 10.4609C103.147 9.85044 102.218 9.58664 102.127 10.203H102.124Z"
              fill="#2E2E2E"/>
        <path d="M89.6274 13.4292C89.5288 19.6659 90.33 25.4193 91.5984 31.4902C92.803 37.2319 92.6975 43.416 92.2094 49.2325C92.1572 49.8546 93.1218 49.8511 93.1728 49.2325C93.6366 43.6716 93.6621 37.9288 92.745 32.41C92.2604 29.4918 91.4082 26.6694 91.0395 23.7186C90.6117 20.3044 90.5329 16.8656 90.5874 13.4281C90.5966 12.8036 89.6332 12.8036 89.6227 13.4281L89.6274 13.4292Z"
              fill="#2E2E2E"/>
        <path d="M112.112 45.852C102.921 45.1073 92.8783 46.1613 86.497 53.6364C86.0947 54.1033 86.7741 54.7967 87.1788 54.3216C93.4047 47.0286 103.16 46.0971 112.112 46.822C112.73 46.8722 112.728 45.901 112.112 45.852Z"
              fill="#2E2E2E"/>
        <path d="M100.812 102.807C98.4188 103.879 95.8068 104.363 93.1914 104.219C92.5711 104.188 92.5734 105.153 93.1914 105.189C95.977 105.33 98.7557 104.8 101.298 103.645C101.864 103.392 101.374 102.555 100.812 102.807V102.807Z"
              fill="#2E2E2E"/>
        <path d="M100.967 90.8265C98.8687 76.9221 104.056 61.5832 117.955 56.3376C118.534 56.1205 118.28 55.182 117.698 55.4038C103.262 60.8502 97.852 76.6035 100.037 91.0844C100.13 91.6996 101.059 91.4346 100.965 90.8265H100.967Z"
              fill="#2E2E2E"/>
        <path d="M78.2782 20.3733V88.1499C78.2782 88.7744 79.2416 88.7744 79.2416 88.1499V20.3733C79.2416 19.7488 78.2782 19.7488 78.2782 20.3733Z"
              fill="#2E2E2E"/>
        <path d="M78.8068 76.6605V75.61C85.7217 75.5637 92.3377 72.7656 97.2111 67.8264C102.084 62.8872 104.82 56.2078 104.82 49.2458C104.82 42.2838 102.084 35.6044 97.2111 30.6652C92.3377 25.726 85.7217 22.9279 78.8068 22.8816V21.8311C85.9979 21.8783 92.8784 24.7875 97.9467 29.9236C103.015 35.0597 105.86 42.0058 105.86 49.2458C105.86 56.4858 103.015 63.4319 97.9467 68.568C92.8784 73.7041 85.9979 76.6133 78.8068 76.6605V76.6605Z"
              fill="#2E2E2E"/>
        <path d="M78.7593 75.5539C93.1977 75.5539 104.902 63.7699 104.902 49.2335C104.902 34.6971 93.1977 22.9131 78.7593 22.9131C64.321 22.9131 52.6164 34.6971 52.6164 49.2335C52.6164 63.7699 64.321 75.5539 78.7593 75.5539Z"
              fill="#FFAF00"/>
        <path d="M82.6028 23.3763C82.9272 21.2396 81.4697 19.2427 79.3474 18.9161C77.2251 18.5895 75.2416 20.0569 74.9172 22.1936C74.5929 24.3303 76.0504 26.3272 78.1727 26.6538C80.295 26.9804 82.2785 25.513 82.6028 23.3763Z"
              fill="#FFAF00"/>
        <path d="M78.7593 21.7413C77.8953 21.7413 77.0507 21.4833 76.3323 21C75.6139 20.5167 75.0539 19.8298 74.7233 19.0262C74.3926 18.2225 74.3061 17.3382 74.4747 16.485C74.6433 15.6318 75.0593 14.8481 75.6703 14.233C76.2812 13.6179 77.0596 13.199 77.9071 13.0293C78.7545 12.8596 79.6328 12.9467 80.4311 13.2796C81.2294 13.6125 81.9116 14.1762 82.3917 14.8995C82.8717 15.6228 83.1279 16.4732 83.1279 17.343C83.1267 18.5091 82.666 19.6271 81.847 20.4517C81.028 21.2762 79.9176 21.74 78.7593 21.7413ZM78.7593 13.9207C78.0859 13.9207 77.4275 14.1217 76.8675 14.4984C76.3076 14.8751 75.8711 15.4105 75.6134 16.037C75.3557 16.6634 75.2882 17.3527 75.4196 18.0177C75.551 18.6827 75.8753 19.2936 76.3515 19.773C76.8277 20.2524 77.4345 20.579 78.095 20.7112C78.7555 20.8435 79.4402 20.7756 80.0624 20.5161C80.6846 20.2567 81.2164 19.8173 81.5906 19.2535C81.9647 18.6897 82.1644 18.0269 82.1644 17.3489C82.1647 16.439 81.8063 15.5663 81.1678 14.9223C80.5293 14.2784 79.663 13.9161 78.7593 13.9148V13.9207Z"
              fill="#FFAF00"/>
        <path d="M78.7593 72.5378C91.5431 72.5378 101.906 62.1041 101.906 49.2336C101.906 36.363 91.5431 25.9293 78.7593 25.9293C65.9755 25.9293 55.6122 36.363 55.6122 49.2336C55.6122 62.1041 65.9755 72.5378 78.7593 72.5378Z"
              fill="white"/>
        <path d="M78.7419 31.6804C79.3214 31.6804 79.7912 31.2074 79.7912 30.624C79.7912 30.0406 79.3214 29.5676 78.7419 29.5676C78.1624 29.5676 77.6927 30.0406 77.6927 30.624C77.6927 31.2074 78.1624 31.6804 78.7419 31.6804Z"
              fill="#2E2E2E"/>
        <path d="M78.7419 69.0325C79.3214 69.0325 79.7912 68.5596 79.7912 67.9762C79.7912 67.3927 79.3214 66.9198 78.7419 66.9198C78.1624 66.9198 77.6927 67.3927 77.6927 67.9762C77.6927 68.5596 78.1624 69.0325 78.7419 69.0325Z"
              fill="#2E2E2E"/>
        <path d="M97.292 50.3564C97.8715 50.3564 98.3413 49.8834 98.3413 49.3C98.3413 48.7166 97.8715 48.2437 97.292 48.2437C96.7126 48.2437 96.2428 48.7166 96.2428 49.3C96.2428 49.8834 96.7126 50.3564 97.292 50.3564Z"
              fill="#2E2E2E"/>
        <path d="M60.1918 50.3564C60.7712 50.3564 61.241 49.8834 61.241 49.3C61.241 48.7166 60.7712 48.2437 60.1918 48.2437C59.6123 48.2437 59.1425 48.7166 59.1425 49.3C59.1425 49.8834 59.6123 50.3564 60.1918 50.3564Z"
              fill="#2E2E2E"/>
        <path d="M78.8069 51.4503C78.5216 51.4502 78.2407 51.3795 77.989 51.2443C77.7372 51.1091 77.5224 50.9137 77.3634 50.6752L67.4565 35.8231C67.3263 35.6323 67.235 35.4174 67.1878 35.1909C67.1406 34.9644 67.1385 34.7307 67.1816 34.5033C67.2247 34.276 67.3121 34.0595 67.4389 33.8664C67.5656 33.6732 67.7291 33.5073 67.92 33.3783C68.1108 33.2492 68.3251 33.1595 68.5506 33.1143C68.7761 33.0692 69.0082 33.0695 69.2336 33.1152C69.459 33.161 69.6731 33.2513 69.8636 33.3809C70.054 33.5105 70.2171 33.6768 70.3433 33.8703L77.0678 43.9507V38.5544C77.0678 38.0901 77.251 37.6447 77.5771 37.3164C77.9033 36.988 78.3456 36.8036 78.8069 36.8036C79.2681 36.8036 79.7104 36.988 80.0366 37.3164C80.3627 37.6447 80.5459 38.0901 80.5459 38.5544V49.6982C80.5459 50.1626 80.3627 50.6079 80.0366 50.9363C79.7104 51.2646 79.2681 51.4491 78.8069 51.4491V51.4503Z"
              fill="#2E2E2E"/>
        <path d="M126.438 28.1308C127.699 29.9739 130.002 29.9984 131.754 28.8685C135.922 26.192 135.096 21.0246 133.493 17.1131C133.459 17.0325 133.423 16.9578 133.385 16.8796C133.037 15.1661 132.06 13.8775 129.949 13.8448C125.659 13.7747 124.348 19.3309 124.775 22.6727C124.997 24.4143 125.427 26.6577 126.438 28.1308Z"
              fill="#FFBE00"/>
        <path d="M84.329 3.6185C84.4206 4.33169 84.5968 5.25266 85.0118 5.85846C85.5301 6.61484 86.475 6.62185 87.1938 6.16078C88.9039 5.06239 88.5654 2.94149 87.9068 1.33652C87.8929 1.30384 87.8778 1.27232 87.8628 1.24197C87.7202 0.543952 87.319 0.0140187 86.4518 1.16443e-05C84.6918 -0.0280025 84.1539 2.25165 84.329 3.6185Z"
              fill="white"/>
        <path d="M24.8549 24.8952C24.9021 25.1629 25.0212 25.4125 25.1992 25.617C25.3771 25.8216 25.6073 25.9732 25.8647 26.0554C26.0443 26.1483 26.2452 26.1914 26.4467 26.1801C26.6483 26.1688 26.8432 26.1036 27.0114 25.9912C27.4867 26.0274 27.9679 25.7835 28.0861 25.1741C28.2519 24.315 28.2368 23.2283 27.7047 22.5478C27.5322 22.1687 27.2193 21.8725 26.8328 21.7226C26.3111 21.523 25.6259 21.5918 25.3639 22.1895C25.3001 22.3338 25.244 22.4815 25.1958 22.6319C25.107 22.7742 25.0379 22.9282 24.9906 23.0894C24.8341 23.617 24.7471 24.3477 24.8549 24.8952Z"
              fill="#FFBE00"/>
        <path d="M0.0312922 56.3119C0.122884 57.025 0.29911 57.946 0.71417 58.5518C1.23241 59.3082 2.17731 59.3164 2.89613 58.8541C4.60622 57.7558 4.26768 55.636 3.60915 54.0299C3.59524 53.9972 3.58017 53.9668 3.5651 53.9353C3.42249 53.235 3.02134 52.7039 2.15413 52.6899C0.394179 52.6607 -0.143775 54.9403 0.0312922 56.3119Z"
              fill="#2E2E2E"/>
        <path d="M27.5934 68.4443C26.7922 66.1098 24.4943 64.3811 21.9773 65.0896C19.9716 65.6557 18.6974 67.6365 18.3763 69.6209C17.9508 72.2495 17.836 77.222 20.215 78.9694C21.4185 80.2697 23.5239 80.7518 25.0624 79.0581C27.5644 76.3022 28.8385 72.0779 27.5934 68.4443Z"
              fill="#80D7F1"/>
        <path d="M15.2702 82.7665C14.8703 81.5993 13.7213 80.7355 12.4622 81.0903C11.4593 81.3728 10.8228 82.3626 10.6617 83.356C10.4495 84.6691 10.3916 87.1566 11.5811 88.025C12.1828 88.6752 13.2355 88.9156 14.0054 88.0694C15.2563 86.6967 15.894 84.5839 15.2702 82.7665Z"
              fill="white"/>
        <path d="M139.509 75.5844C139.108 74.4171 137.959 73.5533 136.701 73.907C135.698 74.1907 135.06 75.1805 134.9 76.1727C134.688 77.487 134.63 79.9733 135.82 80.8417C136.421 81.4919 137.474 81.7323 138.243 80.8861C139.495 79.5134 140.131 77.4018 139.509 75.5844Z"
              fill="white"/>
        <path d="M143.354 59.9969C143.431 60.6004 143.586 61.3789 143.934 61.8914C144.372 62.5322 145.171 62.538 145.78 62.1482C147.227 61.2143 146.939 59.4249 146.383 58.0628C146.371 58.0347 146.358 58.0091 146.346 57.9834C146.23 57.3881 145.882 56.941 145.153 56.9328C143.66 56.9025 143.205 58.8296 143.354 59.9969Z"
              fill="#2E2E2E"/>
        <path d="M0.579694 73.2767C0.739689 74.5245 1.04345 76.1353 1.77502 77.1964C2.6805 78.5189 4.33378 78.5329 5.59171 77.7251C8.57945 75.8027 7.987 72.0931 6.83341 69.2847C6.81022 69.2264 6.78356 69.168 6.75689 69.119C6.50763 67.8887 5.80504 66.9631 4.28856 66.9385C1.20924 66.8837 0.26666 70.8769 0.579694 73.2767Z"
              fill="#FFBE00"/>
        <path d="M29.5098 35.0421C29.6014 35.7542 29.7777 36.6763 30.1927 37.2821C30.711 38.0373 31.6558 38.0455 32.3747 37.5844C34.0847 36.486 33.7462 34.3651 33.0877 32.7602C33.0738 32.7263 33.0587 32.696 33.0436 32.6656C32.901 31.9653 32.4999 31.433 31.6327 31.419C29.8727 31.3898 29.3325 33.6706 29.5098 35.0421Z"
              fill="#2E2E2E"/>
        <path d="M149.692 80.5103C149.181 79.022 147.721 77.9236 146.117 78.3754C144.842 78.7349 144.03 79.9967 143.825 81.2596C143.554 82.9323 143.477 86.0979 144.995 87.2126C145.761 88.0402 147.102 88.3472 148.08 87.2686C149.677 85.5131 150.488 82.8237 149.692 80.5103Z"
              fill="#80D7F1"/>
    </g>
    <defs>
        <clipPath id="clip0_75:112">
            <rect width="150" height="118.125" fill="white"/>
        </clipPath>
    </defs>
</svg>
