<?xml version="1.0" encoding="UTF-8"?>
<svg width="16px" height="16px" viewBox="0 0 16 16" version="1.1" xmlns="http://www.w3.org/2000/svg" xmlns:xlink="http://www.w3.org/1999/xlink">
    <!-- Generator: Sketch 50.2 (55047) - http://www.bohemiancoding.com/sketch -->
    <title>Group</title>
    <desc>Created with Sketch.</desc>
    <defs></defs>
    <g id="Page-1" stroke="none" stroke-width="1" fill="none" fill-rule="evenodd">
        <g id="Mobile-Nav" transform="translate(-16.000000, -91.000000)" fill="#00ADEE">
            <g id="Group" transform="translate(16.000000, 91.000000)">
                <path d="M7.88866667,14 C4.64133333,14 2,11.3586667 2,8.11133333 C2,4.864 4.64133333,2.222 7.88866667,2.222 C11.136,2.222 13.7773333,4.864 13.7773333,8.11133333 C13.7773333,11.3586667 11.136,14 7.88866667,14 M7.88866667,0.222 C3.53866667,0.222 0,3.76133333 0,8.11133333 C0,12.4613333 3.53866667,16 7.88866667,16 C12.2386667,16 15.7773333,12.4613333 15.7773333,8.11133333 C15.7773333,3.76133333 12.2386667,0.222 7.88866667,0.222" id="Fill-1"></path>
                <path d="M11.068624,6.974624 L9.21413541,6.974624 L9.21413541,5.12013541 C9.21413541,4.50197255 8.71216286,4 8.094,4 C7.47583714,4 6.974624,4.50197255 6.974624,5.12013541 L6.974624,6.974624 L5.12013541,6.974624 C4.50197255,6.974624 4,7.47583714 4,8.09475941 C4,8.71292228 4.50197255,9.21413541 5.12013541,9.21413541 L6.974624,9.21413541 L6.974624,11.068624 C6.974624,11.6867869 7.47583714,12.188 8.094,12.188 C8.71216286,12.188 9.21413541,11.6867869 9.21413541,11.068624 L9.21413541,9.21413541 L11.068624,9.21413541 C11.6867869,9.21413541 12.188,8.71292228 12.188,8.09475941 C12.188,7.47583714 11.6867869,6.974624 11.068624,6.974624" id="Fill-3"></path>
            </g>
        </g>
    </g>
</svg>