<svg width="150" height="130" viewBox="0 0 150 130" fill="none" xmlns="http://www.w3.org/2000/svg">
    <g clip-path="url(#clip0_75:82)">
        <path d="M62.1506 97.7881C61.6489 98.4396 60.9583 98.3061 60.284 98.2442C60.2341 94.0919 60.1863 89.9364 60.1407 85.7776C60.1212 84.0608 60.0723 82.3441 60.069 80.6274C60.069 79.4286 60.4925 78.9693 61.662 78.8976C66.1422 78.637 70.6213 78.3829 75.0993 78.1354C75.158 78.9367 74.6921 79.5068 74.2296 80.0899C74.1109 80.073 73.9911 80.0643 73.8712 80.0638C70.1164 80.281 66.3604 80.4982 62.6034 80.7153C62.4014 80.7153 62.2027 80.7772 61.9193 80.8196C61.9193 81.1812 61.9193 81.5069 61.9193 81.8294C61.9389 83.8448 61.9617 85.8612 61.9877 87.8787C62.0377 91.1862 62.092 94.4893 62.1506 97.7881Z"
              fill="#100F0F"/>
        <path d="M75.1319 65.773C74.8062 44.8075 75.0896 23.8452 74.9755 2.88292C74.9755 1.61248 74.5488 1.09779 73.2816 0.892566C72.7233 0.792483 72.158 0.735849 71.591 0.723174C67.7634 0.706886 63.9357 0.723174 60.1114 0.706886C54.5149 0.667796 48.912 0.723174 43.322 0.491889C38.325 0.283406 33.3344 0.439768 28.3373 0.355072C23.3403 0.270376 18.2943 0.2378 13.2712 0.166135C10.4241 0.123787 7.56399 0.035833 4.71039 0C4.05491 0.0112741 3.40136 0.0744508 2.75586 0.188937C2.22488 0.263861 2.05549 0.716659 1.94148 1.1662C1.91043 1.37429 1.90387 1.58529 1.92193 1.79491C1.92193 3.51489 1.92193 5.23161 1.92193 6.94834C1.86329 15.2876 1.92193 23.6302 1.69716 31.963C1.51474 38.4357 1.7786 44.9085 1.52777 51.3714C1.27042 58.0559 1.59943 64.7273 1.34535 71.4151C1.09451 78.0051 1.41701 68.3139 1.16618 74.8974C0.918608 81.4125 1.12383 87.8982 1.0033 94.397C0.937946 94.8258 0.819776 95.2449 0.651489 95.6447V96.5503C1.00005 96.5503 0.977243 96.8141 1.03262 97.0421C1.26716 97.8142 1.52125 97.9901 2.33564 97.9966C9.82798 98.0585 17.3203 98.1399 24.8127 98.1693C32.305 98.1986 39.8755 98.1693 47.407 98.1855C51.316 98.1855 55.2251 98.3028 59.1341 98.3517C59.5223 98.3367 59.9095 98.3008 60.2938 98.2442C60.2439 94.0919 60.1961 89.9364 60.1505 85.7776C60.1309 84.0608 60.0821 82.3441 60.0788 80.6274C60.0788 79.4286 60.5023 78.9693 61.6718 78.8976C66.152 78.637 70.6311 78.383 75.1091 78.1354C75.1287 77.8096 75.1645 77.4839 75.1645 77.1581C75.158 67.9262 75.2752 74.9919 75.1319 65.773Z"
              fill="#B3E1E8"/>
        <path d="M62.6034 80.6926C62.4014 80.6926 62.2027 80.7545 61.9193 80.7968C61.9193 81.1584 61.9193 81.4842 61.9193 81.8067C61.9389 83.822 61.9617 85.8384 61.9877 87.8559C62.0355 91.17 62.0898 94.4807 62.1506 97.7882C62.6783 97.0324 63.2158 96.28 63.737 95.5079C66.4668 91.5337 69.1934 87.5584 71.9167 83.582C72.7083 82.4224 73.4608 81.2366 74.2296 80.0639C74.1109 80.047 73.9911 80.0383 73.8712 80.0378C70.1164 80.2572 66.3604 80.4754 62.6034 80.6926Z"
              fill="#80D7F1"/>
        <path d="M62.8282 43.625C60.3525 43.5534 57.8768 43.3872 55.4011 43.3937C48.7329 43.3937 42.0647 43.4915 35.3997 43.5599C30.1877 43.6185 24.9756 43.6804 19.7407 43.7781C17.9133 43.8107 16.0858 43.941 14.2616 44.055C13.3755 44.1071 13.0172 44.5143 13.0563 45.3157C13.0954 46.117 13.5058 46.4461 14.3821 46.4623C14.4603 46.4623 14.5352 46.4623 14.6134 46.4623L36.2141 46.2701C40.1004 46.2962 43.9866 46.2701 47.8729 46.2701C51.7591 46.2701 55.5704 46.3158 59.4176 46.3483C60.5219 46.3483 61.6327 46.4526 62.7305 46.3776C63.2311 46.3314 63.6961 46.0989 64.0335 45.7261C64.2225 45.5111 64.2094 44.8205 64.0922 44.4231C63.8739 43.7749 63.3592 43.6511 62.8282 43.625Z"
              fill="white"/>
        <path d="M62.8282 55.313C60.3525 55.2414 57.8768 55.0752 55.4011 55.0817C48.7329 55.1013 42.0647 55.1795 35.3997 55.2511C30.1877 55.3065 24.9756 55.3684 19.7407 55.4661C17.9133 55.502 16.0858 55.6323 14.2616 55.743C13.3755 55.7984 13.0172 56.2023 13.0563 57.0037C13.0954 57.805 13.5058 58.134 14.3821 58.1503C14.4603 58.1503 14.5352 58.1503 14.6134 58.1503L36.2141 57.9549C40.1004 57.9809 43.9866 57.9549 47.8729 57.9549C51.7591 57.9549 55.5704 58.0005 59.4176 58.0331C60.5219 58.0331 61.6327 58.1373 62.7305 58.0656C63.231 58.0191 63.696 57.7866 64.0335 57.4141C64.2225 57.1991 64.2094 56.5085 64.0922 56.1111C63.8739 55.4629 63.3592 55.3293 62.8282 55.313Z"
              fill="white"/>
        <path d="M62.8282 67.1379C60.3525 67.0662 57.8768 66.9033 55.4011 66.9099C48.7329 66.9099 42.0647 67.0043 35.3997 67.076C30.1877 67.1325 24.968 67.2052 19.7407 67.2942C17.9133 67.3268 16.0858 67.4571 14.2616 67.5679C13.3755 67.6233 13.0172 68.0305 13.0563 68.8285C13.0954 69.6266 13.5058 69.9589 14.3821 69.9785H14.6134L36.2141 69.783C40.1004 69.8123 43.9866 69.783 47.8729 69.783C51.7591 69.783 55.5704 69.8286 59.4176 69.8579C60.5219 69.8579 61.6327 69.9622 62.7305 69.8905C63.2314 69.8452 63.6967 69.6125 64.0335 69.239C64.2225 69.024 64.2094 68.3334 64.0922 67.936C63.8739 67.291 63.3592 67.1542 62.8282 67.1379Z"
              fill="white"/>
        <path d="M48.9185 31.4549C47.8939 32.8303 46.6043 33.9867 45.1258 34.8559C43.6473 35.7251 42.0098 36.2896 40.3097 36.5161C38.6097 36.7425 36.8815 36.6264 35.227 36.1745C33.5725 35.7227 32.0252 34.9442 30.6762 33.885C27.9399 31.7806 26.347 28.6273 25.9007 25.2037C25.662 23.5295 25.7588 21.8245 26.1855 20.1881C26.6123 18.5517 27.3603 17.0165 28.3862 15.6721C30.4906 12.9357 33.4908 10.9389 36.9144 10.4893C38.6237 10.2613 40.3613 10.3748 42.0264 10.8232C43.6915 11.2717 45.2511 12.0462 46.6146 13.1019C47.9782 14.1576 49.1186 15.4735 49.9698 16.9732C50.821 18.4729 51.3661 20.1267 51.5734 21.8386C51.7842 23.5373 51.6582 25.2609 51.2027 26.9109C50.7471 28.5609 49.9709 30.1049 48.9185 31.4549ZM30.5753 17.366C28.9428 19.4913 28.2215 22.1781 28.57 24.8352C28.9186 27.4924 30.3084 29.9022 32.4337 31.5347C34.559 33.1671 37.2458 33.8884 39.9029 33.5399C42.5601 33.1914 44.9699 31.8016 46.6024 29.6763C50.0293 25.2134 49.342 18.7993 44.8791 15.3724C40.4163 11.9455 34.0022 12.9032 30.5753 17.366Z"
              fill="#2E2E2E"/>
        <path d="M53.1826 9.15369L44.6805 17.366C42.7911 19.1934 40.8431 20.9916 39.2566 23.0797L36.5105 18.7993C35.3802 17.0402 32.5591 18.6722 33.696 20.428L37.8266 26.8617C38.4781 27.865 40.0189 27.9627 40.6411 26.8617C42.335 23.8647 44.9834 21.5877 47.4331 19.2227L55.4857 11.4405C57.007 9.99739 54.6909 7.69431 53.1826 9.15369Z"
              fill="#FCAE03"/>
        <path d="M99.7687 111.802C99.267 112.454 98.5764 112.32 97.9021 112.258C97.8522 108.106 97.8044 103.95 97.7588 99.7915C97.736 98.0748 97.6904 96.358 97.6871 94.6413C97.6871 93.4425 98.1106 92.9832 99.2801 92.9116C103.76 92.6466 108.237 92.3925 112.711 92.1493C112.77 92.9506 112.304 93.5207 111.841 94.1038C111.722 94.0869 111.603 94.0782 111.483 94.0778C107.728 94.2949 103.972 94.5121 100.215 94.7293C100.013 94.7293 99.8143 94.7912 99.5309 94.8335C99.5309 95.1951 99.5309 95.5208 99.5309 95.8433C99.5504 97.8587 99.5732 99.8751 99.5993 101.893C99.6536 105.196 99.7101 108.499 99.7687 111.802Z"
              fill="#100F0F"/>
        <path d="M112.75 79.7869C112.424 58.8214 112.708 37.8591 112.594 16.8968C112.594 15.6264 112.167 15.1117 110.9 14.9065C110.341 14.8064 109.776 14.7498 109.209 14.7371C105.381 14.7208 101.554 14.7371 97.7295 14.7208C92.133 14.6817 86.5301 14.7371 80.9401 14.5058C75.943 14.2973 70.9525 14.4537 65.9554 14.369C60.9584 14.2843 55.9092 14.2517 50.886 14.1801C48.0324 14.1377 45.1788 14.0497 42.3252 14.0139C41.6697 14.0252 41.0162 14.0884 40.3707 14.2029C39.8397 14.2778 39.6703 14.7306 39.5563 15.1801C39.5253 15.3882 39.5187 15.5992 39.5368 15.8088C39.5368 17.5288 39.5368 19.2455 39.5368 20.9623C39.4781 29.3016 39.5368 37.6441 39.312 45.9769C39.1296 52.4496 39.3934 58.9224 39.1426 65.3853C38.8852 72.0698 39.2143 78.7413 38.9602 85.429C38.7093 92.019 39.0318 82.3278 38.781 88.9113C38.5334 95.4264 38.7387 101.912 38.6181 108.411C38.5539 108.841 38.4379 109.262 38.2728 109.665V110.571C38.6214 110.571 38.5986 110.835 38.654 111.063C38.8885 111.835 39.1426 112.011 39.957 112.017C47.4493 112.079 54.9417 112.16 62.434 112.19C69.9264 112.219 77.4969 112.19 85.0283 112.206C88.9374 112.222 92.8464 112.323 96.7555 112.372C97.1437 112.357 97.5308 112.321 97.9152 112.265C97.8652 108.112 97.8174 103.957 97.7718 99.798C97.749 98.0813 97.7034 96.3645 97.7002 94.6478C97.7002 93.449 98.1236 92.9897 99.2931 92.9181C103.765 92.6488 108.237 92.3925 112.711 92.1493C112.73 91.8235 112.766 91.4978 112.766 91.172C112.776 81.9402 112.893 89.0058 112.75 79.7869Z"
              fill="#9DDEED"/>
        <path d="M100.222 94.7065C100.02 94.7065 99.8208 94.7684 99.5374 94.8108C99.5374 95.1723 99.5374 95.4981 99.5374 95.8206C99.557 97.8359 99.5798 99.8524 99.6058 101.87C99.6558 105.182 99.7101 108.492 99.7687 111.802C100.296 111.046 100.834 110.294 101.355 109.522C104.085 105.548 106.812 101.572 109.535 97.596C110.326 96.4363 111.079 95.2505 111.848 94.0778C111.729 94.0609 111.609 94.0522 111.489 94.0518C107.743 94.2733 103.987 94.4915 100.222 94.7065Z"
              fill="#80D7F1"/>
        <path d="M100.446 57.6389C97.9706 57.5673 95.4948 57.4011 93.0191 57.4077C86.3509 57.4239 79.6827 57.5054 73.0145 57.5738C67.8025 57.6324 62.5904 57.6943 57.3588 57.7921C55.5313 57.8246 53.7038 57.9549 51.8796 58.0689C50.9936 58.1211 50.6352 58.5283 50.6743 59.3296C50.7134 60.131 51.1239 60.46 52.0001 60.4763C52.0783 60.4763 52.1532 60.4763 52.2314 60.4763L73.8322 60.2841C77.7184 60.3101 81.6047 60.2841 85.4909 60.2841C89.3772 60.2841 93.1885 60.3297 97.0357 60.3623C98.14 60.3623 99.2508 60.4665 100.349 60.3916C100.843 60.3414 101.302 60.1092 101.635 59.7401C101.824 59.5251 101.811 58.8345 101.691 58.437C101.492 57.7888 100.984 57.6585 100.446 57.6389Z"
              fill="white"/>
        <path d="M100.446 69.3271C97.9706 69.2554 95.4948 69.0893 93.0191 69.0958C86.3509 69.1153 79.6827 69.1935 73.0145 69.2652C67.8025 69.3205 62.5904 69.3824 57.3588 69.4802C55.5313 69.516 53.7038 69.6463 51.8796 69.7571C50.9936 69.8124 50.6352 70.2164 50.6743 71.0177C50.7134 71.8191 51.1239 72.1481 52.0001 72.1644C52.0783 72.1644 52.1532 72.1644 52.2314 72.1644L73.8322 71.9689C77.7184 71.995 81.6047 71.9689 85.4909 71.9689C89.3772 71.9689 93.1885 72.0145 97.0357 72.0471C98.14 72.0471 99.2508 72.1514 100.349 72.0797C100.843 72.0292 101.302 71.7971 101.635 71.4282C101.824 71.2132 101.811 70.5226 101.691 70.1252C101.492 69.4769 100.984 69.3433 100.446 69.3271Z"
              fill="white"/>
        <path d="M100.446 81.1519C97.9706 81.0803 95.4948 80.9174 93.0191 80.9239C86.3509 80.9402 79.6827 81.0184 73.0145 81.09C67.8025 81.1443 62.5839 81.2171 57.3588 81.3083C55.5313 81.3409 53.7038 81.4712 51.8796 81.5819C50.9936 81.6373 50.6352 82.0445 50.6743 82.8426C50.7134 83.6407 51.1239 83.973 52.0001 83.9925H52.2314L73.8322 83.797C77.7184 83.8264 81.6047 83.797 85.4909 83.797C89.3772 83.797 93.1885 83.8427 97.0357 83.872C98.14 83.872 99.2508 83.9762 100.349 83.9046C100.844 83.8553 101.303 83.6229 101.635 83.253C101.824 83.038 101.811 82.3474 101.691 81.95C101.492 81.305 100.984 81.1682 100.446 81.1519Z"
              fill="white"/>
        <path d="M86.5366 45.4688C85.512 46.8442 84.2224 48.0006 82.7439 48.8698C81.2654 49.739 79.6279 50.3035 77.9278 50.53C76.2278 50.7564 74.4996 50.6403 72.8451 50.1885C71.1906 49.7366 69.6433 48.9581 68.2943 47.8989C65.558 45.7945 63.9651 42.6412 63.5188 39.2176C63.2801 37.5434 63.3769 35.8384 63.8036 34.202C64.2304 32.5656 64.9784 31.0304 66.0043 29.686C68.1087 26.9497 71.1089 24.9528 74.5325 24.5033C76.2418 24.2752 77.9794 24.3887 79.6445 24.8372C81.3096 25.2856 82.8692 26.0602 84.2327 27.1158C85.5963 28.1715 86.7367 29.4874 87.5879 30.9871C88.4391 32.4868 88.9842 34.1406 89.1915 35.8525C89.4023 37.5512 89.2763 39.2748 88.8208 40.9248C88.3652 42.5748 87.589 44.1189 86.5366 45.4688V45.4688ZM68.1934 31.3799C66.5609 33.5052 65.8396 36.192 66.1881 38.8492C66.5367 41.5063 67.9265 43.9162 70.0518 45.5486C72.1771 47.181 74.8639 47.9023 77.521 47.5538C80.1782 47.2053 82.588 45.8155 84.2205 43.6902C87.6474 39.2273 86.9601 32.8132 82.4972 29.3863C78.0344 25.9594 71.6203 26.9171 68.1934 31.3799Z"
              fill="#2E2E2E"/>
        <path d="M90.8007 23.1677L82.2986 31.38C80.4092 33.2075 78.4612 35.0056 76.8747 37.0937L74.1286 32.8133C72.9983 31.0542 70.1772 32.6863 71.3141 34.4421L75.4447 40.8757C76.0962 41.879 77.6338 41.9768 78.2592 40.8757C79.9531 37.8788 82.6015 35.6018 85.0512 33.2368L93.1038 25.4545C94.6153 24.0114 92.309 21.7083 90.8007 23.1677Z"
              fill="#FCAE03"/>
        <path d="M136.947 127.816C136.445 128.468 135.755 128.334 135.08 128.272C135.031 124.12 134.983 119.964 134.937 115.806C134.914 114.089 134.869 112.375 134.865 110.659C134.865 109.457 135.289 108.997 136.458 108.929C140.939 108.664 145.418 108.409 149.896 108.163C149.954 108.968 149.489 109.535 149.026 110.118C148.907 110.103 148.788 110.094 148.668 110.092C144.913 110.309 141.157 110.526 137.4 110.743C137.198 110.743 136.999 110.805 136.716 110.851C136.716 111.212 136.716 111.535 136.716 111.857C136.735 113.875 136.758 115.892 136.784 117.91C136.834 121.204 136.888 124.506 136.947 127.816Z"
              fill="#100F0F"/>
        <path d="M149.928 95.801C149.603 74.8387 149.886 53.8732 149.772 32.9109C149.772 31.6404 149.345 31.1257 148.078 30.9205C147.52 30.8204 146.954 30.7638 146.387 30.7511C142.56 30.7348 138.732 30.7511 134.908 30.7348C129.311 30.6957 123.708 30.7511 118.118 30.5198C113.121 30.3114 108.131 30.4677 103.134 30.383C98.1367 30.2983 93.0875 30.2658 88.0644 30.1941C85.2108 30.1517 82.3572 30.0638 79.5036 30.028C78.8481 30.0392 78.1945 30.1024 77.549 30.2169C77.018 30.2951 76.8487 30.7446 76.7346 31.1942C76.7035 31.4033 76.697 31.6154 76.7151 31.8261C76.7151 33.5428 76.7151 35.2596 76.7151 36.9763C76.6565 45.3156 76.7151 53.6582 76.4903 61.9909C76.3079 68.4637 76.5718 74.9364 76.3209 81.3994C76.0636 88.0839 76.3926 94.7553 76.1385 101.443C75.8877 108.036 76.2102 98.3419 75.9593 104.925C75.7118 111.44 75.917 117.926 75.7965 124.428C75.7318 124.858 75.6158 125.277 75.4512 125.679V126.585C75.7997 126.585 75.7769 126.849 75.8323 127.08C76.0668 127.849 76.3209 128.025 77.1353 128.031C84.6277 128.093 92.12 128.174 99.6124 128.204C107.105 128.233 114.675 128.204 122.207 128.223C126.116 128.223 130.025 128.337 133.934 128.386C134.322 128.373 134.709 128.337 135.093 128.279C135.044 124.126 134.996 119.971 134.95 115.812C134.927 114.095 134.882 112.382 134.878 110.665C134.878 109.463 135.302 109.004 136.471 108.935C140.952 108.67 145.431 108.415 149.909 108.17C149.928 107.844 149.964 107.518 149.964 107.193C149.954 97.9542 150.072 105.02 149.928 95.801Z"
              fill="#80D7F1"/>
        <path d="M137.4 110.721C137.198 110.721 136.999 110.782 136.716 110.828C136.716 111.19 136.716 111.512 136.716 111.835C136.735 113.852 136.758 115.87 136.784 117.887C136.834 121.197 136.888 124.506 136.947 127.816C137.475 127.06 138.012 126.311 138.534 125.536C141.263 121.562 143.99 117.586 146.713 113.61C147.505 112.45 148.257 111.268 149.026 110.092C148.907 110.077 148.788 110.068 148.668 110.066C144.913 110.287 141.157 110.506 137.4 110.721Z"
              fill="#80D7F1"/>
        <path d="M137.625 73.653C135.149 73.5813 132.673 73.4152 130.197 73.4217C123.529 73.4412 116.861 73.5194 110.193 73.5911C104.981 73.6465 99.7687 73.7084 94.5371 73.8061C92.7097 73.8419 90.8822 73.9722 89.058 74.083C88.1719 74.1384 87.8136 74.5423 87.8527 75.3436C87.8918 76.145 88.3022 76.474 89.1785 76.4903C89.2567 76.4903 89.3316 76.4903 89.4098 76.4903L111.011 76.2949C114.897 76.3209 118.783 76.2949 122.669 76.2949C126.556 76.2949 130.367 76.3405 134.214 76.373C135.318 76.373 136.429 76.4773 137.527 76.4056C138.022 76.3551 138.48 76.123 138.814 75.7541C139.003 75.5391 138.99 74.8485 138.869 74.4511C138.67 73.8028 138.156 73.6693 137.625 73.653Z"
              fill="white"/>
        <path d="M137.625 85.3476C135.149 85.2759 132.673 85.1131 130.197 85.1196C123.529 85.1359 116.861 85.214 110.193 85.2857C104.981 85.34 99.7622 85.4117 94.5371 85.5007C92.7097 85.5365 90.8822 85.6668 89.058 85.7776C88.1719 85.833 87.8136 86.2402 87.8527 87.0383C87.8918 87.8364 88.3022 88.1686 89.1785 88.1849C89.2567 88.1849 89.3316 88.1849 89.4098 88.1849L111.011 87.9895C114.897 88.0155 118.783 87.9895 122.669 87.9895C126.556 87.9895 130.367 88.0351 134.214 88.0677C135.318 88.0677 136.429 88.1719 137.527 88.1002C138.022 88.0497 138.48 87.8176 138.814 87.4487C139.003 87.2337 138.99 86.5431 138.869 86.1457C138.67 85.4942 138.156 85.3476 137.625 85.3476Z"
              fill="white"/>
        <path d="M137.625 97.166C135.149 97.0943 132.673 96.9314 130.197 96.9379C123.529 96.9542 116.861 97.0324 110.193 97.1041C104.981 97.1605 99.7622 97.2333 94.5371 97.3223C92.7097 97.3549 90.8822 97.4852 89.058 97.5992C88.1719 97.6513 87.8136 98.0585 87.8527 98.8599C87.8918 99.6612 88.3022 99.9903 89.1785 100.007H89.4098L111.011 99.8111C114.897 99.8404 118.783 99.8111 122.669 99.8111C126.556 99.8111 130.367 99.8567 134.214 99.886C135.318 99.886 136.429 99.9903 137.527 99.9186C138.022 99.8693 138.481 99.637 138.814 99.2671C139.003 99.0521 138.99 98.3615 138.869 97.9641C138.67 97.3191 138.156 97.1823 137.625 97.166Z"
              fill="white"/>
        <path d="M123.715 61.4828C122.69 62.8582 121.401 64.0146 119.922 64.8838C118.444 65.753 116.806 66.3175 115.106 66.544C113.406 66.7705 111.678 66.6543 110.023 66.2025C108.369 65.7506 106.822 64.9721 105.473 63.9129C102.736 61.8086 101.143 58.6553 100.697 55.2349C100.458 53.5601 100.555 51.8546 100.982 50.2176C101.408 48.5807 102.156 47.045 103.183 45.7C105.287 42.9637 108.287 40.9668 111.711 40.5173C113.42 40.2892 115.158 40.4027 116.823 40.8512C118.488 41.2997 120.047 42.0742 121.411 43.1299C122.775 44.1856 123.915 45.5014 124.766 47.0011C125.617 48.5008 126.162 50.1546 126.37 51.8666C126.581 53.5652 126.455 55.2888 125.999 56.9388C125.544 58.5888 124.767 60.1329 123.715 61.4828V61.4828ZM105.372 47.394C103.739 49.5193 103.018 52.206 103.366 54.8632C103.715 57.5203 105.105 59.9302 107.23 61.5626C108.282 62.3709 109.484 62.964 110.765 63.3081C112.047 63.6521 113.384 63.7404 114.699 63.5678C117.356 63.2193 119.766 61.8295 121.399 59.7042C124.826 55.2446 124.138 48.8273 119.676 45.4003C115.213 41.9734 108.802 42.9311 105.372 47.394V47.394Z"
              fill="#2E2E2E"/>
        <path d="M127.979 39.1817L119.477 47.3972C117.597 49.2214 115.643 51.0196 114.053 53.0979L111.307 48.8175C110.177 47.0584 107.356 48.6905 108.492 50.4626L112.623 56.8962C113.274 57.9028 114.812 58.0005 115.437 56.8962C117.131 53.8993 119.78 51.6222 122.229 49.2573L130.282 41.475C131.794 40.0254 129.487 37.7223 127.979 39.1817Z"
              fill="#FCAE03"/>
        <path d="M134.862 128.999H76.2265C75.9673 128.999 75.7187 128.896 75.5354 128.712C75.3522 128.529 75.2492 128.281 75.2492 128.021V33.7351C75.2492 33.4759 75.3522 33.2273 75.5354 33.044C75.7187 32.8608 75.9673 32.7578 76.2265 32.7578C76.4857 32.7578 76.7342 32.8608 76.9175 33.044C77.1008 33.2273 77.2037 33.4759 77.2037 33.7351V127.044H134.862C135.121 127.044 135.37 127.147 135.553 127.33C135.736 127.514 135.839 127.762 135.839 128.021C135.839 128.281 135.736 128.529 135.553 128.712C135.37 128.896 135.121 128.999 134.862 128.999Z"
              fill="#100F0F"/>
        <path d="M75.5456 113.037H38.439C38.1798 113.037 37.9312 112.934 37.748 112.75C37.5647 112.567 37.4617 112.319 37.4617 112.059V17.7732C37.4617 17.514 37.5647 17.2654 37.748 17.0821C37.9312 16.8989 38.1798 16.7959 38.439 16.7959C38.6982 16.7959 38.9468 16.8989 39.13 17.0821C39.3133 17.2654 39.4163 17.514 39.4163 17.7732V111.082H75.5456C75.8048 111.082 76.0534 111.185 76.2367 111.368C76.4199 111.552 76.5229 111.8 76.5229 112.059C76.5229 112.319 76.4199 112.567 76.2367 112.75C76.0534 112.934 75.8048 113.037 75.5456 113.037V113.037Z"
              fill="#100F0F"/>
        <path d="M38.0839 99.0293H0.977262C0.718076 99.0293 0.469506 98.9263 0.286233 98.743C0.102961 98.5597 0 98.3112 0 98.052L0 3.76571C0 3.50653 0.102961 3.25796 0.286233 3.07469C0.469506 2.89141 0.718076 2.78845 0.977262 2.78845C1.23645 2.78845 1.48502 2.89141 1.66829 3.07469C1.85156 3.25796 1.95452 3.50653 1.95452 3.76571V97.0747H38.0839C38.3431 97.0747 38.5917 97.1777 38.7749 97.361C38.9582 97.5442 39.0612 97.7928 39.0612 98.052C39.0612 98.3112 38.9582 98.5597 38.7749 98.743C38.5917 98.9263 38.3431 99.0293 38.0839 99.0293Z"
              fill="#100F0F"/>
    </g>
    <defs>
        <clipPath id="clip0_75:82">
            <rect width="150" height="129.002" fill="white"/>
        </clipPath>
    </defs>
</svg>
