<?xml version="1.0" encoding="UTF-8"?>
<svg width="40px" height="40px" viewBox="0 0 40 40" version="1.1" xmlns="http://www.w3.org/2000/svg" xmlns:xlink="http://www.w3.org/1999/xlink">
    <!-- Generator: Sketch 50.2 (55047) - http://www.bohemiancoding.com/sketch -->
    <title>Fill 1</title>
    <desc>Created with Sketch.</desc>
    <defs></defs>
    <g id="Page-1" stroke="none" stroke-width="1" fill="none" fill-rule="evenodd">
        <g id="Homepage-v1" transform="translate(-264.000000, -2510.000000)" fill="#878787">
            <g id="Footer" transform="translate(0.000000, 2126.000000)">
                <g id="Social-Media-logos" transform="translate(16.000000, 384.000000)">
                    <g id="IN-Logo" transform="translate(248.000000, 0.000000)">
                        <path d="M34.0855556,34.0852778 L28.1566667,34.0852778 L28.1566667,24.8019444 C28.1566667,22.5883333 28.1161111,19.7408333 25.0736111,19.7408333 C21.9866667,19.7408333 21.5127778,22.1522222 21.5127778,24.6419444 L21.5127778,34.0852778 L15.585,34.0852778 L15.585,14.9958333 L21.2752778,14.9958333 L21.2752778,17.6041667 L21.3547222,17.6041667 C22.1469444,16.1036111 24.0822222,14.5213889 26.9686111,14.5213889 C32.9763889,14.5213889 34.0855556,18.4752778 34.0855556,23.6147222 L34.0855556,34.0852778 Z M8.89833333,12.3863889 C6.99666667,12.3863889 5.45777778,10.845 5.45777778,8.94583333 C5.45777778,7.04833333 6.99666667,5.50694444 8.89833333,5.50694444 C10.7952778,5.50694444 12.3366667,7.04833333 12.3366667,8.94583333 C12.3366667,10.845 10.7952778,12.3863889 8.89833333,12.3863889 Z M5.93055556,34.0852778 L11.8638889,34.0852778 L11.8638889,14.9958333 L5.93055556,14.9958333 L5.93055556,34.0852778 Z M37.0402778,0 L2.9525,0 C1.32361111,0 0,1.29111111 0,2.88222222 L0,37.1138889 C0,38.7069444 1.32361111,40 2.9525,40 L37.0402778,40 C38.6719444,40 40.0011111,38.7069444 40.0011111,37.1138889 L40.0011111,2.88222222 C40.0011111,1.29111111 38.6719444,0 37.0402778,0 Z" id="Fill-1"></path>
                    </g>
                </g>
            </g>
        </g>
    </g>
</svg>