<?xml version="1.0" encoding="UTF-8"?>
<svg width="9px" height="16px" viewBox="0 0 9 16" version="1.1" xmlns="http://www.w3.org/2000/svg" xmlns:xlink="http://www.w3.org/1999/xlink">
    <!-- Generator: Sketch 50.2 (55047) - http://www.bohemiancoding.com/sketch -->
    <title>Icon_Dollarsign</title>
    <desc>Created with Sketch.</desc>
    <defs></defs>
    <g id="Page-1" stroke="none" stroke-width="1" fill="none" fill-rule="evenodd">
        <g id="Mobile-Nav" transform="translate(-19.000000, -305.000000)" fill="#00ADEE" fill-rule="nonzero">
            <g id="Icon_Dollarsign" transform="translate(19.000000, 305.000000)">
                <path d="M5.33333333,7.07333333 L5.33333333,3.67333333 C6,3.86666667 6.66666667,4.24 6.66666667,4.79333333 C6.66666667,5.34561808 7.11438192,5.79333333 7.66666667,5.79333333 C8.21895142,5.79333333 8.66666667,5.34561808 8.66666667,4.79333333 C8.66666667,2.92666667 6.92,1.89333333 5.33333333,1.60666667 L5.33333333,1 C5.33333333,0.44771525 4.88561808,3.38176876e-17 4.33333333,0 C3.78104858,-3.38176876e-17 3.33333333,0.44771525 3.33333333,1 L3.33333333,1.66666667 C1.71333333,2 0,3.04666667 0,5.24666667 C0,7.44666667 1.89333333,8.36666667 3.33333333,8.71333333 L3.33333333,12.0466667 C2.66666667,11.8533333 2,11.48 2,10.9266667 C2,10.3743819 1.55228475,9.92666667 1,9.92666667 C0.44771525,9.92666667 6.76353751e-17,10.3743819 0,10.9266667 C0,12.7933333 1.74666667,13.8266667 3.33333333,14.1133333 L3.33333333,14.62 C3.33333333,15.1722847 3.78104858,15.62 4.33333333,15.62 C4.88561808,15.62 5.33333333,15.1722847 5.33333333,14.62 L5.33333333,14.08 C6.92666667,13.7466667 8.66666667,12.6733333 8.66666667,10.4733333 C8.61333333,8.51333333 6.84666667,7.5 5.33333333,7.07333333 Z M2,5.24666667 C2.03613713,4.48862094 2.58764939,3.85438183 3.33333333,3.71333333 L3.33333333,6.62666667 C2.66666667,6.4 2,6 2,5.24666667 Z M5.33333333,12 L5.33333333,9.19333333 C6,9.44666667 6.66666667,9.86 6.66666667,10.48 C6.62456476,11.232963 6.07439347,11.8601583 5.33333333,12 Z" id="Shape"></path>
            </g>
        </g>
    </g>
</svg>