<?xml version="1.0" encoding="UTF-8"?>
<svg width="60px" height="60px" viewBox="0 0 60 60" version="1.1" xmlns="http://www.w3.org/2000/svg" xmlns:xlink="http://www.w3.org/1999/xlink">
    <!-- Generator: Sketch 53.2 (72643) - https://sketchapp.com -->
    <title>Group 13</title>
    <desc>Created with Sketch.</desc>
    <defs>
        <polygon id="path-1" points="0 0.0271287129 11.8881056 0.0271287129 11.8881056 12.4752475 0 12.4752475"></polygon>
        <polygon id="path-3" points="0.0202310231 0 11.8653135 0 11.8653135 10.0506139 0.0202310231 10.0506139"></polygon>
    </defs>
    <g id="Page-1" stroke="none" stroke-width="1" fill="none" fill-rule="evenodd">
        <g id="Long-Form-Homepage-Copy-3" transform="translate(-130.000000, -1870.000000)">
            <g id="Group-11" transform="translate(0.000000, 1476.000000)">
                <g id="Group-13" transform="translate(130.000000, 394.000000)">
                    <path d="M56.2125,60 L3.7875,60 C1.6959375,60 0,58.3040625 0,56.2125 L0,3.7875 C0,1.6959375 1.6959375,0 3.7875,0 L56.2125,0 C58.3040625,0 60,1.6959375 60,3.7875 L60,56.2125 C60,58.3040625 58.3040625,60 56.2125,60" id="Fill-1" fill="#323232"></path>
                    <g id="Group-3" transform="translate(10.000000, 27.458746)">
                        <mask id="mask-2" fill="white">
                            <use xlink:href="#path-1"></use>
                        </mask>
                        <g id="Clip-2"></g>
                        <path d="M-1.32013201e-05,12.4752475 L9.57094389,12.4752475 C9.58619142,10.0173597 10.45167,7.76145215 11.8881056,5.98627063 L4.39893069,0.0271287129 C1.65972277,3.43749175 0.0152343234,7.76422442 -1.32013201e-05,12.4752475" id="Fill-1" fill="#FF3500" mask="url(#mask-2)"></path>
                    </g>
                    <path d="M24.145637,20.8712343 C20.2619406,22.058231 16.8810825,24.3955248 14.3989043,27.4858878 L21.8881452,33.4450297 C23.186297,31.8406733 24.9504554,30.6293861 26.9750099,30.0169109 L24.145637,20.8712343 Z" id="Fill-4" fill="#FF8800"></path>
                    <g id="Group-8" transform="translate(24.125413, 20.000000)">
                        <mask id="mask-4" fill="white">
                            <use xlink:href="#path-3"></use>
                        </mask>
                        <g id="Clip-7"></g>
                        <path d="M11.8653135,0.913518152 C9.97363036,0.320250825 7.96115512,-1.32013201e-05 5.87376238,-1.32013201e-05 C3.8369967,-1.32013201e-05 1.87178218,0.305333333 0.0202310231,0.871207921 L2.84960396,10.0168845 C3.80689769,9.72724752 4.8220132,9.57094389 5.87376238,9.57094389 C6.9659736,9.57094389 8.01884488,9.73919472 9.00821782,10.0506139 L11.8653135,0.913518152 Z" id="Fill-6" fill="#FFB300" mask="url(#mask-4)"></path>
                    </g>
                    <path d="M35.9907261,20.9135182 L33.1336304,30.0506139 C35.0959406,30.6682376 36.8078878,31.8503498 38.0793069,33.4065875 L45.5080198,27.372462 C43.0642574,24.3746403 39.7692079,22.0984686 35.9907261,20.9135182" id="Fill-9" fill="#00AFF1"></path>
                    <path d="M38.0792805,33.4065941 C39.53433,35.1875842 40.4120198,37.4584092 40.4273333,39.9339868 L49.9982904,39.9339868 C49.9829109,35.1706865 48.3022508,30.7999934 45.5080594,27.3724686 L38.0792805,33.4065941 Z" id="Fill-11" fill="#00D866"></path>
                </g>
            </g>
        </g>
    </g>
</svg>