<?xml version="1.0" encoding="UTF-8"?>
<svg width="40px" height="40px" viewBox="0 0 40 40" version="1.1" xmlns="http://www.w3.org/2000/svg" xmlns:xlink="http://www.w3.org/1999/xlink">
    <!-- Generator: Sketch 50.2 (55047) - http://www.bohemiancoding.com/sketch -->
    <title>Shape</title>
    <desc>Created with Sketch.</desc>
    <defs></defs>
    <g id="Page-1" stroke="none" stroke-width="1" fill="none" fill-rule="evenodd">
        <g id="Homepage-v1" transform="translate(-98.000000, -2510.000000)" fill="#888888" fill-rule="nonzero">
            <g id="Footer" transform="translate(0.000000, 2126.000000)">
                <g id="Social-Media-logos" transform="translate(16.000000, 384.000000)">
                    <g id="flogo-RGB-HEX-Blk-58" transform="translate(82.000000, 0.000000)">
                        <path d="M37.7931034,0 L2.20689655,0 C0.988061242,-7.46321381e-17 1.49264276e-16,0.988061242 0,2.20689655 L0,37.7931034 C1.49264276e-16,39.0119388 0.988061242,40 2.20689655,40 L21.3793103,40 L21.3793103,24.5310345 L16.1724138,24.5310345 L16.1724138,18.4758621 L21.3793103,18.4758621 L21.3793103,14.0206897 C21.3793103,8.85517241 24.537931,6.04137931 29.1448276,6.04137931 C30.6972922,6.03799368 32.2488606,6.11626271 33.7931034,6.27586207 L33.7931034,11.6758621 L30.6206897,11.6758621 C28.1103448,11.6758621 27.6206897,12.862069 27.6206897,14.6137931 L27.6206897,18.4689655 L33.6206897,18.4689655 L32.8413793,24.5241379 L27.5862069,24.5241379 L27.5862069,40 L37.7931034,40 C39.0119388,40 40,39.0119388 40,37.7931034 L40,2.20689655 C40,0.988061242 39.0119388,7.46321381e-17 37.7931034,0 Z" id="Shape"></path>
                    </g>
                </g>
            </g>
        </g>
    </g>
</svg>