<?xml version="1.0" encoding="UTF-8"?>
<svg width="40px" height="40px" viewBox="0 0 40 40" version="1.1" xmlns="http://www.w3.org/2000/svg" xmlns:xlink="http://www.w3.org/1999/xlink">
    <!-- Generator: Sketch 50.2 (55047) - http://www.bohemiancoding.com/sketch -->
    <title>IG Logo</title>
    <desc>Created with Sketch.</desc>
    <defs>
        <polygon id="path-1" points="0 0 40 0 40 40 0 40"></polygon>
    </defs>
    <g id="Page-1" stroke="none" stroke-width="1" fill="none" fill-rule="evenodd">
        <g id="Homepage-v1" transform="translate(-183.000000, -2510.000000)">
            <g id="Footer" transform="translate(0.000000, 2126.000000)">
                <g id="Social-Media-logos" transform="translate(16.000000, 384.000000)">
                    <g id="IG-Logo" transform="translate(167.000000, 0.000000)">
                        <mask id="mask-2" fill="white">
                            <use xlink:href="#path-1"></use>
                        </mask>
                        <g id="Clip-2"></g>
                        <path d="M19.9999603,0 C14.5683261,0 13.8871588,0.0230231363 11.7540256,0.12035543 C9.62517937,0.217449553 8.1713874,0.555572095 6.89916065,1.05001379 C5.58406323,1.56104803 4.46863197,2.24491457 3.35677327,3.35677327 C2.24483518,4.46871136 1.56104803,5.58406323 1.0499344,6.89916065 C0.555492705,8.1713874 0.217449553,9.62517937 0.120276039,11.7540256 C0.0229437461,13.8872382 0,14.5682467 0,19.9999603 C0,25.4316739 0.0229437461,26.1127618 0.120276039,28.2459744 C0.217449553,30.3747412 0.555492705,31.8286126 1.0499344,33.10076 C1.56104803,34.4158574 2.24483518,35.5312886 3.35677327,36.6431473 C4.46863197,37.7550854 5.58406323,38.4388726 6.89916065,38.9500656 C8.1713874,39.4444279 9.62517937,39.7825504 11.7540256,39.879724 C13.8871588,39.9769769 14.5683261,40 19.9999603,40 C25.4316739,40 26.1126824,39.9769769 28.245895,39.879724 C30.3747412,39.7825504 31.8285332,39.4444279 33.10076,38.9500656 C34.4159368,38.4388726 35.5312886,37.7550854 36.6431473,36.6431473 C37.7550854,35.5312886 38.4388726,34.4159368 38.9499862,33.10076 C39.4444279,31.8286126 39.7825504,30.3747412 39.8796446,28.2459744 C39.9769769,26.1127618 40,25.4316739 40,19.9999603 C40,14.5683261 39.9769769,13.8872382 39.8796446,11.7540256 C39.7825504,9.62517937 39.4444279,8.1713874 38.9499862,6.89916065 C38.4388726,5.58406323 37.7550854,4.46871136 36.6431473,3.35677327 C35.5312886,2.24491457 34.4159368,1.56104803 33.10076,1.05001379 C31.8285332,0.555572095 30.3747412,0.217449553 28.245895,0.12035543 C26.1126824,0.0230231363 25.4316739,0 19.9999603,0 M19.9999603,3.60359717 C25.3402165,3.60359717 25.9727176,3.62392104 28.0816369,3.72014187 C30.0316171,3.8091382 31.090602,4.13495527 31.7953481,4.40885121 C32.7288966,4.77166408 33.3952179,5.20505477 34.0950419,5.90487872 C34.7948658,6.60478206 35.2282565,7.27102399 35.5911488,8.20457247 C35.8649653,8.90931861 36.1907824,9.96830349 36.2797787,11.9182837 C36.3759202,14.027203 36.3963234,14.6597835 36.3963234,19.9999603 C36.3963234,25.3402165 36.3759202,25.972797 36.2797787,28.0816369 C36.1907824,30.0316965 35.8649653,31.0906814 35.5911488,31.7954275 C35.2282565,32.7288966 34.7948658,33.3952179 34.0950419,34.0950419 C33.3952179,34.7949452 32.7288966,35.2283359 31.7953481,35.5911488 C31.090602,35.8649653 30.0316171,36.1908618 28.0816369,36.2797787 C25.9730351,36.3759996 25.3406134,36.3964028 19.9999603,36.3964028 C14.6593072,36.3964028 14.0268855,36.3759996 11.9182837,36.2797787 C9.96830349,36.1908618 8.90923922,35.8649653 8.20449308,35.5911488 C7.27102399,35.2283359 6.60470267,34.7949452 5.90487872,34.0950419 C5.20505477,33.3952179 4.77158469,32.7288966 4.40877181,31.7954275 C4.13495527,31.0906814 3.8091382,30.0316965 3.72014187,28.0817163 C3.62392104,25.972797 3.60359717,25.3402165 3.60359717,19.9999603 C3.60359717,14.6597835 3.62392104,14.027203 3.72014187,11.9182837 C3.8091382,9.96830349 4.13495527,8.90931861 4.40877181,8.20457247 C4.77158469,7.27102399 5.20505477,6.60478206 5.90487872,5.90495811 C6.60470267,5.20505477 7.27102399,4.77166408 8.20449308,4.40885121 C8.90923922,4.13495527 9.96830349,3.8091382 11.9182044,3.72014187 C14.027203,3.62392104 14.6597042,3.60359717 19.9999603,3.60359717" id="Fill-1" fill="#888888" mask="url(#mask-2)"></path>
                        <path d="M19.7727668,26.4114874 C16.1063032,26.4114874 13.1339671,23.4391513 13.1339671,19.7726877 C13.1339671,16.1062242 16.1063032,13.1339671 19.7727668,13.1339671 C23.4392304,13.1339671 26.4115665,16.1062242 26.4115665,19.7726877 C26.4115665,23.4391513 23.4392304,26.4114874 19.7727668,26.4114874 M19.7727668,9.54545455 C14.1244032,9.54545455 9.54545455,14.1243242 9.54545455,19.7726877 C9.54545455,25.4211304 14.1244032,30 19.7727668,30 C25.4211304,30 30,25.4211304 30,19.7726877 C30,14.1243242 25.4211304,9.54545455 19.7727668,9.54545455" id="Fill-4" fill="#888888" mask="url(#mask-2)"></path>
                        <path d="M33.1818182,9.31818182 C33.1818182,10.6989294 32.0625843,11.8181818 30.6818595,11.8181818 C29.3011348,11.8181818 28.1818182,10.6989294 28.1818182,9.31818182 C28.1818182,7.93743422 29.3011348,6.81818182 30.6818595,6.81818182 C32.0625843,6.81818182 33.1818182,7.93743422 33.1818182,9.31818182" id="Fill-6" fill="#888888" mask="url(#mask-2)"></path>
                    </g>
                </g>
            </g>
        </g>
    </g>
</svg>