<svg width="150" height="93" viewBox="0 0 150 93" fill="none" xmlns="http://www.w3.org/2000/svg">
    <g clip-path="url(#clip0_75:54)">
        <path d="M124.266 39.5444C122.458 29.6367 117.314 20.3901 110.294 13.2257C103.632 6.42903 95.1543 1.50451 85.638 0.290368C74.6509 -1.12458 63.9573 2.97816 54.7438 8.65031C44.5477 14.9465 32.9211 22.8616 30.026 35.2192C27.2452 47.0146 31.1908 59.2641 35.5875 70.145C35.8877 70.9095 36.3767 71.5855 37.0088 72.1099C41.9276 80.9116 50.4305 87.0565 59.8727 90.2386C80.2865 97.1341 102.313 88.3571 115.123 71.6743C122.328 62.3041 126.432 51.4139 124.266 39.5444ZM103.197 68.0968C98.8527 73.8492 92.6918 78.2702 85.5298 79.6264C85.0262 79.9405 84.451 80.1212 83.8583 80.1516C75.3924 80.6676 66.0954 80.5594 58.643 75.9624C50.8198 71.1367 48.0576 61.3618 46.0771 52.9278C44.2882 45.3062 43.9143 37.042 47.3964 29.8282C50.412 23.5753 55.7387 18.901 61.9181 15.8888C68.4344 12.716 75.9547 11.3072 83.1631 12.336C91.8143 13.5717 98.3367 18.8763 103.12 25.9634C111.61 38.562 112.577 55.6681 103.197 68.0968Z"
              fill="#2E2E2E"/>
        <path d="M20.4663 34.8549V56.6785C20.4623 56.8397 20.3954 56.9929 20.28 57.1054C20.1645 57.218 20.0096 57.281 19.8484 57.2809H16.7927C16.6314 57.281 16.4765 57.218 16.3611 57.1054C16.2456 56.9929 16.1787 56.8397 16.1747 56.6785V48.0281C16.1747 47.8643 16.1096 47.7071 15.9937 47.5912C15.8778 47.4753 15.7207 47.4102 15.5568 47.4102H4.88177C4.71788 47.4102 4.5607 47.4753 4.44481 47.5912C4.32893 47.7071 4.26382 47.8643 4.26382 48.0281V56.6785C4.2599 56.837 4.19517 56.988 4.08302 57.1001C3.97087 57.2123 3.81988 57.277 3.66132 57.2809H0.617945C0.456698 57.281 0.301818 57.218 0.186364 57.1054C0.0709113 56.9929 0.00403118 56.8397 0 56.6785L0 34.8549C0.00403118 34.6937 0.0709113 34.5405 0.186364 34.4279C0.301818 34.3154 0.456698 34.2524 0.617945 34.2524H3.68913C3.84769 34.2564 3.99867 34.3211 4.11083 34.4332C4.22298 34.5454 4.28771 34.6963 4.29163 34.8549V43.1561C4.29566 43.3173 4.36254 43.4705 4.47799 43.5831C4.59345 43.6956 4.74833 43.7586 4.90957 43.7586H15.5846C15.7458 43.7586 15.9007 43.6956 16.0162 43.5831C16.1316 43.4705 16.1985 43.3173 16.2025 43.1561V34.8549C16.2066 34.6937 16.2734 34.5405 16.3889 34.4279C16.5043 34.3154 16.6592 34.2524 16.8205 34.2524H19.8886C20.0428 34.2624 20.1876 34.3298 20.2946 34.4414C20.4015 34.5529 20.4628 34.7004 20.4663 34.8549Z"
              fill="#FCAE03"/>
        <path d="M38.9058 41.3735C40.2777 42.6093 40.9636 44.4794 40.9636 46.9839V56.6785C40.9595 56.8396 40.8927 56.9929 40.7772 57.1054C40.6618 57.218 40.5069 57.2809 40.3456 57.2809H37.6946C37.5334 57.2809 37.3785 57.218 37.2631 57.1054C37.1476 56.9929 37.0807 56.8396 37.0767 56.6785C37.071 56.5671 37.0352 56.4594 36.9732 56.3667C36.9113 56.2741 36.8253 56.1999 36.7246 56.1521C36.6239 56.1043 36.5121 56.0846 36.4011 56.0951C36.2902 56.1057 36.1841 56.146 36.0942 56.212C35.7343 56.4907 35.3409 56.7232 34.9232 56.904C33.8525 57.3383 32.7043 57.5486 31.5492 57.5219C30.3635 57.5472 29.1863 57.3164 28.098 56.8453C27.1738 56.4489 26.381 55.7987 25.8116 54.97C25.2737 54.1686 24.9924 53.2226 25.0051 52.2575C24.9812 51.5306 25.1281 50.8081 25.4339 50.1482C25.7398 49.4882 26.1961 48.9092 26.7663 48.4575C27.9404 47.5039 29.788 47.0271 32.3093 47.0271H36.8511V46.7615C36.8511 45.5257 36.4835 44.5834 35.7481 43.9346C35.0128 43.2859 33.9211 42.9553 32.473 42.9429C31.4848 42.9438 30.5028 43.0992 29.5625 43.4033C28.9004 43.6106 28.2695 43.9068 27.687 44.2837C27.6166 44.3293 27.5377 44.3601 27.4551 44.3742C27.3724 44.3883 27.2878 44.3854 27.2063 44.3658C27.1247 44.3461 27.0481 44.3101 26.9809 44.2599C26.9138 44.2097 26.8576 44.1463 26.8157 44.0737L25.7868 42.1644C25.7176 42.0304 25.6998 41.8756 25.7368 41.7294C25.7738 41.5831 25.863 41.4554 25.9877 41.3704C26.8717 40.7966 27.8388 40.3621 28.8549 40.0821C30.1926 39.703 31.5771 39.5148 32.9674 39.523C35.5566 39.5188 37.536 40.1357 38.9058 41.3735ZM35.1549 53.8115C35.9048 53.3783 36.4862 52.7044 36.8048 51.8991C36.835 51.8256 36.8508 51.7469 36.8511 51.6674V50.3575C36.8511 50.1937 36.786 50.0365 36.6702 49.9206C36.5543 49.8047 36.3971 49.7396 36.2332 49.7396H32.6059C30.2309 49.7396 29.0434 50.5213 29.0434 52.0845C29.0333 52.4307 29.109 52.7741 29.2637 53.0841C29.4184 53.394 29.6473 53.6609 29.9302 53.8609C30.5234 54.2996 31.3473 54.519 32.4019 54.519C33.3668 54.537 34.3183 54.2924 35.1549 53.8115Z"
              fill="#FCAE03"/>
        <path d="M56.3937 40.1344V42.7419C56.3938 42.826 56.3768 42.9092 56.3436 42.9865C56.3104 43.0637 56.2619 43.1334 56.2008 43.1913C56.1398 43.2491 56.0676 43.2939 55.9887 43.3229C55.9097 43.3518 55.8257 43.3644 55.7417 43.3598C55.6367 43.3598 55.5378 43.3598 55.4328 43.3598C53.8323 43.3598 52.582 43.8252 51.6818 44.7562C50.7817 45.6871 50.3327 47.031 50.3347 48.7879V56.706C50.3307 56.8672 50.2638 57.0204 50.1484 57.133C50.0329 57.2455 49.878 57.3085 49.7168 57.3085H46.8093C46.6508 57.3045 46.4998 57.2398 46.3877 57.1277C46.2755 57.0155 46.2108 56.8646 46.2068 56.706V40.3322C46.2108 40.1736 46.2755 40.0226 46.3877 39.9105C46.4998 39.7984 46.6508 39.7336 46.8093 39.7297H49.519C49.6776 39.7336 49.8286 39.7984 49.9407 39.9105C50.0529 40.0226 50.1176 40.1736 50.1215 40.3322V40.6813C50.1272 40.7936 50.1634 40.9023 50.2263 40.9956C50.2893 41.0889 50.3764 41.1633 50.4785 41.2106C50.5806 41.258 50.6937 41.2766 50.8055 41.2645C50.9174 41.2523 51.0238 41.2098 51.1133 41.1416C52.2256 40.1715 53.7705 39.6391 55.7479 39.5444C55.8291 39.5406 55.9102 39.5529 55.9866 39.5806C56.063 39.6082 56.1332 39.6507 56.1932 39.7055C56.2532 39.7603 56.3018 39.8264 56.3362 39.9C56.3706 39.9736 56.3901 40.0533 56.3937 40.1344Z"
              fill="#FCAE03"/>
        <path d="M76.9342 33.4738V56.6783C76.9302 56.8369 76.8655 56.9878 76.7534 57.1C76.6412 57.2121 76.4902 57.2769 76.3317 57.2808H73.5911C73.4298 57.2808 73.2749 57.2178 73.1595 57.1053C73.044 56.9927 72.9772 56.8395 72.9731 56.6783V56.4497C72.9748 56.3351 72.9436 56.2225 72.8832 56.1251C72.8228 56.0277 72.7357 55.9497 72.6323 55.9003C72.5289 55.8508 72.4135 55.8321 72.2997 55.8463C72.186 55.8604 72.0787 55.9069 71.9906 55.9801C71.52 56.3518 71.0001 56.6564 70.4457 56.8853C69.3948 57.3095 68.2698 57.5196 67.1366 57.5032C65.5478 57.5269 63.9795 57.1418 62.5824 56.3848C61.2431 55.6497 60.1413 54.548 59.4061 53.2089C58.649 51.7533 58.2537 50.1368 58.2537 48.496C58.2537 46.8553 58.649 45.2387 59.4061 43.7831C60.1441 42.4509 61.2457 41.3559 62.5824 40.6258C63.9788 39.8671 65.5476 39.4819 67.1366 39.5074C68.2288 39.4944 69.313 39.6948 70.3283 40.0975C70.8643 40.3148 71.3684 40.6037 71.8268 40.9563C71.9173 41.0193 72.023 41.0569 72.1329 41.0653C72.2428 41.0737 72.353 41.0525 72.452 41.004C72.5509 40.9554 72.6351 40.8813 72.6958 40.7893C72.7565 40.6972 72.7914 40.5906 72.797 40.4806V33.4738C72.801 33.3126 72.8679 33.1594 72.9834 33.0468C73.0988 32.9343 73.2537 32.8713 73.415 32.8713H76.3162C76.4775 32.8713 76.6323 32.9343 76.7478 33.0468C76.8632 33.1594 76.9301 33.3126 76.9342 33.4738ZM70.3221 53.3171C71.1148 52.8632 71.7645 52.1964 72.1976 51.3924C72.6506 50.4946 72.8866 49.5031 72.8866 48.4976C72.8866 47.492 72.6506 46.5005 72.1976 45.6028C71.7654 44.798 71.1155 44.131 70.3221 43.6781C69.5041 43.2341 68.588 43.0015 67.6573 43.0015C66.7265 43.0015 65.8104 43.2341 64.9924 43.6781C64.1983 44.1301 63.5482 44.7973 63.1169 45.6028C62.662 46.5 62.4249 47.4917 62.4249 48.4976C62.4249 49.5035 62.662 50.4952 63.1169 51.3924C63.5491 52.1971 64.199 52.8641 64.9924 53.3171C65.811 53.7592 66.7268 53.9906 67.6573 53.9906C68.5877 53.9906 69.5035 53.7592 70.3221 53.3171Z"
              fill="#FCAE03"/>
        <path d="M105.73 40.6352C107.066 41.3668 108.167 42.4614 108.907 43.7925C109.662 45.2488 110.056 46.8651 110.056 48.5054C110.056 50.1458 109.662 51.7621 108.907 53.2183C108.171 54.5568 107.069 55.6583 105.73 56.3943C104.322 57.1537 102.742 57.5388 101.142 57.5126C99.2883 57.5126 97.7363 57.0286 96.486 56.0606C96.3972 55.9908 96.2906 55.9474 96.1783 55.9355C96.066 55.9236 95.9526 55.9437 95.8512 55.9934C95.7498 56.0431 95.6646 56.1205 95.6052 56.2165C95.5459 56.3126 95.5149 56.4235 95.5158 56.5364V63.0612C95.5118 63.2224 95.4449 63.3756 95.3294 63.4882C95.214 63.6007 95.0591 63.6637 94.8978 63.6636H91.9935C91.8322 63.6637 91.6774 63.6007 91.5619 63.4882C91.4465 63.3756 91.3796 63.2224 91.3755 63.0612V40.317C91.3796 40.1558 91.4465 40.0026 91.5619 39.89C91.6774 39.7774 91.8322 39.7145 91.9935 39.7145H94.7001C94.8613 39.7145 95.0162 39.7774 95.1317 39.89C95.2471 40.0026 95.314 40.1558 95.318 40.317V40.5765C95.3174 40.6899 95.3489 40.8013 95.409 40.8975C95.4691 40.9938 95.5553 41.071 95.6576 41.1202C95.7599 41.1694 95.874 41.1885 95.9867 41.1754C96.0995 41.1623 96.2062 41.1174 96.2944 41.0461C96.765 40.6744 97.2849 40.3697 97.8393 40.1409C98.8901 39.7164 100.015 39.5063 101.148 39.523C102.746 39.4944 104.324 39.8774 105.73 40.6352ZM104.414 52.4769C105.391 51.4697 105.879 50.1433 105.879 48.4977C105.879 46.8521 105.391 45.5247 104.414 44.5155C103.931 44.0168 103.35 43.6245 102.706 43.3638C102.063 43.1032 101.372 42.9798 100.679 43.0017C99.7468 42.988 98.8278 43.2215 98.0154 43.6782C97.2213 44.1303 96.5712 44.7975 96.1399 45.6029C95.685 46.5001 95.4479 47.4918 95.4479 48.4977C95.4479 49.5036 95.685 50.4953 96.1399 51.3925C96.5721 52.1973 97.222 52.8642 98.0154 53.3172C98.8287 53.7715 99.7472 54.0038 100.679 53.9907C101.373 54.0133 102.063 53.8903 102.707 53.6296C103.35 53.3688 103.932 52.9762 104.414 52.4769Z"
              fill="#FCAE03"/>
        <path d="M130.983 40.3168V56.6907C130.979 56.8492 130.914 57.0002 130.802 57.1123C130.69 57.2245 130.539 57.2892 130.38 57.2931H127.671C127.512 57.2892 127.361 57.2245 127.249 57.1123C127.137 57.0002 127.072 56.8492 127.068 56.6907V56.4744C127.063 56.3636 127.028 56.2562 126.966 56.1637C126.905 56.0711 126.82 55.9968 126.72 55.9484C126.62 55.9001 126.509 55.8795 126.399 55.8889C126.288 55.8983 126.182 55.9372 126.092 56.0017C125.634 56.3582 125.133 56.6542 124.599 56.8822C123.591 57.314 122.505 57.5328 121.408 57.5248C119.06 57.5248 117.212 56.8719 115.865 55.5661C114.518 54.2603 113.843 52.3181 113.841 49.7395V40.3168C113.845 40.1582 113.91 40.0073 114.022 39.8951C114.134 39.783 114.285 39.7183 114.443 39.7144H117.351C117.509 39.7183 117.66 39.783 117.773 39.8951C117.885 40.0073 117.95 40.1582 117.953 40.3168V49.1865C117.953 50.7683 118.31 51.9474 119.022 52.7239C119.735 53.5003 120.75 53.8896 122.066 53.8917C123.537 53.8917 124.704 53.4365 125.57 52.5261C126.438 51.6179 126.87 50.3049 126.87 48.5964V40.3168C126.874 40.1582 126.939 40.0073 127.051 39.8951C127.163 39.783 127.314 39.7183 127.473 39.7144H130.386C130.544 39.7198 130.693 39.7852 130.804 39.8972C130.915 40.0092 130.979 40.1593 130.983 40.3168Z"
              fill="#FCAE03"/>
        <path d="M136.983 32.8713H139.887C140.049 32.8713 140.204 32.9343 140.319 33.0468C140.434 33.1594 140.501 33.3126 140.505 33.4738V56.6784C140.501 56.8395 140.434 56.9928 140.319 57.1053C140.204 57.2179 140.049 57.2808 139.887 57.2808H136.983C136.822 57.2808 136.667 57.2179 136.551 57.1053C136.436 56.9928 136.369 56.8395 136.365 56.6784V33.4738C136.369 33.3126 136.436 33.1594 136.551 33.0468C136.667 32.9343 136.822 32.8713 136.983 32.8713Z"
              fill="#FCAE03"/>
        <path d="M146.49 32.8713H149.398C149.559 32.8713 149.714 32.9343 149.829 33.0468C149.945 33.1594 150.011 33.3126 150.015 33.4738V56.6784C150.011 56.8395 149.945 56.9928 149.829 57.1053C149.714 57.2179 149.559 57.2808 149.398 57.2808H146.49C146.332 57.2769 146.181 57.2121 146.068 57.1C145.956 56.9879 145.891 56.8369 145.888 56.6784V33.4738C145.891 33.3152 145.956 33.1643 146.068 33.0521C146.181 32.94 146.332 32.8753 146.49 32.8713Z"
              fill="#FCAE03"/>
        <path d="M104.742 9.18786C101.266 8.39697 98.6055 10.1147 97.1873 13.0836C97.1626 13.1114 97.1286 13.1578 97.0761 13.2319C96.8907 13.4976 96.7671 13.8127 96.5817 14.0908C96.5539 14.1371 96.4767 14.2885 96.3932 14.4306C95.6146 15.308 94.8268 16.1699 93.9894 16.9948C92.182 18.7712 90.3714 20.5445 88.604 22.3611C84.9922 26.0869 81.4977 29.9333 78.099 33.8537C71.3016 41.7039 64.8441 49.86 58.4143 58.0191L46.9638 72.5764C45.8824 73.9512 45.11 75.2271 45.11 77.053C45.11 78.5977 45.799 80.4513 46.9638 81.5326C49.2471 83.6272 53.7334 84.3131 55.924 81.5326C69.3087 64.5408 82.3226 47.0888 97.385 31.5274C99.381 29.4544 101.467 27.4648 103.506 25.4165C105.948 23.0215 107.878 20.1553 109.179 16.9917C110.433 13.9023 107.831 9.88606 104.742 9.18786Z"
              fill="#2E2E2E"/>
    </g>
    <defs>
        <clipPath id="clip0_75:54">
            <rect width="150" height="92.6174" fill="white"/>
        </clipPath>
    </defs>
</svg>
