<svg width="150" height="103" viewBox="0 0 150 103" fill="none" xmlns="http://www.w3.org/2000/svg">
    <g clip-path="url(#clip0_75:37)">
        <path d="M116.247 66.1482C115.538 66.1482 115.028 65.6345 114.852 65.4584C114.714 65.3116 114.588 65.1781 114.466 65.0431L114.319 64.8816L112.528 63.0382C112.518 63.0296 112.51 63.0203 112.503 63.0103L111.995 62.4482C111.847 62.2966 111.697 62.1459 111.547 61.9962C111.197 61.6439 110.835 61.2785 110.484 60.9042C110.133 60.53 109.802 60.1601 109.475 59.7947L109.122 59.4013L108.829 59.758L106.911 62.1297L105.289 64.1375L104.593 64.9946C104.538 65.0622 104.475 65.122 104.405 65.1722C104.057 65.4188 103.585 65.6874 103.02 65.5773C102.808 65.5282 102.609 65.4353 102.435 65.3046C102.261 65.1739 102.117 65.0083 102.011 64.8185C101.538 64.07 101.083 63.3009 100.643 62.5583C100.462 62.2545 100.283 61.9507 100.101 61.6469L99.4812 60.6195L99.468 60.596L98.769 59.3646C98.7646 59.3576 98.7606 59.3502 98.7573 59.3426L98.6105 59.0755L97.7926 57.7942L97.3345 57.1205L94.5813 57.7766L93.665 58.0041L88.6227 59.1782L88.3628 59.2575C88.1308 59.3279 87.8988 59.4043 87.6653 59.4644C86.7315 59.7345 86.1705 59.2942 85.9194 59.0006C85.8944 58.9719 85.8713 58.9415 85.8504 58.9096L85.5083 58.4136C85.3878 58.2338 85.331 58.0188 85.3468 57.803L85.3791 57.3847C85.3816 57.3562 85.3855 57.3278 85.3908 57.2996L85.4613 56.8828C85.4669 56.8476 85.4747 56.8128 85.4848 56.7786L85.8372 55.556L86.3467 53.513C86.3467 53.4895 86.36 53.466 86.3673 53.4426L86.8783 51.9088L87.4656 49.5708L87.5053 49.3331L85.4187 49.3888L84.0444 49.4608L82.7742 49.5811H82.7478L81.7757 49.6457L81.228 49.7103H81.2001C80.9065 49.7352 80.5996 49.766 80.3 49.7954C79.5659 49.8673 78.8053 49.9421 78.0417 49.9642C77.7548 49.9853 77.4676 49.9272 77.2115 49.7962C76.9554 49.6652 76.7402 49.4664 76.5895 49.2215C76.4528 48.9755 76.386 48.6969 76.3963 48.4157C76.4067 48.1344 76.4938 47.8614 76.6482 47.6262C77.3824 46.4256 78.1372 45.2162 78.8684 44.0465L79.7127 42.6933L79.7318 42.6625L80.3456 41.7569L80.7861 41.0627C81.1443 40.5079 81.5129 39.937 81.8594 39.3661L81.7904 39.3221L81.6627 39.2751C81.6083 39.2546 81.5557 39.2296 81.5056 39.2002L80.4381 38.5618L79.3838 37.938L78.3178 37.3788C77.381 36.8896 76.4446 36.3975 75.5088 35.9024C75.3076 35.7952 75.1182 35.6851 74.9332 35.578L74.7247 35.4562C73.9611 35.0907 73.2563 34.6387 73.177 33.8271C73.0875 32.8951 73.9714 32.2479 74.3958 31.9367C74.5812 31.8053 74.7744 31.6853 74.9743 31.5771C75.036 31.5419 75.0977 31.5081 75.1593 31.4715L76.1475 30.8022C77.0007 30.2254 77.8831 29.628 78.7597 29.041C79.0798 28.8296 79.4043 28.6491 79.72 28.4759L80.1136 28.2543L82.783 26.6589L82.6935 26.5269C82.6497 26.481 82.6095 26.432 82.5731 26.3801L82.4262 26.2333L82.4145 26.2216L81.4938 25.2705C81.347 25.1238 81.2001 24.977 81.0533 24.8302C80.7097 24.4912 80.3558 24.1389 80.0152 23.775C79.5159 23.2422 79.0226 22.6948 78.5468 22.1605C78.3457 21.9374 78.146 21.7202 77.9433 21.4927L76.82 20.3186L76.7716 20.2804C76.5956 20.1524 76.4435 19.9944 76.3223 19.8137C76.1517 19.5669 76.0498 19.2792 76.0268 18.9801C76.0038 18.681 76.0607 18.3812 76.1916 18.1112C76.4853 17.5388 77.0726 17.1792 77.8244 17.1205L81.4821 16.7771C82.2001 16.7125 82.9181 16.6494 83.6362 16.5922C83.874 16.5731 84.0987 16.5731 84.3175 16.5716H84.5832H84.6097H85.1383L86.6727 16.4733L90.3098 16.2135H90.3377L91.3318 16.1445L91.4625 14.8119C91.4625 14.7943 91.4625 14.7766 91.4698 14.7605L91.5976 13.9283L91.925 10.8814L92.2672 7.3957C92.2716 7.3462 92.2799 7.29712 92.2921 7.24894L92.3993 6.83065C92.414 6.77633 92.4332 6.72332 92.4566 6.67214C92.6386 6.2744 92.9529 5.71815 93.5696 5.498C94.2392 5.25437 94.875 5.55524 95.0849 5.65504C95.4917 5.84731 95.8881 6.05718 96.2714 6.26119C96.4373 6.34925 96.6032 6.43731 96.7706 6.5239L96.7868 6.53271L97.725 7.04493L99.8483 8.09138L100.516 8.41134L101.713 8.95291L103.226 9.65886L104.29 10.1109C104.814 9.2303 105.34 8.34969 105.849 7.47789C106.17 6.93192 106.491 6.38692 106.813 5.8429C106.864 5.75878 106.925 5.68137 106.995 5.61248L107.04 5.49506C107.058 5.44795 107.08 5.40231 107.105 5.35857L107.545 4.58804C107.986 3.80724 108.454 3.00002 108.929 2.21187C109.101 1.95264 109.345 1.74876 109.63 1.6248C109.66 1.61013 109.689 1.59545 109.716 1.57931C109.924 1.44934 110.173 1.40122 110.415 1.44428C110.432 1.44428 110.46 1.44428 110.488 1.44428C110.671 1.44324 110.853 1.4788 111.022 1.54887C111.191 1.61894 111.345 1.7221 111.473 1.85229C111.914 2.33956 112.337 2.84738 112.743 3.33758L113.156 3.83219L113.661 4.41926L114.729 5.61688C115.745 6.7646 116.762 7.90694 117.78 9.0439L117.943 9.22149L118.383 8.63442L118.677 8.23668L119.683 6.79836L119.699 6.77488L119.993 6.38301L120.006 6.36686C120.253 6.04985 120.507 5.72402 120.761 5.38499C120.868 5.21327 120.972 5.03862 121.076 4.86543C121.335 4.43834 121.602 3.9951 121.896 3.56507C122.358 2.88701 122.847 2.21921 123.32 1.5749L123.636 1.13754C123.81 0.875984 124.022 0.641154 124.264 0.44039C124.471 0.273833 124.715 0.159439 124.976 0.106826C125.237 0.0542135 125.506 0.0649214 125.762 0.138049C126.01 0.21292 126.236 0.346059 126.422 0.526329C126.608 0.706599 126.748 0.928759 126.831 1.17423C127.189 2.2016 127.541 3.22897 127.881 4.23727C128.019 4.64088 128.155 5.04596 128.293 5.44957L128.505 6.02196C128.505 6.03223 128.512 6.04397 128.516 6.05425L129.474 8.92209C129.631 8.91134 129.787 8.89026 129.941 8.85898C130.048 8.84136 130.155 8.82228 130.262 8.80761C130.305 8.80406 130.348 8.80357 130.39 8.80614H130.585L130.938 8.74156H130.975L137.123 7.86096H137.175C137.843 7.80225 138.374 7.95049 138.751 8.30126C138.928 8.47372 139.066 8.68257 139.155 8.9134C139.243 9.14424 139.281 9.39156 139.265 9.63831C139.249 10.6657 139.211 11.6931 139.174 12.6955C139.159 13.1094 139.143 13.5232 139.13 13.9386L139.027 16.3353V16.3882L138.823 18.4693L143.061 19.0769L145.968 19.4072C146.084 19.416 146.201 19.4233 146.319 19.4292C146.641 19.4428 146.962 19.4742 147.281 19.5231C148.213 19.6801 148.558 20.2217 148.681 20.5299C148.805 20.8381 148.922 21.4516 148.372 22.1796C147.843 22.8767 147.291 23.5666 146.756 24.2343L146.079 25.0797L145.379 25.9603C144.783 26.7079 144.187 27.4534 143.591 28.1971C143.491 28.3218 143.387 28.4422 143.282 28.564L143.144 28.7254L148.724 32.0908C149.899 32.5443 150.066 33.3383 149.996 33.9327C149.922 34.5536 149.571 35.3505 148.328 35.6837L148.154 35.7688C145.641 37.0075 143.129 38.2453 140.617 39.482C140.509 39.5352 140.393 39.5718 140.274 39.5906L139.958 39.7374L139.921 39.755L139.699 39.8504L139.428 40.0045L139.795 40.4947L140.35 41.2051C140.766 41.7374 141.181 42.2711 141.594 42.8063C142.67 44.2016 143.742 45.5993 144.809 46.9995L144.925 47.1462C145.069 47.3192 145.192 47.5078 145.292 47.7083C145.571 48.2954 145.586 48.8825 145.322 49.3727C145.058 49.8629 144.571 50.1755 143.934 50.2694C143.297 50.3634 142.685 50.4426 142.077 50.5204L141.304 50.6187L138.3 51.1031H138.266L136.406 51.3335H136.388L134.419 51.5434L133.033 51.7635L132.759 53.8638L132.593 55.0555C132.431 56.1807 132.268 57.306 132.102 58.4312L132.092 58.5016C132.047 58.8892 131.961 59.271 131.836 59.6405C131.637 60.1792 131.34 60.5329 130.928 60.7193C130.315 60.9981 129.715 60.7692 129.518 60.6929C129.326 60.6177 129.137 60.5325 128.954 60.4375L128.817 60.37L125.634 59.4057L123.898 58.9273L121.819 58.3593L119.987 61.4561L119.574 62.14C119.266 62.6488 118.958 63.1586 118.651 63.6693C118.542 63.8528 118.435 64.0377 118.328 64.2212C118.156 64.5147 117.978 64.8273 117.787 65.1297C117.64 65.3571 117.209 66.0484 116.416 66.1365C116.36 66.1434 116.303 66.1474 116.247 66.1482ZM113.911 61.7217L115.707 63.5622L115.723 63.5813L115.892 63.7647C115.994 63.8807 116.093 63.9878 116.185 64.0891C116.351 63.8249 116.508 63.5548 116.673 63.2686C116.784 63.0764 116.896 62.8841 117.01 62.6918C117.317 62.1796 117.629 61.6645 117.938 61.1552L118.347 60.4801L120.549 56.7639C120.655 56.5828 120.817 56.4416 121.011 56.362C121.205 56.2824 121.42 56.2689 121.623 56.3236L126.279 57.6093H126.299L129.436 58.5618C129.48 58.5759 129.524 58.593 129.566 58.6132L129.798 58.7262C129.897 58.7746 129.989 58.8216 130.077 58.8612C130.131 58.6506 130.171 58.4369 130.198 58.2213L130.208 58.1479C130.375 57.0247 130.539 55.8994 130.698 54.7723L130.869 53.5879L131.233 50.7993C131.259 50.5963 131.351 50.4073 131.493 50.2601C131.635 50.1129 131.821 50.0153 132.023 49.9818L134.124 49.6325H134.18L136.17 49.4211L138.004 49.1936L141.003 48.7108H141.031L141.824 48.608C142.367 48.5391 142.928 48.4613 143.478 48.3879L143.409 48.2998L143.282 48.1398C142.213 46.7426 141.143 45.3459 140.071 43.9496C139.662 43.4183 139.25 42.889 138.835 42.3616L138.272 41.641L138.26 41.6248L137.233 40.2584C137.151 40.1501 137.094 40.0257 137.065 39.8935C137.036 39.7613 137.035 39.6245 137.063 39.492C137.09 39.3595 137.146 39.2344 137.226 39.1251C137.306 39.0159 137.408 38.9249 137.526 38.8583L138.786 38.145L138.799 38.1376C138.799 38.1376 138.799 38.1288 138.799 38.1244C138.847 37.8759 138.991 37.6563 139.2 37.514C139.409 37.3717 139.667 37.3184 139.915 37.3656C140.041 37.3891 140.163 37.4301 140.278 37.4875C142.616 36.3388 144.952 35.1876 147.288 34.034L147.552 33.9034C147.618 33.8718 147.686 33.8472 147.756 33.83C147.806 33.8183 147.849 33.808 147.884 33.7962C147.853 33.7816 147.822 33.7654 147.793 33.7478L141.403 29.882C141.219 29.771 141.078 29.6012 141.002 29.4001C140.927 29.199 140.922 28.9784 140.987 28.7739C140.999 28.7357 141.008 28.6946 141.018 28.655C141.067 28.4038 141.164 28.1645 141.304 27.9505C141.469 27.7223 141.645 27.5028 141.833 27.293C141.921 27.1888 142.011 27.086 142.097 26.9789C142.693 26.2363 143.288 25.4921 143.881 24.7466L144.582 23.866L145.263 23.0132C145.704 22.4643 146.157 21.9007 146.585 21.3357C146.461 21.3254 146.332 21.3181 146.198 21.3093C146.065 21.3005 145.925 21.2946 145.79 21.2828H145.758L142.821 20.9497H142.793L137.638 20.2158C137.395 20.1811 137.174 20.0538 137.022 19.8605C136.87 19.6672 136.799 19.4228 136.823 19.1782L137.117 16.2164L137.218 13.8535C137.231 13.4469 137.246 13.0301 137.262 12.6133C137.296 11.674 137.331 10.7053 137.349 9.74986L131.074 10.6613L130.844 10.7038C130.791 10.7121 130.737 10.7155 130.684 10.7141H130.471L130.271 10.7479C129.992 10.8018 129.709 10.8318 129.425 10.8374C129.159 10.8266 128.897 10.7736 128.647 10.6804C128.593 10.6627 128.539 10.6437 128.484 10.629C128.332 10.5879 128.192 10.5098 128.078 10.4018C127.963 10.2937 127.876 10.159 127.826 10.0096L126.982 7.48083C126.793 7.46993 126.612 7.40333 126.462 7.28949C126.311 7.17564 126.197 7.01965 126.136 6.84128C126.074 6.66291 126.066 6.47018 126.114 6.28749C126.161 6.1048 126.262 5.94037 126.404 5.81502L126.078 4.85809C125.784 4.00391 125.49 3.12477 125.188 2.2559L125.179 2.26765L124.863 2.70795C124.399 3.34052 123.921 3.99363 123.476 4.64675C123.213 5.03275 122.97 5.43342 122.714 5.85758C122.599 6.05327 122.483 6.24456 122.366 6.43144C122.349 6.45492 122.335 6.47841 122.317 6.50189C122.045 6.86294 121.778 7.20637 121.521 7.5366L121.244 7.90939L120.236 9.34771L119.935 9.766L119.924 9.78068L118.79 11.2733C118.706 11.3844 118.599 11.4758 118.477 11.5412C118.354 11.6066 118.218 11.6444 118.079 11.652C117.941 11.6595 117.802 11.6367 117.673 11.5849C117.543 11.5332 117.427 11.4539 117.332 11.3526L116.997 11.0077C116.774 10.7728 116.564 10.5512 116.358 10.3222C115.337 9.17844 114.317 8.03708 113.3 6.89816L112.084 5.53029L111.692 5.06944C111.545 4.89772 111.409 4.73041 111.271 4.56309C110.977 4.21232 110.683 3.8542 110.378 3.5049C109.977 4.18149 109.582 4.8713 109.203 5.54203C109.068 5.77784 108.933 6.01364 108.796 6.24945L108.685 6.54298C108.625 6.70232 108.524 6.84271 108.391 6.94953L108.374 6.96421L107.493 8.45096C106.96 9.35652 106.407 10.2929 105.858 11.2117C105.732 11.4117 105.584 11.5973 105.418 11.765C105.374 11.8119 105.328 11.8604 105.287 11.9117C105.149 12.075 104.959 12.1869 104.749 12.2294C104.539 12.272 104.321 12.2428 104.13 12.1466L103.883 12.0218L102.459 11.4171L102.428 11.4039L100.917 10.6965L99.7176 10.1535L99.7 10.1461L99.0143 9.81884H99.001L96.8616 8.75624L96.8293 8.74009L95.8837 8.21907C95.7149 8.13248 95.5475 8.04295 95.3786 7.95342C94.9983 7.75235 94.6444 7.56155 94.2685 7.3869L94.2436 7.37516L94.2274 7.40745L94.1599 7.66722L93.828 11.0766L93.4976 14.1588C93.4976 14.1734 93.4976 14.1881 93.4976 14.2028L93.3699 15.0291L93.1775 16.9972C93.1594 17.1794 93.0893 17.3524 92.9756 17.4958C92.8618 17.6392 92.7092 17.7469 92.5359 17.8059L92.0234 17.9806C91.9474 18.0067 91.8685 18.0235 91.7885 18.0305L90.2511 18.1567H90.2159L86.8063 18.3915L85.2323 18.4928H85.1647H84.6155H84.3322C84.1413 18.4928 83.9607 18.4928 83.7947 18.5075C83.0811 18.5647 82.3675 18.6278 81.6553 18.6909L80.8536 18.7599L78.2106 19.0138L79.3397 20.188L79.3574 20.207C79.5644 20.4345 79.7685 20.662 79.9741 20.8895C80.4454 21.412 80.9329 21.9521 81.4189 22.4717C81.7346 22.8092 82.0621 23.1321 82.4071 23.4741L82.8726 23.9393L84.0238 25.1135C84.0588 25.1487 84.0912 25.1865 84.1207 25.2265C84.1547 25.262 84.1856 25.3003 84.2132 25.341L84.9107 26.3683C85.0499 26.5734 85.1038 26.8245 85.0611 27.0686C85.0183 27.3126 84.8822 27.5305 84.6816 27.676L84.1927 28.0312C84.1706 28.0474 84.1471 28.062 84.1236 28.0767L82.9225 28.8018L81.0974 29.8878L81.0842 29.8966L80.6554 30.1359C80.3617 30.2988 80.0813 30.4544 79.8243 30.6246C78.9565 31.197 78.0784 31.7914 77.2297 32.3667L76.2165 33.0521L76.171 33.08C76.0888 33.1299 76.0051 33.1769 75.9214 33.2268C75.7887 33.2976 75.6603 33.376 75.5367 33.4616C75.4603 33.5174 75.3899 33.5673 75.3399 33.6084C75.409 33.6451 75.4868 33.6862 75.5896 33.7331L75.6527 33.7654L75.9067 33.9122C76.0815 34.0135 76.2459 34.1103 76.4118 34.1969C77.3457 34.6861 78.2806 35.1754 79.2164 35.6646L80.3059 36.237L80.3485 36.2605C80.4658 36.0644 80.6497 35.9169 80.8666 35.8448C81.0836 35.7728 81.3192 35.7809 81.5306 35.8679C81.7421 35.9548 81.9153 36.1147 82.0187 36.3184C82.1222 36.5222 82.149 36.7563 82.0944 36.9782L82.0268 37.2585L82.416 37.4904L82.551 37.5403C82.613 37.5632 82.6725 37.5922 82.7287 37.6269L83.4438 38.076C83.4997 38.1112 83.5519 38.152 83.5994 38.1978C83.8579 38.4473 84.3806 39.1283 83.6611 40.072C83.6494 40.0867 83.6376 40.1014 83.6288 40.1146C83.2309 40.7809 82.808 41.4355 82.3983 42.071L81.949 42.7696L81.9358 42.7902L81.3235 43.6913C81.0455 44.1395 80.767 44.5861 80.488 45.0313C79.8801 46.0044 79.2546 47.0039 78.6423 48.0019C79.1239 47.9696 79.6099 47.9226 80.1106 47.8727C80.4131 47.8434 80.7156 47.8125 81.0181 47.7861L81.576 47.7216H81.623L82.6054 47.657L83.0855 47.6115C83.1655 47.4883 83.2729 47.3852 83.3993 47.3103C83.5256 47.2354 83.6676 47.1907 83.8141 47.1796C83.9606 47.1685 84.1077 47.1914 84.2439 47.2464C84.3801 47.3015 84.5018 47.3872 84.5994 47.497L85.3336 47.4588H85.3585L88.6153 47.3708C88.7561 47.368 88.8958 47.396 89.0246 47.4528C89.1535 47.5096 89.2684 47.5938 89.3613 47.6995C89.4534 47.8056 89.521 47.9308 89.5591 48.066C89.5971 48.2013 89.6048 48.3433 89.5815 48.4818L89.4508 49.2714C89.5548 49.4275 89.6104 49.6108 89.6109 49.7983C89.6111 49.871 89.6028 49.9434 89.5859 50.0141C89.5302 50.256 89.3822 50.4667 89.1733 50.6011L88.7328 52.3814C88.7328 52.4064 88.7196 52.4299 88.7123 52.4519L88.1895 54.0105L87.6844 56.0345L87.6756 56.0668L87.3349 57.2541L87.2777 57.5917L87.8078 57.4302L88.1014 57.3407L88.1602 57.326L93.2201 56.1519L94.3713 55.8657L97.5341 55.1157C97.7223 55.071 97.9196 55.0844 98.0999 55.1541C98.2803 55.2238 98.4353 55.3465 98.5444 55.5061L99.3799 56.7331L99.3931 56.7536L99.7807 57.3583L100.246 58.0921C100.259 58.1109 100.27 58.1305 100.28 58.1509L100.427 58.4356L101.114 59.645L101.728 60.6621L102.277 61.5838C102.638 62.1943 103.011 62.8239 103.39 63.436L103.797 62.934C104.346 62.2687 104.89 61.6004 105.428 60.9292L107.352 58.5603L108.3 57.3862C108.382 57.2858 108.483 57.2029 108.597 57.1426C108.711 57.0823 108.837 57.0459 108.966 57.0355C109.095 57.025 109.224 57.0408 109.347 57.082C109.469 57.1231 109.582 57.1886 109.679 57.2747L109.826 57.4038C109.956 57.5103 110.079 57.625 110.194 57.7472C110.431 58.0056 110.663 58.2653 110.896 58.5251C111.216 58.8818 111.547 59.2516 111.877 59.6039C112.207 59.9561 112.56 60.3113 112.905 60.6547C113.062 60.8118 113.221 60.9703 113.376 61.1288L113.404 61.1596L113.911 61.7217ZM94.6474 51.3291C94.6165 51.3291 94.5842 51.3291 94.5534 51.3291L94.1334 51.288C93.8977 51.2647 93.679 51.1546 93.52 50.9791C93.361 50.8036 93.2729 50.5752 93.273 50.3384C93.273 50.3076 93.273 50.2753 93.273 50.2445C93.2853 50.1198 93.3221 49.9987 93.3812 49.8882C93.4403 49.7777 93.5207 49.6799 93.6176 49.6005C93.7146 49.521 93.8262 49.4614 93.9462 49.4251C94.0662 49.3888 94.1922 49.3765 94.317 49.3888L94.5945 49.4167L94.7413 49.4299C94.9945 49.4424 95.2323 49.5548 95.4025 49.7426C95.5726 49.9303 95.6612 50.1779 95.6488 50.4309C95.6363 50.6839 95.5238 50.9216 95.336 51.0917C95.1482 51.2618 94.9005 51.3504 94.6474 51.3379V51.3291ZM123.615 50.155C123.457 50.1551 123.302 50.116 123.162 50.0412C123.023 49.9664 122.905 49.8582 122.818 49.7264L122.766 49.6471C122.694 49.5428 122.643 49.4249 122.617 49.3006C122.59 49.1763 122.589 49.0479 122.613 48.9231C122.637 48.7983 122.686 48.6796 122.756 48.5738C122.827 48.4681 122.918 48.3775 123.024 48.3074C123.13 48.2373 123.249 48.1891 123.374 48.1656C123.499 48.1421 123.627 48.1437 123.751 48.1705C123.876 48.1973 123.993 48.2486 124.098 48.3215C124.202 48.3943 124.29 48.4873 124.358 48.5948V48.6022L124.407 48.6755C124.51 48.8307 124.565 49.013 124.565 49.1995C124.566 49.325 124.541 49.4493 124.493 49.5653C124.445 49.6813 124.375 49.7867 124.287 49.8755C124.198 49.9642 124.092 50.0346 123.977 50.0826C123.861 50.1306 123.736 50.1552 123.611 50.155H123.615ZM102.324 43.7808C102.154 43.7812 101.986 43.7358 101.839 43.6495C101.692 43.5632 101.571 43.4391 101.489 43.2901C101.406 43.1411 101.365 42.9727 101.369 42.8025C101.374 42.6322 101.424 42.4663 101.515 42.322L101.574 42.228C101.636 42.1134 101.721 42.0128 101.823 41.9322C101.926 41.8517 102.043 41.793 102.17 41.7597C102.296 41.7265 102.427 41.7194 102.556 41.739C102.685 41.7585 102.809 41.8042 102.919 41.8734C103.03 41.9425 103.125 42.0335 103.199 42.1408C103.273 42.2481 103.324 42.3694 103.349 42.4972C103.375 42.6251 103.373 42.7568 103.346 42.8841C103.318 43.0115 103.265 43.1319 103.189 43.2378L103.13 43.3317C103.046 43.47 102.928 43.5844 102.787 43.6643C102.646 43.7442 102.487 43.7868 102.325 43.7882L102.324 43.7808ZM94.0453 40.4287C93.875 40.4291 93.7077 40.3839 93.5608 40.2978C93.4138 40.2117 93.2927 40.0878 93.21 39.939C93.1272 39.7902 93.0859 39.6219 93.0902 39.4517C93.0946 39.2815 93.1445 39.1156 93.2348 38.9713L93.2935 38.8773C93.4362 38.6845 93.6463 38.5525 93.882 38.5076C94.1177 38.4627 94.3617 38.5081 94.5654 38.6349C94.769 38.7617 94.9175 38.9605 94.9811 39.1917C95.0447 39.4229 95.0189 39.6696 94.9087 39.8827L94.8471 39.981C94.763 40.1183 94.6455 40.232 94.5055 40.3115C94.3656 40.3911 94.2078 40.4339 94.0468 40.436L94.0453 40.4287ZM126.22 37.3539C126.188 37.3539 126.157 37.3539 126.125 37.3539C125.889 37.3306 125.671 37.2207 125.512 37.0455C125.353 36.8703 125.264 36.6423 125.264 36.4058C125.264 36.375 125.264 36.3427 125.264 36.3104L125.32 35.7527C125.332 35.4996 125.444 35.2619 125.632 35.0916C125.82 34.9214 126.067 34.8326 126.321 34.8449C126.574 34.8572 126.812 34.9694 126.982 35.157C127.152 35.3446 127.241 35.5921 127.229 35.8451C127.229 35.8774 127.229 35.9082 127.229 35.9405L127.174 36.4982C127.152 36.7349 127.041 36.9546 126.865 37.1142C126.689 37.2739 126.459 37.3619 126.221 37.3612L126.22 37.3539ZM88.8356 28.611C88.695 28.6105 88.5563 28.5789 88.4294 28.5185C88.3024 28.4581 88.1904 28.3704 88.1014 28.2616L87.8503 27.9549C87.7133 27.7582 87.6553 27.5172 87.688 27.2798C87.7207 27.0423 87.8415 26.8259 88.0266 26.6734C88.2116 26.521 88.4473 26.4438 88.6867 26.4572C88.9261 26.4705 89.1518 26.5735 89.3187 26.7455L89.5713 27.0523C89.6856 27.1917 89.7581 27.3607 89.7802 27.5397C89.8024 27.7186 89.7734 27.9002 89.6966 28.0633C89.6197 28.2265 89.4982 28.3645 89.3461 28.4614C89.1939 28.5583 89.0175 28.6102 88.8371 28.611H88.8356ZM140.46 27.475C140.429 27.475 140.398 27.475 140.368 27.475C140.131 27.4523 139.912 27.3425 139.752 27.1669C139.593 26.9914 139.504 26.7626 139.504 26.5254C139.504 26.4946 139.504 26.4652 139.504 26.4344C139.504 26.4036 139.504 26.3507 139.516 26.3082C139.526 26.1829 139.561 26.0609 139.619 25.9491C139.676 25.8373 139.755 25.7379 139.851 25.6566C139.947 25.5753 140.058 25.5137 140.178 25.4753C140.297 25.4369 140.424 25.4224 140.549 25.4327C140.674 25.443 140.796 25.4779 140.908 25.5354C141.02 25.5928 141.119 25.6718 141.201 25.7676C141.282 25.8635 141.344 25.9745 141.382 26.0942C141.421 26.2138 141.435 26.3399 141.425 26.4652C141.426 26.4769 141.426 26.4887 141.425 26.5004V26.5489C141.425 26.5709 141.425 26.5944 141.425 26.6164C141.401 26.8543 141.289 27.0746 141.11 27.2336C140.931 27.3926 140.699 27.4787 140.46 27.475ZM93.8926 27.4163C93.6986 27.4162 93.5093 27.357 93.3498 27.2466C93.1903 27.1362 93.0682 26.9799 92.9999 26.7984C92.9586 26.6911 92.9377 26.5772 92.9382 26.4623C92.9381 26.2683 92.997 26.079 93.1072 25.9193C93.2173 25.7596 93.3735 25.6373 93.5549 25.5685L93.8486 25.4584C93.9658 25.414 94.0906 25.3932 94.2159 25.3971C94.3412 25.401 94.4645 25.4295 94.5788 25.481C94.693 25.5325 94.796 25.6061 94.8819 25.6974C94.9677 25.7887 95.0347 25.896 95.0791 26.0132C95.1193 26.1207 95.1402 26.2345 95.1407 26.3493C95.1408 26.5432 95.0819 26.7326 94.9717 26.8922C94.8616 27.0519 94.7054 27.1743 94.524 27.2431L94.2303 27.3546C94.1223 27.3949 94.0079 27.4158 93.8926 27.4163ZM116.69 25.9192C116.513 25.918 116.34 25.8671 116.19 25.7725L116.094 25.7138C115.882 25.5792 115.732 25.3667 115.676 25.1221C115.62 24.8776 115.662 24.6208 115.794 24.4073C115.926 24.1938 116.137 24.0408 116.38 23.9816C116.624 23.9223 116.882 23.9614 117.097 24.0905L117.194 24.1507C117.369 24.2607 117.503 24.4244 117.577 24.6172C117.651 24.8101 117.66 25.0216 117.603 25.2201C117.546 25.4186 117.427 25.5933 117.262 25.7181C117.097 25.8428 116.897 25.9108 116.69 25.9119V25.9192ZM104.233 21.525C104.165 21.5248 104.097 21.5174 104.03 21.503C103.907 21.4772 103.791 21.4274 103.687 21.3564C103.584 21.2854 103.495 21.1946 103.427 21.0893C103.359 20.9839 103.312 20.8661 103.29 20.7427C103.267 20.6192 103.269 20.4926 103.296 20.37C103.482 19.5202 104.259 19.4483 104.676 19.4086C104.802 19.397 104.928 19.4101 105.048 19.4473C105.169 19.4844 105.28 19.5449 105.377 19.6253C105.474 19.7056 105.554 19.8042 105.613 19.9155C105.672 20.0268 105.708 20.1485 105.72 20.2738C105.731 20.3991 105.718 20.5255 105.681 20.6457C105.644 20.7659 105.583 20.8776 105.503 20.9744C105.422 21.0712 105.324 21.1513 105.212 21.21C105.101 21.2687 104.979 21.3049 104.854 21.3166H104.841C104.668 21.454 104.453 21.5276 104.233 21.525ZM123.575 16.9547C123.473 16.9545 123.372 16.9381 123.274 16.9062H123.263H123.195C122.96 16.882 122.743 16.7717 122.584 16.5966C122.426 16.4215 122.338 16.1941 122.338 15.9581C122.338 15.9258 122.338 15.8935 122.338 15.8613C122.363 15.6095 122.488 15.3782 122.684 15.2181C122.88 15.058 123.131 14.9821 123.383 15.0071H123.424C123.624 15.0171 123.82 15.067 124 15.1538C124.192 15.2502 124.346 15.4085 124.437 15.6033C124.528 15.798 124.55 16.0177 124.501 16.2267C124.451 16.4358 124.332 16.622 124.163 16.7552C123.995 16.8884 123.786 16.9607 123.571 16.9605L123.575 16.9547ZM106.798 15.283C106.609 15.2828 106.425 15.2266 106.268 15.1215L106.089 15.0027C105.959 14.9154 105.852 14.7975 105.778 14.6593C105.704 14.521 105.666 14.3668 105.666 14.2101C105.665 14.0207 105.721 13.8354 105.827 13.6788C105.968 13.4691 106.186 13.3238 106.434 13.2748C106.682 13.2258 106.939 13.2772 107.149 13.4176L107.328 13.5365C107.498 13.6503 107.627 13.8158 107.696 14.0085C107.765 14.2012 107.77 14.4109 107.71 14.6066C107.65 14.8024 107.529 14.9738 107.365 15.0956C107.201 15.2173 107.001 15.2831 106.797 15.283H106.798ZM124.067 11.9073C124.039 11.9088 124.012 11.9088 123.984 11.9073L123.828 11.8927C123.593 11.8683 123.376 11.7579 123.218 11.5828C123.061 11.4077 122.973 11.1803 122.973 10.9445C122.973 10.9123 122.973 10.8785 122.973 10.8447C122.983 10.7561 123.005 10.6693 123.038 10.5864C122.875 10.4099 122.784 10.1782 122.784 9.93772C122.784 9.9069 122.784 9.87461 122.784 9.84379L122.866 9.00721C122.872 8.88193 122.903 8.75906 122.956 8.6456C123.01 8.53214 123.085 8.43033 123.178 8.34597C123.271 8.2616 123.379 8.19635 123.497 8.15393C123.616 8.11151 123.741 8.09275 123.866 8.09872C123.992 8.1047 124.114 8.13529 124.228 8.18875C124.341 8.24221 124.443 8.3175 124.528 8.41031C124.612 8.50312 124.677 8.61164 124.72 8.72967C124.762 8.8477 124.781 8.97293 124.775 9.09821C124.775 9.12903 124.775 9.16132 124.775 9.19214L124.721 9.75132L124.693 10.0302C124.687 10.0904 124.675 10.1499 124.658 10.2078C124.771 10.2967 124.863 10.4104 124.926 10.5401C124.988 10.6698 125.021 10.8122 125.02 10.9563C125.022 10.9837 125.022 11.0111 125.02 11.0385C124.998 11.2751 124.887 11.4948 124.711 11.6545C124.535 11.8141 124.305 11.9022 124.067 11.9015V11.9073Z"
              fill="#2E2E2E"/>
        <path d="M1.57703 43.3802V41.0393C1.64163 40.7047 1.76204 40.37 1.76204 40.0354C1.77379 34.3496 1.77721 28.6638 1.77232 22.9781C1.77232 21.9786 2.16584 21.575 3.16285 21.5339C3.45652 21.5221 3.75019 21.5339 4.04387 21.5339H103.311C103.537 21.5118 103.765 21.5118 103.992 21.5339C104.385 21.6146 104.769 21.7423 105.205 21.8641V23.0382C105.205 27.9452 105.205 32.8511 105.205 37.7561C105.205 39.0403 105.264 40.3231 105.294 41.6058C104.974 41.575 104.654 41.5222 104.333 41.5192C100.886 41.4899 97.4314 41.459 93.991 41.4458C76.9169 41.3773 59.8429 41.3118 42.7688 41.2492C29.3383 41.2002 15.9067 41.1567 2.47419 41.1185C2.25688 41.1185 2.03369 41.1362 1.7826 41.1464V43.2012H2.66361C11.8996 43.2481 21.1355 43.2936 30.3715 43.3377C47.8361 43.4101 65.3008 43.4761 82.7654 43.5358C90.2452 43.5622 97.7255 43.5837 105.206 43.6004C105.206 44.0539 105.198 44.5089 105.198 44.9639C105.198 63.2609 105.201 81.5579 105.208 99.8549C105.208 101.048 104.948 101.301 103.751 101.315C97.3873 101.393 91.0249 101.301 84.6625 101.443C71.8658 101.728 59.0617 101.367 46.2606 101.654C34.1452 101.927 22.0224 101.455 9.90555 101.873C7.86013 101.943 5.8103 101.889 3.76194 101.882C2.42867 101.882 1.76498 101.192 1.76498 99.8402C1.76498 94.901 1.76498 89.9599 1.76498 85.0167C1.76498 71.4965 1.76204 57.9772 1.75617 44.459C1.76204 44.1126 1.64163 43.7457 1.57703 43.3802ZM72.205 64.0745C72.299 62.1738 72.1918 60.2996 71.625 58.4782C71.2065 57.1368 70.5105 55.9641 69.2418 55.2772C66.8925 54.0003 64.4947 53.9079 62.2539 55.4753C61.1151 56.2782 60.0764 57.2144 59.1601 58.2639C56.8871 60.8632 55.3159 63.8763 54.3321 67.1845C53.1942 71.0004 52.4409 74.8765 52.8829 78.8906C53.0914 81.0414 53.9678 83.0731 55.3894 84.7012C57.4877 87.0876 60.4743 87.5719 62.9499 85.322C63.5392 84.816 64.0931 84.2702 64.6077 83.6885C69.3549 78.0071 71.7322 71.4055 72.2094 64.0759L72.205 64.0745ZM41.5369 65.3117C41.5307 65.4302 41.518 65.5483 41.4987 65.6654C40.9114 68.2896 40.2844 70.908 39.7235 73.5395C38.8562 77.5981 38.0123 81.6611 37.192 85.7285C36.9497 86.9159 37.2434 87.3107 38.4313 87.5822C38.6531 87.6324 38.8784 87.6657 39.1053 87.682C40.4268 87.7862 40.7851 87.478 41.0009 86.1923C41.2785 84.528 41.5472 82.8622 41.8981 81.2125C43.5838 73.2871 45.2846 65.3616 47.0006 57.4362C47.1166 56.8961 47.1548 56.397 46.638 56.0389C46.2107 55.7454 45.7217 55.8423 45.1388 56.3237C45.014 56.4279 44.8965 56.5409 44.779 56.651C42.8834 58.4298 40.9613 60.1822 39.1009 61.9948C36.3786 64.6454 33.6812 67.3219 31.0088 70.0244C29.7269 71.3277 29.7871 72.1658 31.0572 73.425C31.28 73.6643 31.5796 73.8179 31.9039 73.8592C32.2283 73.9005 32.5568 73.8268 32.8325 73.651C33.1052 73.4753 33.3574 73.2695 33.5843 73.0376C34.9219 71.7577 36.2581 70.4779 37.5797 69.1834C38.4387 68.3425 39.2683 67.4736 40.1214 66.6282C40.5795 66.1923 41.0611 65.7593 41.5369 65.3117Z"
              fill="#80D7F1"/>
        <path d="M69.2462 55.2787C66.8968 54.0018 64.499 53.9094 62.2583 55.4769C61.1194 56.2797 60.0808 57.2159 59.1644 58.2654C56.8914 60.8647 55.3203 63.8778 54.3365 67.186C53.1985 71.0019 52.4452 74.8781 52.8872 78.8922C53.0958 81.0429 53.9722 83.0746 55.3937 84.7027C57.492 87.0891 60.4786 87.5734 62.9543 85.3235C63.5421 84.8169 64.0945 84.2706 64.6076 83.6885C69.349 78.0071 71.7262 71.4055 72.2035 64.076C72.2974 62.1753 72.1917 60.3011 71.6235 58.4797C71.2153 57.1383 70.5148 55.9656 69.2462 55.2787ZM68.4122 64.8436C67.8954 67.8514 66.9953 70.7808 65.7339 73.5601C64.59 76.1315 63.0115 78.4298 60.8751 80.2997C60.4389 80.683 59.9429 80.9923 59.4067 81.2155C58.5257 81.5795 57.9619 81.3622 57.6168 80.4626C57.3372 79.704 57.1446 78.9162 57.0427 78.1143C56.9502 77.445 57.0236 76.7537 57.0236 76.0713C56.8929 72.1247 57.9266 68.432 59.5815 64.8949C60.4625 63.0192 61.7723 61.4415 63.2817 60.0516C63.794 59.605 64.3844 59.2567 65.0232 59.0242C66.3785 58.5003 67.3359 58.9347 67.9599 60.2644C68.65 61.7306 68.6677 63.2952 68.4122 64.8436Z"
              fill="#F7F7F7"/>
        <path d="M104.337 41.5354C100.891 41.5061 97.4358 41.4753 93.9954 41.4621C76.9213 41.3936 59.8473 41.328 42.7732 41.2654C29.3427 41.2165 15.9111 41.1729 2.47858 41.1348C2.26127 41.1348 2.03808 41.1524 1.78699 41.1627V43.2174H2.668C11.904 43.2644 21.1399 43.3099 30.3759 43.3539C47.8405 43.4263 65.3052 43.4923 82.7698 43.552C90.2496 43.5784 97.7299 43.6 105.211 43.6166L105.294 41.6162C104.979 41.5853 104.659 41.5354 104.337 41.5354Z"
              fill="#2E2E2E"/>
        <path d="M46.6379 56.0491C46.2107 55.7556 45.7217 55.8525 45.1388 56.3339C45.0139 56.4381 44.8965 56.5511 44.779 56.6612C42.8834 58.44 40.9613 60.1924 39.1009 62.005C36.3785 64.6536 33.6812 67.3302 31.0088 70.0346C29.7269 71.3379 29.7871 72.1759 31.0572 73.4352C31.28 73.6745 31.5796 73.8281 31.9039 73.8694C32.2283 73.9107 32.5568 73.837 32.8325 73.6612C33.1049 73.485 33.357 73.2793 33.5843 73.0477C34.9219 71.7679 36.2581 70.4881 37.5797 69.1936C38.4386 68.3527 39.2683 67.4838 40.1214 66.6384C40.5795 66.1864 41.0611 65.7578 41.5369 65.3175C41.5307 65.436 41.518 65.5541 41.4987 65.6712C40.9114 68.2954 40.2844 70.9137 39.7235 73.5453C38.8561 77.6039 38.0123 81.6669 37.192 85.7343C36.9497 86.9217 37.2434 87.3165 38.4313 87.588C38.6531 87.6382 38.8784 87.6715 39.1053 87.6878C40.4268 87.792 40.7851 87.4838 41.0009 86.1981C41.2784 84.5338 41.5472 82.868 41.8981 81.2183C43.5838 73.2928 45.2846 65.3674 47.0006 57.442C47.1166 56.9063 47.1548 56.4058 46.6379 56.0491Z"
              fill="#F7F7F7"/>
        <path d="M57.0222 76.0728C56.8915 72.1262 57.9253 68.4335 59.5801 64.8964C60.4611 63.0207 61.7709 61.443 63.2804 60.0531C63.7927 59.6065 64.3831 59.2582 65.0218 59.0257C66.3771 58.5018 67.3345 58.9362 67.9585 60.2659C68.6501 61.7336 68.6678 63.3011 68.4123 64.8494C67.8955 67.8573 66.9954 70.7867 65.734 73.566C64.5901 76.1373 63.0116 78.4357 60.8752 80.3055C60.439 80.6888 59.943 80.9982 59.4068 81.2214C58.5258 81.5853 57.962 81.3681 57.6169 80.4684C57.3373 79.7099 57.1447 78.9221 57.0428 78.1202C56.9488 77.4465 57.0222 76.7596 57.0222 76.0728Z"
              fill="#80D7F1"/>
        <path d="M9.26971 26.0968C9.53108 23.3024 9.79294 20.5084 10.0553 17.7149C10.1184 17.0413 10.1346 16.35 10.3122 15.7042C10.4429 15.2331 10.7087 14.7077 11.0773 14.4083C12.3665 13.3677 14.0375 14.4993 14.014 15.826C14.0008 16.4689 13.898 17.1088 13.8671 17.7531C13.7732 19.7888 13.6997 21.8244 13.6087 23.8601C13.5588 24.9565 13.525 26.0616 13.4208 27.1477C13.3165 28.2338 12.2461 29.085 11.2182 29.0322C10.1434 28.9779 9.37544 28.1648 9.32404 26.9774C9.31083 26.6839 9.32404 26.3904 9.32404 26.0968H9.26971Z"
              fill="#2E2E2E"/>
        <path d="M30.1013 26.0968C30.3627 23.3024 30.6241 20.5084 30.8854 17.7149C30.95 17.0413 30.9662 16.35 31.1439 15.7042C31.2745 15.2331 31.5388 14.7077 31.9089 14.4083C33.1981 13.3677 34.8691 14.4993 34.8456 15.826C34.8324 16.4689 34.7296 17.1088 34.6987 17.7531C34.6048 19.7888 34.5314 21.8244 34.4388 23.8601C34.3904 24.9565 34.3566 26.0616 34.2509 27.1477C34.1452 28.2338 33.0762 29.085 32.041 29.0322C30.9677 28.9779 30.1997 28.1648 30.1468 26.9774C30.1351 26.6839 30.1468 26.3904 30.1468 26.0968H30.1013Z"
              fill="#2E2E2E"/>
        <path d="M50.93 26.0968C51.1894 23.3024 51.4508 20.5084 51.7141 17.7149C51.7787 17.0413 51.7934 16.35 51.9725 15.7042C52.1017 15.2331 52.3675 14.7077 52.7375 14.4083C54.0268 13.3677 55.6978 14.4993 55.6743 15.826C55.6625 16.4689 55.5597 17.1088 55.5274 17.7531C55.4335 19.7888 55.3586 21.8244 55.2675 23.8601C55.2176 24.9565 55.1853 26.0616 55.0796 27.1477C54.9739 28.2338 53.9049 29.085 52.8697 29.0322C51.7949 28.9779 51.0284 28.1648 50.9755 26.9774C50.9623 26.6839 50.9755 26.3904 50.9755 26.0968H50.93Z"
              fill="#2E2E2E"/>
        <path d="M71.7587 26.0968C72.02 23.3024 72.2819 20.5084 72.5442 17.7149C72.6088 17.0413 72.6235 16.35 72.8012 15.7042C72.9319 15.2331 73.1977 14.7077 73.5677 14.4083C74.8569 13.3677 76.5264 14.4993 76.5044 15.826C76.4912 16.4689 76.3899 17.1088 76.3576 17.7531C76.2636 19.7888 76.1902 21.8244 76.0991 23.8601C76.0492 24.9565 76.0169 26.0616 75.9112 27.1477C75.8055 28.2338 74.7365 29.085 73.7013 29.0322C72.6265 28.9779 71.86 28.1648 71.8071 26.9774C71.7939 26.6839 71.8071 26.3904 71.8071 26.0968H71.7587Z"
              fill="#2E2E2E"/>
        <path d="M92.5886 26.0968C92.85 23.3024 93.1118 20.5084 93.3742 17.7149C93.4373 17.0413 93.4535 16.35 93.6312 15.7042C93.7618 15.2331 94.0276 14.7077 94.3962 14.4083C95.6869 13.3677 97.3564 14.4993 97.3329 15.826C97.3197 16.4689 97.2169 17.1088 97.1861 17.7531C97.0921 19.7888 97.0187 21.8244 96.9276 23.8601C96.8777 24.9565 96.844 26.0616 96.7397 27.1477C96.6354 28.2338 95.565 29.085 94.5298 29.0322C93.455 28.9779 92.687 28.1648 92.6356 26.9774C92.6224 26.6839 92.6356 26.3904 92.6356 26.0968H92.5886Z"
              fill="#FCAE03"/>
        <path d="M102.478 103H0.954432C0.701301 103 0.458537 102.9 0.279547 102.721C0.100556 102.542 0 102.299 0 102.046L0 24.2858C0 24.0328 0.100556 23.7901 0.279547 23.6112C0.458537 23.4323 0.701301 23.3318 0.954432 23.3318C1.20756 23.3318 1.45033 23.4323 1.62932 23.6112C1.80831 23.7901 1.90886 24.0328 1.90886 24.2858V101.092H102.478C102.731 101.092 102.974 101.193 103.153 101.372C103.332 101.55 103.433 101.793 103.433 102.046C103.433 102.299 103.332 102.542 103.153 102.721C102.974 102.9 102.731 103 102.478 103Z"
              fill="#2E2E2E"/>
        <path d="M149.038 31.9015L142.626 28.0327C142.688 27.8419 142.708 27.6218 142.818 27.4647C143.044 27.1404 143.323 26.8542 143.572 26.5445C144.403 25.5083 145.231 24.4707 146.058 23.4316C146.82 22.4732 147.598 21.5236 148.336 20.5505C148.759 19.9913 148.552 19.5231 147.847 19.4087C147.438 19.3397 147.018 19.3367 146.602 19.303L143.666 18.9698L138.509 18.236L138.802 15.2463L138.907 12.857C138.954 11.4289 139.018 10.0023 139.042 8.57428C139.052 7.94758 138.694 7.69367 137.99 7.76265L131.841 8.64326L131.4 8.72251H131.123C130.805 8.78618 130.482 8.82689 130.158 8.84433C129.923 8.84433 129.69 8.73132 129.456 8.66821L128.337 5.32191C128.277 5.36185 128.213 5.39484 128.145 5.42024C128.022 5.4671 127.892 5.4905 127.76 5.48922C127.892 5.4905 128.022 5.4671 128.145 5.42024C128.213 5.39484 128.277 5.36185 128.337 5.32191C128.265 5.12817 128.191 4.93297 128.123 4.73483C127.636 3.30679 127.157 1.87727 126.655 0.455091C126.487 -0.0204363 125.978 -0.15693 125.571 0.161556C125.396 0.314197 125.242 0.489976 125.114 0.684048C124.539 1.47219 123.956 2.25593 123.407 3.06168C123.004 3.64875 122.649 4.27545 122.273 4.88307C122.007 5.23678 121.744 5.57435 121.482 5.91044L121.188 6.30231L120.173 7.75238L119.88 8.15892L118.758 9.6721C118.402 9.29344 118.096 8.97935 117.803 8.64472C116.423 7.10366 115.045 5.56065 113.67 4.01567L113.542 3.86891L113.155 3.41099C112.605 2.75641 112.068 2.09008 111.495 1.45898C111.397 1.34891 111.144 1.37826 110.962 1.34303C110.796 1.44871 110.567 1.51769 110.476 1.66886C109.855 2.69623 109.262 3.75443 108.66 4.79941L108.522 5.16486C108.468 5.20743 108.396 5.23972 108.363 5.29402C107.497 6.7617 106.641 8.22937 105.769 9.68237C105.626 9.88458 105.467 10.0746 105.293 10.2504L105.018 10.1271L103.565 9.51065L102.051 8.7959L100.841 8.24845L100.16 7.92556L98.0188 6.86297L97.0717 6.34781C96.5196 6.06161 95.9763 5.76074 95.4154 5.49362C94.7414 5.17367 94.3949 5.32924 94.0645 6.04987C94.0278 6.19664 93.9925 6.3302 93.9558 6.46963C93.8687 7.35023 93.7811 8.23475 93.693 9.12319L93.6137 9.9627C93.504 10.9852 93.3944 12.0082 93.2848 13.0316L93.1526 13.8843L92.9573 15.8774L92.4449 16.0521L91.1483 16.1534L90.8796 16.1827L87.4701 16.4175L85.9004 16.5173H85.3395C85.0458 16.5173 84.7433 16.5173 84.4482 16.5379C83.4644 16.6171 82.4835 16.7067 81.5012 16.7918L78.6423 17.0663C77.8494 17.1235 77.4823 17.6959 77.8641 18.2962C77.9662 18.4198 78.0842 18.5293 78.215 18.622L79.378 19.8358C80.0666 20.5945 80.7479 21.3621 81.4484 22.1107C81.9256 22.6199 82.4307 23.1028 82.9167 23.5989L83.8374 24.5499L84.0708 24.7833C84.0761 24.8022 84.0853 24.8197 84.098 24.8347C84.1107 24.8496 84.1265 24.8616 84.1443 24.8699L84.8417 25.8973L84.3528 26.2524L83.1502 26.9775L81.3294 28.0621C80.8889 28.3145 80.4396 28.5435 80.0182 28.8209C78.8068 29.6222 77.6071 30.4353 76.4031 31.2543C76.1652 31.401 75.9156 31.5199 75.6939 31.6828C74.5192 32.54 74.572 32.9568 75.9009 33.5908C76.1623 33.7376 76.4207 33.8976 76.6865 34.0385C77.9845 34.7234 79.2835 35.4054 80.5835 36.0844L81.6569 36.7214C81.7361 36.4 81.814 36.08 81.8933 35.7586L81.6569 36.7214L82.7273 37.3613L82.9461 37.442L83.6626 37.8911C83.971 38.1847 83.6626 38.4239 83.5393 38.625C83.0063 39.5173 82.4307 40.3862 81.8698 41.2668L81.2487 42.1826C80.2208 43.822 79.193 45.457 78.1915 47.1067C77.9081 47.569 78.1592 48.0166 78.7378 47.999C79.7744 47.9667 80.8081 47.8361 81.8433 47.7466L82.4145 47.6805L83.4101 47.6145L84.6964 47.4926C84.6699 47.3767 84.642 47.2622 84.6141 47.1375C84.642 47.2622 84.6699 47.3767 84.6964 47.4926L86.106 47.4178L89.3628 47.3312C89.2835 47.8038 89.2057 48.2764 89.1264 48.749L89.379 48.8062L89.1264 48.749C88.9247 49.5523 88.7241 50.3556 88.5244 51.1589L88.0016 52.7264L87.4862 54.7811C87.3688 55.195 87.2503 55.6079 87.1309 56.0199L87.0604 56.4381C87.0487 56.5776 87.0384 56.717 87.0266 56.8564L87.3688 57.3584C87.5817 57.6035 87.8504 57.6093 88.1338 57.5272C88.4598 57.4332 88.7828 57.332 89.1088 57.2336L94.1673 56.0595L95.3331 55.7659L98.4872 55.0174L99.3212 56.2444L99.7103 56.8476C99.863 57.0932 100.016 57.3378 100.17 57.5815L100.327 57.875L101.027 59.1078L101.649 60.1352C102.278 61.1875 102.892 62.2516 103.547 63.2878C103.825 63.7281 104.09 63.7207 104.575 63.3729L106.901 60.5051L109.767 56.9592C109.945 57.1177 110.095 57.2292 110.218 57.3642C110.783 57.9836 111.334 58.6162 111.906 59.2282C112.398 59.7536 112.912 60.2556 113.416 60.7707C113.589 60.963 113.764 61.1553 113.937 61.349L115.737 63.2027C115.909 63.3891 116.075 63.5813 116.254 63.7618C116.842 64.3489 117.251 64.3093 117.698 63.6004C117.991 63.1278 118.263 62.6376 118.551 62.1577C118.992 61.4209 119.437 60.6846 119.884 59.9488L122.087 56.2253L125.919 57.2732L126.744 57.5037L129.881 58.4562C130.111 58.5663 130.336 58.6896 130.574 58.7805C131.133 58.9934 131.444 58.8671 131.659 58.2874C131.766 57.9568 131.838 57.6159 131.875 57.2703C132.101 55.7513 132.315 54.2308 132.535 52.7117C132.657 51.7792 132.779 50.8468 132.903 49.9143L135.004 49.5635L137.001 49.3522L138.861 49.1218L141.879 48.636C142.76 48.5215 143.632 48.4173 144.507 48.2867C145.196 48.1854 145.441 47.7084 145.143 47.0788C145.054 46.9151 144.948 46.7612 144.827 46.6194C143.744 45.1869 142.656 43.7604 141.561 42.3396C140.962 41.5647 140.36 40.8015 139.76 40.0251L138.739 38.6587L139.999 37.9469L140.268 37.8309L140.716 37.6152C140.785 37.61 140.854 37.5962 140.92 37.5741L148.721 33.7302C149.253 33.6055 149.702 33.3619 149.772 32.7675C149.833 32.2538 149.446 32.0483 149.038 31.9015ZM141.21 25.3557C141.21 25.4012 141.21 25.4481 141.199 25.4936C141.199 25.4481 141.208 25.4012 141.21 25.3557ZM124.299 48.1047L124.355 48.1883L124.299 48.1047ZM124.311 14.9704C124.22 14.9379 124.123 14.9206 124.026 14.919C124.123 14.9206 124.22 14.9379 124.311 14.9704ZM124.8 9.9172L124.664 9.90693L124.8 9.9172ZM124.506 8.61831C124.498 8.71077 124.487 8.8047 124.479 8.89716C124.487 8.8047 124.498 8.71077 124.506 8.61831C124.524 8.43191 124.543 8.24552 124.561 8.05912C124.542 8.24845 124.517 8.43485 124.505 8.62124L124.506 8.61831ZM126.954 35.3799C126.972 35.195 126.991 35.0086 127.009 34.8222C126.991 35.0086 126.972 35.195 126.954 35.3799ZM94.6269 25.4335L94.9205 25.3234L94.6269 25.4335ZM107.534 13.3017L107.355 13.1828L107.534 13.3017ZM103.118 41.7129C103.099 41.7438 103.08 41.7761 103.06 41.8069L103.118 41.7129ZM105.503 19.325C105.139 19.3602 105.002 19.372 104.966 19.5437C105.002 19.3734 105.134 19.3602 105.503 19.325ZM89.5698 26.6296L89.3173 26.3229L89.5698 26.6296ZM95.2392 49.3331L95.386 49.3478L95.2392 49.3331L94.9616 49.3067L95.2392 49.3331ZM94.8398 38.3608C94.8207 38.3931 94.8001 38.4239 94.781 38.4547L94.8398 38.3608ZM117.426 23.9379L117.332 23.8792L117.426 23.9379ZM140.479 37.2747C140.527 37.2816 140.573 37.2986 140.614 37.3246C140.574 37.3006 140.529 37.2851 140.482 37.2791L140.479 37.2747Z"
              fill="#FCAE03"/>
        <path d="M117.42 30.1214C117.148 29.9651 116.866 29.825 116.577 29.7016C116.464 29.6526 116.369 29.5699 116.305 29.4648C116.241 29.3597 116.211 29.2374 116.219 29.1145C116.332 27.549 116.433 25.9796 116.523 24.4062L116.554 23.8764L117.458 23.3965H117.467C117.953 23.69 118.42 24.0232 118.886 24.3534C119.571 24.8421 119.993 24.2419 120.391 23.5609C120.847 22.7786 121.147 22.1519 120.458 21.6632C119.43 20.9293 118.347 20.2263 117.169 19.7889C117.05 19.7454 116.947 19.665 116.877 19.5595C116.807 19.4539 116.771 19.3287 116.777 19.2019C116.798 18.7087 116.817 18.2141 116.836 17.721C116.867 16.8785 116.08 16.8198 115.26 16.8198C114.389 16.8198 113.748 16.8756 113.717 17.721C113.702 18.1466 113.685 18.5722 113.667 18.9979C113.661 19.1273 113.614 19.2515 113.531 19.3515C113.449 19.4516 113.336 19.5222 113.21 19.5526C111.812 19.8975 110.453 20.6182 109.302 21.3579C107.54 22.4924 106.272 24.2052 106.607 26.392C106.901 28.2648 108.44 29.8498 110.071 30.6923C110.952 31.1473 111.906 31.4452 112.861 31.7197L112.908 31.7329C112.658 34.8639 112.365 37.9876 112.027 41.104C112.011 41.2508 111.995 41.3975 111.977 41.5443C111.966 41.6369 111.934 41.7257 111.883 41.8037C111.832 41.8817 111.764 41.9466 111.683 41.9934C111.603 42.0402 111.512 42.0675 111.419 42.0731C111.326 42.0787 111.233 42.0625 111.147 42.0257C110.704 41.8312 110.279 41.5954 109.88 41.3212L109.855 41.3036L109.761 41.2361C109.707 41.1891 109.561 41.0717 109.542 41.0556C109.357 40.8956 109.181 40.7268 109.012 40.5521C108.737 40.2862 108.496 39.987 108.294 39.6613C108.16 39.4577 108.036 39.2484 107.921 39.0331C107.87 38.9377 107.821 38.8408 107.774 38.7396C107.764 38.719 107.708 38.5928 107.686 38.5473C107.679 38.5326 107.673 38.5194 107.667 38.5047C107.503 38.0791 107.375 37.6401 107.286 37.1926C107.115 36.3678 106.286 36.425 105.512 36.6378C104.656 36.8727 104.108 37.1941 104.28 38.0204C104.99 41.4474 107.67 44.3314 111.034 45.2722C111.173 45.309 111.294 45.3947 111.375 45.5136C111.456 45.6325 111.492 45.7766 111.475 45.9194C111.4 46.5241 111.328 47.1273 111.246 47.7305C111.137 48.5671 112.127 48.7183 112.886 48.7183C113.818 48.7183 114.254 48.5715 114.364 47.7305C114.437 47.1718 114.508 46.6122 114.577 46.0515C114.592 45.9206 114.651 45.7984 114.743 45.7047C114.836 45.611 114.958 45.5512 115.088 45.5349C116.199 45.3938 117.271 45.0389 118.247 44.4899C120.071 43.4479 121.068 41.5546 121.382 39.5306C121.915 35.9745 120.699 32.0088 117.42 30.1214ZM111.952 28.1121C111.877 28.0913 111.804 28.0664 111.732 28.0373C111.116 27.7682 110.575 27.3543 110.155 26.8308C109.836 26.4287 109.589 25.9121 109.714 25.4145C109.807 25.0227 110.106 24.7189 110.412 24.4561C110.97 23.9718 112.432 22.6949 113.247 22.8681C113.616 22.9474 113.506 23.2967 113.506 23.6885C113.506 25.0417 113.331 26.3847 113.212 27.732C113.204 27.8199 113.177 27.905 113.132 27.9811C113.088 28.0573 113.027 28.1226 112.954 28.1724C112.881 28.2223 112.798 28.2553 112.711 28.2693C112.624 28.2832 112.535 28.2776 112.45 28.253C112.268 28.2002 112.091 28.1532 111.952 28.1121ZM118.37 38.6001C118.324 39.2656 118.142 39.9147 117.837 40.5081C117.436 41.2773 116.763 41.87 115.949 42.171C115.411 42.3559 115.124 42.4733 115.041 41.9376C114.959 41.4019 115.178 40.6857 115.234 40.1529C115.45 38.085 115.645 36.0141 115.836 33.9447C115.845 33.8299 115.888 33.7202 115.958 33.6289C116.028 33.5377 116.123 33.4686 116.232 33.4302C116.34 33.3917 116.458 33.3855 116.57 33.4122C116.682 33.4389 116.784 33.4974 116.864 33.5807C117.729 34.4745 118.185 35.7822 118.332 37.0429C118.398 37.5593 118.411 38.0811 118.37 38.6001Z"
              fill="#2E2E2E"/>
    </g>
    <defs>
        <clipPath id="clip0_75:37">
            <rect width="150" height="103" fill="white"/>
        </clipPath>
    </defs>
</svg>
