<svg width="119" height="170" viewBox="0 0 119 170" fill="none" xmlns="http://www.w3.org/2000/svg">
<g clip-path="url(#clip0_85_2528)">
<path d="M69.1105 50.1848C68.8921 50.3058 68.7 50.4863 68.5925 50.7054C67.9706 51.9832 68.2084 53.1313 68.3934 54.8368C68.411 55.0068 68.8374 54.9648 68.8586 54.8228C68.8956 54.8088 68.9273 54.779 68.9396 54.7264C69.0453 54.2531 69.2356 53.8202 69.5563 53.4468C69.7025 53.2768 69.8946 53.1418 69.9986 52.9385C70.2858 52.3671 70.3016 51.4574 70.3527 50.8211C70.4232 49.964 69.6779 49.8728 69.1123 50.1831L69.1105 50.1848Z" fill="#FFA27D"/>
<path d="M48.3055 58.6492C48.3037 58.6177 48.4253 58.4792 48.3936 58.4529C48.2033 58.2899 47.9443 57.8587 47.6254 58.0585C47.421 58.1865 47.4545 58.4249 47.4791 58.6405C47.5355 59.1313 47.7734 59.58 47.9989 60.0129C48.3407 60.6702 48.5856 61.2855 48.7178 62.0181C48.7319 62.0918 48.783 62.1233 48.8411 62.1251C48.8746 62.2776 49.1935 62.2793 49.2076 62.1005C49.3204 60.6299 49.1953 59.6834 48.3073 58.6492H48.3055Z" fill="#FFA27D"/>
<path d="M1.56462 185.998C4.08244 185.988 47.0105 185.856 51.5686 185.783C60.6144 185.637 110.365 185.627 118.944 185.094C119.795 185.041 110.722 152.714 109.507 150.193C108.368 147.832 101.823 144.116 100.075 142.169C97.8073 139.642 96.3819 137.016 95.5027 133.754C94.3909 129.624 91.8044 122.105 91.163 121.283C89.8416 119.591 88.0973 119.309 86.0376 119.197C82.896 119.025 79.7439 118.934 76.5988 119.092C74.2378 119.211 71.0293 119.223 69.218 120.971C67.8543 122.287 67.3997 123.295 65.673 124.301C63.837 125.372 61.6417 125.961 59.6736 126.764C57.7407 127.551 55.8237 128.376 53.9243 129.242C52.2804 129.992 50.3106 130.646 49.183 132.124C48.0165 133.652 47.3259 136.492 46.5312 138.222C46.422 138.465 46.3215 138.709 46.1683 138.925C42.077 144.744 37.9858 150.562 33.8946 156.381C33.7606 156.57 25.3297 160.752 23.3387 161.794C19.6351 163.729 18.111 167.417 15.7888 170.644C13.1018 174.374 0.389404 184.242 0.303068 184.324C-0.340041 184.929 0.096921 186 0.984941 185.998C1.17699 185.998 1.36905 185.998 1.5611 185.998H1.56462Z" fill="#232323"/>
<path d="M87.5599 21.2406C87.8788 19.9856 88.3157 18.508 87.0225 17.8314C78.7783 13.5089 66.0007 15.6737 64.7444 14.7289C63.9551 14.1365 63.4142 12.4099 62.9349 11.5879C61.7033 9.47397 60.4101 7.38286 58.9388 5.4162C56.6501 2.35578 52.5535 -2.43115 48.7196 1.45659C45.1058 5.11822 42.9139 11.1497 41.8092 15.9752C41.4022 17.756 41.1097 19.6123 40.1318 21.174C38.3646 23.9995 34.631 25.7331 31.9229 27.6086C28.8025 29.7681 25.772 32.0678 23.344 34.9704C22.6903 35.7539 22.0719 36.6338 21.975 37.6329C21.7072 40.4041 32.3599 44.9317 35.7446 45.8729C36.4071 46.057 36.8793 46.6126 36.8141 47.2787C36.4529 50.9088 36.8687 54.8281 37.4431 58.4354C37.8624 61.0698 38.3505 67.9023 42.7254 65.4729C46.7197 63.2556 56.488 50.9631 58.0843 48.8247C58.3821 48.425 58.9335 48.3058 59.3776 48.5372C62.9825 50.4162 66.5046 50.7142 70.5113 51.6397C73.0732 52.2321 75.6826 52.6178 78.3149 52.7825C80.4857 52.9175 83.2396 53.2155 85.3539 52.5529C89.9843 51.1016 85.6746 44.8528 84.48 42.4024C83.3805 40.1517 80.69 37.179 79.3228 34.8775C78.9898 34.3184 79.0162 33.6295 79.3792 33.0826C80.6601 31.1615 87.0947 23.0758 87.5616 21.2406H87.5599Z" fill="#FFB300"/>
<path d="M62.0892 66.0601C60.6743 63.1223 57.9786 62.9173 56.1514 64.6824C55.7797 65.0417 55.3938 65.4816 55.1894 65.9619C54.7824 66.9154 55.1489 68.2669 54.645 69.2081C53.8239 70.7418 53.2072 71.9355 53.246 73.7304C53.1385 73.8689 53.1226 74.0739 53.3165 74.1721C54.349 74.6979 56.2413 75.8285 57.4183 75.6515C57.7848 75.5971 57.7407 75.6024 58.0208 75.3307C58.1195 75.2361 58.0984 75.0573 58.153 74.9416C58.516 74.1651 58.6728 73.7041 59.2683 73.0924C59.6788 72.6699 60.1616 72.3422 60.4012 71.783C60.7131 71.0521 60.6197 70.2195 60.9527 69.4763C61.4866 68.2826 62.394 67.5675 62.1685 66.2283C62.216 66.1652 62.1315 66.153 62.0874 66.0601H62.0892Z" fill="#723D37"/>
<path d="M72.8423 89.8773C72.8229 89.546 72.6661 87.504 72.5957 86.8151C72.4547 85.4392 72.275 84.0667 72.0547 82.6995C71.8398 81.3621 71.5843 80.0318 71.2936 78.7101C71.1368 77.9967 70.4161 75.4516 70.1642 74.7593C69.8646 73.932 64.9259 74.8171 62.9014 75.208C60.4823 75.6743 57.42 76.7312 55.9118 78.8241C55.1559 79.874 55.3215 81.4498 55.2246 82.6785C55.0819 84.5102 54.9515 86.3419 54.8335 88.1753C54.5939 91.9176 54.4089 95.6634 54.2714 99.4109C54.0142 99.6791 54.4811 100.131 54.7031 99.8228C56.7417 96.992 58.0068 96.4644 60.2708 95.4846C62.6336 94.4609 65.5708 94.3785 68.0974 94.0858C69.5369 93.9193 70.9782 93.7808 72.4036 93.5056C72.5904 93.4688 72.645 93.3111 72.608 93.1674C73.3286 92.659 72.8529 90.0736 72.8406 89.8756L72.8423 89.8773Z" fill="#00773A"/>
<path d="M85.1125 118.899C85.0896 118.864 85.0632 118.837 85.035 118.816C85.005 118.774 84.9628 118.736 84.9046 118.711C83.7963 118.219 82.6881 117.73 81.5816 117.232C80.6777 116.825 80.1526 116.282 80.1949 115.255C80.2196 114.666 80.2707 114.078 80.3359 113.493C80.3553 113.444 80.3588 113.388 80.3517 113.33C80.3782 113.099 80.1685 113.004 79.9905 113.046C79.1607 112.962 78.329 112.855 77.4939 112.915C77.33 112.804 77.0305 112.871 76.9988 113.137C76.8684 114.206 76.7098 115.272 76.5459 116.338C76.4631 116.876 76.1724 119.141 76.449 119.411C76.4966 119.456 76.5583 119.484 76.6217 119.507C77.5344 119.84 78.4559 119.612 79.4038 119.633C80.6971 119.661 81.9904 119.689 83.2819 119.719C83.6959 119.728 85.7803 119.952 85.1125 118.899V118.899Z" fill="#FFB300"/>
<path d="M84.2967 97.7405C83.8633 95.6897 82.3234 94.3155 80.6442 93.1937C78.6709 91.8756 75.2756 89.788 73.0309 89.0237C72.7542 88.9291 72.5199 88.745 72.3648 88.4996C71.2707 86.7644 71.424 87.1307 70.1113 85.3376C69.9246 84.8187 69.5457 83.6882 69.359 83.1693C69.4118 82.6856 68.9484 82.6628 68.7951 82.8714C68.7493 82.8714 68.7018 82.8784 68.6524 82.9029C67.1812 83.6286 65.7135 84.363 64.274 85.1465C63.6538 85.4848 63.1111 85.7057 63.1499 86.4769C63.1834 87.1377 63.5692 87.8914 63.7666 88.5207C64.0326 89.3708 64.2987 90.2192 64.5647 91.0693C64.97 92.3629 65.3752 93.6564 65.7805 94.95C65.8439 95.6038 65.9197 96.2576 66.0271 96.9044C66.1839 97.8492 66.4341 98.7238 67.3292 99.2058C68.5855 99.8807 70.2946 100.096 71.6812 100.375C72.5992 100.559 73.6405 100.645 74.5708 100.938C74.8122 101.013 74.9849 101.227 74.999 101.479C75.0765 102.864 74.6166 104.664 74.5655 106.063C74.4792 108.415 74.0123 114.529 74.5162 114.78C75.4835 115.262 78.7413 115.511 81.3102 114.222C81.4812 114.136 81.6027 113.975 81.645 113.789C81.9445 112.504 83.1497 107.304 83.6589 104.792C84.1064 102.58 84.7707 99.9929 84.2967 97.7422V97.7405Z" fill="#232323"/>
<path d="M64.3392 132.867C64.3357 132.762 64.3092 132.643 64.2581 132.506C63.9938 131.796 62.512 129.281 62.2989 128.478C61.9236 127.063 62.2601 125.207 62.2072 123.745C62.2337 123.694 62.2354 123.63 62.1984 123.582C62.1826 123.491 62.0927 123.465 62.0169 123.493C61.5236 123.326 61.0338 123.351 60.514 123.417C59.892 123.498 59.4251 123.496 58.8278 123.694C58.8278 123.694 58.6111 129.125 58.7538 129.542C58.9071 129.99 59.2683 130.348 59.5855 130.685C60.3695 131.515 61.0884 132.42 61.9641 133.154C62.3411 133.472 62.7992 133.628 63.2926 133.612C63.9216 133.593 64.3656 133.501 64.341 132.867H64.3392Z" fill="#FFB300"/>
<path d="M62.9367 70.712C62.8169 70.5771 62.1808 70.6595 61.7755 70.6665C61.6892 70.6665 61.6223 70.5929 61.6293 70.5087C61.6839 69.8497 61.6258 69.1713 61.6751 68.8488C61.7615 68.2861 61.8654 68.1705 61.9746 68.1932C61.9271 68.1459 61.8601 68.1144 61.7685 68.1179C60.6461 68.1652 59.626 67.8567 58.5759 68.3177C58.4014 68.2616 58.1653 68.351 58.1671 68.5894C58.1706 68.947 58.1794 70.1827 58.1266 71.5306C58.1213 71.6849 58.0614 71.8321 57.9627 71.953C57.2139 72.8698 57.0852 73.4184 57.6702 73.5586C57.6914 73.5639 58.0279 73.8215 58.0455 73.8321C59.1732 75.173 61.6275 74.5805 62.727 73.1695C63.2133 72.5472 63.4864 71.3378 62.9384 70.7138L62.9367 70.712Z" fill="#C48255"/>
<path d="M72.0512 93.2883C71.7376 91.8072 70.5148 91.1358 69.5545 89.9947C68.3987 88.6223 68.0939 86.7906 67.2623 85.2394C66.7812 84.3437 66.2685 83.4164 65.1567 83.6688C63.3402 84.079 61.4443 85.1219 59.7793 85.979C59.5344 85.923 59.1943 86.1876 59.5203 86.5838C59.7387 86.8484 60.1035 89.22 59.9238 89.9246C59.7053 90.7765 59.4938 91.6301 59.293 92.4873C58.9053 94.1402 58.5653 95.8053 58.338 97.4898C57.9257 100.547 58.1512 103.612 57.9169 106.678C57.4412 112.911 57.1857 119.025 57.7654 125.265C57.7848 125.473 57.9733 125.565 58.1354 125.544C60.3748 126.429 63.3384 126.488 65.3629 125.055C65.3805 125.042 65.3964 125.028 65.4104 125.012C65.4721 124.981 65.5179 124.92 65.532 124.823C66.2562 119.505 66.6597 117.177 67.1865 111.837C67.4561 109.104 68.5115 102.312 68.4692 99.6685C68.4304 97.1462 70.7861 95.7457 72.1728 93.6879C72.2873 93.5179 72.1939 93.3549 72.0512 93.2865V93.2883Z" fill="#232323"/>
<path d="M73.7039 49.389C73.7004 49.2155 73.6669 49.0455 73.5506 48.9526C73.3039 48.7545 72.652 49.34 72.5657 49.3663C72.5075 49.0087 72.3437 48.744 71.9631 49.0297C71.5984 49.3032 71.3517 49.9622 71.1508 50.3566C71.0733 50.5073 71.0011 50.6616 70.9324 50.8158C70.0655 51.9306 70.1642 51.6467 68.4709 52.034C68.2419 52.3741 68.2912 52.8719 68.2965 53.2698C68.3071 53.9867 68.3582 54.6808 68.3053 55.3977C68.2983 55.5029 71.4803 54.7456 71.4803 54.7018C71.5015 54.6615 71.4997 54.6142 71.4803 54.5739C71.4768 54.1935 71.3781 53.7939 71.498 53.4328C71.5737 53.2014 72.3472 53.1488 72.8617 52.8035C73.859 52.1304 74.0545 50.9052 74.1003 49.8693C74.1109 49.6222 73.9312 49.4749 73.7039 49.389V49.389Z" fill="#C48255"/>
<path d="M61.9764 65.6412C61.395 64.5439 60.2779 63.8656 59.0216 63.983C57.3442 64.139 55.9171 65.4466 56.3082 67.2117C56.4527 67.8602 56.9002 68.3738 57.3989 68.7927C57.6279 68.9855 57.8887 69.2029 58.1565 69.3379C58.3027 69.4132 58.745 69.4605 58.8225 69.5797C59.633 70.8558 61.0267 70.7296 62.6177 69.4658C63.4265 68.8243 62.431 66.4965 61.9782 65.6412H61.9764Z" fill="#C48255"/>
<path d="M68.7705 79.6304C68.7546 79.5796 68.7493 79.5287 68.7511 79.4762C68.8022 78.293 68.7916 77.1063 68.559 75.9845C68.3511 74.9854 67.9265 74.0477 67.4067 73.173C66.8993 72.3177 66.1963 70.8278 65.6976 69.9759C65.5849 69.7831 65.5549 69.4641 65.2554 69.55C64.4009 69.7954 63.5727 70.0933 62.7552 70.4386C62.6424 70.486 62.5772 70.6647 62.6178 70.7769C63.1886 72.3527 61.7562 73.3676 60.3466 73.343C59.3828 73.3255 58.4895 72.9048 57.642 72.4999C57.5081 72.4368 57.3813 72.4737 57.2949 72.5543C57.2685 72.5543 57.2456 72.5543 57.2174 72.563C56.2342 72.8891 54.0459 73.2782 53.8961 74.556C53.8151 75.2501 54.2432 76.2142 54.4212 76.8925C54.6996 77.9565 55.0203 79.0081 55.392 80.0423C56.0545 81.8845 56.9919 84.6382 58.0455 86.2928C58.5776 87.1289 59.0657 88.1684 60.2726 87.9002C60.3096 87.916 66.0289 86.7608 68.2771 85.1255C68.959 84.6294 69.5105 84.2123 69.5686 83.3429C69.6638 81.9161 69.1863 81.0046 68.774 79.6269L68.7705 79.6304Z" fill="#00ADEE"/>
<path d="M72.1305 54.218C72.0037 53.9428 71.7464 53.7904 71.2055 53.885C69.6462 54.1549 67.3592 55.0015 67.3081 56.0971C67.1988 58.4967 67.3962 61.7534 66.8905 64.1197C66.4606 66.1267 64.9294 68.7892 64.2793 69.5359C64.0802 69.7638 64.7127 70.3948 64.9224 70.2773C65.8333 70.8277 66.4852 71.7953 67.1495 72.5998C67.8085 73.4008 68.4991 74.1458 69.3537 74.7453C69.6356 74.9433 70.2734 74.8259 70.1025 74.5822C69.4894 72.7804 70.8002 70.9802 71.3324 69.3168C71.8292 67.7673 72.4371 66.209 72.5921 64.5789C72.7824 62.5755 72.6908 60.5562 72.5375 58.5527C72.4618 57.5659 72.3701 56.5791 72.2856 55.594C72.2433 55.098 72.2891 54.5616 72.1305 54.218V54.218Z" fill="#00D869"/>
<path d="M49.1442 60.3687C48.9609 59.8043 48.4711 59.7938 48.0412 59.4432C47.1144 58.686 47.6941 56.9787 46.7479 56.3547C46.3074 56.0655 46.0925 56.3179 45.9903 56.665C45.978 56.665 45.9639 56.6685 45.9498 56.6702C45.7119 56.4687 45.3754 56.3845 45.0829 56.5335C44.3358 56.9121 44.4486 58.1654 44.5596 58.8385C44.6371 59.3065 44.7464 59.7815 44.9437 60.2144C45.0706 60.4931 45.5798 61.4765 45.948 61.487C45.9709 61.487 45.992 61.487 46.0132 61.4782C46.2141 61.6097 46.3198 61.8446 46.281 62.0777L46.0625 63.4011C46.0431 63.5132 48.9186 63.8147 48.9539 63.6657C49.1406 62.8892 49.4014 61.1557 49.1442 60.3687Z" fill="#C48255"/>
<path d="M57.8341 71.8146C57.709 71.3799 53.0874 72.0547 52.6205 72.2756C51.7289 72.6962 51.8311 73.8233 51.8752 74.6366C51.9298 75.6375 50.9731 75.8162 51.1334 76.8066C51.2585 77.5778 51.7536 76.4508 51.6849 77.2167C51.1845 82.7451 51.1193 91.6722 51.3255 96.8676C51.3677 97.9385 51.2955 99.2146 51.7096 100.231C52.0355 101.029 57.087 103.551 57.302 101.949C57.3143 101.851 58.8296 90.5469 59.071 85.5654C59.3476 79.8652 59.1379 76.3771 57.8323 71.8146H57.8341Z" fill="#00D869"/>
<path d="M70.7386 74.4193C70.4108 72.4684 71.1861 69.8251 71.727 68.1214C71.9384 67.4536 67.3997 69.0451 66.6755 68.9014C66.0025 68.7682 65.2554 68.4369 64.7568 68.8839C64.0255 69.5377 62.9719 69.9934 62.1755 70.4807C61.9306 70.663 62.2442 70.7944 62.616 70.7787C63.5833 70.7366 65.2607 72.9066 66.0694 73.8163C68.034 76.0248 69.4153 78.5822 70.7685 81.1851C70.9042 81.4446 72.1358 83.6163 72.1164 83.0922C72.0371 80.8661 71.105 76.612 70.7386 74.421V74.4193Z" fill="#00D869"/>
<path d="M53.6777 72.4228C53.6777 72.2738 54.1287 71.9934 53.9367 71.9951C52.8566 72.0039 50.3722 71.911 49.2199 71.769C49.1248 71.7567 49.0578 71.6691 49.0684 71.5744C49.2605 69.9303 49.641 68.3177 49.9071 66.6858C50.0498 65.8112 50.1714 64.926 50.2101 64.0408C50.2313 63.5308 50.2366 63.4537 49.7644 63.2065C49.2305 62.9278 45.733 61.955 45.5146 62.8665C45.5798 62.5965 42.9862 71.3203 43.1447 74.0529C43.187 74.7768 43.4954 75.5113 44.0151 76.0336C44.6424 76.6646 45.7066 76.9311 46.4977 77.3062C47.9531 77.9968 51.4347 78.3631 51.3801 79.8565C51.3695 80.1597 53.7023 72.4544 53.6777 72.4228V72.4228Z" fill="#00D869"/>
<path d="M61.7315 65.0382C61.5694 64.3283 61.0373 63.4326 60.2708 63.3011C59.1238 63.1048 58.1037 63.3713 57.1311 63.9637C56.3505 64.4387 55.2934 65.3064 55.2634 66.2967C55.2211 67.6972 56.4104 68.975 56.9549 70.1599C57.05 70.3685 57.272 70.3422 57.4024 70.2142C57.524 70.216 57.6455 70.1564 57.6931 70.0092C57.8693 69.45 57.9909 68.8839 58.0596 68.3072C58.0667 68.2511 58.0984 68.2038 58.1459 68.174C58.5248 67.9373 58.8313 67.6025 59.0093 67.1696C59.145 66.8436 59.1872 66.5123 59.1626 66.1635C59.1309 65.706 58.893 65.0925 59.1132 64.6543C59.1414 64.5982 59.1961 64.5562 59.256 64.5369C60.0453 64.2722 60.9281 64.3318 61.4531 65.0802C61.4725 65.1065 61.4954 65.1223 61.5201 65.1328C61.6134 65.2047 61.765 65.1889 61.7315 65.0382V65.0382Z" fill="#723D37"/>
<path d="M70.587 95.0727C69.447 96.3347 68.7141 97.8474 68.4463 99.5231C68.4163 99.7106 68.7053 99.793 68.7352 99.602C68.996 97.9771 69.6937 96.5082 70.8002 95.283C70.9288 95.141 70.7174 94.929 70.587 95.0709V95.0727Z" fill="#4D2424"/>
<path d="M58.3433 68.2126C58.0596 67.6885 57.4042 67.2397 57.0236 67.6622C56.6677 68.0583 57.1205 68.6578 57.45 68.933C57.642 69.0942 57.9785 69.2607 58.2323 69.1188C58.5565 68.9365 58.5318 68.5579 58.3433 68.2126Z" fill="#C48255"/>
<path d="M69.6761 85.4602C67.6463 87.9773 64.3427 88.4803 61.3174 88.873C61.1289 88.8975 61.1254 89.1972 61.3174 89.1727C64.4185 88.7713 67.8084 88.2507 69.8875 85.6723C70.0073 85.5233 69.7959 85.3112 69.6743 85.4602H69.6761Z" fill="#4D2424"/>
<path d="M59.0674 69.8882C59.6595 70.57 60.5739 70.4211 61.358 70.2282C61.5447 70.1827 61.4655 69.8935 61.2787 69.9408C60.5986 70.1073 59.7987 70.2756 59.2806 69.6779C59.1538 69.5324 58.9423 69.7445 59.0674 69.89V69.8882Z" fill="#C96040"/>
</g>
<defs>
<clipPath id="clip0_85_2528">
<rect width="119" height="170" fill="white"/>
</clipPath>
</defs>
</svg>
