<svg width="150" height="159" viewBox="0 0 150 159" fill="none" xmlns="http://www.w3.org/2000/svg">
<g clip-path="url(#clip0_85_2561)">
<path d="M134.076 26.5956C134.067 26.4899 134.055 26.3842 134.038 26.276C133.785 24.6116 133.013 22.8657 132.141 21.437C131.526 20.4386 130.976 19.3867 130.213 18.4915C129.855 18.07 129.454 17.6332 128.948 17.4282C128.328 17.2036 127.675 17.0894 127.016 17.0907C125.335 17.0462 123.065 18.028 121.939 19.1537C121.414 19.6796 120.992 20.0591 120.745 20.6258C119.665 23.1051 121.746 25.871 122.271 29.6493C122.465 31.0501 122.288 32.619 123.51 33.3716C123.773 33.5333 123.982 37.211 124.327 37.2122C128.828 37.2415 131.99 33.0889 133.533 29.266C133.885 28.381 134.148 27.5418 134.076 26.5956Z" fill="#D16C4D"/>
<path d="M126.448 17.7835C126.453 17.7203 126.481 17.6611 126.526 17.6163C126.57 17.5716 126.629 17.5442 126.692 17.539C127.396 17.4868 128.072 17.5887 128.578 18.1821C129.084 18.7755 129.493 19.537 129.903 20.2196C130.515 21.2383 131.103 22.2787 131.674 23.3229C132.144 24.18 132.612 25.0421 133.035 25.9258C133.332 26.5473 133.714 27.1993 133.652 27.9162C133.61 28.3327 133.443 28.7261 133.171 29.0432C133.138 29.0835 133.094 29.1132 133.045 29.1286C132.996 29.144 132.943 29.1444 132.893 29.1298L132.858 29.1196C132.816 29.107 132.777 29.084 132.746 29.0528C132.715 29.0215 132.692 28.983 132.68 28.9407C132.667 28.8984 132.665 28.8536 132.674 28.8103C132.683 28.7671 132.703 28.7268 132.731 28.693C132.985 28.4079 133.117 28.0337 133.099 27.6513C133.068 27.1738 132.789 26.7166 132.587 26.2939C132.385 25.8711 132.187 25.4776 131.977 25.0752C131.39 23.9495 130.775 22.8403 130.142 21.7401C129.591 20.7786 129.041 19.8044 128.406 18.8939C128.153 18.5335 127.963 18.284 127.51 18.149C127.255 18.0782 126.989 18.0524 126.725 18.0726C126.687 18.075 126.649 18.0691 126.614 18.0552C126.578 18.0414 126.546 18.02 126.52 17.9925C126.494 17.965 126.474 17.9321 126.461 17.896C126.449 17.8599 126.444 17.8215 126.448 17.7835V17.7835Z" fill="#140B05"/>
<path d="M126.243 33.625C126.199 31.5544 125.59 29.5029 125.186 27.4807L124.283 22.96C124.055 21.8203 124.089 20.0807 122.549 20.0757C121.574 20.0757 120.735 20.3596 120.612 21.3045C120.406 22.9027 121.281 25.2025 121.579 26.7803C121.972 28.8496 122.402 30.9151 122.807 32.9781C122.834 33.1054 122.856 33.2328 122.875 33.3601C122.875 33.2226 122.875 33.2582 122.875 33.4658C122.894 34.3508 123.524 35.2384 124.477 35.241C125.341 35.241 126.263 34.575 126.243 33.625Z" fill="#2E2E2E"/>
<path d="M97.1867 138.505C97.1874 138.499 97.1874 138.493 97.1867 138.487C97.1619 137.993 97.1036 137.502 97.0122 137.016C96.9452 136.648 96.8605 136.279 96.7593 135.911C96.4344 134.739 96.0455 133.587 95.5945 132.459C95.4123 131.989 95.2327 131.529 95.0632 131.08C94.8103 130.419 94.5573 129.76 94.3044 129.102C94.2336 128.918 94.1619 128.735 94.0894 128.552C93.9537 128.208 93.8179 127.865 93.6821 127.523C92.8651 125.467 92.0182 123.425 91.1413 121.398C90.0452 118.856 88.9069 116.335 87.7265 113.835C87.4154 113.175 87.1013 112.516 86.7842 111.857C84.6831 107.499 82.4672 103.19 80.1367 98.9317C78.9896 96.8267 77.8931 94.695 76.8054 92.5582C76.0466 91.0699 75.2877 89.5813 74.5289 88.0922C73.6018 86.284 72.6621 84.4808 71.6844 82.7005C71.4795 82.3261 71.2734 81.9556 71.066 81.585C70.8712 81.2369 70.6739 80.8901 70.4741 80.5446C70.2958 80.2352 70.1149 79.9283 69.9315 79.6214C69.8581 79.494 69.7848 79.3769 69.7102 79.2546C69.1587 78.3428 68.5858 77.4451 67.9825 76.5689C67.1642 75.3674 66.2823 74.2112 65.3405 73.1052C64.4109 72.0177 63.4434 70.9582 62.4644 69.9216C62.3038 69.7535 62.1432 69.5842 61.9813 69.4123C61.5707 68.9878 61.1571 68.5633 60.7406 68.1388C59.6445 67.0352 58.5358 65.9519 57.4144 64.889C56.9312 64.4306 56.1686 64.4522 55.5918 64.7617C55.3288 64.7617 54.8823 64.9196 54.2967 65.1934C54.1298 65.271 53.9527 65.3589 53.7643 65.4544C53.5758 65.5499 53.3849 65.6531 53.1812 65.7626C51.6079 66.6196 49.5008 67.9389 47.2976 69.3855C46.3149 70.0299 45.3133 70.701 44.3305 71.3657C40.8803 73.7012 37.6704 75.9793 36.3715 76.9051L35.8201 77.2999L35.7644 77.3406C35.7644 77.3406 35.4685 71.5822 35.4773 65.4124C35.4773 64.2981 35.4887 63.1699 35.514 62.0607C35.5709 59.4795 35.7025 56.9976 35.9491 55.0072C36.7648 48.4299 37.3403 41.6183 36.4954 35.0028C36.3614 33.9416 36.1886 32.8877 35.9769 31.8409C35.7638 30.8066 35.4897 29.7861 35.1561 28.7847C34.5846 27.0975 33.8905 25.455 33.0794 23.8705C31.8791 21.4892 29.8341 19.4033 27.7536 18.8149C27.5734 18.7632 27.39 18.7236 27.2046 18.6965C24.9281 18.3501 22.7059 19.9177 21.5765 24.958C20.6242 29.2036 19.864 32.7641 19.2051 35.9375C19.1659 36.1234 19.1267 36.3094 19.0888 36.494C17.6482 43.4406 16.6718 48.5687 15.1579 55.1422C14.9387 56.093 14.717 57.023 14.4927 57.9323C14.2296 58.9943 13.9632 60.0317 13.6933 61.0445C11.4851 69.3218 8.96194 76.2315 5.89114 83.9434C3.63484 89.6089 2.38278 95.7023 1.13069 101.675C-1.54931 114.46 0.656409 127.634 6.22382 139.241C6.62474 140.072 8.27773 142.545 8.27773 142.545C8.27773 142.545 7.22799 145.79 6.56526 147.213C5.61164 149.264 4.62642 151.299 3.72971 153.375C3.0556 154.933 1.62013 157.125 2.317 158.851C3.12264 160.847 5.77606 161.343 7.61374 161.768C9.92822 162.305 12.0872 163.068 14.3612 163.749C17.3068 164.631 20.3725 164.944 23.3408 165.731C26.0082 166.439 28.6199 167.612 31.2 168.667C33.9647 169.799 36.7712 170.761 39.7168 171.286C42.6257 171.805 45.5902 171.983 48.5447 171.997C50.1319 172.006 51.7204 171.976 53.3077 171.92C54.7761 171.869 56.2166 171.694 57.6774 171.567C59.1382 171.44 60.6862 171.729 62.2305 171.814C63.2769 171.853 64.3247 171.838 65.3696 171.768C66.7697 171.699 68.3771 171.744 69.6571 171.081C71.3455 170.206 71.7389 168.24 72.4066 166.571C72.8038 165.579 73.2464 164.873 73.8067 164.334C74.5516 163.616 75.5052 163.201 76.8421 162.821C79.8471 161.968 82.4386 160.352 84.7278 158.308C85.4601 157.655 86.162 156.958 86.8348 156.229C87.291 155.734 87.7349 155.225 88.1666 154.7C90.7087 151.638 92.8575 148.173 94.847 144.993C95.4983 143.95 96.1522 142.828 96.6024 141.657C96.9983 140.646 97.2348 139.591 97.1867 138.505Z" fill="#D16C4D"/>
<path d="M45.9166 132.594C45.9001 132.958 45.3386 132.931 45.3563 132.567C45.5663 128.169 45.5169 123.762 45.2083 119.369C44.648 111.573 43.2176 103.817 40.7387 96.4014C39.5688 92.8982 38.2181 89.4536 37.2265 85.893C36.4424 83.0838 35.9238 80.211 35.8252 77.3037L36.3766 76.909C36.455 80.4988 37.2062 84.0173 38.2737 87.453C39.3791 91.0186 40.7614 94.4925 41.8656 98.0594C43.0123 101.786 43.9164 105.584 44.5722 109.429C45.8812 117.068 46.2758 124.854 45.9166 132.594Z" fill="#140B05"/>
<path d="M27.7586 18.8226C27.5398 20.6754 27.3564 22.541 27.0175 24.376C26.5255 27.0502 25.9639 29.7423 25.2203 32.3566C24.8168 33.7714 24.2831 35.4587 23.141 36.452C22.0255 37.4211 20.3889 36.8926 19.0938 36.5017C19.1318 36.317 19.171 36.1311 19.2102 35.9452C19.9754 36.1744 20.7621 36.4265 21.5639 36.4253C22.6402 36.4253 23.2435 35.6408 23.714 34.7481C24.8915 32.5069 25.3126 29.7818 25.845 27.3279C26.1106 26.1105 26.3763 24.8892 26.5786 23.6591C26.8493 22.0189 27.0137 20.3558 27.211 18.7042C27.396 18.7313 27.5789 18.7709 27.7586 18.8226V18.8226Z" fill="#140B05"/>
<path d="M13.6921 61.0471C16.8198 63.175 20.3953 64.1593 24.0757 64.777C27.7476 65.4051 31.4763 65.631 35.1965 65.4506C36.0743 65.4048 36.9571 64.8139 36.9597 63.8372C36.9597 62.9916 36.3007 62.0136 35.3572 62.062C31.779 62.2391 28.1922 62.0364 24.6562 61.4571C21.4614 60.9477 18.2477 60.0563 15.5285 58.2022C14.7697 57.6929 13.687 57.9475 13.1976 58.7001C12.9606 59.0792 12.8797 59.5364 12.972 59.9746C13.0643 60.4128 13.3227 60.7975 13.6921 61.0471V61.0471Z" fill="#FFB300"/>
<path d="M38.8745 16.0516L111.583 0.159176C116.245 -0.85957 117.873 3.26763 118.287 4.90017C118.7 6.53271 147.851 140.725 148.236 143.161C148.62 145.597 147.082 147.784 144.281 148.915C141.479 150.046 72.838 164.53 70.9737 164.938C69.1095 165.345 64.4109 165.261 63.2259 159.37C62.0408 153.479 35.0386 28.2256 33.9559 23.2032C32.8733 18.1808 36.431 17.0309 38.8745 16.0516Z" fill="#2E2E2E"/>
<path d="M144.34 141.531C144.231 143.448 142.881 145.103 140.672 146.008C139.463 146.505 124.926 149.701 109.631 152.99C105.38 153.906 101.07 154.829 96.9705 155.704C84.323 158.406 73.6764 160.651 72.9846 160.798C71.2633 161.173 66.9138 161.062 65.7844 155.436C65.5314 154.182 64.0529 147.261 61.8953 137.209C61.6423 136.041 61.3831 134.834 61.1175 133.587C61.0593 133.316 61.0024 133.042 60.943 132.767L60.3409 129.965C59.9379 128.078 59.5184 126.125 59.0825 124.107C56.9729 114.288 54.5573 103.064 52.1264 91.7865L51.967 91.0466L51.9557 90.9957C51.7348 89.9693 51.5138 88.9421 51.2929 87.914C51.2044 87.5065 51.1171 87.0964 51.0286 86.6877C50.973 86.4253 50.9165 86.1626 50.8592 85.8994C50.6146 84.7652 50.3709 83.6327 50.1281 82.5019C49.3136 78.7236 48.508 74.981 47.7251 71.3262C47.672 71.0843 47.6214 70.8423 47.5695 70.6017C47.3166 69.4292 47.0658 68.2666 46.817 67.1137C46.7576 66.8399 46.6994 66.5649 46.6399 66.2911C45.3322 60.2194 44.094 54.4711 42.9811 49.3073C42.3487 46.3568 41.7505 43.5972 41.2104 41.0746C41.1522 40.7978 41.0932 40.5249 41.0334 40.2558C40.7222 38.8091 40.4275 37.4453 40.1543 36.1808C38.8504 30.1281 38.0043 26.1856 37.8285 25.3897C37.5312 24.0068 37.5907 22.9332 37.8829 22.0788C38.6012 19.9814 40.7273 19.2505 42.331 18.5972L47.4368 17.4817L109.467 3.92345C113.768 2.98238 115.304 6.93002 115.698 8.48871C115.752 8.7001 116.315 11.2648 117.248 15.541C117.601 17.1531 118.007 19.0073 118.456 21.0715C119.028 23.6986 119.674 26.6657 120.377 29.8977C122.575 39.9985 125.337 52.7112 128.197 65.8938C128.566 67.5968 128.937 69.3066 129.31 71.0232C129.455 71.6955 129.6 72.3683 129.746 73.0416C129.832 73.4325 129.918 73.8234 129.999 74.2144C130.24 75.3223 130.48 76.4293 130.719 77.5355C130.944 78.5704 131.168 79.6036 131.39 80.635C131.686 81.9934 131.982 83.3496 132.276 84.7036L132.866 87.4301C134.746 96.0983 136.554 104.46 138.159 111.88C139.804 119.505 141.237 126.142 142.301 131.109C142.566 132.339 142.807 133.467 143.024 134.483C143.336 135.945 143.598 137.172 143.801 138.133C144.097 139.534 144.271 140.374 144.297 140.544C144.347 140.87 144.362 141.201 144.34 141.531V141.531Z" fill="#80D7F1"/>
<path d="M106.996 14.3197L47.5869 27.6026C45.1492 28.1477 43.6118 30.5793 44.1532 33.0338L49.3539 56.6151C49.8953 59.0696 52.3103 60.6175 54.748 60.0725L114.157 46.7895C116.594 46.2445 118.132 43.8128 117.59 41.3583L112.39 17.777C111.848 15.3225 109.433 13.7746 106.996 14.3197Z" fill="white"/>
<path d="M114.805 49.7963L55.3964 63.0793C52.9586 63.6243 51.4213 66.056 51.9626 68.5105L57.1634 92.0918C57.7047 94.5463 60.1197 96.0942 62.5575 95.5492L121.966 82.2662C124.404 81.7212 125.941 79.2896 125.4 76.8351L120.199 53.2537C119.658 50.7992 117.243 49.2513 114.805 49.7963Z" fill="white"/>
<path d="M122.731 85.7406L63.3223 99.0235C60.8845 99.5686 59.3472 102 59.8885 104.455L65.0893 128.036C65.6306 130.491 68.0456 132.038 70.4834 131.493L129.892 118.21C132.33 117.665 133.867 115.234 133.326 112.779L128.125 89.1979C127.584 86.7434 125.169 85.1955 122.731 85.7406Z" fill="white"/>
<path d="M149.946 86.5412C149.727 84.5037 148.835 82.4484 147.028 81.6028C144.87 80.5943 142.374 80.4949 140.325 81.8346C139.647 82.2877 139.015 82.8072 138.439 83.3856C137.829 83.9867 137.255 84.6387 136.702 85.2958C136.698 85.2998 136.695 85.3045 136.692 85.3098C136.692 85.3098 136.692 85.3098 136.692 85.3098C136.45 85.5976 136.212 85.8905 135.974 86.177C135.689 86.5272 135.406 86.8736 135.125 87.2085C134.501 87.9534 133.891 88.7111 133.307 89.4879C133.004 89.8861 132.709 90.2898 132.421 90.699C131.812 91.57 131.178 92.4881 130.74 93.4776C130.74 93.489 130.73 93.4992 130.727 93.5107C130.589 93.8241 130.474 94.1471 130.383 94.4772C130.293 94.8096 130.243 95.1516 130.235 95.496C130.229 95.7461 130.241 95.9964 130.271 96.2448C130.459 97.5607 131.046 98.7859 131.953 99.7518C132.575 100.418 133.388 100.87 134.279 101.043C134.545 101.095 134.814 101.121 135.085 101.121C135.327 101.121 135.569 101.1 135.807 101.057C135.991 101.027 136.172 100.985 136.35 100.93C137.256 100.644 138.092 100.166 138.887 99.6435C139.327 99.3507 139.754 99.0412 140.174 98.7356L144.34 95.7176C145.47 94.8987 146.604 94.0736 147.584 93.0777C148.652 91.9928 149.581 90.6582 149.861 89.1301C150.012 88.2757 150.041 87.4038 149.946 86.5412Z" fill="#D16C4D"/>
<path d="M145.14 65.6747C145.15 63.6118 144.471 61.5934 142.838 60.1149C140.619 58.1054 136.971 56.7722 134.221 56.9785C134.012 56.9931 133.804 57.0186 133.598 57.0549C133.578 57.0572 133.558 57.061 133.539 57.0663C132.597 57.2382 131.8 57.6266 131.263 58.2723C130.887 58.7291 130.542 59.2111 130.231 59.7151C129.543 60.8484 128.933 62.0278 128.405 63.245C128.225 63.6449 128.05 64.0473 127.881 64.4484C127.628 65.0431 127.388 65.6365 127.155 66.2134C126.896 66.8501 126.649 67.4741 126.41 68.0586L126.402 68.0764C126.254 68.4381 126.11 68.7857 125.969 69.1155C125.716 69.7192 125.441 70.3482 125.167 70.9951L125.155 71.0219L124.838 71.7707C124.714 72.0652 124.59 72.3624 124.465 72.6621L124.3 73.0581C124.231 73.2249 124.161 73.3943 124.093 73.5675C123.944 73.9317 123.795 74.2963 123.648 74.6613C123.055 76.1462 122.493 77.6208 122.034 78.9808C121.999 79.0852 121.962 79.1884 121.926 79.2928C121.252 81.1953 120.378 82.8508 119.804 84.6514C119.475 85.649 119.276 86.6853 119.211 87.7344C119.167 88.4245 119.201 89.1174 119.311 89.7999C119.36 90.1016 119.431 90.3994 119.521 90.6913C119.572 90.8569 119.628 91.0186 119.694 91.1778C120.419 92.9606 122.024 94.0914 123.82 94.5982C125.04 94.942 126.502 95.1814 127.815 95.0032L127.866 94.9955C128.073 94.965 128.278 94.9225 128.48 94.8682L128.621 94.8274C129.392 94.5893 130.101 94.1054 130.734 93.5285C130.921 93.3604 131.101 93.1821 131.272 92.9988C131.287 92.9849 131.301 92.97 131.315 92.9542C131.65 92.6002 131.956 92.2309 132.235 91.8769C132.657 91.3386 133.069 90.7923 133.471 90.238C134.131 89.3321 134.764 88.4076 135.368 87.4644L135.603 87.099C135.745 86.8761 135.887 86.6533 136.026 86.4279C136.257 86.0586 136.484 85.6859 136.708 85.3098C137.936 83.2545 139.065 81.1355 140.122 78.9846L140.375 78.4753L140.549 78.12L140.995 77.198C142.248 74.5951 143.474 71.9247 144.474 69.2454C144.904 68.1042 145.129 66.8952 145.14 65.6747V65.6747Z" fill="#D16C4D"/>
<path d="M136.93 40.8632C135.619 38.3163 132.757 36.6341 130.047 36.0382C128.468 35.6905 126.649 35.4689 125.085 36.0267C125.009 36.0534 124.933 36.0827 124.857 36.1133C123.662 36.6061 122.862 37.6745 122.311 38.827C122.184 39.0817 122.078 39.3465 121.978 39.6063C121.195 41.6591 120.667 43.857 120.041 45.9633C119.907 46.4098 119.775 46.8475 119.645 47.2762C118.768 50.1452 117.934 52.6323 117.07 55.3943C116.924 55.854 116.78 56.3239 116.634 56.804L116.577 56.9938C116.502 57.2357 116.429 57.4806 116.355 57.7285C116.32 57.8444 116.286 57.9603 116.25 58.0775C115.629 60.1761 114.779 63.1241 114.944 65.7486C114.966 66.127 115.013 66.5035 115.084 66.8756C115.107 66.994 115.133 67.1112 115.163 67.2284C115.161 67.2325 115.161 67.2369 115.163 67.2411C115.163 67.2666 115.175 67.292 115.182 67.3175C115.204 67.4079 115.231 67.497 115.257 67.5875C115.312 67.7683 115.374 67.9453 115.443 68.1172C115.572 68.4335 115.729 68.7371 115.914 69.0239C116.081 69.2842 116.272 69.528 116.484 69.7523C116.484 69.7523 116.496 69.765 116.502 69.7714C116.803 70.0831 117.134 70.3646 117.49 70.6119C117.652 70.7239 117.82 70.8296 117.996 70.9289C118.241 71.0713 118.494 71.1988 118.754 71.311C118.902 71.3759 119.053 71.4383 119.203 71.4893C119.682 71.6602 120.175 71.788 120.676 71.8713L120.83 71.8942C121.405 71.9772 121.989 71.9828 122.566 71.9108C123.106 71.8418 123.635 71.7058 124.141 71.5058C124.424 71.3962 124.699 71.2686 124.966 71.1238C125.028 71.0907 125.092 71.0563 125.147 71.0219C125.497 70.8176 125.832 70.5865 126.147 70.3304C126.192 70.2948 126.237 70.2578 126.281 70.2209L126.425 70.0936C126.52 70.0121 126.614 69.9268 126.703 69.8389C127.244 69.3225 127.725 68.7457 128.136 68.1198C128.275 67.9118 128.407 67.6995 128.532 67.483C128.752 67.1099 128.96 66.7279 129.158 66.3369C129.184 66.2898 129.209 66.2427 129.233 66.1956C129.497 65.6862 129.756 65.1616 130.026 64.6509C130.128 64.4548 130.23 64.2574 130.332 64.0588C130.429 63.8678 130.524 63.6767 130.62 63.4845L130.636 63.4539C130.729 63.2642 130.824 63.0719 130.918 62.8821C130.921 62.877 130.924 62.8715 130.926 62.8656C131.412 61.8659 131.874 60.8548 132.318 59.8348C132.719 58.9167 133.128 57.9909 133.534 57.0562C134.446 54.9486 135.334 52.7991 136.033 50.6151C136.936 47.8225 138.383 43.6826 136.93 40.8632Z" fill="#D16C4D"/>
<path d="M133.598 57.0549C132.764 59.0198 131.87 60.9618 130.93 62.8757C130.928 62.8816 130.925 62.8872 130.921 62.8923C130.828 63.0846 130.733 63.2743 130.639 63.4641L130.624 63.4946C130.528 63.6869 130.433 63.8767 130.336 64.0689C130.121 64.4977 129.903 64.9251 129.683 65.3513C129.535 65.6365 129.388 65.9218 129.237 66.2058C129.213 66.2529 129.187 66.3 129.162 66.3471C128.485 67.6142 127.743 68.8443 126.707 69.8414C126.617 69.928 126.524 70.0133 126.429 70.0961L126.285 70.2234C126.241 70.2604 126.196 70.2973 126.151 70.333C125.84 70.5816 125.509 70.8039 125.162 70.9977C125.154 71.0104 125.15 71.0193 125.145 71.027C125.045 71.2727 124.939 71.5223 124.833 71.7732C126.276 71.077 127.514 70.0145 128.426 68.6902C129.425 67.2703 130.171 65.6582 130.947 64.1059C131.759 62.4822 132.516 60.8306 133.26 59.1726C133.586 58.445 133.907 57.7149 134.221 56.9823C134.012 56.9957 133.804 57.0199 133.598 57.0549V57.0549Z" fill="#140B05"/>
<path d="M140.368 78.4613C139.223 80.7878 138.022 83.0851 136.7 85.3136C136.481 85.6829 136.257 86.0497 136.032 86.4139C135.893 86.6393 135.751 86.8621 135.61 87.085L135.374 87.4504C134.429 88.949 133.408 90.3987 132.318 91.7941C132.004 92.193 131.67 92.5755 131.317 92.9402C131.304 92.956 131.289 92.9709 131.274 92.9848C131.106 93.1567 130.933 93.3235 130.752 93.4801C130.747 93.4924 130.741 93.5043 130.734 93.5158C130.598 93.8292 130.484 94.1517 130.393 94.4811C131.072 93.9912 131.688 93.4184 132.228 92.7759C133.531 91.272 134.652 89.5923 135.737 87.9254C136.702 86.4444 137.599 84.9265 138.45 83.3818C137.841 83.9829 137.267 84.6349 136.714 85.292C137.942 83.2366 139.071 81.1177 140.129 78.9668L140.368 78.4613Z" fill="#140B05"/>
<path d="M128.404 63.245C128.076 64.2638 127.63 65.2494 127.24 66.1866C126.979 66.817 126.697 67.4397 126.41 68.0586L126.402 68.0764C126.037 68.8672 125.661 69.6542 125.303 70.4475C125.205 70.664 125.098 70.8792 124.991 71.0919L124.976 71.1237C124.709 71.2683 124.433 71.3959 124.15 71.5058L124.175 71.4561C124.428 70.9315 124.703 70.4144 124.943 69.8796C125.582 68.4597 126.267 67.064 126.864 65.6251C127.776 63.4195 129.113 60.6816 127.771 58.3563C127.199 57.3656 126.127 56.7925 125.074 56.4462C124.022 56.0998 122.786 55.9368 121.753 56.4156C119.908 57.2675 119.126 59.5024 118.316 61.2152C117.744 62.4224 117.123 63.6092 116.616 64.8445C116.345 65.5079 116.104 66.1854 115.851 66.8552C115.694 67.2678 115.598 67.6957 115.451 68.1121C115.381 67.9402 115.324 67.7632 115.265 67.5836C115.238 67.4919 115.212 67.4028 115.189 67.3124C115.183 67.2869 115.175 67.2614 115.17 67.2372C115.297 66.8272 115.423 66.4146 115.575 66.0186C115.868 65.2379 116.158 64.465 116.506 63.7073C117.153 62.295 117.827 60.8917 118.502 59.4922C119.343 57.7489 120.552 55.8311 122.645 55.5866C124.738 55.3421 127.525 56.3812 128.436 58.4174C129.142 60.0118 128.91 61.6571 128.404 63.245Z" fill="#140B05"/>
<path d="M131.202 89.9871C130.517 91.3879 129.741 92.7428 129.012 94.1207C128.896 94.3359 128.776 94.546 128.652 94.7574C128.641 94.779 128.628 94.7981 128.616 94.8198L128.475 94.8605C128.273 94.9148 128.068 94.9573 127.861 94.9879L127.868 94.9751C128.159 94.4658 128.463 93.9564 128.737 93.4381C129.461 92.0628 130.228 90.7142 130.91 89.316C131.946 87.1881 133.417 84.5636 132.242 82.1771C131.736 81.1584 130.703 80.5039 129.676 80.0989C128.649 79.694 127.399 79.4405 126.329 79.8633C124.432 80.6121 123.518 82.8177 122.597 84.4871C121.932 85.6931 121.206 86.8774 120.623 88.1241C120.323 88.7608 120.022 89.4166 119.75 90.0699C119.665 90.2723 119.592 90.4786 119.516 90.6837C119.426 90.3918 119.355 90.0939 119.306 89.7923C119.425 89.4854 119.544 89.1797 119.673 88.8856C119.99 88.1635 120.318 87.4542 120.691 86.759C121.437 85.3582 122.202 83.9701 122.984 82.5948C123.961 80.8757 125.335 79.1018 127.484 79.0751C129.633 79.0483 132.254 80.3065 132.961 82.4598C133.83 85.1048 132.325 87.6873 131.202 89.9871Z" fill="#140B05"/>
<path d="M141.11 94.6988C140.716 96.395 139.272 97.5322 138.046 98.6363C137.265 99.3392 136.45 100.005 135.643 100.683C135.459 100.836 135.272 100.982 135.084 101.13C134.813 101.13 134.543 101.104 134.278 101.052C134.679 100.711 135.105 100.4 135.505 100.057C136.248 99.4207 137.016 98.8069 137.742 98.1473C138.842 97.1515 140.181 96.1314 140.551 94.611C140.944 92.9937 139.585 91.3331 138.062 90.9014C136.398 90.4328 134.9 92.0959 133.743 93.0408C133.066 93.5948 132.372 94.1321 131.741 94.7383C131.235 95.2235 130.776 95.7685 130.27 96.2537C130.24 96.0053 130.227 95.7551 130.233 95.5049C130.834 94.9026 131.399 94.2582 132.051 93.7055C132.947 92.9415 133.854 92.1685 134.785 91.4452C136.107 90.4265 137.6 89.833 139.133 90.7843C140.478 91.6133 141.491 93.0625 141.11 94.6988Z" fill="#140B05"/>
<path d="M112.089 139.376C112.042 139.024 111.972 138.675 111.881 138.332C111.453 136.669 110.484 135.198 109.128 134.155C106.246 131.981 101.919 132.187 99.1281 134.364C98.394 134.929 97.7774 135.635 97.3132 136.439C97.2361 136.567 97.1652 136.709 97.0969 136.848C97.0691 136.905 97.0413 136.963 97.016 137.02C96.3646 138.468 96.2686 140.107 96.6138 141.659C96.8822 142.885 97.416 144.035 98.177 145.029C98.4158 145.338 98.6775 145.628 98.9599 145.897C101.126 147.956 104.259 148.519 106.988 147.621C107.563 147.433 108.114 147.181 108.633 146.869C108.96 146.672 109.272 146.452 109.567 146.21C110.899 145.106 111.781 143.547 112.047 141.831C112.185 141.02 112.199 140.192 112.089 139.376Z" fill="#2E2E2E"/>
<path d="M110.675 139.524C110.274 136.802 108.319 134.63 105.616 134.127C103.316 133.699 100.755 134.448 99.2041 136.253C97.4335 138.309 97.4714 141.34 98.8626 143.591C100.316 145.943 103.115 147.079 105.793 146.51C107.296 146.19 108.71 145.344 109.617 144.09C110.567 142.772 110.871 141.123 110.678 139.529C110.634 139.168 110.086 139.293 110.13 139.656C110.463 142.409 108.944 144.951 106.293 145.802C103.919 146.566 101.214 145.823 99.6834 143.807C98.2252 141.887 97.89 139.072 99.304 137.037C100.507 135.316 102.676 134.472 104.722 134.594C107.555 134.762 109.709 136.844 110.124 139.656C110.181 140.002 110.728 139.876 110.675 139.524Z" fill="white"/>
<path d="M64.2604 32.6941C62.2684 31.8027 59.9426 32.0574 57.986 32.9157C56.0898 33.7572 54.4969 35.1662 53.4241 36.9512C52.932 37.7798 52.563 38.6765 52.3288 39.6127C52.2757 39.8979 52.2336 40.1866 52.2024 40.4786C52.0519 41.9736 52.2087 43.4724 52.535 44.9356C53.1832 47.079 54.5392 48.935 56.3785 50.1962C58.1406 51.3785 60.2624 51.8925 62.3658 51.6466C64.3312 51.4021 66.1386 50.3732 67.459 48.896C68.8012 47.3993 69.6372 45.5124 69.8468 43.5068C70.0732 41.3242 69.5837 39.0855 68.582 37.1397C67.636 35.2868 66.179 33.56 64.2604 32.6941Z" fill="#00ADEE"/>
<path fill-rule="evenodd" clip-rule="evenodd" d="M59.1142 38.9441C59.2954 38.6382 59.4947 38.3435 59.7112 38.0616C59.7927 37.9394 59.9138 37.8494 60.0539 37.8069C60.1992 37.7867 60.347 37.8172 60.4725 37.8935C60.7868 38.057 61.0913 38.239 61.3844 38.4386L62.696 39.279L62.8427 39.3733C63.3916 39.7247 63.5737 39.8495 63.6939 40.0214C63.814 40.1934 63.8684 40.4035 64.0088 41.0491L64.3945 42.7975C64.526 43.3242 64.6261 43.8583 64.6942 44.397C64.7259 44.7726 64.6791 44.9866 64.5678 45.1547C64.4565 45.3227 64.2895 45.4552 63.9354 45.5863C63.4217 45.7514 62.8989 45.8862 62.3696 45.99L61.3806 46.2103C60.858 46.3427 60.3279 46.4434 59.7933 46.5121C59.4139 46.544 59.2078 46.4969 59.0409 46.3848C58.8739 46.2727 58.7411 46.1046 58.6121 45.7481C58.4482 45.2308 58.3143 44.7045 58.2112 44.1716L57.8255 42.4231C57.6851 41.7864 57.6433 41.5648 57.68 41.3573C57.7166 41.1497 57.828 40.9612 58.1745 40.4111L58.2681 40.2634L59.1142 38.9441ZM57.6383 39.8533L58.473 38.5328L58.4869 38.5111C58.682 38.184 58.897 37.8692 59.1307 37.5688C59.319 37.3174 59.5866 37.1378 59.8895 37.0594C60.197 37.0015 60.515 37.0505 60.7913 37.1982C61.129 37.3711 61.4559 37.5646 61.7702 37.7777L61.7917 37.7929L63.1032 38.6321L63.2499 38.7251L63.3094 38.7633L63.4245 38.8371L66.1209 40.5652C66.2057 40.6196 66.2656 40.7057 66.2875 40.8045C66.3093 40.9034 66.2912 41.0069 66.2373 41.0924C66.1832 41.1778 66.0977 41.2381 65.9996 41.2601C65.9014 41.2821 65.7985 41.2639 65.7136 41.2096L64.674 40.5436C64.693 40.6276 64.7132 40.7167 64.7335 40.8097L64.7486 40.8797L65.1344 42.6282L65.1407 42.6562C65.2766 43.2068 65.3796 43.7652 65.4493 44.3282C65.4885 44.7905 65.443 45.1954 65.2116 45.5609C64.9801 45.9264 64.6348 46.1403 64.1998 46.2995C63.6633 46.4748 63.1168 46.6173 62.5632 46.7261H62.5366L61.5476 46.9464L61.521 46.9527C60.9738 47.0903 60.4188 47.194 59.8591 47.2635C59.4013 47.3029 58.9991 47.2571 58.6349 47.0241C58.2706 46.791 58.0607 46.4434 57.9026 46.0053C57.7279 45.4653 57.5863 44.915 57.4789 44.3575L57.4726 44.3307L57.0868 42.5823L57.0717 42.511C57.0514 42.418 57.0311 42.3302 57.0134 42.2461L56.352 43.2916C56.298 43.377 56.2125 43.4374 56.1143 43.4593C56.0161 43.4813 55.9133 43.4631 55.8284 43.4088C55.7436 43.3544 55.6837 43.2683 55.6619 43.1694C55.64 43.0706 55.6581 42.967 55.7121 42.8816L57.4283 40.1666L57.5017 40.0507L57.5396 39.9896L57.6319 39.8419L57.6383 39.8533Z" fill="white"/>
<path d="M74.238 68.8086C72.475 67.4372 70.1048 67.1303 67.9573 67.5123C65.8748 67.8893 63.9583 68.9031 62.4683 70.4157C61.7829 71.1191 61.2034 71.9196 60.7482 72.7919C60.6268 73.0628 60.5168 73.3395 60.4181 73.6222C59.9122 75.0688 59.7099 76.5944 59.6859 78.1225C59.8214 80.4086 60.7291 82.5793 62.2583 84.2745C63.7236 85.8725 65.7046 86.895 67.8485 87.1601C69.8582 87.3931 71.8957 86.8035 73.5588 85.66C75.2468 84.4978 76.5248 82.8261 77.2089 80.8859C77.9538 78.7745 78.0006 76.4352 77.4732 74.264C76.9711 72.196 75.9416 70.1317 74.238 68.8086Z" fill="#FFB300"/>
<path fill-rule="evenodd" clip-rule="evenodd" d="M66.0525 76.6772C65.9791 76.3449 65.9714 76.0013 66.0299 75.666C66.0884 75.3307 66.212 75.0103 66.3936 74.7231C66.5752 74.436 66.8113 74.1877 67.0882 73.9924C67.3652 73.7972 67.6777 73.6588 68.0078 73.5853C68.6742 73.4362 69.372 73.5597 69.9479 73.9287C70.5238 74.2977 70.9306 74.8819 71.0787 75.5528C71.2221 76.2005 71.1125 76.879 70.7725 77.4476C70.5259 77.8628 70.2818 78.3645 70.23 78.9006L70.1883 78.9401C70.1364 78.9872 70.0618 79.0522 69.9695 79.1209C69.7715 79.2764 69.5443 79.3899 69.3017 79.4546C69.0547 79.4991 68.8013 79.493 68.5567 79.4367C68.4442 79.4138 68.3493 79.3871 68.2823 79.3667L68.2279 79.3489C67.956 78.8841 67.5235 78.5339 67.1263 78.2639C66.5794 77.8934 66.1949 77.3253 66.0525 76.6772V76.6772ZM68.4859 80.0569C68.7995 80.1197 69.1222 80.1197 69.4357 80.0569C69.7461 79.9787 70.038 79.8393 70.2945 79.6468L70.3628 79.9563C70.3893 80.0759 70.3921 80.1995 70.3711 80.3202C70.3501 80.4409 70.3057 80.5562 70.2403 80.6595C70.175 80.7629 70.0901 80.8523 69.9905 80.9226C69.8908 80.9929 69.7784 81.0428 69.6596 81.0693C69.4194 81.1228 69.168 81.0781 68.9605 80.9451C68.753 80.8122 68.6064 80.6017 68.5529 80.36L68.4859 80.0569ZM67.8738 72.9779C67.0473 73.1626 66.3275 73.6704 65.8728 74.3895C65.4182 75.1085 65.2658 75.98 65.4493 76.8122C65.6249 77.6152 66.0998 78.3199 66.776 78.7809C67.3072 79.14 67.7359 79.545 67.8497 80.0543L67.9471 80.495C67.9908 80.6944 68.0732 80.8831 68.1894 81.0505C68.3056 81.2178 68.4535 81.3605 68.6245 81.4702C68.7956 81.58 68.9864 81.6547 69.1862 81.6901C69.3859 81.7256 69.5906 81.721 69.7886 81.6767C70.1885 81.5872 70.5368 81.3415 70.7569 80.9936C70.9769 80.6457 71.0508 80.224 70.9623 79.8213L70.8649 79.3807C70.7523 78.8713 70.9699 78.3148 71.2987 77.7634C71.72 77.0579 71.8558 76.2163 71.6781 75.4127C71.4932 74.5817 70.9884 73.8585 70.2744 73.402C69.5604 72.9455 68.6956 72.793 67.87 72.9779H67.8738Z" fill="white"/>
<path d="M86.3251 119.773C88.0958 118.11 88.8293 115.607 88.7965 113.225C88.7602 110.913 88.0169 108.668 86.6679 106.796C86.0391 105.934 85.2883 105.17 84.4394 104.527C84.1721 104.349 83.8968 104.182 83.6135 104.027C82.1629 103.228 80.5781 102.746 78.9529 102.454C76.5272 102.216 74.0204 102.78 71.9665 104.148C70.0088 105.451 68.5745 107.412 67.9193 109.681C67.3223 111.807 67.5943 114.111 68.5226 116.1C69.4648 118.123 71.0207 119.792 72.9657 120.867C75.0828 122.038 77.563 122.495 79.961 122.304C82.2413 122.13 84.6215 121.38 86.3251 119.773Z" fill="#2E2E2E"/>
<path fill-rule="evenodd" clip-rule="evenodd" d="M73.5942 108.63C73.533 108.611 73.4681 108.609 73.4057 108.623C73.3434 108.638 73.2858 108.668 73.2388 108.712C73.1915 108.755 73.1565 108.81 73.1371 108.872C73.1178 108.933 73.1149 108.999 73.1288 109.062L74.3935 114.809V114.836C74.4976 115.372 74.634 115.901 74.8021 116.421C74.9538 116.84 75.1574 117.175 75.5077 117.399C75.8581 117.623 76.2451 117.668 76.6865 117.63C77.2253 117.562 77.7595 117.462 78.2864 117.33L78.3117 117.324L83.0684 116.261C83.2403 116.222 83.403 116.15 83.5472 116.049C83.6914 115.947 83.8143 115.818 83.9088 115.668C84.0034 115.519 84.0678 115.352 84.0982 115.177C84.1287 115.003 84.1247 114.824 84.0865 114.651L83.3479 111.298C83.3268 111.203 83.2689 111.12 83.1871 111.068C83.1053 111.015 83.0061 110.998 82.9116 111.019L81.3648 111.364L80.4934 107.417C80.4797 107.354 80.4498 107.296 80.4067 107.248C80.3636 107.201 80.3089 107.166 80.2481 107.147C80.1871 107.127 80.122 107.124 80.0593 107.137C79.9967 107.151 79.9388 107.181 79.8914 107.224L78.5925 108.414L76.9293 107.886C76.8686 107.867 76.8039 107.864 76.7418 107.878C76.6796 107.892 76.6222 107.922 76.5752 107.965L75.2763 109.154L73.5942 108.63ZM80.74 111.884L79.9255 108.191L78.9377 109.094C78.8907 109.137 78.8333 109.167 78.7712 109.181C78.7092 109.195 78.6445 109.193 78.5836 109.174L76.9078 108.649L75.6077 109.839C75.5606 109.882 75.5031 109.912 75.441 109.925C75.3789 109.939 75.3143 109.937 75.2536 109.918L73.98 109.52L75.1107 114.648C75.2096 115.162 75.3383 115.668 75.4964 116.166C75.6228 116.508 75.7494 116.676 75.9087 116.778C76.0681 116.879 76.2742 116.925 76.6334 116.895C77.1484 116.828 77.6589 116.732 78.1625 116.604L81.7543 115.802C81.619 115.638 81.5246 115.444 81.4787 115.235L80.74 111.884ZM82.9192 115.542C83.077 115.507 83.2144 115.41 83.3012 115.273C83.388 115.135 83.4171 114.969 83.3821 114.81L82.7218 111.818L81.533 112.084L82.1932 115.076C82.2104 115.155 82.2429 115.229 82.2887 115.295C82.3345 115.361 82.3928 115.418 82.4602 115.461C82.5276 115.504 82.6029 115.534 82.6816 115.548C82.7604 115.562 82.8411 115.56 82.9192 115.542V115.542ZM77.8324 111.152L77.8071 111.032C77.7859 110.937 77.7281 110.854 77.6463 110.801C77.5645 110.749 77.4655 110.731 77.3708 110.752C77.2761 110.773 77.1937 110.831 77.1415 110.914C77.0894 110.996 77.0718 111.096 77.0925 111.191L77.1203 111.318C76.8653 111.406 76.6515 111.586 76.5197 111.823C76.3878 112.06 76.3473 112.337 76.4057 112.602C76.4689 112.888 76.6421 113.137 76.8873 113.294C77.1324 113.451 77.4296 113.504 77.7135 113.441L78.189 113.334C78.2838 113.313 78.3829 113.331 78.4646 113.384C78.5464 113.436 78.6042 113.519 78.6254 113.614C78.6358 113.661 78.6369 113.71 78.6287 113.758C78.6204 113.805 78.6029 113.851 78.5771 113.891C78.5514 113.932 78.518 113.967 78.4787 113.995C78.4395 114.022 78.3952 114.042 78.3484 114.052L78.1094 114.106L77.1583 114.319C77.0637 114.34 76.9813 114.398 76.9294 114.481C76.8775 114.563 76.8602 114.663 76.8813 114.758C76.8916 114.805 76.9111 114.85 76.9387 114.889C76.9662 114.929 77.0012 114.963 77.0418 114.989C77.0823 115.015 77.1276 115.032 77.1749 115.041C77.2223 115.049 77.2707 115.048 77.3176 115.037L77.912 114.909L77.9386 115.029C77.9488 115.076 77.9681 115.121 77.9955 115.161C78.023 115.2 78.0579 115.234 78.0984 115.26C78.1388 115.286 78.184 115.303 78.2313 115.312C78.2785 115.32 78.3269 115.319 78.3737 115.308C78.4682 115.287 78.5506 115.229 78.6028 115.147C78.6549 115.065 78.6726 114.965 78.6519 114.87L78.6241 114.743C78.8792 114.655 79.0932 114.475 79.2251 114.238C79.3569 114.002 79.3974 113.724 79.3387 113.459C79.2755 113.173 79.1023 112.925 78.8571 112.768C78.6119 112.61 78.3147 112.558 78.0309 112.621L77.5554 112.727C77.4608 112.748 77.3617 112.731 77.2799 112.678C77.198 112.626 77.1402 112.543 77.119 112.448C77.0983 112.353 77.1159 112.253 77.1681 112.17C77.2202 112.088 77.3027 112.03 77.3973 112.009L77.6351 111.956L78.5862 111.742C78.633 111.732 78.6774 111.713 78.7167 111.685C78.7561 111.657 78.7896 111.622 78.8153 111.582C78.8411 111.541 78.8586 111.495 78.8668 111.448C78.875 111.4 78.8738 111.351 78.8631 111.304C78.8423 111.209 78.7847 111.126 78.7031 111.074C78.6216 111.021 78.5227 111.003 78.4281 111.024L77.8324 111.152Z" fill="white"/>
<path d="M103.394 26.7574C100.924 30.2969 98.2265 33.6698 95.3187 36.8544L92.4098 34.3534C91.9469 33.9561 91.2981 33.844 90.8137 34.2923C90.4064 34.6743 90.2863 35.4995 90.753 35.8993L94.5915 39.195C95.0304 39.577 95.7298 39.7464 96.1876 39.2561C99.4862 35.7176 102.533 31.9491 105.304 27.9786C106.136 26.779 104.228 25.5616 103.394 26.7574Z" fill="#00ADEE"/>
<path d="M111.344 62.8095C108.874 66.3488 106.176 69.7217 103.269 72.9065L100.36 70.4055C99.8958 70.0069 99.247 69.8962 98.7626 70.3444C98.3566 70.7264 98.2353 71.5503 98.7032 71.9515L102.54 75.2471C102.979 75.6228 103.679 75.7972 104.138 75.3082C107.435 71.7691 110.481 68.0007 113.253 64.0307C114.088 62.8299 112.179 61.6125 111.344 62.8095Z" fill="#00ADEE"/>
<path d="M118.677 98.7267C116.208 102.267 113.51 105.64 110.602 108.825L107.693 106.323C107.229 105.925 106.581 105.813 106.097 106.262C105.69 106.644 105.57 107.469 106.036 107.87L109.875 111.166C110.312 111.548 111.013 111.716 111.471 111.227C114.769 107.687 117.815 103.919 120.587 99.9479C121.421 98.7483 119.512 97.5309 118.677 98.7267Z" fill="#00ADEE"/>
</g>
<defs>
<clipPath id="clip0_85_2561">
<rect width="150" height="159" fill="white"/>
</clipPath>
</defs>
</svg>
