<?xml version="1.0" encoding="UTF-8"?>
<svg width="145px" height="25px" viewBox="0 0 145 25" version="1.1" xmlns="http://www.w3.org/2000/svg" xmlns:xlink="http://www.w3.org/1999/xlink">
    <!-- Generator: Sketch 63.1 (92452) - https://sketch.com -->
    <title>Stars</title>
    <desc>Created with Sketch.</desc>
    <defs>
        <path d="M24.1036868,8.82889741 L15.8982433,8.82889741 L13.375709,0.654955481 C13.2559284,0.264656442 12.9093618,0 12.5180474,0 C12.1267329,0 11.7801663,0.264656442 11.6603857,0.654955481 L9.13785148,8.82889741 L0.910786202,8.82889741 C0.518973999,8.82442312 0.169331544,9.0857959 0.0459160582,9.47542506 C-0.077499428,9.86505422 0.0536168104,10.2935802 0.370243149,10.5354202 L7.01892271,15.5870295 L4.49638846,23.7609715 C4.37398691,24.1505002 4.50566556,24.5782648 4.82222609,24.8194711 C5.13878662,25.0606774 5.56778645,25.0601272 5.88378229,24.8181095 L12.5072365,19.7665001 L19.1451052,24.8181095 C19.4594402,25.0592157 19.886631,25.0592157 20.200966,24.8181095 C20.5177321,24.5776818 20.6502241,24.1505707 20.5288954,23.7609715 L18.0063612,15.5870295 L24.6298154,10.5354202 C24.9442584,10.2952084 25.0759417,9.87061645 24.9563262,9.482638 C24.8367107,9.09465954 24.4928373,8.83100294 24.1036868,8.82889741 Z" id="path-1"></path>
    </defs>
    <g id="Page-1" stroke="none" stroke-width="1" fill="none" fill-rule="evenodd">
        <g id="Homepage-(Step-Form-Update)" transform="translate(-141.000000, -3526.000000)">
            <g id="Group-12" transform="translate(0.000000, 3328.000000)">
                <g id="Reviews" transform="translate(16.000000, 32.000000)">
                    <g id="Shopper-Approved" transform="translate(19.000000, 163.000000)">
                        <g id="Stars" transform="translate(106.000000, 3.000000)">
                            <path d="M24.1036868,8.82889741 L15.8982433,8.82889741 L13.375709,0.654955481 C13.2559284,0.264656442 12.9093618,0 12.5180474,0 C12.1267329,0 11.7801663,0.264656442 11.6603857,0.654955481 L9.13785148,8.82889741 L0.910786202,8.82889741 C0.518973999,8.82442312 0.169331544,9.0857959 0.0459160582,9.47542506 C-0.077499428,9.86505422 0.0536168104,10.2935802 0.370243149,10.5354202 L7.01892271,15.5870295 L4.49638846,23.7609715 C4.37398691,24.1505002 4.50566556,24.5782648 4.82222609,24.8194711 C5.13878662,25.0606774 5.56778645,25.0601272 5.88378229,24.8181095 L12.5072365,19.7665001 L19.1451052,24.8181095 C19.4594402,25.0592157 19.886631,25.0592157 20.200966,24.8181095 C20.5177321,24.5776818 20.6502241,24.1505707 20.5288954,23.7609715 L18.0063612,15.5870295 L24.6298154,10.5354202 C24.9442584,10.2952084 25.0759417,9.87061645 24.9563262,9.482638 C24.8367107,9.09465954 24.4928373,8.83100294 24.1036868,8.82889741 Z" id="Shape-Copy" fill="#FFAB44" fill-rule="nonzero"></path>
                            <path d="M55.1036868,8.82889741 L46.8982433,8.82889741 L44.375709,0.654955481 C44.2559284,0.264656442 43.9093618,0 43.5180474,0 C43.1267329,0 42.7801663,0.264656442 42.6603857,0.654955481 L40.1378515,8.82889741 L31.9107862,8.82889741 C31.518974,8.82442312 31.1693315,9.0857959 31.0459161,9.47542506 C30.9225006,9.86505422 31.0536168,10.2935802 31.3702431,10.5354202 L38.0189227,15.5870295 L35.4963885,23.7609715 C35.3739869,24.1505002 35.5056656,24.5782648 35.8222261,24.8194711 C36.1387866,25.0606774 36.5677864,25.0601272 36.8837823,24.8181095 L43.5072365,19.7665001 L50.1451052,24.8181095 C50.4594402,25.0592157 50.886631,25.0592157 51.200966,24.8181095 C51.5177321,24.5776818 51.6502241,24.1505707 51.5288954,23.7609715 L49.0063612,15.5870295 L55.6298154,10.5354202 C55.9442584,10.2952084 56.0759417,9.87061645 55.9563262,9.482638 C55.8367107,9.09465954 55.4928373,8.83100294 55.1036868,8.82889741 Z" id="Shape" fill="#FFAB44" fill-rule="nonzero"></path>
                            <path d="M84.1036868,8.82889741 L75.8982433,8.82889741 L73.375709,0.654955481 C73.2559284,0.264656442 72.9093618,0 72.5180474,0 C72.1267329,0 71.7801663,0.264656442 71.6603857,0.654955481 L69.1378515,8.82889741 L60.9107862,8.82889741 C60.518974,8.82442312 60.1693315,9.0857959 60.0459161,9.47542506 C59.9225006,9.86505422 60.0536168,10.2935802 60.3702431,10.5354202 L67.0189227,15.5870295 L64.4963885,23.7609715 C64.3739869,24.1505002 64.5056656,24.5782648 64.8222261,24.8194711 C65.1387866,25.0606774 65.5677864,25.0601272 65.8837823,24.8181095 L72.5072365,19.7665001 L79.1451052,24.8181095 C79.4594402,25.0592157 79.886631,25.0592157 80.200966,24.8181095 C80.5177321,24.5776818 80.6502241,24.1505707 80.5288954,23.7609715 L78.0063612,15.5870295 L84.6298154,10.5354202 C84.9442584,10.2952084 85.0759417,9.87061645 84.9563262,9.482638 C84.8367107,9.09465954 84.4928373,8.83100294 84.1036868,8.82889741 Z" id="Shape" fill="#FFAB44" fill-rule="nonzero"></path>
                            <path d="M113.103687,8.82889741 L104.898243,8.82889741 L102.375709,0.654955481 C102.255928,0.264656442 101.909362,0 101.518047,0 C101.126733,0 100.780166,0.264656442 100.660386,0.654955481 L98.1378515,8.82889741 L89.9107862,8.82889741 C89.518974,8.82442312 89.1693315,9.0857959 89.0459161,9.47542506 C88.9225006,9.86505422 89.0536168,10.2935802 89.3702431,10.5354202 L96.0189227,15.5870295 L93.4963885,23.7609715 C93.3739869,24.1505002 93.5056656,24.5782648 93.8222261,24.8194711 C94.1387866,25.0606774 94.5677864,25.0601272 94.8837823,24.8181095 L101.507237,19.7665001 L108.145105,24.8181095 C108.45944,25.0592157 108.886631,25.0592157 109.200966,24.8181095 C109.517732,24.5776818 109.650224,24.1505707 109.528895,23.7609715 L107.006361,15.5870295 L113.629815,10.5354202 C113.944258,10.2952084 114.075942,9.87061645 113.956326,9.482638 C113.836711,9.09465954 113.492837,8.83100294 113.103687,8.82889741 Z" id="Shape" fill="#FFAB44" fill-rule="nonzero"></path>
                            <g id="Rectangle" transform="translate(120.000000, 0.000000)">
                                <mask id="mask-2" fill="white">
                                    <use xlink:href="#path-1"></use>
                                </mask>
                                <use id="Mask" fill="#FFAB44" fill-rule="nonzero" xlink:href="#path-1"></use>
                                <rect fill="#D8D8D8" mask="url(#mask-2)" x="19" y="-3" width="31" height="37"></rect>
                            </g>
                        </g>
                    </g>
                </g>
            </g>
        </g>
    </g>
</svg>