<svg width="1440" height="655" viewBox="0 0 1440 655" fill="none" xmlns="http://www.w3.org/2000/svg">
<g clip-path="url(#clip0_12200_36273)">
<path d="M0 0H1440V655H0V0Z" fill="#00ADEE"/>
<path opacity="0.22" d="M2339.57 653.916C2330.1 545.227 2303.9 437.377 2246.91 344.827C2166.77 214.602 2030.29 123.458 1881.98 70.7821C1613.77 -24.4721 1334.34 -29.8573 1074.56 108.797C901.476 201.244 741.916 321.653 555.525 384.002C304.274 467.99 38.3053 436.938 -219.23 435.262C-454.107 433.725 -700.926 483.124 -906.287 606.544C-1035.38 684.138 -1135.72 800.141 -1181.54 939.214C-1304.14 1311.91 -857.656 1679.27 -494.216 1650.69C-300.529 1635.46 -120.29 1524.7 73.6342 1520.01C199.812 1516.95 320.373 1559.24 435.768 1604.67C742.954 1725.43 1085.91 1869.38 1431.14 1816.83C1734.74 1770.52 2020.84 1590.8 2181.66 1334.72C2303.88 1140.03 2354.72 909.362 2341.88 686.269C2341.25 675.508 2340.48 664.723 2339.57 653.916Z" fill="#E6F7FD"/>
<path d="M2427.35 859.899C2416.25 751.18 2388.42 643.447 2330 551.301C2247.84 421.644 2109.89 331.605 1960.67 280.179C1690.81 187.184 1411.08 184.25 1153.17 325.334C981.324 419.401 823.439 541.339 637.83 605.393C387.634 691.678 120.986 662.933 -136.782 663.52C-371.872 664.047 -618.15 715.668 -821.829 841.024C-949.862 919.834 -1048.54 1036.84 -1092.33 1176.46C-1209.44 1550.63 -757.098 1914.45 -393.792 1882.64C-200.177 1865.69 -21.4514 1753.23 172.559 1746.82C298.794 1742.66 420.085 1783.93 536.253 1828.39C845.494 1946.57 1190.88 2087.66 1535.61 2032.02C1838.75 1982.99 2122.4 1800.57 2279.51 1542.8C2398.92 1346.84 2446.35 1115.48 2430.15 892.266C2429.36 881.499 2428.43 870.71 2427.35 859.899Z" fill="#FCAE03"/>
</g>
<defs>
<clipPath id="clip0_12200_36273">
<path d="M0 0H1440V655H0V0Z" fill="white"/>
</clipPath>
</defs>
</svg>
