<?xml version="1.0" encoding="UTF-8"?><svg id="Layer_1" xmlns="http://www.w3.org/2000/svg" viewBox="0 0 480 405"><defs><style>.cls-1{fill:#fff;}.cls-2{fill:#202021;}.cls-3{fill:none;stroke:#d0d2d0;stroke-width:.49px;}.cls-4{fill:#33c5c5;}.cls-5{fill:#3392ff;}</style></defs><path class="cls-1" d="m450.72,62.49v139.62c0,4.85-3.93,8.78-8.78,8.78H109.6c-.81-8.14-4.34-15.96-10.37-22.05h0c-1.8-1.81-1.8-4.73,0-6.54l33.52-33.53c3.17-3.17,3.79-7.92,1.86-11.71-.47-.92-1.09-1.79-1.86-2.56-3.94-3.94-10.33-3.94-14.27,0l-24.45,24.45V62.49c0-4.85,3.94-8.78,8.78-8.78h339.12c4.85,0,8.78,3.93,8.78,8.78Z"/><line class="cls-3" x1="139.59" y1="137.06" x2="431.05" y2="137.06"/><path class="cls-5" d="m141.82,159.83c-2.57,0-3.54,2.01-3.54,4.84s.97,4.91,3.54,4.91,3.56-2.1,3.56-4.91-.99-4.84-3.56-4.84Zm0,8.66c-1.73,0-2.24-1.55-2.24-3.83s.51-3.74,2.24-3.74,2.24,1.46,2.24,3.74-.52,3.83-2.24,3.83Zm6.25-8.89c-1.32,0-2.11,1.02-2.11,2.6s.75,2.58,2.11,2.58,2.13-1.04,2.13-2.58-.84-2.6-2.13-2.6Zm0,4.23c-.67,0-1.03-.51-1.03-1.63s.35-1.65,1.03-1.65,1.04.52,1.04,1.65-.35,1.63-1.04,1.63Zm4.84-4.08l-5.44,9.64h1.29l5.42-9.64h-1.27Zm.69,4.63c-1.32,0-2.12,1.03-2.12,2.61s.76,2.58,2.12,2.58,2.13-1.04,2.13-2.58-.85-2.61-2.13-2.61Zm0,4.23c-.68,0-1.03-.51-1.03-1.62s.35-1.66,1.03-1.66,1.04.52,1.04,1.66-.36,1.62-1.04,1.62Zm12.72-8.86h-1.52l-3.58,9.64h1.32l1.03-2.74h4.17l1.11,2.74h1.32l-3.85-9.64Zm-2.4,5.83l1.19-3.23c.16-.44.3-.87.35-1.31h.2c.09.43.22.87.39,1.31l1.29,3.23h-3.43Zm11.35-5.83h-3.74v9.64h1.27v-3.88h2.47c1.85,0,3.32-.87,3.32-2.89s-1.28-2.87-3.32-2.87Zm.17,4.66h-2.64v-3.56h2.64c1.17,0,1.81.54,1.81,1.77s-.64,1.79-1.81,1.79Zm11.5,2.51c0-1.27-.35-1.95-1.71-2.01v-.19c1.14-.06,2.02-1.06,2.02-2.31,0-1.8-1.45-2.66-3.34-2.66h-3.91v9.64h1.28v-3.97h2.72c1.12,0,1.67.41,1.67,1.85,0,.98.14,1.62.37,2.13h1.47v-.05c-.39-.59-.57-1.29-.57-2.44Zm-2.96-2.59h-2.71v-3.47h2.71c1.17,0,1.93.44,1.93,1.7s-.76,1.77-1.93,1.77Zm11.57-.69c-.99,0-1.79.8-1.79,1.77s.8,1.78,1.79,1.78,1.77-.8,1.77-1.78-.8-1.77-1.77-1.77Zm14.8-3.88l.03,6.27c0,.5.08,1.19.17,1.69l-.17.04c-.41-.99-.65-1.43-1.25-2.31l-3.83-5.69h-1.36v9.64h1.28v-6.11c0-.78-.11-1.54-.21-1.99l.17-.04c.28.69.48,1.16,1.05,2.03l4.1,6.11h1.29v-9.64h-1.28Zm6.42,2.22c-2.14,0-3.5,1.5-3.5,3.77s1.36,3.83,3.5,3.83,3.5-1.56,3.5-3.83-1.38-3.77-3.5-3.77Zm.08,6.53h-.15c-1.45,0-2.09-1.34-2.09-2.75s.66-2.7,2.09-2.7h.15c1.43,0,2.1,1.23,2.1,2.7s-.66,2.75-2.1,2.75Zm13.91-.03h-.16c-1.9,0-3-1.53-3-3.88s1.1-3.89,3-3.89h.16c1.49,0,2.42.91,2.73,2.36h1.33c-.28-2.01-1.68-3.48-4.15-3.48-2.73,0-4.4,1.9-4.4,5.01s1.68,4.98,4.4,4.98,3.97-1.86,4.08-3.33h-1.33c-.13,1.07-1,2.22-2.66,2.22Zm9.54-6.32c-1.13,0-1.99.1-2.4,1.27l-.19-.05c.12-.37.15-.53.15-.89v-.32h-1.27v7.25h1.27v-4.08c0-1.39.52-1.85,1.55-1.87.31,0,.73.02,1.11.12l.02-1.42h-.24Zm7.75,3.94v-.33c0-2.33-1.29-3.77-3.37-3.77s-3.48,1.5-3.48,3.81,1.29,3.79,3.48,3.79c1.92,0,3.03-1.16,3.31-2.69h-1.32c-.17.98-.88,1.62-1.9,1.62h-.09c-1.23,0-2.13-.93-2.19-2.35v-.05l5.56-.02Zm-3.47-3.03h.13c1.23,0,1.88.89,2.01,1.97h-4.2c.12-1.05.91-1.97,2.06-1.97Zm10.54-3.73v2.93c0,.39.03.67.15,1.13l-.17.04c-.32-.8-1.18-1.45-2.44-1.45-1.63,0-3.2,1.25-3.2,3.81s1.57,3.79,3.2,3.79c1.27,0,2.12-.59,2.44-1.41l.17.06c-.12.37-.15.73-.15.97v.21h1.27v-10.08h-1.27Zm-2.08,9.17h-.12c-1.42,0-2.13-1.07-2.13-2.7s.71-2.71,2.13-2.71h.12c1.43,0,2.17,1.09,2.17,2.71s-.75,2.7-2.17,2.7Zm6.12-9.17c-.48,0-.86.38-.86.84s.37.86.86.86.82-.37.82-.86-.36-.84-.82-.84Zm-.66,2.83v7.25h1.27v-7.25h-1.27Zm5.74,6.17c-.61,0-.74-.37-.74-.93v-4.17h1.29v-1.06h-1.29v-2.03h-1.27v2.03h-1.04v1.06h1.04v4.04c0,1.34.45,2.24,1.81,2.24.44,0,.89-.15.89-.15v-1.12s-.26.09-.69.09Zm11.17.15h-.16c-1.9,0-3-1.53-3-3.88s1.1-3.89,3-3.89h.16c1.49,0,2.42.91,2.73,2.36h1.34c-.3-2.01-1.68-3.48-4.15-3.48-2.72,0-4.41,1.9-4.41,5.01s1.69,4.98,4.41,4.98,3.98-1.86,4.08-3.33h-1.34c-.13,1.07-.99,2.22-2.65,2.22Zm9.52-6.49c-1.22,0-2.13.57-2.38,1.28l-.19-.06c.11-.38.14-.52.14-.91v-2.96h-1.28v10.08h1.28v-4.57c0-1.14.88-1.76,1.93-1.76h.03c1,0,1.71.42,1.71,1.53v4.79h1.27v-4.98c0-2.01-1.33-2.45-2.52-2.45Zm11.01,4.11v-.33c0-2.33-1.3-3.77-3.37-3.77s-3.48,1.5-3.48,3.81,1.28,3.79,3.48,3.79c1.92,0,3.03-1.16,3.31-2.69h-1.32c-.17.98-.89,1.62-1.9,1.62h-.09c-1.23,0-2.13-.93-2.19-2.35v-.05l5.56-.02Zm-3.47-3.03h.13c1.23,0,1.88.89,2,1.97h-4.19c.12-1.05.91-1.97,2.06-1.97Zm8.45,5.45h-.14c-1.45,0-2.09-1.34-2.09-2.75s.65-2.7,2.09-2.7h.14c1.06,0,1.76.73,1.94,1.64h1.36c-.35-1.92-1.72-2.71-3.37-2.71-2.14,0-3.5,1.5-3.5,3.77s1.36,3.83,3.5,3.83c1.79,0,3.19-1.23,3.35-2.82h-1.34c-.13.93-.75,1.75-1.94,1.75Zm8.45-3.25l-.33-.47,2.82-2.63h-1.69l-2.93,2.73v-5.56h-1.28v10.08h1.28v-2.96l.87-.79,2.51,3.76h1.56l-2.82-4.15Zm10.28-1.61c-.99,0-1.79.8-1.79,1.77s.8,1.78,1.79,1.78,1.77-.8,1.77-1.78-.8-1.77-1.77-1.77Zm11.46-3.81c-2.57,0-3.54,2.01-3.54,4.84s.97,4.91,3.54,4.91,3.55-2.1,3.55-4.91-.98-4.84-3.55-4.84Zm0,8.66c-1.72,0-2.23-1.55-2.23-3.83s.51-3.74,2.23-3.74,2.24,1.46,2.24,3.74-.52,3.83-2.24,3.83Zm16.11-8.72v4.17h-4.99v-4.19h-1.27v9.64h1.27v-4.34h4.99v4.35h1.28v-9.64h-1.28Zm4.12-.45c-.48,0-.86.38-.86.84s.38.86.86.86.82-.37.82-.86-.35-.84-.82-.84Zm-.65,2.83v7.25h1.27v-7.25h-1.27Zm8.53-2.83v2.93c0,.22.01.41.05.62.03.15.06.31.12.51l-.17.04c-.08-.19-.19-.37-.33-.55-.43-.53-1.15-.9-2.1-.9-1.64,0-3.2,1.25-3.2,3.81,0,.38.03.73.1,1.05.37,1.85,1.7,2.73,3.1,2.73.26,0,.51-.02.73-.08.86-.18,1.45-.69,1.7-1.33l.17.06c-.12.37-.17.73-.17.97v.21h1.29v-10.08h-1.29Zm-1.71,9.14c-.12.02-.24.03-.36.03h-.11c-1.09,0-1.76-.62-2.02-1.65-.08-.32-.12-.67-.12-1.05,0-1.62.71-2.71,2.14-2.71h.11c.12,0,.24,0,.36.03,1.19.16,1.82,1.2,1.82,2.67,0,.39-.04.74-.13,1.05-.24.9-.81,1.49-1.69,1.61Zm10.43-9.14v2.93c0,.22,0,.41.04.62.03.15.06.31.12.51l-.17.04c-.08-.19-.19-.37-.33-.55-.44-.53-1.15-.9-2.11-.9-.8,0-1.59.29-2.17.9-.63.63-1.04,1.6-1.04,2.91,0,.38.03.73.1,1.05.37,1.85,1.72,2.73,3.11,2.73,1.26,0,2.12-.59,2.44-1.41l.13.05h.04c-.01.06-.03.12-.04.16-.09.31-.12.61-.12.82v.21h1.28v-10.08h-1.28Zm-2.07,9.17h-.12c-1.09,0-1.76-.62-2.01-1.65-.08-.32-.12-.67-.12-1.05,0-1.62.71-2.71,2.13-2.71h.12c1.41,0,2.17,1.09,2.17,2.71,0,.39-.05.74-.13,1.05-.27,1.02-.96,1.65-2.04,1.65Zm11.97-2.4v-.33c0-1.23-.37-2.23-1.02-2.87-.57-.58-1.37-.9-2.35-.9s-1.76.32-2.36.9c-.71.66-1.13,1.67-1.13,2.91,0,2.29,1.28,3.79,3.48,3.79,1.92,0,3.03-1.16,3.3-2.69h-1.32c-.17.98-.88,1.62-1.9,1.62h-.09c-1.23,0-2.13-.93-2.19-2.35v-.05l5.55-.02Zm-3.47-3.03h.13c1.23,0,1.88.89,1.99,1.97h-4.19c.12-1.05.91-1.97,2.06-1.97Zm8.84-1.07c-1.21,0-2.1.55-2.35,1.26l-.19-.04c.14-.38.19-.52.19-.87v-.17h-1.32v7.25h1.28v-4.57c0-1.14.9-1.76,1.94-1.76h.03c1,0,1.71.42,1.71,1.53v4.79h1.28v-4.98c0-2.01-1.37-2.45-2.56-2.45Zm15.51-1.12v-1.1h-6.41v9.64h1.28v-4.37h4.7v-1.1h-4.7v-3.08h5.13Zm7.71,5.23v-.33c0-2.33-1.29-3.77-3.36-3.77s-3.48,1.5-3.48,3.81,1.28,3.79,3.48,3.79c1.91,0,3.03-1.16,3.3-2.69h-1.32c-.17.98-.89,1.62-1.9,1.62h-.08c-1.23,0-2.13-.93-2.19-2.35v-.05l5.55-.02Zm-3.47-3.03h.13c1.23,0,1.88.89,1.99,1.97h-4.19c.11-1.05.91-1.97,2.06-1.97Zm11.73,3.03v-.33c0-2.33-1.29-3.77-3.36-3.77s-3.48,1.5-3.48,3.81,1.27,3.79,3.48,3.79c1.91,0,3.03-1.16,3.3-2.69h-1.32c-.17.98-.88,1.62-1.9,1.62h-.08c-1.24,0-2.13-.93-2.19-2.35v-.05l5.56-.02Zm-3.47-3.03h.13c1.23,0,1.88.89,2.01,1.97h-4.2c.12-1.05.92-1.97,2.06-1.97Zm8.64,2.26l-1.49-.35c-.71-.17-.91-.54-.91-.95,0-.6.55-.97,1.39-.97.75,0,1.48.42,1.55,1.49h1.35c-.05-1.56-1.2-2.56-2.84-2.56s-2.77.77-2.77,2.09c0,.96.49,1.67,1.73,1.96l1.42.33c.84.2,1.26.49,1.26,1.08,0,.69-.64,1.06-1.54,1.06-1.02,0-1.66-.64-1.72-1.62h-1.32c0,1.31.86,2.69,3.04,2.69,1.81,0,2.86-.83,2.86-2.23,0-1.12-.8-1.76-2.01-2.03Z"/><path class="cls-2" d="m441.94,46H102.82c-9.1,0-16.5,7.4-16.5,16.49v91.1l-12.53,12.53c-1.77,1.84-1.72,4.77.11,6.55,1.79,1.73,4.64,1.73,6.43,0l5.99-5.99.21-.21,7.5-7.5,24.45-24.45c3.94-3.94,10.33-3.94,14.27,0,.77.77,1.4,1.64,1.86,2.56,1.92,3.79,1.31,8.54-1.86,11.71l-33.52,33.53c-1.81,1.81-1.81,4.73,0,6.54h0c6.03,6.09,9.56,13.91,10.37,22.05h0c.26,2.56.24,5.14-.05,7.72-.46,4.11-1.63,8.17-3.54,12.03l-.71,1.42c-1.2,2.26-.34,5.06,1.91,6.26,2.26,1.2,5.05.35,6.26-1.91.04-.06.07-.13.1-.2l.71-1.43c2.53-5.08,4.06-10.56,4.57-16.17h32.21v3.48c0,9.96-2.94,19.7-8.47,27.98-.51.76-.78,1.65-.78,2.57v13.88H58.57v-3.54c0-7.52-1.76-14.93-5.11-21.66-2.71-5.45-4.13-11.44-4.13-17.53v-62.99c-.03-11.05,4.36-21.64,12.18-29.44l24.81-24.81v-13.08l-31.35,31.35c-9.57,9.52-14.94,22.47-14.9,35.97v62.99c.01,7.52,1.76,14.94,5.11,21.66,2.71,5.45,4.13,11.44,4.14,17.52v3.54h-23.13c-2.55,0-4.62,2.07-4.62,4.62v37c0,2.55,2.07,4.62,4.62,4.62h9.25v41.63c0,2.55,2.07,4.62,4.62,4.62s4.62-2.07,4.62-4.62v-41.63h111v41.63c0,2.55,2.07,4.62,4.62,4.62s4.62-2.07,4.62-4.62v-41.63h9.25c2.55,0,4.62-2.07,4.62-4.62v-37c0-2.55-2.07-4.62-4.62-4.62h-23.12v-12.51c6.05-9.55,9.26-20.62,9.25-31.92,0,0,0-1.54-.01-3.48h281.64c9.1,0,16.49-7.4,16.49-16.49V62.49c0-9.09-7.39-16.49-16.49-16.49Zm-272.38,229.75v27.75H30.82v-27.75h138.74Zm281.15-73.64c0,4.85-3.93,8.78-8.78,8.78H118.87c-.08-.85-.59-6.19-1.59-9.13-1.76-5.83-4.6-11.26-8.4-16.02l18.77-18.77,11.64-11.65c4.95-4.94,6.66-11.91,5.11-18.25-.8-3.32-2.5-6.47-5.09-9.07-6.63-6.64-17.06-7.55-24.74-2.18-.17.12-.35.19-.51.32l-18.5,18.22-1.52,1.52V62.49c0-4.85,3.94-8.78,8.78-8.78h339.12c4.85,0,8.78,3.93,8.78,8.78v139.62Z"/><g><path class="cls-2" d="m136.59,114.45c-1.33-.69-2.35-1.66-3.08-2.93-.73-1.27-1.09-2.75-1.09-4.47s.36-3.21,1.09-4.48c.73-1.27,1.75-2.25,3.08-2.94,1.33-.69,2.86-1.03,4.58-1.03,2.24,0,4.1.51,5.6,1.53v3.33c-.68-.57-1.45-.98-2.33-1.24-.87-.25-1.86-.38-2.97-.38-1.68,0-3.01.47-3.99,1.4-.98.93-1.47,2.2-1.47,3.81s.49,2.9,1.48,3.83c.99.93,2.31,1.4,3.98,1.4,1.14,0,2.15-.13,3.03-.4.88-.27,1.7-.71,2.45-1.31v3.33c-1.42,1.05-3.35,1.57-5.79,1.57-1.73,0-3.26-.34-4.58-1.03Z"/><path class="cls-2" d="m148.35,104.02h3.38v1.6c.45-.54,1.07-.95,1.87-1.24s1.71-.43,2.73-.43v2.66c-1.06,0-2,.16-2.81.49s-1.37.82-1.68,1.48v6.55h-3.49v-11.11Z"/><path class="cls-2" d="m159.18,113.94c-1.22-1.03-1.83-2.47-1.83-4.32s.54-3.29,1.63-4.35c1.09-1.06,2.64-1.6,4.66-1.6,1.33,0,2.45.25,3.38.74.93.49,1.63,1.18,2.11,2.05.48.87.72,1.86.72,2.95v1.41h-9.17c.25,1.42,1.57,2.13,3.98,2.13.71,0,1.44-.06,2.2-.19.76-.12,1.41-.29,1.97-.51v2.45c-.54.23-1.23.42-2.08.56-.85.14-1.7.21-2.55.21-2.13,0-3.8-.51-5.02-1.54Zm7.36-5.38c-.05-.74-.32-1.32-.83-1.72-.51-.41-1.21-.61-2.11-.61s-1.57.21-2.08.63c-.51.42-.79.99-.83,1.71h5.86Z"/><path class="cls-2" d="m174.17,114.75c-.89-.49-1.58-1.17-2.08-2.06-.5-.89-.75-1.92-.75-3.09s.25-2.18.74-3.08,1.19-1.59,2.08-2.1c.89-.5,1.91-.75,3.06-.75.83,0,1.6.12,2.29.35.69.23,1.28.56,1.76,1v-6.99h3.5v17.11h-3.38v-1.2c-.57.54-1.19.93-1.86,1.18s-1.44.37-2.3.37c-1.14,0-2.16-.24-3.04-.73Zm5.88-2.56c.56-.39.97-.9,1.21-1.55v-2.11c-.22-.63-.61-1.15-1.19-1.54-.58-.39-1.23-.59-1.96-.59-.94,0-1.71.29-2.3.88-.59.59-.89,1.36-.89,2.32s.3,1.72.89,2.3c.59.58,1.36.87,2.3.87.73,0,1.37-.19,1.93-.58Z"/><path class="cls-2" d="m187.74,101.78c-.37-.35-.56-.8-.56-1.34s.19-.97.56-1.33c.37-.36.83-.54,1.37-.54s1,.18,1.37.54c.37.36.56.81.56,1.33s-.19.99-.56,1.34c-.37.36-.83.53-1.37.53s-1-.18-1.37-.53Zm-.39,2.25h3.52v11.11h-3.52v-11.11Z"/><path class="cls-2" d="m195.14,114.4c-.67-.72-1.01-1.72-1.01-3v-4.86h-1.62v-2.52h1.62v-3.33h3.49v3.33h2.62v2.52h-2.62v4.4c0,.65.12,1.11.37,1.4s.69.43,1.32.43c.51,0,1-.12,1.46-.37v2.62c-.71.31-1.6.46-2.68.46-1.3,0-2.28-.36-2.95-1.08Z"/><path class="cls-2" d="m212.42,115.2c-.97-.19-1.77-.43-2.38-.74v-3.1c.82.4,1.67.7,2.55.9.88.2,1.72.3,2.52.3.89,0,1.57-.15,2.04-.46s.69-.74.69-1.3c0-.4-.12-.74-.35-1.02-.23-.28-.57-.53-1.01-.75-.44-.22-1.12-.52-2.02-.89-1.51-.62-2.61-1.31-3.29-2.07-.68-.76-1.02-1.71-1.02-2.84,0-.91.25-1.72.74-2.42.49-.7,1.19-1.25,2.08-1.63s1.93-.58,3.1-.58c.96,0,1.81.08,2.55.23.74.15,1.47.39,2.18.72v3.01c-1.36-.68-2.72-1.02-4.07-1.02-.86,0-1.54.15-2.04.45-.49.3-.74.73-.74,1.28,0,.4.12.73.35,1,.23.26.56.49.97.69.42.2,1.1.49,2.04.88,1.1.46,1.95.91,2.57,1.33.62.42,1.07.93,1.37,1.5.29.58.44,1.29.44,2.14,0,1.47-.53,2.61-1.59,3.43-1.06.82-2.64,1.23-4.73,1.23-.99,0-1.97-.09-2.94-.28Z"/><path class="cls-2" d="m225.01,113.94c-1.22-1.03-1.83-2.47-1.83-4.32s.54-3.29,1.63-4.35c1.09-1.06,2.64-1.6,4.66-1.6,1.33,0,2.45.25,3.38.74.93.49,1.63,1.18,2.11,2.05.48.87.72,1.86.72,2.95v1.41h-9.17c.25,1.42,1.57,2.13,3.98,2.13.71,0,1.44-.06,2.2-.19.76-.12,1.41-.29,1.97-.51v2.45c-.54.23-1.23.42-2.08.56-.85.14-1.7.21-2.55.21-2.13,0-3.8-.51-5.02-1.54Zm7.36-5.38c-.05-.74-.32-1.32-.83-1.72-.51-.41-1.21-.61-2.11-.61s-1.57.21-2.08.63c-.51.42-.79.99-.83,1.71h5.86Z"/><path class="cls-2" d="m237.62,104.02h3.38v1.6c.45-.54,1.07-.95,1.87-1.24s1.71-.43,2.73-.43v2.66c-1.06,0-2,.16-2.81.49s-1.37.82-1.68,1.48v6.55h-3.49v-11.11Z"/><path class="cls-2" d="m246.7,104.02h2.94l3.01,7.68,3.01-7.68h2.94l-4.58,11.11h-2.73l-4.58-11.11Z"/><path class="cls-2" d="m261.56,101.78c-.37-.35-.56-.8-.56-1.34s.19-.97.56-1.33c.37-.36.83-.54,1.37-.54s1,.18,1.37.54c.37.36.56.81.56,1.33s-.19.99-.56,1.34c-.37.36-.83.53-1.37.53s-1-.18-1.37-.53Zm-.39,2.25h3.52v11.11h-3.52v-11.11Z"/><path class="cls-2" d="m268.57,113.94c-1.19-1.03-1.78-2.47-1.78-4.34s.6-3.32,1.79-4.36c1.2-1.04,2.8-1.56,4.8-1.56,1.82,0,3.27.34,4.35,1.02v2.75c-.49-.35-1.07-.62-1.72-.79-.66-.17-1.35-.25-2.07-.25-1.08,0-1.94.26-2.59.79-.65.52-.97,1.33-.97,2.41s.32,1.88.96,2.4c.64.52,1.5.78,2.58.78,1.5,0,2.82-.36,3.96-1.09v2.73c-1.14.71-2.65,1.06-4.51,1.06-2.01,0-3.6-.51-4.79-1.54Z"/><path class="cls-2" d="m281.19,113.94c-1.22-1.03-1.83-2.47-1.83-4.32s.54-3.29,1.63-4.35c1.09-1.06,2.64-1.6,4.66-1.6,1.33,0,2.45.25,3.38.74.93.49,1.63,1.18,2.11,2.05.48.87.72,1.86.72,2.95v1.41h-9.17c.25,1.42,1.57,2.13,3.98,2.13.71,0,1.44-.06,2.2-.19.76-.12,1.41-.29,1.97-.51v2.45c-.54.23-1.23.42-2.08.56-.85.14-1.7.21-2.55.21-2.13,0-3.8-.51-5.02-1.54Zm7.36-5.38c-.05-.74-.32-1.32-.83-1.72-.51-.41-1.21-.61-2.11-.61s-1.57.21-2.08.63c-.51.42-.79.99-.83,1.71h5.86Z"/></g><g><path class="cls-4" d="m352.95,115.46c-.86-.03-1.69-.13-2.49-.3-.79-.17-1.45-.39-1.96-.65v-2.52c1.37.66,2.85,1.03,4.44,1.11v-5.14c-1.51-.62-2.61-1.3-3.29-2.06-.68-.76-1.02-1.7-1.02-2.82s.39-2.08,1.16-2.86,1.82-1.28,3.15-1.49v-2.15h2.5v2.08c1.25.09,2.41.38,3.49.86v2.45c-1.17-.57-2.34-.89-3.49-.95v5.02c1.03.45,1.86.89,2.48,1.32s1.08.93,1.39,1.5c.31.57.46,1.27.46,2.08,0,1.2-.36,2.18-1.09,2.94-.73.76-1.81,1.24-3.24,1.46v2.18h-2.5v-2.06Zm0-14.12c-.79.34-1.18.92-1.18,1.74,0,.43.09.79.28,1.08.19.29.49.54.9.78v-3.59Zm3.66,9.58c0-.42-.09-.77-.28-1.05-.19-.29-.48-.54-.88-.78v3.63c.77-.37,1.16-.97,1.16-1.81Z"/><path class="cls-4" d="m363.66,115.19c-.87-.19-1.6-.46-2.19-.8v-3.03c.68.43,1.44.77,2.28,1.01.84.24,1.64.36,2.4.36,1.2,0,2.11-.23,2.71-.71.6-.47.9-1.15.9-2.05s-.3-1.53-.89-1.99c-.59-.46-1.43-.69-2.51-.69-.54,0-1.11.05-1.7.16-.59.11-1.11.25-1.56.44l-1.41-.81.65-8.12h9.93v2.89h-6.62l-.25,3.13c.85-.19,1.7-.28,2.55-.28,1.7,0,3.02.46,3.97,1.38.95.92,1.42,2.2,1.42,3.83,0,1.77-.59,3.15-1.77,4.12-1.18.97-2.93,1.46-5.24,1.46-.89,0-1.78-.1-2.65-.29Z"/><path class="cls-4" d="m381.42,98.61h3.52l-6.6,16.53h-3.52l6.6-16.53Z"/><path class="cls-4" d="m386.89,104.02h3.26v1.34c.48-.54,1.03-.96,1.67-1.25.63-.29,1.29-.44,1.97-.44.85,0,1.53.14,2.04.4.51.27.91.67,1.2,1.19.48-.51,1.06-.9,1.75-1.18.69-.28,1.37-.42,2.05-.42,1.42,0,2.43.36,3.04,1.09.61.73.91,1.77.91,3.15v7.22h-3.33v-6.74c0-.71-.14-1.22-.42-1.53-.28-.31-.73-.46-1.34-.46-.86,0-1.56.34-2.08,1.02.03.49.05.9.05,1.2v6.5h-3.36v-6.85c0-.68-.12-1.16-.36-1.45-.24-.29-.65-.43-1.24-.43-.91,0-1.72.52-2.43,1.55v7.18h-3.38v-11.11Z"/><path class="cls-4" d="m409.44,114.75c-1.01-.49-1.79-1.17-2.34-2.06s-.82-1.93-.82-3.11.27-2.18.82-3.08,1.33-1.59,2.34-2.08c1.01-.49,2.19-.74,3.53-.74s2.5.25,3.51.74c1.01.49,1.79,1.19,2.34,2.08.55.89.82,1.92.82,3.08s-.27,2.23-.82,3.11c-.55.89-1.32,1.57-2.33,2.06-1,.49-2.18.73-3.52.73s-2.52-.24-3.53-.73Zm5.77-2.87c.56-.58.83-1.35.83-2.3s-.27-1.76-.82-2.33c-.55-.56-1.3-.85-2.26-.85s-1.71.28-2.27.85c-.56.56-.83,1.34-.83,2.33s.28,1.72.84,2.3c.56.58,1.32.87,2.26.87s1.69-.29,2.25-.87Z"/></g></svg>