<?xml version="1.0" encoding="UTF-8"?><svg id="Layer_1" xmlns="http://www.w3.org/2000/svg" xmlns:xlink="http://www.w3.org/1999/xlink" viewBox="0 0 480 405"><defs><style>.cls-1{fill:#fff;}.cls-2{fill:none;stroke:#d0d2d0;stroke-width:.52px;}.cls-3{fill:#202021;}.cls-4{fill:#3392ff;}.cls-5{mask:url(#mask);}.cls-6{fill:#c4c4c4;}</style><mask id="mask" x="155.31" y="-20.55" width="234.3" height="507.33" maskUnits="userSpaceOnUse"><g id="mask0_0_7"><path d="m182.17-20.55c-15.87,0-26.87,10.37-26.87,26.24v454.85c0,15.87,10.99,26.24,26.87,26.24h179.94c15.87,0,27.49-10.37,27.49-26.24V5.69c0-15.87-11.62-26.24-27.49-26.24h-21.29c-2.15.76-3.7,2.81-3.7,5.22,0,7.64-4.94,13.83-12.58,13.83h-104.79c-7.64,0-12.58-6.19-12.58-13.83,0-2.41-1.54-4.46-3.7-5.22h-21.29Z"/></g></mask></defs><path class="cls-1" d="m450.72,62.49v139.62c0,4.85-3.93,8.78-8.78,8.78H109.6c-.81-8.14-4.34-15.96-10.37-22.05h0c-1.8-1.81-1.8-4.73,0-6.54l33.52-33.53c3.17-3.17,3.79-7.92,1.86-11.71-.47-.92-1.09-1.79-1.86-2.56-3.94-3.94-10.33-3.94-14.27,0l-24.45,24.45V62.49c0-4.85,3.94-8.78,8.78-8.78h339.12c4.85,0,8.78,3.93,8.78,8.78Z"/><path class="cls-2" d="m139.4,139.48h297.38"/><g class="cls-5"><rect class="cls-6" x="352.92" y="166.73" width="22.38" height="37.01"/></g><path d="m373.38,172.48c-2.74,0-4.43,1.91-4.43,5.02s1.69,5.03,4.43,5.03,4.43-1.91,4.43-5.03-1.69-5.02-4.43-5.02Zm.09,8.93h-.16c-1.91,0-3.02-1.54-3.02-3.9s1.12-3.9,3.02-3.9h.16c1.91,0,3,1.55,3,3.9s-1.09,3.9-3,3.9Zm24.28-8.76v9.69h1.28v-6.15c0-.67-.07-1.34-.2-2l.18-.04c.28.7.48,1.16,1.06,2.04l4.11,6.15h1.3v-9.69h-1.28l.03,6.29c0,.51.07,1.19.18,1.71l-.18.04c-.41-.99-.66-1.44-1.25-2.33l-3.85-5.71h-1.37Zm28.44,0v9.69h3.5c2.8,0,4.71-1.79,4.71-4.85s-1.91-4.84-4.71-4.84h-3.5Zm3.2,8.58h-1.92v-7.47h1.94c2.34,0,3.63,1.19,3.63,3.73s-1.3,3.74-3.64,3.74Zm-300.16-8.58v7.3c0,1.02-.68,1.44-1.47,1.44h-.03c-.82,0-1.47-.42-1.47-1.44v-1.03h-1.28s0,.93,0,.93c0,1.82,1.27,2.67,2.75,2.67s2.79-.85,2.79-2.67v-7.2h-1.28Zm28.52,1.11v-1.11h-6.44v9.69h1.28v-4.38h4.72v-1.11h-4.72v-3.09h5.16Zm19.41-1.11v9.69h1.28v-5.86c0-.61-.04-1.31-.18-2.46l.19-.03c.26,1.17.42,1.71.71,2.49l2.16,5.86h1.33l2.17-5.86c.16-.42.47-1.44.68-2.49l.19.03c-.09.82-.14,1.64-.14,2.46v5.86h1.28v-9.69h-1.86l-2.03,5.48c-.34.92-.64,1.86-.89,2.81h-.13c-.24-.95-.53-1.89-.89-2.81l-2.03-5.48s-1.85,0-1.85,0Zm37.02,9.69h1.34l-3.88-9.69h-1.53l-3.6,9.69h1.33l1.03-2.75h4.2l1.11,2.75h0Zm-4.94-3.83l1.2-3.25c.16-.44.29-.87.35-1.31h.2c.09.44.22.87.39,1.31l1.3,3.25s-3.44,0-3.44,0Zm25.65-5.86v9.69h1.28v-5.86c0-.61-.04-1.31-.18-2.46l.19-.03c.26,1.17.42,1.71.71,2.49l2.16,5.86h1.33l2.17-5.86c.16-.42.47-1.44.68-2.49l.19.03c-.1.82-.14,1.64-.15,2.46v5.86h1.28v-9.69h-1.86l-2.03,5.48c-.34.92-.64,1.86-.89,2.81h-.13c-.24-.95-.54-1.89-.89-2.81l-2.03-5.48h-1.85,0Zm33.86,0v7.3c0,1.02-.68,1.44-1.47,1.44h-.03c-.82,0-1.47-.42-1.47-1.44v-1.03h-1.28s0,.93,0,.93c0,1.82,1.27,2.67,2.75,2.67s2.78-.85,2.78-2.67v-7.2h-1.28Zm24.99,0v7.3c0,1.02-.68,1.44-1.47,1.44h-.03c-.82,0-1.47-.42-1.47-1.44v-1.03h-1.28s0,.93,0,.93c0,1.82,1.27,2.67,2.75,2.67s2.78-.85,2.78-2.67v-7.2h-1.28Zm28.15,9.69h1.34l-3.87-9.69h-1.53l-3.6,9.69h1.33l1.04-2.75h4.19l1.11,2.75h0Zm-4.94-3.83l1.19-3.25c.16-.44.29-.87.35-1.31h.2c.09.44.22.87.39,1.31l1.3,3.25h-3.44Zm25.07.3c.04,1.92,1.14,3.7,3.89,3.7,2,0,3.66-.92,3.66-2.8,0-1.53-.95-2.43-2.83-2.8l-1.33-.26c-1.06-.2-1.89-.68-1.89-1.56,0-1.02,1.06-1.5,2.2-1.5,1.4,0,2.27.93,2.37,2.1h1.33c-.12-1.74-1.3-3.22-3.68-3.22-1.92,0-3.56.83-3.56,2.75,0,1.41,1.15,2.3,2.86,2.64l1.16.23c.89.17,2.03.41,2.03,1.66,0,1.08-1.01,1.63-2.3,1.63-1.84,0-2.51-1.11-2.59-2.58h-1.31,0Z"/><circle class="cls-4" cx="130.58" cy="161.63" r="5.2"/><circle class="cls-4" cx="153.84" cy="161.63" r="5.2"/><circle class="cls-4" cx="182.28" cy="161.63" r="5.2"/><circle class="cls-4" cx="210.71" cy="161.66" r="5.2"/><circle class="cls-4" cx="240.01" cy="161.66" r="5.2"/><circle class="cls-4" cx="268.45" cy="161.66" r="5.2"/><circle class="cls-4" cx="292.57" cy="161.66" r="5.2"/><path class="cls-3" d="m441.94,46H102.82c-9.1,0-16.5,7.4-16.5,16.49v91.1l-12.53,12.53c-1.77,1.84-1.72,4.77.11,6.55,1.79,1.73,4.64,1.73,6.43,0l5.99-5.99.21-.21,7.5-7.5,24.45-24.45c3.94-3.94,10.33-3.94,14.27,0,.77.77,1.4,1.64,1.86,2.56,1.92,3.79,1.31,8.54-1.86,11.71l-33.52,33.53c-1.81,1.81-1.81,4.73,0,6.54h0c6.03,6.09,9.56,13.91,10.37,22.05h0c.26,2.56.24,5.14-.05,7.72-.46,4.11-1.63,8.17-3.54,12.03l-.71,1.42c-1.2,2.26-.34,5.06,1.91,6.26,2.26,1.2,5.05.35,6.26-1.91.04-.06.07-.13.1-.2l.71-1.43c2.53-5.08,4.06-10.56,4.57-16.17h32.21v3.48c0,9.96-2.94,19.7-8.47,27.98-.51.76-.78,1.65-.78,2.57v13.88H58.57v-3.54c0-7.52-1.76-14.93-5.11-21.66-2.71-5.45-4.13-11.44-4.13-17.53v-62.99c-.03-11.05,4.36-21.64,12.18-29.44l24.81-24.81v-13.08l-31.35,31.35c-9.57,9.52-14.94,22.47-14.9,35.97v62.99c.01,7.52,1.76,14.94,5.11,21.66,2.71,5.45,4.13,11.44,4.14,17.52v3.54h-23.13c-2.55,0-4.62,2.07-4.62,4.62v37c0,2.55,2.07,4.62,4.62,4.62h9.25v41.63c0,2.55,2.07,4.62,4.62,4.62s4.62-2.07,4.62-4.62v-41.63h111v41.63c0,2.55,2.07,4.62,4.62,4.62s4.62-2.07,4.62-4.62v-41.63h9.25c2.55,0,4.62-2.07,4.62-4.62v-37c0-2.55-2.07-4.62-4.62-4.62h-23.12v-12.51c6.05-9.55,9.26-20.62,9.25-31.92,0,0,0-1.54-.01-3.48h281.64c9.1,0,16.49-7.4,16.49-16.49V62.49c0-9.09-7.39-16.49-16.49-16.49Zm-272.38,229.75v27.75H30.82v-27.75h138.74Zm281.15-73.64c0,4.85-3.93,8.78-8.78,8.78H118.87c-.08-.85-.59-6.19-1.59-9.13-1.76-5.83-4.6-11.26-8.4-16.02l18.77-18.77,11.64-11.65c4.95-4.94,6.66-11.91,5.11-18.25-.8-3.32-2.5-6.47-5.09-9.07-6.63-6.64-17.06-7.55-24.74-2.18-.17.12-.35.19-.51.32l-18.5,18.22-1.52,1.52V62.49c0-4.85,3.94-8.78,8.78-8.78h339.12c4.85,0,8.78,3.93,8.78,8.78v139.62Z"/><g><path class="cls-3" d="m123.58,98.61h6.81c1.84,0,3.3.48,4.4,1.45s1.64,2.3,1.64,4.02-.54,3.11-1.63,4.05c-1.09.94-2.56,1.41-4.41,1.41h-3.29v5.25h-3.52v-16.18Zm6.3,7.99c1.99,0,2.99-.84,2.99-2.52,0-.94-.27-1.6-.8-1.97-.53-.37-1.26-.56-2.19-.56h-2.78v5.05h2.78Z"/><path class="cls-3" d="m137.6,114.1c-.86-.69-1.28-1.62-1.28-2.81s.41-2.2,1.23-2.88c.82-.69,1.98-1.03,3.47-1.03.66,0,1.3.07,1.9.21.6.14,1.13.33,1.6.58v-.28c0-.69-.25-1.2-.74-1.53-.49-.32-1.25-.49-2.27-.49-1.36,0-2.61.25-3.75.76v-2.55c.49-.22,1.13-.4,1.92-.54.79-.15,1.57-.22,2.36-.22,2.01,0,3.5.41,4.49,1.24.99.83,1.48,1.98,1.48,3.46v6.76h-3.29v-1.02c-.94.91-2.21,1.37-3.8,1.37-1.36,0-2.47-.34-3.32-1.03Zm5.82-1.61c.46-.22.83-.52,1.09-.9v-1.11c-.79-.52-1.65-.79-2.59-.79-.65,0-1.15.13-1.49.4s-.52.67-.52,1.19c0,.49.17.87.51,1.13.34.26.83.39,1.46.39.57,0,1.09-.11,1.55-.32Z"/><path class="cls-3" d="m150.9,119.28c-.49-.06-.85-.15-1.1-.25v-2.62c.45.17.94.25,1.48.25s.98-.12,1.26-.37.52-.63.71-1.16l.37-.95-4.81-10.51h3.52l3.15,7.66,2.99-7.66h3.49l-4.72,11.87c-.52,1.31-1.17,2.28-1.94,2.89-.77.62-1.76.93-2.96.93-.46,0-.94-.03-1.42-.09Z"/><path class="cls-3" d="m163.44,103.67h3.26v1.34c.48-.54,1.03-.96,1.67-1.25.63-.29,1.29-.44,1.97-.44.85,0,1.53.14,2.04.4.51.27.91.67,1.2,1.19.48-.51,1.06-.9,1.75-1.18.69-.28,1.37-.42,2.05-.42,1.42,0,2.43.36,3.04,1.09.61.73.91,1.77.91,3.15v7.22h-3.33v-6.74c0-.71-.14-1.22-.42-1.53-.28-.31-.73-.46-1.34-.46-.86,0-1.56.34-2.08,1.02.03.49.05.9.05,1.2v6.5h-3.36v-6.85c0-.68-.12-1.16-.36-1.45-.24-.29-.65-.43-1.24-.43-.91,0-1.72.52-2.43,1.55v7.18h-3.38v-11.11Z"/><path class="cls-3" d="m185.01,113.59c-1.22-1.03-1.83-2.47-1.83-4.32s.54-3.29,1.63-4.35c1.09-1.06,2.64-1.6,4.66-1.6,1.33,0,2.45.25,3.38.74.93.49,1.63,1.18,2.11,2.05.48.87.72,1.86.72,2.95v1.41h-9.17c.25,1.42,1.57,2.13,3.98,2.13.71,0,1.44-.06,2.2-.19.76-.12,1.41-.29,1.97-.51v2.45c-.54.23-1.23.42-2.08.56-.85.14-1.7.21-2.55.21-2.13,0-3.8-.51-5.02-1.54Zm7.36-5.38c-.05-.74-.32-1.32-.83-1.72-.51-.41-1.21-.61-2.11-.61s-1.57.21-2.08.63c-.51.42-.79.99-.83,1.71h5.86Z"/><path class="cls-3" d="m197.63,103.67h3.38v1.37c.51-.57,1.11-1,1.82-1.28.7-.29,1.44-.43,2.21-.43,1.51,0,2.64.4,3.39,1.22.75.81,1.12,1.9,1.12,3.28v6.97h-3.5v-6.57c0-1.44-.66-2.15-1.99-2.15-.59,0-1.13.14-1.64.43-.51.29-.94.71-1.3,1.26v7.04h-3.49v-11.11Z"/><path class="cls-3" d="m213.56,114.06c-.67-.72-1.01-1.72-1.01-3v-4.86h-1.62v-2.52h1.62v-3.33h3.49v3.33h2.62v2.52h-2.62v4.4c0,.65.12,1.11.37,1.4s.69.43,1.32.43c.51,0,1-.12,1.46-.37v2.62c-.71.31-1.6.46-2.68.46-1.3,0-2.28-.36-2.95-1.08Z"/><path class="cls-3" d="m228.92,98.61h3.52v6.48h7.06v-6.48h3.52v16.18h-3.52v-6.78h-7.06v6.78h-3.52v-16.18Z"/><path class="cls-3" d="m245.98,101.43c-.37-.35-.56-.8-.56-1.34s.19-.97.56-1.33c.37-.36.83-.54,1.37-.54s1,.18,1.37.54c.37.36.56.81.56,1.33s-.19.99-.56,1.34c-.37.36-.83.53-1.37.53s-1-.18-1.37-.53Zm-.39,2.25h3.52v11.11h-3.52v-11.11Z"/><path class="cls-3" d="m253.56,114.87c-.95-.18-1.69-.43-2.23-.75v-2.73c.62.37,1.36.67,2.22.9.86.23,1.67.35,2.41.35.63,0,1.1-.05,1.39-.16.29-.11.44-.31.44-.6,0-.23-.08-.42-.25-.57-.17-.15-.43-.28-.78-.39-.35-.12-.92-.29-1.72-.52-.94-.28-1.68-.56-2.21-.85-.53-.29-.93-.64-1.2-1.08-.27-.43-.4-.99-.4-1.67,0-1.16.46-2.03,1.38-2.6.92-.58,2.16-.87,3.74-.87.77,0,1.57.08,2.4.24.83.16,1.46.37,1.91.64v2.66c-.45-.29-1.03-.53-1.75-.72s-1.42-.28-2.09-.28c-.63,0-1.12.06-1.47.19-.35.12-.52.36-.52.69,0,.29.17.52.5.67.33.15.95.35,1.86.58l.46.12c.97.26,1.73.55,2.27.87.54.32.92.69,1.15,1.13.22.44.34.99.34,1.66,0,1.02-.44,1.83-1.32,2.44-.88.61-2.15.91-3.82.91-.83,0-1.72-.09-2.67-.27Z"/><path class="cls-3" d="m264.69,114.06c-.67-.72-1.01-1.72-1.01-3v-4.86h-1.62v-2.52h1.62v-3.33h3.49v3.33h2.62v2.52h-2.62v4.4c0,.65.12,1.11.37,1.4s.69.43,1.32.43c.51,0,1-.12,1.46-.37v2.62c-.71.31-1.6.46-2.68.46-1.3,0-2.28-.36-2.95-1.08Z"/><path class="cls-3" d="m274.53,114.4c-1.01-.49-1.79-1.17-2.34-2.06s-.82-1.93-.82-3.11.27-2.18.82-3.08,1.33-1.59,2.34-2.08c1.01-.49,2.19-.74,3.53-.74s2.5.25,3.51.74c1.01.49,1.79,1.19,2.34,2.08.55.89.82,1.92.82,3.08s-.27,2.23-.82,3.11c-.55.89-1.32,1.57-2.33,2.06-1,.49-2.18.73-3.52.73s-2.52-.24-3.53-.73Zm5.77-2.87c.56-.58.83-1.35.83-2.3s-.27-1.76-.82-2.33c-.55-.56-1.3-.85-2.26-.85s-1.71.28-2.27.85c-.56.56-.83,1.34-.83,2.33s.28,1.72.84,2.3c.56.58,1.32.87,2.26.87s1.69-.29,2.25-.87Z"/><path class="cls-3" d="m286.7,103.67h3.38v1.6c.45-.54,1.07-.95,1.87-1.24s1.71-.43,2.73-.43v2.66c-1.06,0-2,.16-2.81.49s-1.37.82-1.68,1.48v6.55h-3.49v-11.11Z"/><path class="cls-3" d="m297.45,119.28c-.49-.06-.85-.15-1.1-.25v-2.62c.45.17.94.25,1.48.25s.98-.12,1.26-.37.52-.63.71-1.16l.37-.95-4.81-10.51h3.52l3.15,7.66,2.99-7.66h3.49l-4.72,11.87c-.52,1.31-1.17,2.28-1.94,2.89-.77.62-1.76.93-2.96.93-.46,0-.94-.03-1.42-.09Z"/></g></svg>