<?xml version="1.0" encoding="UTF-8"?><svg id="Layer_1" xmlns="http://www.w3.org/2000/svg" xmlns:xlink="http://www.w3.org/1999/xlink" viewBox="0 0 480 405"><defs><style>.cls-1{fill:#fff;}.cls-2{fill:#202021;}.cls-3{fill:none;stroke:#d0d2d0;stroke-width:.52px;}.cls-4{fill:#515251;}.cls-5{mask:url(#mask);}.cls-6{fill:#33c5c5;fill-rule:evenodd;}.cls-7{fill:#c4c4c4;}</style><mask id="mask" x="157.45" y="-20.1" width="232.97" height="504.45" maskUnits="userSpaceOnUse"><g id="mask0_0_7"><path d="m184.17-20.1c-15.78,0-26.71,10.31-26.71,26.09v452.27c0,15.78,10.93,26.09,26.71,26.09h178.92c15.78,0,27.34-10.31,27.34-26.09V5.99c0-15.78-11.55-26.09-27.34-26.09h-21.17c-2.14.75-3.68,2.79-3.68,5.19,0,7.6-4.92,13.76-12.51,13.76h-104.19c-7.6,0-12.51-6.16-12.51-13.76,0-2.4-1.53-4.44-3.68-5.19h-21.17Z"/></g></mask></defs><path class="cls-1" d="m450.72,62.49v139.62c0,4.85-3.93,8.78-8.78,8.78H109.6c-.81-8.14-4.34-15.96-10.37-22.05h0c-1.8-1.81-1.8-4.73,0-6.54l33.52-33.53c3.17-3.17,3.79-7.92,1.86-11.71-.47-.92-1.09-1.79-1.86-2.56-3.94-3.94-10.33-3.94-14.27,0l-24.45,24.45V62.49c0-4.85,3.94-8.78,8.78-8.78h339.12c4.85,0,8.78,3.93,8.78,8.78Z"/><g class="cls-5"><rect class="cls-7" x="353.94" y="166.12" width="22.25" height="36.8"/></g><path class="cls-3" d="m140.02,139.01h297.13"/><path class="cls-4" d="m156.31,163.56v8.79h1.17v-5.58c0-.7-.09-1.4-.19-1.81l.16-.04c.25.63.44,1.06.97,1.85l3.76,5.58h1.19v-8.79h-1.17l.03,5.71c0,.46.07,1.08.16,1.55l-.16.04c-.29-.75-.68-1.46-1.15-2.11l-3.52-5.18s-1.25,0-1.25,0Zm11.54,8.95c1.39,0,1.99-.74,2.23-1.28l.16.05c-.1.31-.15.64-.15.97v.11h1.17v-6.61h-1.17v.08c.01.53.05.62.15,1.06l-.16.03c-.29-.71-1.07-1.32-2.23-1.32-1.51,0-2.96,1.14-2.96,3.48s1.33,3.45,2.96,3.45h0Zm.29-.99c-1.45,0-2.05-.99-2.05-2.46s.65-2.47,2.04-2.47h.11c1.39,0,1.95,1.18,1.95,2.47s-.56,2.46-1.91,2.46h-.13Zm12.06-5.93c-1.03,0-1.79.42-2.07,1.23h-.15c-.2-.87-.97-1.23-1.88-1.23s-1.65.36-1.93,1.07l-.17-.04c.12-.33.15-.41.15-.75v-.12h-1.19v6.61h1.17v-4.07c0-1.24.7-1.69,1.41-1.69h.11c.71,0,1.41.26,1.41,1.43v4.33h1.17v-4.07c-.01-1.24.69-1.69,1.4-1.69h.11c.71,0,1.41.26,1.41,1.43v4.33h1.17v-4.58c0-1.78-1.33-2.18-2.13-2.18h0Zm6.83,0c-1.88,0-3.2,1.37-3.2,3.46s1.17,3.46,3.2,3.46c1.76,0,2.79-1.06,3.04-2.46h-1.21c-.16.9-.81,1.48-1.75,1.48h-.08c-1.13,0-1.96-.85-2.01-2.14v-.04l5.11-.03v-.3c0-2.11-1.19-3.44-3.09-3.44h0Zm-1.99,2.78c.11-.95.84-1.8,1.89-1.8h.12c1.13,0,1.73.82,1.84,1.8h-3.85,0Z"/><path class="cls-6" d="m150.2,162.81l-8.99,9.02-4.5-4.46,1.59-1.58,2.9,2.88,7.4-7.42,1.6,1.57Z"/><path class="cls-4" d="m224.94,171.34v-2.97h4.33v-1.01h-4.33v-2.8h4.73v-1.01h-5.91v8.79h5.96v-1.01h-4.79Zm13.66-5.76c-1.03,0-1.79.42-2.07,1.23h-.15c-.2-.87-.97-1.23-1.88-1.23s-1.65.36-1.93,1.07l-.17-.04c.12-.33.15-.41.15-.75v-.12h-1.19v6.61h1.17v-4.07c0-1.24.71-1.69,1.41-1.69h.11c.71,0,1.41.26,1.41,1.43v4.33h1.17v-4.07c-.01-1.24.69-1.69,1.4-1.69h.11c.71,0,1.41.26,1.41,1.43v4.33h1.17v-4.58c0-1.78-1.33-2.18-2.13-2.18Zm6.59,6.92c1.39,0,1.99-.74,2.23-1.28l.16.05c-.1.31-.15.64-.15.97v.11h1.17v-6.61h-1.17v.08c.01.53.05.62.15,1.06l-.16.03c-.29-.71-1.07-1.32-2.23-1.32-1.51,0-2.96,1.14-2.96,3.48s1.33,3.45,2.96,3.45h0Zm.29-.99c-1.45,0-2.05-.99-2.05-2.46s.65-2.47,2.04-2.47h.11c1.39,0,1.95,1.18,1.95,2.47s-.56,2.46-1.91,2.46c0,0-.13,0-.13,0Zm5.43-6.81c.42,0,.76-.34.76-.76,0,0,0-.01,0-.02,0-.42-.33-.76-.75-.77,0,0,0,0-.01,0-.43,0-.78.35-.78.77,0,.43.35.77.78.77h0Zm-.6,1.03v6.61h1.17v-6.61h-1.17Zm3.12-2.58v9.18h1.17v-9.18h-1.17Z"/><path class="cls-6" d="m217.61,164.11l-8.99,9.02-4.5-4.46,1.59-1.58,2.9,2.88,7.39-7.42,1.6,1.57Z"/><path class="cls-4" d="m291.22,163.56v8.79h1.17v-3.54h2.27c1.71,0,3.05-.79,3.05-2.63s-1.17-2.62-3.05-2.62h-3.44Zm3.6,4.24h-2.43v-3.24h2.43c1.08,0,1.67.49,1.67,1.61s-.59,1.63-1.67,1.63Zm3.93-4.64v9.18h1.17v-4.16c0-1.03.81-1.6,1.77-1.6h.03c.92,0,1.57.38,1.57,1.4v4.36h1.17v-4.53c0-1.84-1.23-2.23-2.32-2.23s-1.96.52-2.19,1.16l-.17-.05c.11-.34.13-.48.13-.83v-2.7h-1.17,0Zm10.44,2.42c-1.97,0-3.21,1.37-3.21,3.44s1.24,3.49,3.21,3.49,3.23-1.43,3.23-3.49-1.27-3.44-3.23-3.44Zm.07,5.95h-.13c-1.33,0-1.92-1.23-1.92-2.51s.6-2.46,1.92-2.46h.13c1.32,0,1.93,1.12,1.93,2.46s-.6,2.51-1.93,2.51Zm4.75-5.79v6.61h1.17v-4.16c0-1.03.83-1.6,1.77-1.6h.03c.92,0,1.57.38,1.57,1.4v4.36h1.17v-4.53c0-1.84-1.25-2.23-2.35-2.23s-1.93.5-2.16,1.15l-.17-.04c.13-.34.17-.48.17-.79v-.16h-1.21,0Zm10.42-.16c-1.88,0-3.2,1.37-3.2,3.46s1.17,3.46,3.2,3.46c1.76,0,2.79-1.06,3.04-2.46h-1.21c-.16.9-.81,1.48-1.75,1.48h-.08c-1.13,0-1.96-.85-2.01-2.14v-.04l5.11-.03v-.3c0-2.11-1.19-3.44-3.09-3.44h0Zm-1.99,2.78c.11-.95.84-1.8,1.89-1.8h.12c1.13,0,1.73.82,1.84,1.8h-3.85Z"/><path class="cls-6" d="m285.05,164.11l-8.98,9.02-4.5-4.46,1.59-1.58,2.9,2.88,7.39-7.42,1.6,1.57Z"/><path class="cls-4" d="m364.95,172.34h1.23l-3.55-8.79h-1.4l-3.29,8.79h1.21l.95-2.5h3.84l1.01,2.5h0Zm-4.52-3.48l1.09-2.95c.15-.4.27-.79.32-1.19h.19c.08.4.2.79.36,1.19l1.19,2.95h-3.15Zm9.41,3.63c1.16,0,1.95-.54,2.24-1.28l.16.05c-.09.29-.14.58-.15.89v.19h1.17v-9.18h-1.17v2.67c0,.36.03.61.15,1.03l-.16.04c-.29-.73-1.08-1.32-2.24-1.32-1.51,0-2.95,1.14-2.95,3.48s1.44,3.45,2.95,3.45h0Zm.24-.99c-1.31,0-1.96-.98-1.96-2.46s.65-2.47,1.96-2.47h.11c1.31,0,2,.99,2,2.47s-.69,2.46-2,2.46h-.11Zm7.77.99c1.16,0,1.95-.54,2.24-1.28l.16.05c-.09.29-.14.58-.15.89v.19h1.17v-9.18h-1.17v2.67c0,.36.03.61.15,1.03l-.16.04c-.29-.73-1.08-1.32-2.24-1.32-1.51,0-2.95,1.14-2.95,3.48s1.44,3.45,2.95,3.45h0Zm.24-.99c-1.31,0-1.96-.98-1.96-2.46s.65-2.47,1.96-2.47h.11c1.31,0,2,.99,2,2.47s-.69,2.46-2,2.46h-.11Zm8.74-4.48v-1.3s-.21,0-.21,0c-1.04,0-1.83.09-2.2,1.15l-.17-.04c.11-.34.13-.49.13-.82v-.29h-1.17v6.61h1.17v-3.71c0-1.27.48-1.69,1.43-1.7.28,0,.67.01,1.03.11h0Zm3.82-1.45c-1.88,0-3.2,1.37-3.2,3.46s1.17,3.46,3.2,3.46c1.76,0,2.79-1.06,3.04-2.46h-1.21c-.16.9-.81,1.48-1.75,1.48h-.08c-1.13,0-1.96-.85-2.01-2.14v-.04l5.11-.03v-.3c0-2.11-1.19-3.44-3.09-3.44h0Zm-1.99,2.78c.11-.95.84-1.8,1.89-1.8h.12c1.13,0,1.73.82,1.84,1.8h-3.85Zm7.48,1.69h-1.23c.01,1.19.8,2.46,2.8,2.46,1.67,0,2.63-.75,2.63-2.03,0-1.02-.73-1.6-1.84-1.85l-1.37-.32c-.65-.15-.84-.49-.84-.86,0-.55.51-.89,1.28-.89.69,0,1.36.38,1.43,1.35h1.24c-.04-1.41-1.09-2.33-2.61-2.33s-2.55.7-2.55,1.9c0,.87.45,1.52,1.59,1.78l1.31.3c.77.19,1.16.45,1.16.99,0,.62-.59.96-1.41.96-.93,0-1.52-.58-1.57-1.48h0Zm6.51,0h-1.23c.01,1.19.8,2.46,2.8,2.46,1.67,0,2.63-.75,2.63-2.03,0-1.02-.73-1.6-1.84-1.85l-1.37-.32c-.65-.15-.84-.49-.84-.86,0-.55.51-.89,1.28-.89.69,0,1.36.38,1.43,1.35h1.24c-.04-1.41-1.09-2.33-2.61-2.33s-2.55.7-2.55,1.9c0,.87.45,1.52,1.59,1.78l1.31.3c.77.19,1.16.45,1.16.99,0,.62-.59.96-1.41.96-.93,0-1.52-.58-1.57-1.48Z"/><path class="cls-6" d="m352.48,164.11l-8.98,9.02-4.5-4.46,1.59-1.58,2.9,2.88,7.39-7.42,1.6,1.57Z"/><path class="cls-2" d="m441.94,46H102.82c-9.1,0-16.5,7.4-16.5,16.49v91.1l-12.53,12.53c-1.77,1.84-1.72,4.77.11,6.55,1.79,1.73,4.64,1.73,6.43,0l5.99-5.99.21-.21,7.5-7.5,24.45-24.45c3.94-3.94,10.33-3.94,14.27,0,.77.77,1.4,1.64,1.86,2.56,1.92,3.79,1.31,8.54-1.86,11.71l-33.52,33.53c-1.81,1.81-1.81,4.73,0,6.54h0c6.03,6.09,9.56,13.91,10.37,22.05h0c.26,2.56.24,5.14-.05,7.72-.46,4.11-1.63,8.17-3.54,12.03l-.71,1.42c-1.2,2.26-.34,5.06,1.91,6.26,2.26,1.2,5.05.35,6.26-1.91.04-.06.07-.13.1-.2l.71-1.43c2.53-5.08,4.06-10.56,4.57-16.17h32.21v3.48c0,9.96-2.94,19.7-8.47,27.98-.51.76-.78,1.65-.78,2.57v13.88H58.57v-3.54c0-7.52-1.76-14.93-5.11-21.66-2.71-5.45-4.13-11.44-4.13-17.53v-62.99c-.03-11.05,4.36-21.64,12.18-29.44l24.81-24.81v-13.08l-31.35,31.35c-9.57,9.52-14.94,22.47-14.9,35.97v62.99c.01,7.52,1.76,14.94,5.11,21.66,2.71,5.45,4.13,11.44,4.14,17.52v3.54h-23.13c-2.55,0-4.62,2.07-4.62,4.62v37c0,2.55,2.07,4.62,4.62,4.62h9.25v41.63c0,2.55,2.07,4.62,4.62,4.62s4.62-2.07,4.62-4.62v-41.63h111v41.63c0,2.55,2.07,4.62,4.62,4.62s4.62-2.07,4.62-4.62v-41.63h9.25c2.55,0,4.62-2.07,4.62-4.62v-37c0-2.55-2.07-4.62-4.62-4.62h-23.12v-12.51c6.05-9.55,9.26-20.62,9.25-31.92,0,0,0-1.54-.01-3.48h281.64c9.1,0,16.49-7.4,16.49-16.49V62.49c0-9.09-7.39-16.49-16.49-16.49Zm-272.38,229.75v27.75H30.82v-27.75h138.74Zm281.15-73.64c0,4.85-3.93,8.78-8.78,8.78H118.87c-.08-.85-.59-6.19-1.59-9.13-1.76-5.83-4.6-11.26-8.4-16.02l18.77-18.77,11.64-11.65c4.95-4.94,6.66-11.91,5.11-18.25-.8-3.32-2.5-6.47-5.09-9.07-6.63-6.64-17.06-7.55-24.74-2.18-.17.12-.35.19-.51.32l-18.5,18.22-1.52,1.52V62.49c0-4.85,3.94-8.78,8.78-8.78h339.12c4.85,0,8.78,3.93,8.78,8.78v139.62Z"/><g><path class="cls-2" d="m126.31,114.1c-1.33-.69-2.35-1.66-3.08-2.93-.73-1.27-1.09-2.75-1.09-4.47s.36-3.21,1.09-4.48c.73-1.27,1.75-2.25,3.08-2.94,1.33-.69,2.86-1.03,4.58-1.03,2.24,0,4.1.51,5.6,1.53v3.33c-.68-.57-1.45-.98-2.33-1.24-.87-.25-1.86-.38-2.97-.38-1.68,0-3.01.47-3.99,1.4-.98.93-1.47,2.2-1.47,3.81s.49,2.9,1.48,3.83c.99.93,2.31,1.4,3.98,1.4,1.14,0,2.15-.13,3.03-.4.88-.27,1.7-.71,2.45-1.31v3.33c-1.42,1.05-3.35,1.57-5.79,1.57-1.73,0-3.26-.34-4.58-1.03Z"/><path class="cls-2" d="m138.07,103.67h3.38v1.6c.45-.54,1.07-.95,1.87-1.24s1.71-.43,2.73-.43v2.66c-1.06,0-2,.16-2.81.49s-1.37.82-1.68,1.48v6.55h-3.49v-11.11Z"/><path class="cls-2" d="m148.9,113.59c-1.22-1.03-1.83-2.47-1.83-4.32s.54-3.29,1.63-4.35c1.09-1.06,2.64-1.6,4.66-1.6,1.33,0,2.45.25,3.38.74.93.49,1.63,1.18,2.11,2.05.48.87.72,1.86.72,2.95v1.41h-9.17c.25,1.42,1.57,2.13,3.98,2.13.71,0,1.44-.06,2.2-.19.76-.12,1.41-.29,1.97-.51v2.45c-.54.23-1.23.42-2.08.56-.85.14-1.7.21-2.55.21-2.13,0-3.8-.51-5.02-1.54Zm7.36-5.38c-.05-.74-.32-1.32-.83-1.72-.51-.41-1.21-.61-2.11-.61s-1.57.21-2.08.63c-.51.42-.79.99-.83,1.71h5.86Z"/><path class="cls-2" d="m162.34,114.1c-.86-.69-1.28-1.62-1.28-2.81s.41-2.2,1.23-2.88c.82-.69,1.98-1.03,3.47-1.03.66,0,1.3.07,1.9.21.6.14,1.13.33,1.6.58v-.28c0-.69-.25-1.2-.74-1.53-.49-.32-1.25-.49-2.27-.49-1.36,0-2.61.25-3.75.76v-2.55c.49-.22,1.13-.4,1.92-.54.79-.15,1.57-.22,2.36-.22,2.01,0,3.5.41,4.49,1.24.99.83,1.48,1.98,1.48,3.46v6.76h-3.29v-1.02c-.94.91-2.21,1.37-3.8,1.37-1.36,0-2.47-.34-3.32-1.03Zm5.82-1.61c.46-.22.83-.52,1.09-.9v-1.11c-.79-.52-1.65-.79-2.59-.79-.65,0-1.15.13-1.49.4s-.52.67-.52,1.19c0,.49.17.87.51,1.13.34.26.83.39,1.46.39.57,0,1.09-.11,1.55-.32Z"/><path class="cls-2" d="m176.18,114.06c-.67-.72-1.01-1.72-1.01-3v-4.86h-1.62v-2.52h1.62v-3.33h3.49v3.33h2.62v2.52h-2.62v4.4c0,.65.12,1.11.37,1.4s.69.43,1.32.43c.51,0,1-.12,1.46-.37v2.62c-.71.31-1.6.46-2.68.46-1.3,0-2.28-.36-2.95-1.08Z"/><path class="cls-2" d="m184.8,113.59c-1.22-1.03-1.83-2.47-1.83-4.32s.54-3.29,1.63-4.35c1.09-1.06,2.64-1.6,4.66-1.6,1.33,0,2.45.25,3.38.74.93.49,1.63,1.18,2.11,2.05.48.87.72,1.86.72,2.95v1.41h-9.17c.25,1.42,1.57,2.13,3.98,2.13.71,0,1.44-.06,2.2-.19.76-.12,1.41-.29,1.97-.51v2.45c-.54.23-1.23.42-2.08.56-.85.14-1.7.21-2.55.21-2.13,0-3.8-.51-5.02-1.54Zm7.36-5.38c-.05-.74-.32-1.32-.83-1.72-.51-.41-1.21-.61-2.11-.61s-1.57.21-2.08.63c-.51.42-.79.99-.83,1.71h5.86Z"/><path class="cls-2" d="m211.54,98.61h3.45l6.46,16.18h-3.59l-1.39-3.52h-6.41l-1.39,3.52h-3.61l6.48-16.18Zm4,9.86l-2.29-6.16-2.29,6.16h4.58Z"/><path class="cls-2" d="m223.67,113.59c-1.19-1.03-1.78-2.47-1.78-4.34s.6-3.32,1.79-4.36c1.2-1.04,2.8-1.56,4.8-1.56,1.82,0,3.27.34,4.35,1.02v2.75c-.49-.35-1.07-.62-1.72-.79-.66-.17-1.35-.25-2.07-.25-1.08,0-1.94.26-2.59.79-.65.52-.97,1.33-.97,2.41s.32,1.88.96,2.4c.64.52,1.5.78,2.58.78,1.5,0,2.82-.36,3.96-1.09v2.73c-1.14.71-2.65,1.06-4.51,1.06-2.01,0-3.6-.51-4.79-1.54Z"/><path class="cls-2" d="m235.89,113.59c-1.19-1.03-1.78-2.47-1.78-4.34s.6-3.32,1.79-4.36c1.2-1.04,2.8-1.56,4.8-1.56,1.82,0,3.27.34,4.35,1.02v2.75c-.49-.35-1.07-.62-1.72-.79-.66-.17-1.35-.25-2.07-.25-1.08,0-1.94.26-2.59.79-.65.52-.97,1.33-.97,2.41s.32,1.88.96,2.4c.64.52,1.5.78,2.58.78,1.5,0,2.82-.36,3.96-1.09v2.73c-1.14.71-2.65,1.06-4.51,1.06-2.01,0-3.6-.51-4.79-1.54Z"/><path class="cls-2" d="m249.49,114.4c-1.01-.49-1.79-1.17-2.34-2.06s-.82-1.93-.82-3.11.27-2.18.82-3.08,1.33-1.59,2.34-2.08c1.01-.49,2.19-.74,3.53-.74s2.5.25,3.51.74c1.01.49,1.79,1.19,2.34,2.08.55.89.82,1.92.82,3.08s-.27,2.23-.82,3.11c-.55.89-1.32,1.57-2.33,2.06-1,.49-2.18.73-3.52.73s-2.52-.24-3.53-.73Zm5.77-2.87c.56-.58.83-1.35.83-2.3s-.27-1.76-.82-2.33c-.55-.56-1.3-.85-2.26-.85s-1.71.28-2.27.85c-.56.56-.83,1.34-.83,2.33s.28,1.72.84,2.3c.56.58,1.32.87,2.26.87s1.69-.29,2.25-.87Z"/><path class="cls-2" d="m262.67,113.89c-.76-.83-1.13-1.93-1.13-3.3v-6.92h3.49v6.55c0,1.45.67,2.18,2.01,2.18.59,0,1.13-.14,1.64-.42.51-.28.93-.69,1.27-1.25v-7.06h3.5v11.11h-3.38v-1.34c-.49.57-1.09,1-1.79,1.27-.7.28-1.44.42-2.21.42-1.51,0-2.65-.41-3.4-1.24Z"/><path class="cls-2" d="m275.89,103.67h3.38v1.37c.51-.57,1.11-1,1.82-1.28.7-.29,1.44-.43,2.21-.43,1.51,0,2.64.4,3.39,1.22.75.81,1.12,1.9,1.12,3.28v6.97h-3.5v-6.57c0-1.44-.66-2.15-1.99-2.15-.59,0-1.13.14-1.64.43-.51.29-.94.71-1.3,1.26v7.04h-3.49v-11.11Z"/><path class="cls-2" d="m291.82,114.06c-.67-.72-1.01-1.72-1.01-3v-4.86h-1.62v-2.52h1.62v-3.33h3.49v3.33h2.62v2.52h-2.62v4.4c0,.65.12,1.11.37,1.4s.69.43,1.32.43c.51,0,1-.12,1.46-.37v2.62c-.71.31-1.6.46-2.68.46-1.3,0-2.28-.36-2.95-1.08Z"/></g></svg>