<?xml version="1.0" encoding="UTF-8"?><svg id="Layer_1" xmlns="http://www.w3.org/2000/svg" xmlns:xlink="http://www.w3.org/1999/xlink" viewBox="0 0 480 405"><defs><style>.cls-1{fill:#fff;}.cls-2{fill:#d0d2d0;}.cls-3,.cls-4{fill:#33c5c5;}.cls-5{fill:#eeefee;}.cls-4{filter:url(#outer-glow-1);stroke:#fff;stroke-miterlimit:10;stroke-width:2.99px;}.cls-6{opacity:.46;}.cls-7{fill:#f2f2f2;}</style><filter id="outer-glow-1" filterUnits="userSpaceOnUse"><feOffset dx="0" dy="0"/><feGaussianBlur result="blur" stdDeviation="11.96"/><feFlood flood-color="#33c5c5" flood-opacity=".75"/><feComposite in2="blur" operator="in"/><feComposite in="SourceGraphic"/></filter></defs><path class="cls-5" d="m147.66,110.56c.43-.46.86-.92,1.3-1.38-.44.46-.87.92-1.3,1.38Z"/><path class="cls-5" d="m150.15,107.97c.47-.48.94-.95,1.42-1.42-.48.47-.95.95-1.42,1.42Z"/><path class="cls-5" d="m152.7,105.46c.51-.49,1.02-.98,1.54-1.47-.52.48-1.03.98-1.54,1.47Z"/><path class="cls-5" d="m146.12,112.22h0c.11-.11.21-.23.32-.35-.11.12-.22.23-.32.35Z"/><path class="cls-5" d="m155.32,103c.55-.5,1.1-1,1.66-1.5-.56.49-1.11,1-1.66,1.5Z"/><path class="cls-5" d="m249.85,67.94c-.08,0-.15,0-.23,0,.08,0,.15,0,.23,0h0Z"/><path class="cls-5" d="m245.99,67.88c.63,0,1.27.02,1.9.02-.63,0-1.27-.02-1.9-.02Z"/><path class="cls-2" d="m111.36,201.07c0,.26,0,.53,0,.79,0-.26,0-.53,0-.79h0Z"/><path class="cls-3" d="m249.85,67.94c-.08,0-.15,0-.23,0-.58-.02-1.15-.02-1.73-.03-.63,0-1.26-.02-1.9-.02,0,0-.01,0-.02,0h0c-32.77,0-64.28,11.96-88.73,33.39l88.73,101.23-134.59,1.8c.65,48.81,27.69,93.56,70.82,116.76,43.34,23.32,95.88,21.07,137.05-5.65v.02c.33-.21.63-.43.95-.63.39-.26.79-.5,1.17-.76v-.02c23.3-15.77,41.13-38.44,50.89-64.88,5.51-14.93,8.33-30.71,8.33-46.62,0-73.05-58.19-132.51-130.75-134.56Z"/><path class="cls-4" d="m145.29,96.18h0c-.09.07-.18.16-.27.24-.56.49-1.11,1-1.66,1.5-.36.33-.72.65-1.08.98-.52.48-1.03.98-1.54,1.47-.38.36-.76.72-1.13,1.09-.48.47-.95.95-1.42,1.42-.4.4-.79.8-1.18,1.21-.44.46-.87.92-1.3,1.38-.41.44-.82.87-1.22,1.31-.11.12-.21.24-.32.35-21.95,24.27-34.41,55.84-34.76,88.84,0,.26,0,.53,0,.79,0,.81-.01,1.63,0,2.44h.02s134.59-1.8,134.59-1.8l-88.73-101.23Z"/><polygon class="cls-7" points="179.44 161.41 175.71 161.41 163.93 182.46 167.67 182.46 179.44 161.41"/><path class="cls-7" d="m150.1,178.73c-1.93,0-2.82-1.23-2.91-2.88h-5.57c.06,2.79,1.55,7,8.39,7,5.7,0,8.8-3.32,8.8-7.47s-3.32-7.06-7.12-7.06c-1.93,0-3.7.79-4.46,2.09l-.51-.22c.38-.6.67-1.2.86-2.15l.38-1.87h9.59v-4.27h-13.61l-2.09,11.65h5.13c.66-1.05,1.68-1.65,3.04-1.65,1.87,0,3.39,1.14,3.39,3.32,0,1.93-1.08,3.51-3.29,3.51Z"/><path class="cls-7" d="m132.84,182.46h5.44v-20.57h-4.37v.06c0,1.52-.66,2.63-1.61,3.32-.92.7-2.5,1.05-3.96,1.05h-.38v3.64h4.87v12.5Z"/><path class="cls-7" d="m178.65,182.84c3.16,0,5.29-2.41,5.29-6.11s-2.15-6.14-5.29-6.14-5.29,2.41-5.29,6.14,2.15,6.11,5.29,6.11Zm0-9.08c1.17,0,1.74,1.14,1.74,2.98s-.57,2.94-1.74,2.94-1.74-1.11-1.74-2.94.57-2.98,1.74-2.98Z"/><path class="cls-7" d="m170.3,166.89c0-3.74-2.15-6.14-5.25-6.14s-5.29,2.4-5.29,6.14,2.12,6.11,5.29,6.11,5.25-2.41,5.25-6.11Zm-5.25,2.94c-1.2,0-1.74-1.11-1.74-2.94s.54-2.98,1.74-2.98c1.14,0,1.74,1.14,1.74,2.98s-.57,2.94-1.74,2.94Z"/><g class="cls-6"><path d="m245.94,335.62c-21.92,0-43.71-5.49-63.02-15.88-42.12-22.65-68.84-66.22-70.01-113.97l136.33-1.82-89.87-102.54c24.12-20.67,54.82-32.03,86.61-32.03h0c.45,0,.89,0,1.33.01l1.1.02c.39,0,.79,0,1.18.02h.22c34.75.99,67.27,15.27,91.56,40.21,24.34,24.99,37.74,57.97,37.74,92.86,0,15.79-2.77,31.3-8.24,46.11-9.7,26.26-27.1,48.45-50.34,64.16l-1.24.84s-.2.14-.3.21l-.54.34c-21.63,14.04-46.71,21.47-72.5,21.47Z"/><path class="cls-1" d="m245.93,70.87h.01s.05,0,.05,0c.43,0,.86,0,1.29.01h.57s.52.02.52.02c.39,0,.79,0,1.17.02h.07s.16,0,.16,0c34.36.97,66.51,15.09,90.52,39.75,24.06,24.71,37.32,57.32,37.32,91.82,0,15.61-2.74,30.95-8.15,45.59-9.59,25.97-26.8,47.91-49.78,63.44l-.81.56c-.11.07-.22.14-.33.21-.03.02-.07.04-.1.07l-.82.54c-21.39,13.89-46.18,21.23-71.69,21.23-21.67,0-43.22-5.43-62.31-15.7-41.2-22.16-67.5-64.56-69.18-111.18l131.57-1.76,6.48-.09-4.27-4.88-86.73-98.96c23.66-19.81,53.53-30.69,84.44-30.7m.04-2.99h0c-32.77,0-64.28,11.96-88.73,33.39l88.73,101.23-134.59,1.8c.65,48.81,27.69,93.56,70.82,116.76,19.96,10.74,41.88,16.06,63.73,16.06,25.6,0,51.11-7.29,73.32-21.71v.02c.33-.21.63-.43.95-.63.39-.26.79-.5,1.17-.76v-.02c23.3-15.77,41.13-38.44,50.89-64.88,5.51-14.93,8.33-30.71,8.33-46.62,0-73.05-58.19-132.51-130.75-134.56-.08,0-.15,0-.23,0-.58-.02-1.15-.02-1.73-.03-.63,0-1.26-.02-1.9-.02,0,0-.01,0-.02,0h0Z"/></g></svg>