<?xml version="1.0" encoding="UTF-8"?><svg id="Layer_1" xmlns="http://www.w3.org/2000/svg" xmlns:xlink="http://www.w3.org/1999/xlink" viewBox="0 0 480 405"><defs><style>.cls-1{fill:#fff;}.cls-2{fill:#d0d2d0;}.cls-3,.cls-4{fill:#33c5c5;}.cls-4{filter:url(#outer-glow-1);stroke:#fff;stroke-miterlimit:10;stroke-width:2.96px;}.cls-5{fill:#eeefee;}.cls-6{opacity:.46;}.cls-7{fill:#f2f2f2;}</style><filter id="outer-glow-1" filterUnits="userSpaceOnUse"><feOffset dx="0" dy="0"/><feGaussianBlur result="blur" stdDeviation="11.85"/><feFlood flood-color="#33c5c5" flood-opacity=".75"/><feComposite in2="blur" operator="in"/><feComposite in="SourceGraphic"/></filter></defs><path class="cls-2" d="m137.83,110.78c.46-.47.92-.94,1.39-1.4-.47.46-.93.93-1.39,1.4Z"/><path class="cls-2" d="m140.36,108.28c.5-.48,1-.96,1.51-1.44-.51.47-1.01.96-1.51,1.44Z"/><path class="cls-2" d="m135.37,113.34c.42-.45.85-.91,1.28-1.35-.43.45-.85.9-1.28,1.35Z"/><path class="cls-2" d="m133.83,115h0c.1-.11.2-.23.31-.34-.1.11-.21.23-.32.34Z"/><path class="cls-2" d="m142.95,105.86c.54-.49,1.08-.99,1.63-1.47-.55.48-1.09.98-1.63,1.47Z"/><path class="cls-2" d="m236.6,71.13c-.08,0-.15,0-.23,0,.08,0,.15,0,.23,0h0Z"/><path class="cls-2" d="m232.77,71.07c.63,0,1.25.02,1.88.02-.63,0-1.25-.02-1.88-.02Z"/><path class="cls-5" d="m307.45,314.92v-.02c-.28.18-.55.37-.82.55.27-.18.55-.34.82-.52Z"/><path class="cls-5" d="m99.4,203.01c0,.21,0,.42,0,.63,0-.21,0-.42,0-.63h0Z"/><path class="cls-4" d="m251.08,67.27c-.08,0-.15,0-.23,0-.57-.02-1.14-.02-1.71-.03-.63,0-1.25-.02-1.88-.02,0,0,0,0-.02,0v133.36l72.58,111.83.02.03c.43-.28.84-.58,1.27-.86.27-.18.54-.36.8-.55,23.1-15.62,40.76-38.08,50.43-64.28,5.46-14.79,8.25-30.43,8.25-46.19,0-72.37-57.65-131.27-129.52-133.3Z"/><path class="cls-3" d="m232.76,204.43V71.07c-32.47,0-63.68,11.84-87.9,33.07h0c-.09.07-.18.16-.27.24-.55.49-1.09.98-1.63,1.47-.36.33-.72.65-1.08.99-.51.47-1.01.96-1.51,1.44-.38.36-.76.73-1.14,1.1-.47.46-.93.93-1.39,1.4-.4.4-.79.8-1.18,1.21-.43.45-.85.9-1.28,1.35-.41.44-.82.88-1.22,1.32-.1.11-.21.23-.31.35-21.74,24.04-34.08,55.32-34.43,88.01,0,.21,0,.42,0,.63,0,.86-.01,1.71,0,2.57h.02c.35,25.99,8.26,51.34,22.85,72.92,40.78,60.32,122.26,76.63,183.06,37.13l-72.58-111.83Z"/><path class="cls-7" d="m347.92,184.65c-3.05,0-5.2,2.36-5.2,6.04s2.12,6.01,5.2,6.01,5.2-2.36,5.2-6.01-2.12-6.04-5.2-6.04Zm0,8.93c-1.15,0-1.71-1.09-1.71-2.89s.56-2.93,1.71-2.93,1.71,1.12,1.71,2.93-.56,2.89-1.71,2.89Z"/><path class="cls-7" d="m300.86,192.55c-2.4,0-3.05-1.9-3.05-3.52h-5.41c-.03,5.17,3.42,7.69,8.21,7.69,4.36,0,8.37-2.21,8.37-6.25,0-3.49-3.05-4.54-4.26-4.7v-.53c1.09-.22,3.67-1.4,3.67-4.29,0-3.39-3.64-5.17-7.47-5.17-4.45,0-8.4,2.33-8.4,6.81h5.23c.06-1.62,1.09-2.92,2.86-2.92,1.4,0,2.52.75,2.52,2.18,0,1.59-1.34,2.15-2.58,2.15h-1.87v3.45h1.65c2.12,0,3.36.96,3.36,2.46,0,1.62-1.09,2.64-2.83,2.64Z"/><path class="cls-7" d="m321.4,182.41c-1.9,0-3.64.78-4.39,2.05l-.5-.22c.37-.59.65-1.18.84-2.12l.37-1.84h9.43v-4.2h-13.38l-2.05,11.45h5.04c.65-1.03,1.65-1.62,2.99-1.62,1.84,0,3.33,1.12,3.33,3.27,0,1.9-1.06,3.45-3.24,3.45-1.9,0-2.77-1.21-2.86-2.83h-5.48c.06,2.74,1.52,6.88,8.25,6.88,5.6,0,8.65-3.27,8.65-7.34s-3.27-6.94-7-6.94Z"/><polygon class="cls-7" points="345.02 175.62 333.45 196.32 337.12 196.32 348.7 175.62 345.02 175.62"/><path class="cls-7" d="m339.7,181.01c0-3.67-2.12-6.04-5.17-6.04s-5.2,2.36-5.2,6.04,2.08,6.01,5.2,6.01,5.17-2.36,5.17-6.01Zm-6.88,0c0-1.84.53-2.93,1.71-2.93,1.12,0,1.71,1.12,1.71,2.93s-.56,2.89-1.71,2.89-1.71-1.09-1.71-2.89Z"/><g class="cls-6"><path d="m232.83,336.3c-43.9,0-84.77-21.68-109.33-58-14.44-21.35-22.25-46.29-22.59-72.11l-.02-1.46h0c0-.26,0-1.7,0-1.7.34-32.22,12.43-63.13,34.05-87.04l.3-.34c.35-.38.7-.76,1.06-1.14l.28-.3c.38-.4.76-.81,1.14-1.21.3-.31.61-.62.91-.93l.44-.44c.4-.4.79-.81,1.2-1.2.28-.27.55-.54.83-.81l.42-.4c.45-.44.91-.87,1.37-1.3.26-.24,1.07-.98,1.07-.98.52-.47,1.03-.94,1.55-1.4l.34-.29c23.69-20.77,53.98-32.35,85.44-32.7v132.31l72.01,110.95c-21.14,13.4-45.47,20.48-70.45,20.48h0Z"/><path class="cls-1" d="m229.79,74.07v131.24l.48.74,70.95,109.32c-20.61,12.74-44.19,19.45-68.39,19.45-43.41,0-83.82-21.44-108.1-57.35-14.27-21.11-22-45.77-22.34-71.3l-.03-1.32c0-.31,0-.61,0-.92v-.27s0-.32,0-.32v-.3c.34-31.86,12.29-62.42,33.67-86.06l.16-.18.14-.15c.34-.37.68-.73,1.02-1.1l.18-.19.19-.2c.35-.38.7-.75,1.06-1.12.3-.31.6-.62.91-.92l.25-.26.17-.17c.4-.4.79-.8,1.19-1.2.27-.27.55-.53.82-.8l.29-.28.08-.08c.46-.44.92-.89,1.4-1.33.25-.23.51-.47.76-.7l.3-.27c.42-.39.85-.77,1.28-1.15l.59-.51c23.05-20.2,52.41-31.61,82.98-32.31m2.96-3c-32.47,0-63.68,11.84-87.9,33.07h0c-.09.07-.18.16-.27.24-.55.49-1.09.98-1.63,1.47-.36.33-.72.65-1.08.99-.51.47-1.01.96-1.51,1.44-.38.36-.76.73-1.14,1.1-.47.46-.93.93-1.39,1.4-.4.4-.79.8-1.18,1.21-.43.45-.85.9-1.28,1.35-.41.44-.82.88-1.22,1.32-.1.11-.21.23-.31.35-21.74,24.04-34.08,55.32-34.43,88.01,0,.21,0,.42,0,.63,0,.86-.01,1.71,0,2.57h.02c.35,25.99,8.26,51.34,22.85,72.92,25.77,38.11,67.78,58.65,110.56,58.65,24.93,0,50.12-6.98,72.51-21.52l-72.58-111.83V71.07h0Z"/></g></svg>