<?xml version="1.0" encoding="UTF-8"?><svg id="Layer_1" xmlns="http://www.w3.org/2000/svg" xmlns:xlink="http://www.w3.org/1999/xlink" viewBox="0 0 480 405"><defs><style>.cls-1{fill:#fff;}.cls-2{fill:#e2e4e2;}.cls-3{filter:url(#outer-glow-1);stroke:#fff;stroke-miterlimit:10;stroke-width:3.06px;}.cls-3,.cls-4{fill:#33c5c5;}.cls-5{fill:#00c434;}.cls-6{opacity:.46;}.cls-7{fill:#f2f2f2;}</style><filter id="outer-glow-1" filterUnits="userSpaceOnUse"><feOffset dx="0" dy="0"/><feGaussianBlur result="blur" stdDeviation="12.22"/><feFlood flood-color="#33c5c5" flood-opacity=".75"/><feComposite in2="blur" operator="in"/><feComposite in="SourceGraphic"/></filter></defs><path class="cls-2" d="m145.29,97.7c.44-.45.88-.89,1.33-1.34-.45.44-.89.89-1.33,1.34Z"/><path class="cls-2" d="m147.9,95.13c.48-.46.96-.92,1.45-1.38-.49.45-.97.91-1.45,1.38Z"/><path class="cls-2" d="m141.08,102.13h0c.1-.1.2-.22.3-.33-.1.11-.2.22-.3.33Z"/><path class="cls-2" d="m142.74,100.35c.41-.43.81-.87,1.22-1.3-.41.43-.82.86-1.22,1.3Z"/><path class="cls-2" d="m150.58,92.63c.52-.47,1.04-.94,1.56-1.41-.53.46-1.04.94-1.56,1.41Z"/><path class="cls-2" d="m243.1,56.84c.65,0,1.29.02,1.94.02-.65,0-1.29-.02-1.94-.02Z"/><path class="cls-2" d="m247.05,56.9c-.08,0-.16,0-.24,0,.08,0,.16,0,.24,0h0Z"/><path class="cls-5" d="m320.11,308.28v-.02c-.41.27-.8.54-1.2.8.4-.26.8-.51,1.2-.78Z"/><path class="cls-5" d="m105.58,192.89c0,.27,0,.54,0,.81,0-.27,0-.54,0-.81h0Z"/><path class="cls-3" d="m236.88,210.65l-137.48,1.84c.66,49.86,28.28,95.57,72.34,119.27,44.27,23.82,97.94,21.53,139.99-5.78l-74.85-115.33Z"/><path class="cls-4" d="m247.05,56.9c-.08,0-.16,0-.24,0-.59-.02-1.18-.02-1.77-.03-.65,0-1.29-.02-1.94-.02,0,0-.01,0-.02,0h0c-33.48,0-65.66,12.21-90.63,34.1h0c-.1.09-.21.18-.31.27-.53.46-1.04.94-1.56,1.41-.41.37-.83.75-1.23,1.13-.49.45-.97.92-1.45,1.38-.43.41-.86.82-1.28,1.24-.45.44-.89.89-1.33,1.34-.44.45-.89.9-1.32,1.35-.41.43-.82.87-1.22,1.3-.45.48-.91.97-1.35,1.45-.1.11-.2.22-.3.33-22.42,24.79-35.14,57.04-35.5,90.75,0,.27,0,.54,0,.81,0,.83-.01,1.66,0,2.49h.02s137.48-1.84,137.48-1.84l74.85,115.33v.02c.34-.21.65-.44.97-.65.4-.26.79-.54,1.18-.8,23.82-16.1,42.03-39.26,52-66.28,5.63-15.25,8.51-31.37,8.51-47.63,0-74.62-59.44-135.35-133.55-137.45Z"/><path class="cls-7" d="m208.52,268.96c-5.08,0-9.15,3.38-9.15,10.51s4.07,10.7,9.15,10.7,9.22-3.6,9.22-10.7-4.1-10.51-9.22-10.51Zm.03,17.02c-3.03,0-3.57-3.38-3.57-6.47s.54-6.35,3.57-6.35,3.6,3.22,3.6,6.35-.54,6.47-3.6,6.47Z"/><path class="cls-7" d="m193.3,279.09v-.54c1.1-.22,3.72-1.42,3.72-4.36,0-3.44-3.69-5.24-7.58-5.24-4.51,0-8.52,2.37-8.52,6.91h5.3c.06-1.64,1.1-2.97,2.9-2.97,1.42,0,2.56.76,2.56,2.21,0,1.61-1.36,2.18-2.62,2.18h-1.89v3.5h1.67c2.15,0,3.41.98,3.41,2.49,0,1.64-1.1,2.68-2.87,2.68-2.43,0-3.09-1.93-3.09-3.57h-5.49c-.03,5.24,3.47,7.8,8.33,7.8,4.42,0,8.49-2.24,8.49-6.35h0c0-3.54-3.09-4.61-4.32-4.77Z"/><polygon class="cls-7" points="223 289.79 226.72 289.79 238.47 268.8 234.74 268.8 223 289.79"/><path class="cls-7" d="m232.4,284.08c0,3.76,2.15,6.09,5.27,6.09s5.27-2.4,5.27-6.09-2.15-6.13-5.27-6.13-5.27,2.4-5.27,6.13Zm7.01,0c0,1.86-.57,2.94-1.74,2.94s-1.74-1.11-1.74-2.94.57-2.97,1.74-2.97,1.74,1.14,1.74,2.97Z"/><path class="cls-7" d="m229.34,274.26c0-3.72-2.15-6.12-5.24-6.12s-5.27,2.4-5.27,6.12,2.11,6.09,5.27,6.09,5.24-2.4,5.24-6.09Zm-6.98,0c0-1.86.54-2.97,1.74-2.97,1.14,0,1.74,1.14,1.74,2.97s-.57,2.94-1.74,2.94-1.74-1.1-1.74-2.94Z"/><g class="cls-6"><path d="m243.91,192.82l-136.8,1.83c0-.16,0-1.74,0-1.74.35-33.22,12.82-65.1,35.11-89.74l.3-.33c.39-.43.79-.85,1.18-1.28l.41-.43c.32-.34.63-.68.95-1.01.35-.36.7-.72,1.06-1.08l.51-.52c.35-.35.7-.71,1.06-1.06.33-.32.66-.64,1-.96l.52-.5c.39-.38.78-.75,1.18-1.12.3-.28.6-.55.91-.83l.4-.37c.47-.43.95-.86,1.43-1.29l.33-.29c24.81-21.75,56.64-33.72,89.62-33.72h.08c.45,0,.86,0,1.26.02l1.12.02c.41,0,.81,0,1.22.02h.24c35.49,1.01,68.7,15.6,93.51,41.07,24.86,25.53,38.55,59.21,38.55,94.85,0,16.13-2.83,31.97-8.42,47.1-9.9,26.83-27.69,49.49-51.42,65.54,0,0-.71.49-.85.58l-74.47-114.75Z"/><path class="cls-1" d="m243.07,59.9h.01s.02,0,.02,0c.44,0,.87,0,1.31.01h.59s.52.02.52.02c.4,0,.81,0,1.2.02h.07s.16,0,.16,0c35.09.99,67.93,15.41,92.47,40.6,24.58,25.24,38.12,58.55,38.12,93.79,0,15.94-2.8,31.61-8.32,46.57-9.73,26.36-27.16,48.66-50.41,64.51l-73.17-112.73-.92-1.41-1.69.02-134.4,1.8c0-.06,0-.12,0-.17.35-32.85,12.68-64.36,34.71-88.74l.16-.18.13-.15c.39-.43.79-.86,1.19-1.29l.13-.14.23-.24c.32-.34.64-.69.97-1.03.35-.36.7-.71,1.05-1.07l.25-.25.25-.26c.35-.35.69-.7,1.05-1.05.33-.33.67-.65,1.01-.97l.25-.24.25-.24c.39-.37.77-.74,1.16-1.1.3-.28.6-.55.9-.83l.3-.28.09-.08c.36-.33.73-.66,1.09-.99l.65-.57c24.53-21.5,55.99-33.34,88.6-33.35m.02-3.06h0c-33.48,0-65.66,12.21-90.63,34.1h0c-.1.09-.21.18-.31.27-.53.46-1.04.94-1.56,1.41-.41.37-.83.75-1.23,1.13-.49.45-.97.92-1.45,1.38-.43.41-.86.82-1.28,1.24-.45.44-.89.89-1.33,1.34-.44.45-.89.9-1.32,1.35-.41.43-.82.87-1.22,1.3-.45.48-.91.97-1.35,1.45-.1.11-.2.22-.3.33-22.42,24.79-35.14,57.04-35.5,90.75,0,.27,0,.54,0,.81,0,.83-.01,1.66,0,2.49h.02s137.48-1.84,137.48-1.84l74.85,115.33v.02c.34-.21.65-.44.97-.65.4-.26.79-.54,1.18-.8,23.82-16.1,42.03-39.26,52-66.28,5.63-15.25,8.51-31.37,8.51-47.63,0-74.62-59.44-135.35-133.55-137.45-.08,0-.16,0-.24,0-.59-.02-1.18-.02-1.77-.03-.65,0-1.29-.02-1.94-.02,0,0-.01,0-.02,0h0Z"/></g></svg>