<svg width="154" height="32" viewBox="0 0 154 32" fill="none" xmlns="http://www.w3.org/2000/svg">
<g clip-path="url(#clip0_9_53)">
<g opacity="0.7">
<path d="M0.883057 30.6742H5.36989V30.3555H3.3594C3.3594 30.3555 4.1685 22.4606 4.31561 20.303H8.14045L9.26829 30.3555H7.77267V30.6742H13.1912V30.3555H11.2543L7.6746 0.860107H6.54676L3.84976 22.1419C3.38391 26.0893 2.77096 30.3555 2.77096 30.3555H0.883057V30.6742ZM6.25255 4.31717H6.35062L8.04237 19.9107H4.36464L6.25255 4.31717Z" fill="#DFDFDF"/>
<path d="M0.883057 30.6742H5.36989V30.3555H3.3594C3.3594 30.3555 4.1685 22.4606 4.31561 20.303H8.14045L9.26829 30.3555H7.77267V30.6742H13.1912V30.3555H11.2543L7.6746 0.860107H6.54676L3.84976 22.1419C3.38391 26.0893 2.77096 30.3555 2.77096 30.3555H0.883057V30.6742ZM6.25255 4.31717H6.35062L8.04237 19.9107H4.36464L6.25255 4.31717Z" stroke="#DFDFDF" stroke-width="0.917671"/>
<path d="M11.7937 30.3555H13.8287C13.8287 30.3555 14.0739 25.5499 14.0739 23.1717V1.1298H12.186V0.860107H16.0599L19.8357 24.7653H19.8847L23.5624 0.860107H27.1176V1.1298H25.4503V30.331H27.1421V30.6497H21.8216V30.331H23.5379V2.20861H23.4889L19.1491 30.7233H18.8549L14.5152 3.65518H14.4171V23.1471C14.4171 26.2855 14.6133 30.331 14.6133 30.331H16.4276V30.6497H11.7692V30.3555H11.7937Z" fill="#DFDFDF"/>
<path d="M11.7937 30.3555H13.8287C13.8287 30.3555 14.0739 25.5499 14.0739 23.1717V1.1298H12.186V0.860107H16.0599L19.8357 24.7653H19.8847L23.5624 0.860107H27.1176V1.1298H25.4503V30.331H27.1421V30.6497H21.8216V30.331H23.5379V2.20861H23.4889L19.1491 30.7233H18.8549L14.5152 3.65518H14.4171V23.1471C14.4171 26.2855 14.6133 30.331 14.6133 30.331H16.4276V30.6497H11.7692V30.3555H11.7937Z" stroke="#DFDFDF" stroke-width="0.917671"/>
<path d="M27.853 30.331H29.5448V1.1298H27.853V0.860107H36.6551V10.7409H36.3608C36.3608 4.68495 34.7917 1.1298 33.0019 1.1298H31.4327V14.247C31.9966 14.247 32.4625 14.0264 32.6586 13.7567C33.8845 12.3101 33.9335 7.70069 33.9335 7.60261H34.2278V21.2102H33.9581C33.9581 21.1121 33.909 16.5027 32.6831 15.1052C32.487 14.8355 32.0211 14.5658 31.4572 14.5658V30.3065H33.0264C34.8162 30.3065 36.3854 26.8249 36.3854 20.7689H36.6796V30.6497H27.8775V30.331H27.853Z" fill="#DFDFDF"/>
<path d="M27.853 30.331H29.5448V1.1298H27.853V0.860107H36.6551V10.7409H36.3608C36.3608 4.68495 34.7917 1.1298 33.0019 1.1298H31.4327V14.247C31.9966 14.247 32.4625 14.0264 32.6586 13.7567C33.8845 12.3101 33.9335 7.70069 33.9335 7.60261H34.2278V21.2102H33.9581C33.9581 21.1121 33.909 16.5027 32.6831 15.1052C32.487 14.8355 32.0211 14.5658 31.4572 14.5658V30.3065H33.0264C34.8162 30.3065 36.3854 26.8249 36.3854 20.7689H36.6796V30.6497H27.8775V30.331H27.853Z" stroke="#DFDFDF" stroke-width="0.917671"/>
<path d="M37.5377 30.6744H42.613V30.3557H40.8722V15.8164C41.8774 15.8164 43.0298 15.9145 43.8389 17.0668C44.7951 18.4153 44.7951 20.5729 44.7951 22.1911V26.3592C44.7951 28.2962 45.4081 30.8461 46.9772 30.8461C47.7863 30.8461 48.2522 30.4047 48.6935 29.6692C49.3065 28.5904 49.5271 26.5799 49.5271 24.8636C49.5271 24.4958 49.429 24.2261 49.2574 24.2261C49.1593 24.2261 49.0368 24.3242 49.0368 24.8636V25.9915C49.0368 29.1298 48.3257 30.4783 47.5166 30.4783C46.7075 30.4783 46.5604 28.5904 46.5604 26.2121V21.9705C46.5604 20.0335 46.2662 19.0038 45.3345 17.6062C44.2312 16.0861 43.275 15.939 42.4168 15.6693V15.5467C45.7023 14.1492 46.7075 11.1825 46.7075 8.26475C46.7075 6.10714 45.9475 3.94954 45.4326 3.14044C44.2557 1.15446 42.5149 0.884766 40.8967 0.884766H37.5622V1.15446H39.0578V30.3557H37.5622V30.6744H37.5377ZM40.8722 1.12995C41.6813 1.12995 43.0298 1.12995 43.7899 2.65008C44.5499 3.99858 44.697 7.45565 44.697 8.26475C44.697 10.1037 44.4519 12.3593 43.8389 13.7078C43.0298 15.4241 42.2207 15.4241 40.8722 15.4241V1.12995Z" fill="#DFDFDF"/>
<path d="M37.5377 30.6744H42.613V30.3557H40.8722V15.8164C41.8774 15.8164 43.0298 15.9145 43.8389 17.0668C44.7951 18.4153 44.7951 20.5729 44.7951 22.1911V26.3592C44.7951 28.2962 45.4081 30.8461 46.9772 30.8461C47.7863 30.8461 48.2522 30.4047 48.6935 29.6692C49.3065 28.5904 49.5271 26.5799 49.5271 24.8636C49.5271 24.4958 49.429 24.2261 49.2574 24.2261C49.1593 24.2261 49.0368 24.3242 49.0368 24.8636V25.9915C49.0368 29.1298 48.3257 30.4783 47.5166 30.4783C46.7075 30.4783 46.5604 28.5904 46.5604 26.2121V21.9705C46.5604 20.0335 46.2662 19.0038 45.3345 17.6062C44.2312 16.0861 43.275 15.939 42.4168 15.6693V15.5467C45.7023 14.1492 46.7075 11.1825 46.7075 8.26475C46.7075 6.10714 45.9475 3.94954 45.4326 3.14044C44.2557 1.15446 42.5149 0.884766 40.8967 0.884766H37.5622V1.15446H39.0578V30.3557H37.5622V30.6744H37.5377ZM40.8722 1.12995C41.6813 1.12995 43.0298 1.12995 43.7899 2.65008C44.5499 3.99858 44.697 7.45565 44.697 8.26475C44.697 10.1037 44.4519 12.3593 43.8389 13.7078C43.0298 15.4241 42.2207 15.4241 40.8722 15.4241V1.12995Z" stroke="#DFDFDF" stroke-width="0.917671"/>
<path d="M49.4291 30.3065H50.6551V1.1298H49.184V0.860107H54.014V1.1298H52.5675V30.3065H54.014V30.6742H49.4291V30.3065Z" fill="#DFDFDF"/>
<path d="M49.4291 30.3065H50.6551V1.1298H49.184V0.860107H54.014V1.1298H52.5675V30.3065H54.014V30.6742H49.4291V30.3065Z" stroke="#DFDFDF" stroke-width="0.917671"/>
<path d="M62.1541 11.0107C62.1541 7.97046 61.4921 1.05632 59.2364 1.05632C57.2749 1.05632 56.662 6.74454 56.662 16.4783C56.662 18.1455 56.662 25.1332 57.4221 28.0754C58.084 30.5763 58.5989 30.5027 59.359 30.5027C62.0805 30.5027 62.1786 23.0492 62.1786 20.6464C62.1786 20.156 62.2276 19.8373 62.3993 19.8373C62.669 19.8373 62.669 20.2051 62.669 20.5974C62.669 24.4467 61.9334 30.9195 59.3345 30.9195C56.049 30.9195 54.3328 23.2944 54.3328 16.4783C54.3328 9.34348 56.4168 0.61499 59.2364 0.61499C60.4623 0.61499 60.6094 1.91446 61.394 1.91446C62.105 1.91446 62.2276 0.982764 62.2276 0.61499H62.3747V11.0107H62.1541Z" fill="#DFDFDF"/>
<path d="M62.1541 11.0107C62.1541 7.97045 61.4921 1.05632 59.2364 1.05632C57.2749 1.05632 56.662 6.74454 56.662 16.4783C56.662 18.1455 56.662 25.1332 57.4221 28.0754C58.084 30.5763 58.5989 30.5027 59.359 30.5027C62.0805 30.5027 62.1786 23.0492 62.1786 20.6464C62.1786 20.156 62.2276 19.8373 62.3993 19.8373C62.669 19.8373 62.669 20.2051 62.669 20.5974C62.669 24.4467 61.9334 30.9195 59.3345 30.9195C56.049 30.9195 54.3328 23.2944 54.3328 16.4783C54.3328 9.34347 56.4168 0.61499 59.2364 0.61499C60.4623 0.61499 60.6094 1.91446 61.394 1.91446C62.105 1.91446 62.2276 0.982764 62.2276 0.61499H62.3747V11.0107H62.1541Z" stroke="#DFDFDF" stroke-width="0.917671"/>
<path d="M61.9335 30.6742H66.1506V30.3555H64.1401C64.1401 30.3555 64.9492 22.4606 65.0963 20.303H68.9211L70.049 30.3555H68.5534V30.6742H73.9719V30.3555H72.035L68.4553 0.860107H67.3029L64.6059 22.1419C64.1401 26.0893 63.5271 30.3555 63.5271 30.3555H61.9089V30.6742H61.9335ZM67.0332 4.31717H67.1313L68.8231 19.9107H65.1453L67.0332 4.31717Z" fill="#DFDFDF"/>
<path d="M61.9335 30.6742H66.1506V30.3555H64.1401C64.1401 30.3555 64.9492 22.4606 65.0963 20.303H68.9211L70.049 30.3555H68.5534V30.6742H73.9719V30.3555H72.035L68.4553 0.860107H67.3029L64.6059 22.1419C64.1401 26.0893 63.5271 30.3555 63.5271 30.3555H61.9089V30.6742H61.9335ZM67.0332 4.31717H67.1313L68.8231 19.9107H65.1453L67.0332 4.31717Z" stroke="#DFDFDF" stroke-width="0.917671"/>
<path d="M72.8196 30.3555H74.4623C74.4623 30.3555 74.7075 25.0596 74.7075 23.1717V1.1298H72.8196V0.860107H76.8406L81.1803 24.1769H81.2293V8.36268C81.2293 5.34694 81.1803 1.1298 81.1803 1.1298H79.6847V0.860107H83.8037V1.1298H81.8913C81.8913 1.1298 81.6461 5.88634 81.6461 8.36268V30.6497H80.5673L75.1733 1.44854H75.1243V23.1471C75.1243 25.0841 75.3204 30.331 75.3204 30.331H76.767V30.6497H72.8196V30.3555Z" fill="#DFDFDF"/>
<path d="M72.8196 30.3555H74.4623C74.4623 30.3555 74.7075 25.0596 74.7075 23.1717V1.1298H72.8196V0.860107H76.8406L81.1803 24.1769H81.2293V8.36268C81.2293 5.34694 81.1803 1.1298 81.1803 1.1298H79.6847V0.860107H83.8037V1.1298H81.8913C81.8913 1.1298 81.6461 5.88634 81.6461 8.36268V30.6497H80.5673L75.1733 1.44854H75.1243V23.1471C75.1243 25.0841 75.3204 30.331 75.3204 30.331H76.767V30.6497H72.8196V30.3555Z" stroke="#DFDFDF" stroke-width="0.917671"/>
<path d="M92.0417 14.6393C93.0224 14.6393 94.0767 14.6393 95.0084 16.2085C95.5233 17.1892 96.0381 19.6165 96.0381 23.0736C96.0381 24.9615 95.891 26.8004 95.131 28.6883C94.2238 30.4781 92.8263 30.38 92.0172 30.38V14.6393H92.0417ZM88.4375 30.6742H92.0417C95.5478 30.6742 98.3674 28.4186 98.3674 22.6323C98.3674 20.916 97.9996 18.9055 97.0924 17.3363C95.9646 15.3503 95.0574 14.86 93.4637 14.4187V14.3206C95.2536 14.0509 97.7544 11.6236 97.7544 7.7252C97.7544 2.42927 94.6896 0.860107 92.0417 0.860107H88.4375V1.1298H90.1783V30.3555H88.4375V30.6742ZM92.0417 1.1298C93.4637 1.1298 94.0767 1.3995 94.7877 2.25764C95.7684 3.60614 95.7684 6.79351 95.7684 8.19105C95.7684 11.2068 94.6896 13.2663 93.9296 13.7567C93.2676 14.198 92.4585 14.198 92.0417 14.198V1.1298Z" fill="#DFDFDF"/>
<path d="M92.0417 14.6393C93.0224 14.6393 94.0767 14.6393 95.0084 16.2085C95.5233 17.1892 96.0381 19.6165 96.0381 23.0736C96.0381 24.9615 95.891 26.8004 95.131 28.6883C94.2238 30.4781 92.8263 30.38 92.0172 30.38V14.6393H92.0417ZM88.4375 30.6742H92.0417C95.5478 30.6742 98.3674 28.4186 98.3674 22.6323C98.3674 20.916 97.9996 18.9055 97.0924 17.3363C95.9646 15.3503 95.0574 14.86 93.4637 14.4187V14.3206C95.2536 14.0509 97.7544 11.6236 97.7544 7.7252C97.7544 2.42927 94.6896 0.860107 92.0417 0.860107H88.4375V1.1298H90.1783V30.3555H88.4375V30.6742ZM92.0417 1.1298C93.4637 1.1298 94.0767 1.3995 94.7877 2.25764C95.7684 3.60614 95.7684 6.79351 95.7684 8.19105C95.7684 11.2068 94.6896 13.2663 93.9296 13.7567C93.2676 14.198 92.4585 14.198 92.0417 14.198V1.1298Z" stroke="#DFDFDF" stroke-width="0.917671"/>
<path d="M97.2396 30.6742H101.726V30.3555H99.716C99.716 30.3555 100.525 22.4606 100.672 20.303H104.497L105.625 30.3555H104.129V30.6742H109.548V30.3555H107.611L104.031 0.860107H102.903L100.206 22.1419C99.7405 26.0893 99.1275 30.3555 99.1275 30.3555H97.2641V30.6742H97.2396ZM102.609 4.31717H102.707L104.399 19.9107H100.721L102.609 4.31717Z" fill="#DFDFDF"/>
<path d="M97.2396 30.6742H101.726V30.3555H99.716C99.716 30.3555 100.525 22.4606 100.672 20.303H104.497L105.625 30.3555H104.129V30.6742H109.548V30.3555H107.611L104.031 0.860107H102.903L100.206 22.1419C99.7405 26.0893 99.1275 30.3555 99.1275 30.3555H97.2641V30.6742H97.2396ZM102.609 4.31717H102.707L104.399 19.9107H100.721L102.609 4.31717Z" stroke="#DFDFDF" stroke-width="0.917671"/>
<path d="M108.395 30.3555H110.038C110.038 30.3555 110.283 25.0596 110.283 23.1717V1.1298H108.395V0.860107H112.416L116.756 24.1769H116.805V8.36268C116.805 5.34694 116.756 1.1298 116.756 1.1298H115.26V0.860107H118.865V1.1298H117.467C117.467 1.1298 117.222 5.88634 117.222 8.36268V30.6497H116.143L110.749 1.44854H110.7V23.1471C110.7 25.0841 110.896 30.331 110.896 30.331H112.343V30.6497H108.395V30.3555Z" fill="#DFDFDF"/>
<path d="M108.395 30.3555H110.038C110.038 30.3555 110.283 25.0596 110.283 23.1717V1.1298H108.395V0.860107H112.416L116.756 24.1769H116.805V8.36268C116.805 5.34694 116.756 1.1298 116.756 1.1298H115.26V0.860107H118.865V1.1298H117.467C117.467 1.1298 117.222 5.88634 117.222 8.36268V30.6497H116.143L110.749 1.44854H110.7V23.1471C110.7 25.0841 110.896 30.331 110.896 30.331H112.343V30.6497H108.395V30.3555Z" stroke="#DFDFDF" stroke-width="0.917671"/>
<path d="M119.478 30.3555H120.924V1.1298H119.355V0.860107H124.455V1.1298H122.812V16.5763H122.861L125.852 7.82328C126.146 6.96514 127.789 1.1298 127.789 1.1298H126.343V0.860107H130.094V1.1298H128.28C128.28 1.1298 126.637 6.20507 125.975 8.2646L124.97 11.2313L128.843 30.3555H130.241V30.6742H125.95V30.3555H126.956L123.793 14.86L122.837 17.4589V30.3555H124.038V30.6742H119.502V30.3555H119.478Z" fill="#DFDFDF"/>
<path d="M119.478 30.3555H120.924V1.1298H119.355V0.860107H124.455V1.1298H122.812V16.5763H122.861L125.852 7.82328C126.146 6.96514 127.789 1.1298 127.789 1.1298H126.343V0.860107H130.094V1.1298H128.28C128.28 1.1298 126.637 6.20507 125.975 8.2646L124.97 11.2313L128.843 30.3555H130.241V30.6742H125.95V30.3555H126.956L123.793 14.86L122.837 17.4589V30.3555H124.038V30.6742H119.502V30.3555H119.478Z" stroke="#DFDFDF" stroke-width="0.917671"/>
<path d="M131.001 30.3555H132.325V1.1298H130.878V0.860107H139.411V10.7409H139.117C139.117 4.68495 137.547 1.1298 135.758 1.1298H134.188V14.247C134.752 14.247 135.218 14.0264 135.414 13.7567C136.64 12.3101 136.689 7.70069 136.689 7.60261H136.983V21.2102H136.689C136.689 21.1121 136.64 16.5027 135.414 15.1052C135.218 14.8355 134.752 14.5658 134.188 14.5658V30.331H135.758C137.547 30.331 139.117 26.8249 139.117 20.7689H139.411V30.6497H131.001V30.3555Z" fill="#DFDFDF"/>
<path d="M131.001 30.3555H132.325V1.1298H130.878V0.860107H139.411V10.7409H139.117C139.117 4.68495 137.547 1.1298 135.758 1.1298H134.188V14.247C134.752 14.247 135.218 14.0264 135.414 13.7567C136.64 12.3101 136.689 7.70069 136.689 7.60261H136.983V21.2102H136.689C136.689 21.1121 136.64 16.5027 135.414 15.1052C135.218 14.8355 134.752 14.5658 134.188 14.5658V30.331H135.758C137.547 30.331 139.117 26.8249 139.117 20.7689H139.411V30.6497H131.001V30.3555Z" stroke="#DFDFDF" stroke-width="0.917671"/>
<path d="M140.294 30.6744H145.369V30.3557H143.628V15.8164C144.633 15.8164 145.786 15.9145 146.595 17.0668C147.551 18.4153 147.551 20.5729 147.551 22.1911V26.3592C147.551 28.2962 148.164 30.8461 149.733 30.8461C150.542 30.8461 151.008 30.4047 151.449 29.6447C152.062 28.5659 152.283 26.5554 152.283 24.8391C152.283 24.4713 152.185 24.2016 152.013 24.2016C151.915 24.2016 151.793 24.2997 151.793 24.8391V25.9669C151.793 29.1053 151.082 30.4047 150.272 30.4047C149.463 30.4047 149.316 28.5414 149.316 26.1876V21.9705C149.316 20.0335 149.022 19.0038 148.09 17.6062C146.987 16.0861 146.031 15.939 145.173 15.6693V15.5467C148.458 14.1492 149.439 11.1825 149.439 8.26475C149.439 6.10714 148.679 3.94954 148.164 3.14044C146.987 1.15446 145.246 0.884766 143.628 0.884766H140.294V1.15446H141.789V30.3557H140.294V30.6744ZM143.628 1.12995C144.437 1.12995 145.786 1.12995 146.546 2.65008C147.306 3.99858 147.453 7.45565 147.453 8.26475C147.453 10.1037 147.208 12.3593 146.595 13.7078C145.786 15.4241 144.976 15.4241 143.628 15.4241V1.12995Z" fill="#DFDFDF"/>
<path d="M140.294 30.6744H145.369V30.3557H143.628V15.8164C144.633 15.8164 145.786 15.9145 146.595 17.0668C147.551 18.4153 147.551 20.5729 147.551 22.1911V26.3592C147.551 28.2962 148.164 30.8461 149.733 30.8461C150.542 30.8461 151.008 30.4047 151.449 29.6447C152.062 28.5659 152.283 26.5554 152.283 24.8391C152.283 24.4713 152.185 24.2016 152.013 24.2016C151.915 24.2016 151.793 24.2997 151.793 24.8391V25.9669C151.793 29.1053 151.082 30.4047 150.272 30.4047C149.463 30.4047 149.316 28.5414 149.316 26.1876V21.9705C149.316 20.0335 149.022 19.0038 148.09 17.6062C146.987 16.0861 146.031 15.939 145.173 15.6693V15.5467C148.458 14.1492 149.439 11.1825 149.439 8.26475C149.439 6.10714 148.679 3.94954 148.164 3.14044C146.987 1.15446 145.246 0.884766 143.628 0.884766H140.294V1.15446H141.789V30.3557H140.294V30.6744ZM143.628 1.12995C144.437 1.12995 145.786 1.12995 146.546 2.65008C147.306 3.99858 147.453 7.45565 147.453 8.26475C147.453 10.1037 147.208 12.3593 146.595 13.7078C145.786 15.4241 144.976 15.4241 143.628 15.4241V1.12995Z" stroke="#DFDFDF" stroke-width="0.917671"/>
<path d="M152.969 29.9142C153.067 29.9142 153.166 29.8897 153.166 29.7671C153.166 29.62 153.018 29.62 152.92 29.62H152.675V29.9142H152.969ZM153.337 30.5271H153.116L152.896 30.0858H152.7V30.5271H152.504V29.4974H152.969C153.043 29.4974 153.166 29.4974 153.239 29.5464C153.337 29.5954 153.362 29.718 153.362 29.8161C153.362 30.0122 153.264 30.0858 153.092 30.0858L153.337 30.5271ZM153.607 29.9877C153.607 29.5464 153.288 29.2031 152.871 29.2031C152.454 29.2031 152.136 29.5464 152.136 29.9877C152.136 30.4291 152.454 30.7723 152.871 30.7723C153.288 30.7723 153.607 30.4291 153.607 29.9877ZM151.964 29.9877C151.964 29.4483 152.381 29.0315 152.871 29.0315C153.362 29.0315 153.778 29.4728 153.778 29.9877C153.778 30.5271 153.362 30.9439 152.871 30.9439C152.356 30.9685 151.964 30.5271 151.964 29.9877Z" fill="#DFDFDF"/>
</g>
</g>
<defs>
<clipPath id="clip0_9_53">
<rect width="154" height="32" fill="white"/>
</clipPath>
</defs>
</svg>
