<svg width="150" height="48" viewBox="0 0 150 48" fill="none" xmlns="http://www.w3.org/2000/svg">
<g clip-path="url(#clip0_9_10)">
<path d="M3.81359 3.87719H0.444946V0.317871H11.6314V3.87719H8.3263V21.2289H3.87715L3.81359 3.87719Z" fill="#DFDFDF"/>
<path d="M14.0466 0.381348H18.5593V8.77118H21.7373V0.381348H26.25V21.2924H21.7373V12.3941H18.5593V21.2924H14.0466V0.381348Z" fill="#DFDFDF"/>
<path d="M29.2373 0.381348H38.7076V3.94067H33.75V8.64406H37.6907V12.0127H33.75V17.733H39.0254V21.2924H29.2373V0.381348Z" fill="#DFDFDF"/>
<path d="M45.8899 0.381348H51.6738C55.4873 0.381348 57.3306 1.84321 57.3306 5.08474V6.5466C57.3306 8.77118 56.1229 9.85169 54.2162 10.2966C56.4407 10.7415 57.839 12.0127 57.839 14.6822V16.0169C57.839 19.8941 55.7416 21.2924 51.8645 21.2924H46.017V0.381348H45.8899ZM51.2289 8.83474C52.5001 8.83474 53.0085 8.32626 53.0085 6.80084V5.46609C53.0085 3.87711 52.3729 3.55931 51.2289 3.55931H50.2755V8.83474H51.2289ZM51.356 18.1144C52.6907 18.1144 53.2628 17.4152 53.2628 15.6991V14.2373C53.2628 12.3305 52.6907 11.8856 51.2289 11.8856H50.2755V18.1144H51.356Z" fill="#DFDFDF"/>
<path d="M72.5212 0.381348V15.7627C72.5212 19.8305 70.2331 21.6102 66.356 21.6102C62.4788 21.6102 60.2543 19.7669 60.2543 15.6991V0.381348H64.767V15.6356C64.767 17.3517 65.1483 17.9873 66.356 17.9873C67.4365 17.9873 67.945 17.3517 67.945 15.6356V0.381348H72.5212Z" fill="#DFDFDF"/>
<path d="M74.8729 15.7627V15.0636H79.2585V15.8898C79.2585 17.6059 79.7034 18.1144 80.7839 18.1144C81.7373 18.1144 82.1823 17.5424 82.1823 16.2076V15.9534C82.1823 14.1102 81.1653 13.4746 79.2585 12.2669C76.5255 10.5508 75.1272 8.96186 75.1272 5.52966V5.40254C75.1272 1.90678 77.1611 0 80.7839 0C84.3433 0 86.3136 1.7161 86.3772 5.40254V6.03814H82.1187V5.33898C82.1187 3.87712 81.5467 3.49576 80.7839 3.49576C79.9577 3.49576 79.5128 3.94068 79.5128 5.1483V5.27542C79.5128 6.73729 80.1483 7.30932 81.9916 8.51695C84.4704 10.1059 86.6314 11.3771 86.6314 15.4449V15.8263C86.6314 19.6398 84.5339 21.5466 80.8475 21.5466C77.1611 21.6102 74.9365 19.9576 74.8729 15.7627Z" fill="#DFDFDF"/>
<path d="M89.2373 0.381348H93.75V21.2924H89.2373V0.381348Z" fill="#DFDFDF"/>
<path d="M96.8644 0.381348H101.695L105.254 11.5678V0.381348H109.195V21.2924H104.936L100.805 8.32626V21.2924H96.928V0.381348H96.8644Z" fill="#DFDFDF"/>
<path d="M112.246 0.381348H121.716V3.94067H116.758V8.64406H120.699V12.0127H116.758V17.733H122.034V21.2924H112.246V0.381348Z" fill="#DFDFDF"/>
<path d="M124.068 15.7627V15.0636H128.453V15.8898C128.453 17.6059 128.898 18.1144 129.979 18.1144C130.932 18.1144 131.377 17.5424 131.377 16.2076V15.9534C131.377 14.1102 130.36 13.4746 128.453 12.2669C125.72 10.5508 124.322 8.96186 124.322 5.52966V5.40254C124.322 1.90678 126.356 0 129.979 0C133.538 0 135.508 1.7161 135.572 5.40254V6.03814H131.314V5.33898C131.314 3.87712 130.742 3.49576 129.979 3.49576C129.153 3.49576 128.708 3.94068 128.708 5.1483V5.27542C128.708 6.73729 129.343 7.30932 131.186 8.51695C133.665 10.1059 135.826 11.3771 135.826 15.4449V15.8263C135.826 19.6398 133.729 21.5466 130.042 21.5466C126.356 21.6102 124.068 19.9576 124.068 15.7627Z" fill="#DFDFDF"/>
<path d="M137.797 15.7627V15.0636H142.182V15.8898C142.182 17.6059 142.627 18.1144 143.708 18.1144C144.661 18.1144 145.106 17.5424 145.106 16.2076V15.9534C145.106 14.1102 144.089 13.4746 142.182 12.2669C139.449 10.5508 138.051 8.96186 138.051 5.52966V5.40254C138.051 1.90678 140.085 0 143.708 0C147.267 0 149.237 1.7161 149.301 5.40254V6.03814H145.042V5.33898C145.042 3.87712 144.47 3.49576 143.708 3.49576C142.881 3.49576 142.436 3.94068 142.436 5.1483V5.27542C142.436 6.73729 143.072 7.30932 144.915 8.51695C147.394 10.1059 149.555 11.3771 149.555 15.4449V15.8263C149.555 19.6398 147.458 21.5466 143.771 21.5466C140.085 21.6102 137.797 19.9576 137.797 15.7627Z" fill="#DFDFDF"/>
<path d="M20.8475 47.4153V43.9196C21.2288 43.9831 21.6102 44.1102 22.2458 44.1102C23.3898 44.1102 24.0254 43.6018 24.0254 42.1399V26.7585H28.5382V42.3306C28.5382 45.9535 26.6949 47.8602 23.2627 47.8602C22.0551 47.8602 21.3559 47.6696 20.8475 47.4153Z" fill="#DFDFDF"/>
<path d="M31.2076 41.7585V32.733C31.2076 28.411 33.8771 26.4407 37.5636 26.4407C41.3771 26.4407 43.9831 28.2839 43.9831 32.6695V41.5678C43.9831 45.9534 41.4407 47.9237 37.5636 47.9237C33.6865 47.9873 31.2076 46.0169 31.2076 41.7585ZM39.4068 41.6949V32.733C39.4068 30.8898 38.8348 30.1271 37.5636 30.1271C36.3559 30.1271 35.7839 30.8898 35.7839 32.733V41.6949C35.7839 43.6017 36.3559 44.3644 37.5636 44.3644C38.8348 44.3644 39.4068 43.6017 39.4068 41.6949Z" fill="#DFDFDF"/>
<path d="M59.0466 26.7585V42.1399C59.0466 46.2077 56.7585 47.9874 52.8814 47.9874C49.0042 47.9874 46.7797 46.1441 46.7797 42.0763V26.7585H51.2924V42.0128C51.2924 43.7289 51.6737 44.3645 52.8814 44.3645C53.9619 44.3645 54.4703 43.7289 54.4703 42.0128V26.7585H59.0466Z" fill="#DFDFDF"/>
<path d="M61.9703 26.7585H67.6907C72.0763 26.7585 73.7288 28.4746 73.7288 31.9704V34.1314C73.7288 36.4831 72.9661 37.6272 71.5678 38.2628L74.3008 47.6696H69.5975L67.3093 38.9619H66.4831V47.6696H61.9703V26.7585ZM67.5636 36.0382C68.7712 36.0382 69.3432 35.5297 69.3432 34.0043V32.0975C69.3432 30.6992 68.8347 30.1907 67.5636 30.1907H66.4831V36.0382H67.5636Z" fill="#DFDFDF"/>
<path d="M76.589 26.7585H81.4195L84.9788 37.945V26.7585H88.9195V47.6696H84.661L80.5297 34.7035V47.6696H76.6525V26.7585H76.589Z" fill="#DFDFDF"/>
<path d="M99.0254 43.4111H95.7204L95.1483 47.6696H91.017L94.3221 26.7585H100.805L104.11 47.6696H99.5339L99.0254 43.4111ZM96.1653 40.2967H98.6441L97.4365 30.7628L96.1653 40.2967Z" fill="#DFDFDF"/>
<path d="M106.335 26.7585H110.847V44.0467H115.551V47.6696H106.335V26.7585Z" fill="#DFDFDF"/>
<path d="M117.394 42.2034V41.5042H121.78V42.3305C121.78 44.0466 122.225 44.5551 123.305 44.5551C124.259 44.5551 124.703 43.983 124.703 42.6483V42.3941C124.703 40.5508 123.686 39.9152 121.78 38.7076C119.047 36.9915 117.648 35.4025 117.648 31.9703V31.8432C117.648 28.3475 119.682 26.4407 123.305 26.4407C126.864 26.4407 128.835 28.1568 128.898 31.8432V32.4788H124.64V31.7797C124.64 30.3178 124.068 29.9364 123.305 29.9364C122.479 29.9364 122.034 30.3814 122.034 31.589V31.7161C122.034 33.178 122.67 33.75 124.513 34.9576C126.992 36.5466 129.153 37.8178 129.153 41.8856V42.2669C129.153 46.0805 127.055 47.9873 123.369 47.9873C119.746 47.9873 117.458 46.3347 117.394 42.2034Z" fill="#DFDFDF"/>
</g>
<defs>
<clipPath id="clip0_9_10">
<rect width="150" height="48" fill="white"/>
</clipPath>
</defs>
</svg>
