<svg width="80" height="70" viewBox="0 0 80 70" fill="none" xmlns="http://www.w3.org/2000/svg">
<g clip-path="url(#clip0_9_36)">
<mask id="mask0_9_36" style="mask-type:luminance" maskUnits="userSpaceOnUse" x="0" y="0" width="80" height="70">
<path d="M0 0.399902H79.3862V69.4011H0V0.399902Z" fill="#E4E4E4"/>
</mask>
<g mask="url(#mask0_9_36)">
<path fill-rule="evenodd" clip-rule="evenodd" d="M39.1818 66.774C44.7794 66.774 50.377 66.74 55.9738 66.7996C57.2682 66.8136 58.0294 66.3868 58.6774 65.2548C64.1718 55.6608 69.7002 46.0864 75.2798 36.542C75.9774 35.3488 75.9846 34.4592 75.285 33.2624C69.705 23.7184 64.1762 14.144 58.6818 4.55037C58.035 3.42157 57.2806 2.99397 55.983 2.99912C44.9218 3.04277 33.8602 3.04237 22.7986 2.99912C21.5058 2.99437 20.7434 3.40957 20.095 4.54197C14.601 14.136 9.07216 23.71 3.49296 33.2548C2.79576 34.4472 2.78736 35.3368 3.48736 36.5344C9.06816 46.078 14.5966 55.6528 20.0914 65.2464C20.7378 66.3744 21.4906 66.8148 22.7898 66.8003C28.253 66.7384 33.7178 66.774 39.1818 66.774ZM79.3862 35.1012C78.4738 35.4584 78.2818 36.3872 77.8646 37.1056C71.9438 47.3008 66.0318 57.5012 60.1742 67.7328C59.5026 68.9064 58.791 69.4084 57.381 69.4012C45.3854 69.3392 33.389 69.3392 21.3934 69.4012C19.9846 69.408 19.2714 68.9092 18.599 67.7344C12.6082 57.2724 6.57736 46.8324 0.494561 36.4236C-0.169439 35.2876 -0.161839 34.4964 0.499361 33.3644C6.58176 22.9552 12.6142 12.516 18.6022 2.05237C19.279 0.869966 20.0026 0.394366 21.3998 0.401166C33.3954 0.460366 45.3918 0.461566 57.3874 0.399489C58.7958 0.392366 59.5046 0.891966 60.1762 2.06557C66.033 12.298 71.9454 22.498 77.8662 32.6932C78.2838 33.412 78.4798 34.338 79.3862 34.7012V35.1012Z" fill="#DFDFDF"/>
</g>
<path fill-rule="evenodd" clip-rule="evenodd" d="M60.6614 33.8589C60.6614 31.5333 60.6918 29.2069 60.6486 26.8817C60.6278 25.7577 60.3338 24.6465 58.9218 24.6657C57.5094 24.6845 57.2658 25.7849 57.263 26.9253C57.253 31.5769 57.2534 36.2285 57.2658 40.8801C57.269 42.0345 57.5674 43.1229 58.9642 43.1025C60.3454 43.0825 60.6374 41.9669 60.6534 40.8361C60.687 38.5109 60.6638 36.1849 60.6614 33.8589ZM55.1178 33.8117C55.1178 31.4125 55.033 29.0097 55.1402 26.6157C55.2614 23.9093 56.3362 22.8677 58.7578 22.8101C61.3378 22.7489 62.4878 23.5601 62.6646 26.2573C62.9998 31.3737 63.033 36.5141 62.6438 41.6289C62.4494 44.1825 61.2814 45.0049 58.823 44.9625C56.4462 44.9213 55.3154 43.9477 55.1678 41.4065C55.021 38.8829 55.1358 36.3441 55.1358 33.8117H55.1178Z" fill="#DFDFDF"/>
<path fill-rule="evenodd" clip-rule="evenodd" d="M34.524 32.6825C34.524 35.2789 34.5728 37.8761 34.5112 40.4709C34.442 43.3901 32.9572 44.9141 30.2808 44.9601C27.4992 45.0081 25.8892 43.4637 25.852 40.4765C25.7864 35.2181 25.8256 29.9585 25.8228 24.6993C25.8224 23.8749 25.7912 23.0457 27.006 23.0773C28.268 23.1097 28.0664 24.0225 28.068 24.7925C28.0784 29.9185 28.0756 35.0445 28.0776 40.1705C28.078 41.2661 28.1292 42.3509 29.3892 42.8065C31.0372 43.4025 32.2528 42.4269 32.2712 40.3761C32.3136 35.6497 32.2876 30.9233 32.2892 26.1969C32.2892 25.7309 32.276 25.2641 32.2932 24.7989C32.3216 24.0321 32.088 23.1065 33.352 23.0793C34.7412 23.0497 34.524 24.0625 34.5296 24.8937C34.5472 27.4901 34.536 30.0861 34.536 32.6825H34.524Z" fill="#DFDFDF"/>
<path fill-rule="evenodd" clip-rule="evenodd" d="M16.6746 33.7908C16.6746 31.3324 16.497 28.858 16.7206 26.4208C16.9878 23.5116 19.749 22.0248 22.4786 23.0836C24.1718 23.74 25.3034 26.6676 24.4574 28.1612C24.2618 28.5064 23.9734 28.5824 23.6338 28.5836C23.2338 28.5852 22.8146 28.5928 22.6554 28.1068C22.5938 27.9196 22.5638 27.72 22.5354 27.524C22.3546 26.2736 22.3494 24.7244 20.561 24.8764C18.7234 25.0324 18.8578 26.6576 18.845 27.9652C18.8066 31.9544 18.8206 35.9444 18.8378 39.9336C18.8402 40.5256 18.8946 41.1384 19.0582 41.7028C19.2522 42.3716 19.7002 42.8576 20.4822 42.8972C21.3238 42.9392 21.9294 42.5516 22.1746 41.7844C22.3946 41.0964 22.4618 40.3568 22.5694 39.6356C22.6506 39.0896 22.9182 38.8124 23.489 38.8188C23.991 38.8244 24.4838 38.8848 24.501 39.4996C24.545 41.0724 24.9526 42.7828 23.599 44.0172C22.295 45.2064 20.6974 45.1732 19.091 44.6712C17.475 44.166 16.7306 42.9316 16.6726 41.3656C16.579 38.844 16.6474 36.3164 16.6474 33.7912C16.6566 33.7912 16.6658 33.7908 16.6746 33.7908Z" fill="#DFDFDF"/>
<path fill-rule="evenodd" clip-rule="evenodd" d="M44.7036 44.709C44.304 44.709 43.9044 44.7102 43.5048 44.709C40.8672 44.6978 40.1876 43.7502 41.2644 41.2894C42.4372 38.6082 43.7608 35.9922 45.0396 33.3586C46.0828 31.2102 46.5308 28.9566 46.322 26.5778C46.2352 25.5862 45.9656 24.6402 44.7444 24.6714C43.6424 24.6994 43.3896 25.591 43.3128 26.5074C43.244 27.337 43.498 28.3654 42.0756 28.2194C40.6296 28.0706 41.148 26.9486 41.1732 26.2186C41.2592 23.6994 42.2856 22.7934 44.8284 22.8088C47.3108 22.8242 48.3172 23.7858 48.4872 26.283C48.6812 29.1254 48.3 31.837 46.9564 34.409C45.8172 36.5902 44.8492 38.8598 43.7632 41.0694C43.2192 42.1762 43.4784 42.6762 44.7308 42.6582C45.6624 42.6442 46.5952 42.6678 47.5268 42.6958C48.1124 42.7134 48.5692 42.9154 48.6064 43.6066C48.6492 44.393 48.1988 44.6754 47.5 44.6838C46.568 44.6946 45.636 44.6862 44.7036 44.6862V44.709Z" fill="#DFDFDF"/>
<path fill-rule="evenodd" clip-rule="evenodd" d="M51.963 41.6146C53.2866 41.397 53.275 42.257 53.2898 43.197C53.3042 44.1222 53.1342 44.703 52.0142 44.7142C50.8706 44.7254 50.501 44.2206 50.517 43.155C50.5318 42.1558 50.7174 41.417 51.963 41.6146Z" fill="#DFDFDF"/>
</g>
<defs>
<clipPath id="clip0_9_36">
<rect width="80" height="70" fill="white"/>
</clipPath>
</defs>
</svg>
