<svg width="90" height="62" viewBox="0 0 90 62" fill="none" xmlns="http://www.w3.org/2000/svg">
<g clip-path="url(#clip0_9_84)">
<mask id="mask0_9_84" style="mask-type:luminance" maskUnits="userSpaceOnUse" x="0" y="0" width="90" height="62">
<path d="M90 0.0986328H0V61.6586H90V0.0986328Z" fill="white"/>
</mask>
<g mask="url(#mask0_9_84)">
<path d="M45 0.105225H0V15.0018H14.8965V45.7259H30.1034V15.0018H45V0.105225ZM59.8965 0.105225H89.9999V15.0018H59.8965V0.105225ZM59.8965 30.0377V15.0018H45V45.7259H89.9999V30.0597L59.8965 30.0377Z" fill="#DFDFDF"/>
<path d="M6.2069 51.9338V61.2441H3.72414V51.9338H0V50.0718H9.31035V51.9338H6.2069ZM16.2838 57.52H11.1206C11.2025 58.7614 12.0743 59.3305 12.8967 59.3305C13.5217 59.3305 14.0474 59.1918 14.3767 58.8126L15.988 60.2063C15.2975 61.0939 14.0474 61.6271 12.8967 61.6271C10.4136 61.6271 8.8349 59.8792 8.8349 57.1494C8.8349 54.5019 10.4956 52.6492 12.6832 52.6492C14.9856 52.6492 16.317 54.5078 16.317 56.9747C16.317 57.3052 16.3006 57.52 16.2838 57.52ZM12.568 54.7325C11.7456 54.7325 11.236 55.0372 11.1538 56.2786H14.1139C14.0481 55.0372 13.5875 54.7325 12.568 54.7325ZM21.7269 61.6513C19.4738 61.6513 17.6819 59.8094 17.6819 57.1619C17.6819 54.5143 19.4251 52.656 21.8256 52.656C23.4701 52.656 24.5225 53.4619 25.2462 54.564L23.7501 56.0766C23.2402 55.3529 22.6977 54.843 21.7769 54.843C20.6913 54.843 19.9843 55.7473 19.9843 57.1612C19.9843 58.5432 20.6913 59.4643 21.7769 59.4643C22.6645 59.4643 23.2237 59.0698 23.8162 58.3626L25.263 59.7272C24.4238 60.8456 23.4369 61.6513 21.7269 61.6513ZM31.9655 61.2441V56.8C31.9655 55.2548 31.6698 54.7942 30.7322 54.7942C29.7947 54.7942 29.4828 55.2551 29.4828 56.7516V61.2447H27V50.6183L29.4828 49.4827V53.4138C29.4828 53.0026 30.4774 52.6575 31.3818 52.6575C33.5855 52.6575 34.4483 54.1701 34.4483 56.6039V61.2447L31.9655 61.2441Z" fill="#DFDFDF"/>
<path d="M43.5148 53.3139C43.1035 52.525 42.4459 52.0642 41.4103 52.0642C39.6836 52.0642 38.6973 53.5774 38.6973 55.7147C38.6973 57.7866 39.7003 59.3653 41.4268 59.3653C42.4636 59.3653 43.0719 58.9215 43.6799 57.902L45.6204 59.0528C44.8315 60.6808 43.4493 61.651 41.3616 61.651C38.3522 61.651 36.329 59.3479 36.329 55.7141C36.329 52.2116 38.4335 49.7779 41.4429 49.7779C43.6141 49.7779 44.9296 50.8302 45.6524 52.3261L43.5148 53.3139ZM51.9673 55.4844C51.6054 55.1552 51.2392 54.9252 50.7296 54.9252C49.8424 54.9252 49.3446 55.3045 49.3446 56.7997V61.2438H46.8618V52.5542H49.3446V53.4129C49.9653 53.0017 50.2371 52.6566 51.0431 52.6566C51.7826 52.6566 52.3022 52.9521 52.5979 53.2649L51.9673 55.4844ZM59.2756 61.1668V60.895C58.6549 61.3059 58.2809 61.6513 57.3766 61.6513C55.1725 61.6513 54.3101 60.138 54.3101 57.705V52.5545H56.1721V57.507C56.1721 59.0528 56.7782 59.5133 57.7161 59.5133C58.6521 59.5133 59.2756 59.0522 59.2756 57.5557V52.5542H61.7583V61.2438H59.1781L59.2756 61.1668ZM68.2756 61.2441V56.8C68.2756 55.2548 68.135 54.7942 67.1971 54.7942C66.2611 54.7942 66.1032 55.2551 66.1032 56.7516V61.2447H63.6204V52.5551H66.1032V53.4138C66.1032 53.0026 66.9426 52.6575 67.847 52.6575C70.051 52.6575 70.7583 54.1701 70.7583 56.6039V61.2447L68.2756 61.2441ZM76.7641 61.6513C74.511 61.6513 72.7194 59.8094 72.7194 57.1619C72.7194 54.5143 74.4626 52.656 76.8631 52.656C78.5082 52.656 79.5603 53.4619 80.2834 54.564L78.7882 56.0766C78.2776 55.3529 77.7358 54.843 76.8153 54.843C75.7291 54.843 75.0218 55.7473 75.0218 57.1612C75.0218 58.5432 75.7291 59.4643 76.8153 59.4643C77.702 59.4643 78.2621 59.0698 78.8543 58.3626L80.3011 59.7272C79.4604 60.8456 78.4744 61.6513 76.7641 61.6513ZM86.8962 61.4707V56.8C86.8962 55.2548 86.6005 54.7942 85.6626 54.7942C84.7266 54.7942 84.4135 55.2551 84.4135 56.7516V61.2447H81.9307V50.6183L84.4135 49.4827V53.4138C84.4135 53.0026 85.4081 52.6575 86.3125 52.6575C88.5165 52.6575 89.379 54.1701 89.379 56.6039V61.2447H86.9546L86.8962 61.4707Z" fill="#DFDFDF"/>
</g>
</g>
<defs>
<clipPath id="clip0_9_84">
<rect width="90" height="62" fill="white"/>
</clipPath>
</defs>
</svg>
