<svg width="91" height="50" viewBox="0 0 91 50" fill="none" xmlns="http://www.w3.org/2000/svg">
<g clip-path="url(#clip0_9_51)">
<path opacity="0.7" d="M16.2618 1.36527V2.3329L17.1548 2.53944C18.5273 2.88462 18.734 3.71361 19.2824 6.3378L20.7112 13.7152L16.7287 35.2648L11.3048 8.18818C10.686 5.21739 10.4807 3.00769 12.6787 2.52388L13.7081 2.31734V1.36527H0.883057V2.3329L2.18806 2.67949C3.49306 3.02467 4.04149 3.6457 4.93446 7.72134L13.6532 49.2317H15.9032L21.7392 17.8743L28.2079 49.2317H29.9938L38.3709 9.00444C39.3327 4.3785 39.7448 3.06286 41.3943 2.63847L42.6979 2.29187V1.36527H33.276V2.3329L34.7174 2.60876C36.7776 3.02325 37.2571 4.33464 36.2952 9.65377L31.1596 35.2648L25.9565 8.18818C25.394 5.49467 25.0635 3.00769 27.3304 2.5932L28.8407 2.31734V1.34971L16.2618 1.36527ZM77.3549 1.49542V2.46305L79.0706 2.87754C80.5795 3.22272 81.1982 3.77585 81.1982 5.70969V39.2089C81.1982 42.9379 81.1982 47.8425 77.3521 47.8425C75.1556 47.8425 73.4427 45.9087 73.5777 44.5959C73.7142 42.4555 77.4224 42.5927 77.6277 39.1395C77.8345 36.7346 76.3227 35.6029 74.8124 35.4091C72.6848 35.1332 70.0762 36.9284 70.0059 40.5202C69.9384 45.1462 72.959 49.359 78.1059 49.359C83.8012 49.359 87.5277 45.4942 87.5277 38.1026L87.5292 5.7776C87.5292 3.84376 88.0101 3.22131 89.3826 2.87754L90.8831 2.44749V1.47986L77.3549 1.49542ZM54.2221 1.20117C48.3862 1.20117 45.0913 6.1058 45.0913 12.5283C45.0913 24.478 60.4026 29.1053 60.4026 39.8808C60.4026 44.992 58.2735 47.8227 55.1995 47.8227C50.601 47.8227 47.3034 42.2306 46.4807 33.3196H45.4513V49.0676H46.2754C46.9617 46.8042 47.8546 46.5821 48.6098 46.5821C49.9148 46.5821 51.2859 49.3407 55.2684 49.3407C61.3785 49.3407 65.3596 44.0244 65.3624 36.6992C65.3624 22.3334 50.0512 18.8109 50.0512 8.51921C50.0512 6.17087 50.7374 2.7191 54.1715 2.7191C59.1159 2.7191 61.2449 9.2803 62.0676 17.2236H63.097V1.47845H62.2729C61.9298 2.99779 61.3124 3.68814 60.4195 3.68814C58.8402 3.68814 58.0288 1.20259 54.2404 1.20259L54.2221 1.20117ZM65.2752 14.7465V14.9163L65.3076 14.8965L65.2907 14.755L65.2752 14.7465Z" fill="#DFDFDF"/>
</g>
<defs>
<clipPath id="clip0_9_51">
<rect width="91" height="49" fill="white" transform="translate(0 0.5)"/>
</clipPath>
</defs>
</svg>
