<svg width="150" height="32" viewBox="0 0 150 32" fill="none" xmlns="http://www.w3.org/2000/svg">
<g clip-path="url(#clip0_9_92)">
<path d="M0 0.142578V31.6147H30.0793V0.142578H0ZM20.4888 9.19573C19.0472 12.0844 17.5667 14.9513 16.1117 17.8323C16.0593 17.944 16.0345 18.0676 16.0399 18.192C16.0425 20.251 16.0399 22.3107 16.0412 24.3698C15.3392 24.3705 14.6373 24.3747 13.9353 24.367C13.9427 22.3571 13.9333 20.3472 13.94 18.3374C13.9373 18.1217 13.9635 17.8906 13.8493 17.6988C12.5085 15.0686 11.163 12.4413 9.8296 9.80761C9.53471 9.19854 9.20152 8.60914 8.93551 7.98532C9.06785 7.95441 9.19951 7.91928 9.33587 7.91507C9.98209 7.90102 10.6276 7.94317 11.2732 7.96424C11.3753 7.94738 11.4109 8.04644 11.4485 8.12371C12.4326 10.2326 13.4026 12.35 14.3961 14.4547C14.6097 14.8916 14.8012 15.3412 15.043 15.7627C15.2465 15.4171 15.4118 15.0483 15.5911 14.6886C16.7069 12.4413 17.7622 10.161 18.8605 7.90453C19.5873 7.92771 20.3215 7.85254 21.0423 7.97689C20.9113 8.40752 20.6756 8.79039 20.4888 9.19573Z" fill="#DFDFDF"/>
<path d="M109.39 14.4752C109.358 13.9561 109.286 13.406 108.975 12.9803C108.594 12.3923 107.984 12.0193 107.356 11.7875C106.285 11.3695 105.113 11.7685 104.174 12.3516C103.685 12.641 103.284 13.059 102.809 13.3667C102.75 12.7871 102.618 12.2174 102.415 11.6744C101.852 11.6856 101.312 11.8907 100.779 12.0664C100.879 12.5392 101.032 13.0021 101.05 13.4903C101.137 15.2213 101.124 16.9551 101.139 18.6882C101.147 20.3721 101.187 22.0553 101.189 23.7392C101.715 23.7567 102.242 23.7539 102.768 23.7427C102.777 20.7725 102.758 17.8016 102.778 14.8321C103.478 14.2181 104.253 13.6821 105.113 13.347C105.504 13.196 105.928 13.2121 106.338 13.2297C106.893 13.2445 107.393 13.6962 107.555 14.2364C107.686 15.3632 107.629 16.502 107.655 17.6344C107.659 19.6703 107.698 21.7054 107.698 23.7406C108.3 23.7553 108.901 23.7574 109.503 23.7392C109.499 22.5006 109.475 21.2621 109.476 20.0229C109.454 18.1739 109.485 16.3228 109.39 14.4752Z" fill="#DFDFDF"/>
<path d="M97.1944 11.5969C96.62 11.7135 96.0437 11.8182 95.4646 11.9067C95.4404 12.4343 95.4545 12.9625 95.4512 13.4901C95.4566 16.9071 95.4404 20.3248 95.4592 23.7417C96.0584 23.7551 96.6576 23.7551 97.2568 23.741C97.2568 21.3546 97.2588 18.9675 97.2562 16.5804C97.242 14.9197 97.2676 13.2562 97.1944 11.5969Z" fill="#DFDFDF"/>
<path d="M146.974 12.714C146.728 12.9683 146.496 13.2395 146.218 13.4566C146.188 12.8173 146.131 12.1598 145.843 11.5823C145.296 11.7116 144.76 11.8844 144.221 12.0431C144.26 12.5286 144.41 12.9971 144.423 13.4868C144.492 14.8679 144.472 16.2525 144.482 17.6351C144.485 19.6702 144.476 21.7061 144.486 23.7412C145.086 23.7553 145.687 23.7553 146.288 23.7412C146.291 21.9168 146.287 20.0924 146.29 18.2673C146.283 17.588 146.297 16.9087 146.326 16.2294C146.347 15.7615 146.289 15.2318 146.587 14.8391C146.893 14.431 147.271 14.0867 147.699 13.8247C148.134 13.5697 148.647 13.5823 149.131 13.5704C149.208 13.5507 149.344 13.5844 149.377 13.4805C149.605 12.9171 149.757 12.322 150 11.7643V11.6188C148.89 11.4109 147.758 11.9019 146.974 12.714Z" fill="#DFDFDF"/>
<path d="M60.7752 13.861C60.2244 12.8747 59.3182 12.1273 58.2884 11.757C57.8397 11.6025 57.3621 11.6292 56.8966 11.613C56.5036 11.6095 56.1086 11.5898 55.7177 11.6418C55.2152 11.7437 54.7463 11.9825 54.3124 12.2607C53.3679 12.8796 52.6941 13.8828 52.3455 14.9801C51.976 16.0929 51.9975 17.2878 52.0244 18.4491C52.0654 19.6497 52.2911 20.891 52.9595 21.8934C53.5607 22.8285 54.4702 23.5507 55.5181 23.8387C56.6836 24.1667 57.9734 24.0579 59.0508 23.4755C60.1344 22.9015 60.9445 21.8309 61.3146 20.6296C61.7123 19.349 61.67 17.9826 61.6115 16.6549C61.5739 15.6665 61.2441 14.7118 60.7752 13.861ZM59.5882 19.8667C59.4982 20.5475 59.2416 21.2169 58.7956 21.7284C58.2441 22.3304 57.4017 22.5489 56.6265 22.4962C55.8137 22.4372 54.9666 22.0445 54.5535 21.2774C54.1753 20.546 54.0262 19.7136 53.9315 18.8966C53.8744 18.2208 53.818 17.5407 53.8791 16.8628C53.9328 15.9524 54.0013 14.9864 54.4763 14.1926C54.8101 13.6362 55.3804 13.2744 55.9843 13.1255C56.7152 12.945 57.5246 13.0054 58.1809 13.4079C58.6491 13.6854 59.0159 14.1167 59.2262 14.6352C59.5721 15.4684 59.6312 16.3893 59.6695 17.285C59.6836 18.1456 59.7024 19.0118 59.5882 19.8667Z" fill="#DFDFDF"/>
<path d="M79.0963 14.2469C79.0647 13.8865 79.0231 13.5198 78.8874 13.184C78.7477 12.8398 78.479 12.582 78.2264 12.3284C77.6675 11.772 76.8681 11.5044 76.1044 11.5957C75.27 11.6807 74.4928 12.0713 73.811 12.5637C73.4181 12.8419 73.0788 13.2065 72.6409 13.4109C72.4434 13.0597 72.2633 12.686 71.9765 12.4029C71.7044 12.1282 71.3639 11.9483 71.03 11.7734C70.8339 11.6701 70.6216 11.5971 70.4026 11.5816C69.4319 11.5381 68.4821 11.9104 67.7002 12.4956C67.3576 12.7351 67.0708 13.0548 66.7033 13.2543C66.6597 12.6803 66.5253 12.119 66.305 11.5915C65.7662 11.6954 65.2349 11.8359 64.7136 12.0109C64.7613 12.3073 64.854 12.5932 64.9051 12.889C64.9897 13.5536 64.989 14.2244 65.0052 14.8932C65.0817 17.8409 65.0468 20.7907 65.0965 23.7377C65.6232 23.7574 66.1512 23.756 66.6785 23.7391C66.6731 20.8603 66.6805 17.9807 66.6751 15.1019C66.6758 14.9817 66.665 14.837 66.7765 14.7626C67.4637 14.1205 68.2477 13.5346 69.1565 13.3063C69.7396 13.1559 70.4664 13.2697 70.8332 13.8128C71.079 14.3172 71.0253 14.9059 71.0576 15.4545C71.0999 15.9926 71.0844 16.5336 71.0891 17.0731C71.0911 19.2958 71.0905 21.5178 71.0898 23.7405C71.6903 23.7567 72.2922 23.7539 72.8934 23.7434C72.9001 20.8856 72.8961 18.0278 72.8954 15.1707C72.9042 15.0808 72.88 14.9649 72.9572 14.901C73.2058 14.6677 73.4711 14.4549 73.7264 14.2294C74.2651 13.7734 74.8623 13.3056 75.5764 13.2353C75.9787 13.2114 76.4228 13.1847 76.7754 13.4278C77.0817 13.6589 77.2839 14.0116 77.3336 14.4029C77.429 15.6182 77.4015 16.8385 77.4069 18.0566C77.4069 19.9512 77.4082 21.8452 77.4062 23.7398C78.0101 23.7574 78.614 23.7532 79.2186 23.7441C79.2179 22.4802 79.2091 21.2172 79.2091 19.9533C79.1379 18.0524 79.2293 16.1458 79.0963 14.2469Z" fill="#DFDFDF"/>
<path d="M140.043 13.5043C139.427 12.6009 138.519 11.9609 137.486 11.7017C136.794 11.5598 136.083 11.5387 135.384 11.6405C134.583 11.7452 133.833 12.1098 133.241 12.6831C132.438 13.4537 131.921 14.5082 131.661 15.6048C131.471 16.5721 131.489 17.5661 131.506 18.5482C131.547 19.1313 131.577 19.7235 131.749 20.2848C132.066 21.3983 132.652 22.4689 133.571 23.1531C134.618 23.9315 135.977 24.1633 137.229 23.9343C138.261 23.739 139.265 23.2115 139.913 22.3319C140.714 21.2332 141.119 19.8514 141.15 18.4773C141.179 17.6315 141.134 16.785 141.015 15.9483C140.861 15.0751 140.538 14.2279 140.043 13.5043ZM139.128 18.9705C139.081 19.5999 139.055 20.2476 138.825 20.8398C138.629 21.3393 138.321 21.8142 137.866 22.0875C137.193 22.4963 136.365 22.5848 135.611 22.4085C135.08 22.287 134.569 22.0088 134.217 21.5676C133.849 21.125 133.673 20.5504 133.57 19.9842C133.421 19.1398 133.423 18.2792 133.4 17.4242C133.419 16.5194 133.376 15.5809 133.715 14.7266C133.989 13.9096 134.671 13.2085 135.518 13.1116C136.107 13.0287 136.726 13.0132 137.296 13.2155C137.837 13.4706 138.304 13.904 138.62 14.4288C138.987 15.1285 139.069 15.9413 139.13 16.7238C139.17 17.472 139.163 18.2223 139.128 18.9705Z" fill="#DFDFDF"/>
<path d="M129.098 13.2549C129.28 12.8236 129.452 12.388 129.614 11.9482C128.678 11.9082 127.742 11.9082 126.806 11.885C126.844 10.7343 126.925 9.5864 127.012 8.43921C126.416 8.55091 125.825 8.69422 125.248 8.88811C125.094 9.87934 125.077 10.8861 125.002 11.8857C124.513 11.9005 124.023 11.8892 123.533 11.8934C123.52 12.3473 123.517 12.8018 123.536 13.2556C124.034 13.2563 124.532 13.2514 125.031 13.2584C125.039 14.6473 125.032 16.0354 125.035 17.4242C125.041 18.7822 125.019 20.1415 125.076 21.4981C125.131 22.1156 125.094 22.8462 125.567 23.3056C126.141 23.947 127.032 24.0798 127.832 24.046C128.398 23.9933 128.987 23.9393 129.5 23.6597C129.519 23.2803 129.449 22.9024 129.297 22.5574C128.731 22.7021 128.135 22.7506 127.564 22.6136C127.221 22.5125 126.881 22.2336 126.854 21.8374C126.751 20.8855 126.799 19.9252 126.777 18.9698C126.79 18.126 126.733 17.2844 126.742 16.4414C126.742 15.38 126.731 14.3192 126.734 13.2577C127.521 13.2514 128.31 13.2577 129.098 13.2549Z" fill="#DFDFDF"/>
<path d="M121.065 22.0593C120.927 21.4868 120.948 20.8904 120.934 20.3045C120.914 18.3333 120.993 16.3606 120.928 14.3901C120.895 13.0652 119.852 11.9166 118.63 11.6749C118.141 11.5963 117.644 11.6187 117.152 11.6152C115.752 11.6047 114.433 12.2053 113.23 12.8987C113.08 12.976 112.92 13.1249 113.019 13.3139C113.221 13.6918 113.473 14.0382 113.711 14.3929C114.603 13.7248 115.632 13.2352 116.729 13.0954C117.31 13.0076 117.938 13.0146 118.469 13.3076C118.912 13.5612 119.143 14.0782 119.212 14.5833C119.294 15.1776 119.338 15.779 119.314 16.3796C118.726 16.4063 118.136 16.4091 117.549 16.4632C116.266 16.5615 114.93 16.832 113.878 17.6532C112.999 18.3283 112.444 19.4425 112.453 20.5869C112.423 21.7776 112.994 23.0154 114.022 23.5831C114.655 23.9111 115.375 24.0334 116.078 24.0165C116.861 24.0284 117.638 23.7685 118.297 23.3316C118.675 23.0934 118.973 22.7408 119.361 22.5195C119.603 23.0218 119.901 23.5149 120.339 23.8542C120.504 23.9807 120.748 24.1675 120.944 23.9954C121.282 23.6933 121.495 23.2747 121.755 22.903C121.491 22.6593 121.147 22.4457 121.065 22.0593ZM119.153 20.5623C119.127 21.106 118.757 21.5367 118.377 21.8668C117.923 22.2469 117.397 22.5785 116.809 22.6529C116.318 22.6986 115.806 22.6789 115.345 22.4773C114.947 22.3052 114.687 21.9104 114.527 21.5079C114.365 21.1039 114.418 20.6557 114.427 20.23C114.448 19.8457 114.446 19.4341 114.643 19.0941C114.987 18.4808 115.583 18.0551 116.231 17.8626C116.771 17.7045 117.335 17.6708 117.891 17.616C118.336 17.5753 118.777 17.6813 119.223 17.6666C119.211 18.6318 119.228 19.5999 119.153 20.5623Z" fill="#DFDFDF"/>
<path d="M47.2973 22.2722C46.7505 22.4204 46.1789 22.4127 45.6193 22.3804C44.5566 22.2687 43.5127 21.7699 42.8061 20.9199C41.9993 19.9792 41.5889 18.7337 41.4391 17.4966C41.3873 16.6065 41.427 15.7129 41.4612 14.8222C41.4713 14.152 41.5083 13.4797 41.6245 12.8193C41.7548 12.1428 42.0161 11.5014 42.3284 10.8973C42.7805 10.0395 43.5006 9.32367 44.382 8.97312C45.4353 8.52914 46.6357 8.61273 47.6916 9.00262C48.1249 9.15647 48.5105 9.4171 48.9008 9.65946C49.2051 9.26536 49.5268 8.88109 49.7707 8.44062C49.4368 8.13152 49.0318 7.9292 48.6301 7.73671C47.6493 7.26182 46.5443 7.18244 45.4782 7.20281C44.431 7.21686 43.4294 7.66927 42.5703 8.27062C41.4129 9.10308 40.6155 10.3739 40.0842 11.7136C39.6428 12.7814 39.4635 13.9482 39.4433 15.1053C39.3775 15.7164 39.4426 16.329 39.4702 16.9395C39.54 17.7607 39.669 18.5826 39.933 19.3617C40.3246 20.518 40.9749 21.5901 41.8629 22.3979C42.6327 23.0906 43.5591 23.6182 44.5573 23.8353C45.9451 23.9751 47.3994 23.9631 48.7107 23.4074C49.197 23.1981 49.6706 22.9571 50.1294 22.6874C49.8365 22.2574 49.5248 21.8387 49.1661 21.4664C48.5515 21.7544 47.9623 22.1198 47.2973 22.2722Z" fill="#DFDFDF"/>
<path d="M97.6733 7.7956C97.5403 7.4296 97.2985 7.11768 96.9834 6.90623C96.6354 6.75028 96.2458 6.7299 95.8851 6.84792C95.2369 7.1219 94.8627 7.95577 95.1059 8.64844C95.2893 9.26102 95.9389 9.62281 96.53 9.55396C97.2951 9.46404 97.9057 8.5817 97.6733 7.7956Z" fill="#DFDFDF"/>
<path d="M89.7273 12.0296C88.7244 11.4809 87.4904 11.4866 86.4619 11.9593C85.8191 12.227 85.2871 12.6984 84.7443 13.1346C84.7255 12.1286 84.7315 11.1227 84.6872 10.1181C84.6845 9.06225 84.6496 8.0071 84.5824 6.95404C84.5576 6.72995 84.5159 6.38853 84.2385 6.37518C83.7374 6.36886 83.2503 6.52903 82.7674 6.64986C83.0025 7.95581 82.897 9.28987 82.9689 10.6091C82.9823 14.0057 83.0273 17.403 82.9857 20.7996C82.9608 21.7677 82.9554 22.7463 82.7297 23.6911C83.2893 23.7874 83.8596 23.7459 84.4245 23.7396C84.5448 23.3336 84.6382 22.9198 84.7618 22.5158C85.0687 22.773 85.3509 23.0659 85.6861 23.2851C86.7434 23.9897 88.1191 24.1513 89.2974 23.7003C90.0329 23.4242 90.6348 22.8544 91.0929 22.2046C91.8668 21.0834 92.2215 19.7023 92.3175 18.3374C92.3773 17.1691 92.292 15.9741 91.9373 14.8586C91.5584 13.6826 90.8054 12.5937 89.7273 12.0296ZM90.7282 18.6303C90.6375 19.4845 90.4897 20.3599 90.0685 21.1108C89.7723 21.6412 89.2826 22.0536 88.7096 22.2053C87.526 22.5215 86.2201 22.1028 85.3462 21.2267C85.234 21.108 85.0694 20.997 85.1003 20.8052C85.1003 19.0012 85.1017 17.1979 85.1003 15.3939C85.1023 15.1691 85.0855 14.9436 85.1131 14.7202C85.7029 14.0409 86.4223 13.3917 87.3238 13.2597C87.8182 13.2168 88.326 13.2035 88.8137 13.3166C89.4142 13.4515 89.9194 13.8975 90.2264 14.4434C90.6032 15.1094 90.7409 15.8919 90.7745 16.6563C90.8444 17.3138 90.7665 17.9735 90.7282 18.6303Z" fill="#DFDFDF"/>
</g>
<defs>
<clipPath id="clip0_9_92">
<rect width="150" height="32" fill="white"/>
</clipPath>
</defs>
</svg>
